M48
; DRILL file {KiCad 9.0.0} date 2025-02-28T11:04:38+0700
; FORMAT={-:-/ absolute / metric / decimal}
; #@! TF.CreationDate,2025-02-28T11:04:38+07:00
; #@! TF.GenerationSoftware,Kicad,Pcbnew,9.0.0
; #@! TF.FileFunction,Plated,1,2,PTH
FMAT,2
METRIC
; #@! TA.AperFunction,Plated,PTH,ViaDrill
T1C0.300
; #@! TA.AperFunction,Plated,PTH,ComponentDrill
T2C0.500
; #@! TA.AperFunction,Plated,PTH,ComponentDrill
T3C0.800
; #@! TA.AperFunction,Plated,PTH,ComponentDrill
T4C0.850
; #@! TA.AperFunction,Plated,PTH,ComponentDrill
T5C1.000
%
G90
G05
T1
X21.6Y-58.4
X21.6Y-59.4
X22.3Y-54.4
X22.8Y-91.1
X22.82Y-92.9
X23.0Y-53.7
X23.1Y-49.3
X23.6Y-83.2
X24.0Y-59.5
X25.5Y-59.482
X26.6Y-50.9
X27.1Y-70.7
X27.1Y-74.5
X27.391Y-81.594
X27.8Y-73.2
X28.1Y-82.473
X28.3Y-92.1
X28.5Y-72.5
X28.746Y-81.554
X29.1Y-69.7
X29.3Y-64.3
X29.373Y-92.2
X30.0Y-91.5
X30.1Y-69.8
X30.8Y-70.6
X31.1Y-85.7
X31.1Y-86.7
X31.457Y-68.957
X31.9Y-73.2
X31.9Y-74.527
X32.6Y-71.9
X32.7Y-65.855
X33.443Y-50.743
X33.6Y-65.227
X33.635Y-66.215
X34.2Y-92.3
X34.3Y-64.6
X34.6Y-66.327
X35.2Y-85.7
X35.8Y-66.327
X37.6Y-47.3
X38.05Y-77.05
X41.3Y-53.8
T2
X36.75Y-56.6
X36.75Y-59.14
T3
X27.52Y-63.4
X32.4Y-63.4
T4
X24.9Y-94.8
X24.9Y-98.5
X35.1Y-94.8
X35.1Y-98.5
T5
X20.0Y-50.0
X20.0Y-52.54
X20.0Y-55.08
X20.0Y-57.62
X20.0Y-60.16
X20.0Y-62.7
X20.0Y-65.24
X20.0Y-67.78
X20.0Y-70.32
X20.0Y-72.86
X20.0Y-75.4
X20.0Y-77.94
X20.0Y-80.48
X20.0Y-83.02
X20.0Y-85.56
X20.0Y-88.1
X20.0Y-90.64
X20.0Y-93.18
X20.0Y-95.72
X20.0Y-98.26
X25.06Y-84.92
X25.06Y-87.46
X25.06Y-90.0
X26.18Y-48.5
X27.6Y-84.92
X27.6Y-87.46
X27.6Y-90.0
X28.72Y-48.5
X31.26Y-48.5
X33.8Y-48.5
X40.0Y-50.0
X40.0Y-52.54
X40.0Y-55.08
X40.0Y-57.62
X40.0Y-60.16
X40.0Y-62.7
X40.0Y-65.24
X40.0Y-67.78
X40.0Y-70.32
X40.0Y-72.86
X40.0Y-75.4
X40.0Y-77.94
X40.0Y-80.48
X40.0Y-83.02
X40.0Y-85.56
X40.0Y-88.1
X40.0Y-90.64
X40.0Y-93.18
X40.0Y-95.72
X40.0Y-98.26
M30
