%TF.GenerationSoftware,KiCad,Pcbnew,9.0.0*%
%TF.CreationDate,2025-02-28T11:04:11+07:00*%
%TF.ProjectId,SMT32_Bluepill,534d5433-325f-4426-9c75-6570696c6c2e,rev?*%
%TF.SameCoordinates,Original*%
%TF.FileFunction,Soldermask,Bot*%
%TF.FilePolarity,Negative*%
%FSLAX46Y46*%
G04 Gerber Fmt 4.6, Leading zero omitted, Abs format (unit mm)*
G04 Created by KiCad (PCBNEW 9.0.0) date 2025-02-28 11:04:11*
%MOMM*%
%LPD*%
G01*
G04 APERTURE LIST*
G04 Aperture macros list*
%AMRoundRect*
0 Rectangle with rounded corners*
0 $1 Rounding radius*
0 $2 $3 $4 $5 $6 $7 $8 $9 X,Y pos of 4 corners*
0 Add a 4 corners polygon primitive as box body*
4,1,4,$2,$3,$4,$5,$6,$7,$8,$9,$2,$3,0*
0 Add four circle primitives for the rounded corners*
1,1,$1+$1,$2,$3*
1,1,$1+$1,$4,$5*
1,1,$1+$1,$6,$7*
1,1,$1+$1,$8,$9*
0 Add four rect primitives between the rounded corners*
20,1,$1+$1,$2,$3,$4,$5,0*
20,1,$1+$1,$4,$5,$6,$7,0*
20,1,$1+$1,$6,$7,$8,$9,0*
20,1,$1+$1,$8,$9,$2,$3,0*%
G04 Aperture macros list end*
%ADD10C,0.010000*%
%ADD11C,1.000000*%
%ADD12C,1.500000*%
%ADD13R,1.700000X1.700000*%
%ADD14O,1.700000X1.700000*%
%ADD15RoundRect,0.200000X0.200000X0.275000X-0.200000X0.275000X-0.200000X-0.275000X0.200000X-0.275000X0*%
%ADD16RoundRect,0.200000X-0.200000X-0.275000X0.200000X-0.275000X0.200000X0.275000X-0.200000X0.275000X0*%
%ADD17RoundRect,0.250000X0.250000X0.475000X-0.250000X0.475000X-0.250000X-0.475000X0.250000X-0.475000X0*%
%ADD18RoundRect,0.225000X0.225000X0.250000X-0.225000X0.250000X-0.225000X-0.250000X0.225000X-0.250000X0*%
%ADD19RoundRect,0.225000X0.250000X-0.225000X0.250000X0.225000X-0.250000X0.225000X-0.250000X-0.225000X0*%
%ADD20RoundRect,0.225000X-0.225000X-0.250000X0.225000X-0.250000X0.225000X0.250000X-0.225000X0.250000X0*%
%ADD21R,0.650000X1.250000*%
G04 APERTURE END LIST*
D10*
%TO.C,U3*%
X25446000Y-93576000D02*
X25467000Y-93577000D01*
X25488000Y-93580000D01*
X25508000Y-93584000D01*
X25529000Y-93589000D01*
X25549000Y-93595000D01*
X25568000Y-93602000D01*
X25588000Y-93610000D01*
X25607000Y-93619000D01*
X25625000Y-93629000D01*
X25643000Y-93640000D01*
X25660000Y-93651000D01*
X25677000Y-93664000D01*
X25693000Y-93678000D01*
X25708000Y-93692000D01*
X25722000Y-93707000D01*
X25736000Y-93723000D01*
X25749000Y-93740000D01*
X25760000Y-93757000D01*
X25771000Y-93775000D01*
X25781000Y-93793000D01*
X25790000Y-93812000D01*
X25798000Y-93832000D01*
X25805000Y-93851000D01*
X25811000Y-93871000D01*
X25816000Y-93892000D01*
X25820000Y-93912000D01*
X25823000Y-93933000D01*
X25824000Y-93954000D01*
X25825000Y-93975000D01*
X25825000Y-95625000D01*
X25824000Y-95646000D01*
X25823000Y-95667000D01*
X25820000Y-95688000D01*
X25816000Y-95708000D01*
X25811000Y-95729000D01*
X25805000Y-95749000D01*
X25798000Y-95768000D01*
X25790000Y-95788000D01*
X25781000Y-95807000D01*
X25771000Y-95825000D01*
X25760000Y-95843000D01*
X25749000Y-95860000D01*
X25736000Y-95877000D01*
X25722000Y-95893000D01*
X25708000Y-95908000D01*
X25693000Y-95922000D01*
X25677000Y-95936000D01*
X25660000Y-95949000D01*
X25643000Y-95960000D01*
X25625000Y-95971000D01*
X25607000Y-95981000D01*
X25588000Y-95990000D01*
X25568000Y-95998000D01*
X25549000Y-96005000D01*
X25529000Y-96011000D01*
X25508000Y-96016000D01*
X25488000Y-96020000D01*
X25467000Y-96023000D01*
X25446000Y-96024000D01*
X25425000Y-96025000D01*
X24375000Y-96025000D01*
X24354000Y-96024000D01*
X24333000Y-96023000D01*
X24312000Y-96020000D01*
X24292000Y-96016000D01*
X24271000Y-96011000D01*
X24251000Y-96005000D01*
X24232000Y-95998000D01*
X24212000Y-95990000D01*
X24193000Y-95981000D01*
X24175000Y-95971000D01*
X24157000Y-95960000D01*
X24140000Y-95949000D01*
X24123000Y-95936000D01*
X24107000Y-95922000D01*
X24092000Y-95908000D01*
X24078000Y-95893000D01*
X24064000Y-95877000D01*
X24051000Y-95860000D01*
X24040000Y-95843000D01*
X24029000Y-95825000D01*
X24019000Y-95807000D01*
X24010000Y-95788000D01*
X24002000Y-95768000D01*
X23995000Y-95749000D01*
X23989000Y-95729000D01*
X23984000Y-95708000D01*
X23980000Y-95688000D01*
X23977000Y-95667000D01*
X23976000Y-95646000D01*
X23975000Y-95625000D01*
X23975000Y-93975000D01*
X23976000Y-93954000D01*
X23977000Y-93933000D01*
X23980000Y-93912000D01*
X23984000Y-93892000D01*
X23989000Y-93871000D01*
X23995000Y-93851000D01*
X24002000Y-93832000D01*
X24010000Y-93812000D01*
X24019000Y-93793000D01*
X24029000Y-93775000D01*
X24040000Y-93757000D01*
X24051000Y-93740000D01*
X24064000Y-93723000D01*
X24078000Y-93707000D01*
X24092000Y-93692000D01*
X24107000Y-93678000D01*
X24123000Y-93664000D01*
X24140000Y-93651000D01*
X24157000Y-93640000D01*
X24175000Y-93629000D01*
X24193000Y-93619000D01*
X24212000Y-93610000D01*
X24232000Y-93602000D01*
X24251000Y-93595000D01*
X24271000Y-93589000D01*
X24292000Y-93584000D01*
X24312000Y-93580000D01*
X24333000Y-93577000D01*
X24354000Y-93576000D01*
X24375000Y-93575000D01*
X25425000Y-93575000D01*
X25446000Y-93576000D01*
G36*
X25446000Y-93576000D02*
G01*
X25467000Y-93577000D01*
X25488000Y-93580000D01*
X25508000Y-93584000D01*
X25529000Y-93589000D01*
X25549000Y-93595000D01*
X25568000Y-93602000D01*
X25588000Y-93610000D01*
X25607000Y-93619000D01*
X25625000Y-93629000D01*
X25643000Y-93640000D01*
X25660000Y-93651000D01*
X25677000Y-93664000D01*
X25693000Y-93678000D01*
X25708000Y-93692000D01*
X25722000Y-93707000D01*
X25736000Y-93723000D01*
X25749000Y-93740000D01*
X25760000Y-93757000D01*
X25771000Y-93775000D01*
X25781000Y-93793000D01*
X25790000Y-93812000D01*
X25798000Y-93832000D01*
X25805000Y-93851000D01*
X25811000Y-93871000D01*
X25816000Y-93892000D01*
X25820000Y-93912000D01*
X25823000Y-93933000D01*
X25824000Y-93954000D01*
X25825000Y-93975000D01*
X25825000Y-95625000D01*
X25824000Y-95646000D01*
X25823000Y-95667000D01*
X25820000Y-95688000D01*
X25816000Y-95708000D01*
X25811000Y-95729000D01*
X25805000Y-95749000D01*
X25798000Y-95768000D01*
X25790000Y-95788000D01*
X25781000Y-95807000D01*
X25771000Y-95825000D01*
X25760000Y-95843000D01*
X25749000Y-95860000D01*
X25736000Y-95877000D01*
X25722000Y-95893000D01*
X25708000Y-95908000D01*
X25693000Y-95922000D01*
X25677000Y-95936000D01*
X25660000Y-95949000D01*
X25643000Y-95960000D01*
X25625000Y-95971000D01*
X25607000Y-95981000D01*
X25588000Y-95990000D01*
X25568000Y-95998000D01*
X25549000Y-96005000D01*
X25529000Y-96011000D01*
X25508000Y-96016000D01*
X25488000Y-96020000D01*
X25467000Y-96023000D01*
X25446000Y-96024000D01*
X25425000Y-96025000D01*
X24375000Y-96025000D01*
X24354000Y-96024000D01*
X24333000Y-96023000D01*
X24312000Y-96020000D01*
X24292000Y-96016000D01*
X24271000Y-96011000D01*
X24251000Y-96005000D01*
X24232000Y-95998000D01*
X24212000Y-95990000D01*
X24193000Y-95981000D01*
X24175000Y-95971000D01*
X24157000Y-95960000D01*
X24140000Y-95949000D01*
X24123000Y-95936000D01*
X24107000Y-95922000D01*
X24092000Y-95908000D01*
X24078000Y-95893000D01*
X24064000Y-95877000D01*
X24051000Y-95860000D01*
X24040000Y-95843000D01*
X24029000Y-95825000D01*
X24019000Y-95807000D01*
X24010000Y-95788000D01*
X24002000Y-95768000D01*
X23995000Y-95749000D01*
X23989000Y-95729000D01*
X23984000Y-95708000D01*
X23980000Y-95688000D01*
X23977000Y-95667000D01*
X23976000Y-95646000D01*
X23975000Y-95625000D01*
X23975000Y-93975000D01*
X23976000Y-93954000D01*
X23977000Y-93933000D01*
X23980000Y-93912000D01*
X23984000Y-93892000D01*
X23989000Y-93871000D01*
X23995000Y-93851000D01*
X24002000Y-93832000D01*
X24010000Y-93812000D01*
X24019000Y-93793000D01*
X24029000Y-93775000D01*
X24040000Y-93757000D01*
X24051000Y-93740000D01*
X24064000Y-93723000D01*
X24078000Y-93707000D01*
X24092000Y-93692000D01*
X24107000Y-93678000D01*
X24123000Y-93664000D01*
X24140000Y-93651000D01*
X24157000Y-93640000D01*
X24175000Y-93629000D01*
X24193000Y-93619000D01*
X24212000Y-93610000D01*
X24232000Y-93602000D01*
X24251000Y-93595000D01*
X24271000Y-93589000D01*
X24292000Y-93584000D01*
X24312000Y-93580000D01*
X24333000Y-93577000D01*
X24354000Y-93576000D01*
X24375000Y-93575000D01*
X25425000Y-93575000D01*
X25446000Y-93576000D01*
G37*
X25446000Y-97276000D02*
X25467000Y-97277000D01*
X25488000Y-97280000D01*
X25508000Y-97284000D01*
X25529000Y-97289000D01*
X25549000Y-97295000D01*
X25568000Y-97302000D01*
X25588000Y-97310000D01*
X25607000Y-97319000D01*
X25625000Y-97329000D01*
X25643000Y-97340000D01*
X25660000Y-97351000D01*
X25677000Y-97364000D01*
X25693000Y-97378000D01*
X25708000Y-97392000D01*
X25722000Y-97407000D01*
X25736000Y-97423000D01*
X25749000Y-97440000D01*
X25760000Y-97457000D01*
X25771000Y-97475000D01*
X25781000Y-97493000D01*
X25790000Y-97512000D01*
X25798000Y-97532000D01*
X25805000Y-97551000D01*
X25811000Y-97571000D01*
X25816000Y-97592000D01*
X25820000Y-97612000D01*
X25823000Y-97633000D01*
X25824000Y-97654000D01*
X25825000Y-97675000D01*
X25825000Y-99325000D01*
X25824000Y-99346000D01*
X25823000Y-99367000D01*
X25820000Y-99388000D01*
X25816000Y-99408000D01*
X25811000Y-99429000D01*
X25805000Y-99449000D01*
X25798000Y-99468000D01*
X25790000Y-99488000D01*
X25781000Y-99507000D01*
X25771000Y-99525000D01*
X25760000Y-99543000D01*
X25749000Y-99560000D01*
X25736000Y-99577000D01*
X25722000Y-99593000D01*
X25708000Y-99608000D01*
X25693000Y-99622000D01*
X25677000Y-99636000D01*
X25660000Y-99649000D01*
X25643000Y-99660000D01*
X25625000Y-99671000D01*
X25607000Y-99681000D01*
X25588000Y-99690000D01*
X25568000Y-99698000D01*
X25549000Y-99705000D01*
X25529000Y-99711000D01*
X25508000Y-99716000D01*
X25488000Y-99720000D01*
X25467000Y-99723000D01*
X25446000Y-99724000D01*
X25425000Y-99725000D01*
X24375000Y-99725000D01*
X24354000Y-99724000D01*
X24333000Y-99723000D01*
X24312000Y-99720000D01*
X24292000Y-99716000D01*
X24271000Y-99711000D01*
X24251000Y-99705000D01*
X24232000Y-99698000D01*
X24212000Y-99690000D01*
X24193000Y-99681000D01*
X24175000Y-99671000D01*
X24157000Y-99660000D01*
X24140000Y-99649000D01*
X24123000Y-99636000D01*
X24107000Y-99622000D01*
X24092000Y-99608000D01*
X24078000Y-99593000D01*
X24064000Y-99577000D01*
X24051000Y-99560000D01*
X24040000Y-99543000D01*
X24029000Y-99525000D01*
X24019000Y-99507000D01*
X24010000Y-99488000D01*
X24002000Y-99468000D01*
X23995000Y-99449000D01*
X23989000Y-99429000D01*
X23984000Y-99408000D01*
X23980000Y-99388000D01*
X23977000Y-99367000D01*
X23976000Y-99346000D01*
X23975000Y-99325000D01*
X23975000Y-97675000D01*
X23976000Y-97654000D01*
X23977000Y-97633000D01*
X23980000Y-97612000D01*
X23984000Y-97592000D01*
X23989000Y-97571000D01*
X23995000Y-97551000D01*
X24002000Y-97532000D01*
X24010000Y-97512000D01*
X24019000Y-97493000D01*
X24029000Y-97475000D01*
X24040000Y-97457000D01*
X24051000Y-97440000D01*
X24064000Y-97423000D01*
X24078000Y-97407000D01*
X24092000Y-97392000D01*
X24107000Y-97378000D01*
X24123000Y-97364000D01*
X24140000Y-97351000D01*
X24157000Y-97340000D01*
X24175000Y-97329000D01*
X24193000Y-97319000D01*
X24212000Y-97310000D01*
X24232000Y-97302000D01*
X24251000Y-97295000D01*
X24271000Y-97289000D01*
X24292000Y-97284000D01*
X24312000Y-97280000D01*
X24333000Y-97277000D01*
X24354000Y-97276000D01*
X24375000Y-97275000D01*
X25425000Y-97275000D01*
X25446000Y-97276000D01*
G36*
X25446000Y-97276000D02*
G01*
X25467000Y-97277000D01*
X25488000Y-97280000D01*
X25508000Y-97284000D01*
X25529000Y-97289000D01*
X25549000Y-97295000D01*
X25568000Y-97302000D01*
X25588000Y-97310000D01*
X25607000Y-97319000D01*
X25625000Y-97329000D01*
X25643000Y-97340000D01*
X25660000Y-97351000D01*
X25677000Y-97364000D01*
X25693000Y-97378000D01*
X25708000Y-97392000D01*
X25722000Y-97407000D01*
X25736000Y-97423000D01*
X25749000Y-97440000D01*
X25760000Y-97457000D01*
X25771000Y-97475000D01*
X25781000Y-97493000D01*
X25790000Y-97512000D01*
X25798000Y-97532000D01*
X25805000Y-97551000D01*
X25811000Y-97571000D01*
X25816000Y-97592000D01*
X25820000Y-97612000D01*
X25823000Y-97633000D01*
X25824000Y-97654000D01*
X25825000Y-97675000D01*
X25825000Y-99325000D01*
X25824000Y-99346000D01*
X25823000Y-99367000D01*
X25820000Y-99388000D01*
X25816000Y-99408000D01*
X25811000Y-99429000D01*
X25805000Y-99449000D01*
X25798000Y-99468000D01*
X25790000Y-99488000D01*
X25781000Y-99507000D01*
X25771000Y-99525000D01*
X25760000Y-99543000D01*
X25749000Y-99560000D01*
X25736000Y-99577000D01*
X25722000Y-99593000D01*
X25708000Y-99608000D01*
X25693000Y-99622000D01*
X25677000Y-99636000D01*
X25660000Y-99649000D01*
X25643000Y-99660000D01*
X25625000Y-99671000D01*
X25607000Y-99681000D01*
X25588000Y-99690000D01*
X25568000Y-99698000D01*
X25549000Y-99705000D01*
X25529000Y-99711000D01*
X25508000Y-99716000D01*
X25488000Y-99720000D01*
X25467000Y-99723000D01*
X25446000Y-99724000D01*
X25425000Y-99725000D01*
X24375000Y-99725000D01*
X24354000Y-99724000D01*
X24333000Y-99723000D01*
X24312000Y-99720000D01*
X24292000Y-99716000D01*
X24271000Y-99711000D01*
X24251000Y-99705000D01*
X24232000Y-99698000D01*
X24212000Y-99690000D01*
X24193000Y-99681000D01*
X24175000Y-99671000D01*
X24157000Y-99660000D01*
X24140000Y-99649000D01*
X24123000Y-99636000D01*
X24107000Y-99622000D01*
X24092000Y-99608000D01*
X24078000Y-99593000D01*
X24064000Y-99577000D01*
X24051000Y-99560000D01*
X24040000Y-99543000D01*
X24029000Y-99525000D01*
X24019000Y-99507000D01*
X24010000Y-99488000D01*
X24002000Y-99468000D01*
X23995000Y-99449000D01*
X23989000Y-99429000D01*
X23984000Y-99408000D01*
X23980000Y-99388000D01*
X23977000Y-99367000D01*
X23976000Y-99346000D01*
X23975000Y-99325000D01*
X23975000Y-97675000D01*
X23976000Y-97654000D01*
X23977000Y-97633000D01*
X23980000Y-97612000D01*
X23984000Y-97592000D01*
X23989000Y-97571000D01*
X23995000Y-97551000D01*
X24002000Y-97532000D01*
X24010000Y-97512000D01*
X24019000Y-97493000D01*
X24029000Y-97475000D01*
X24040000Y-97457000D01*
X24051000Y-97440000D01*
X24064000Y-97423000D01*
X24078000Y-97407000D01*
X24092000Y-97392000D01*
X24107000Y-97378000D01*
X24123000Y-97364000D01*
X24140000Y-97351000D01*
X24157000Y-97340000D01*
X24175000Y-97329000D01*
X24193000Y-97319000D01*
X24212000Y-97310000D01*
X24232000Y-97302000D01*
X24251000Y-97295000D01*
X24271000Y-97289000D01*
X24292000Y-97284000D01*
X24312000Y-97280000D01*
X24333000Y-97277000D01*
X24354000Y-97276000D01*
X24375000Y-97275000D01*
X25425000Y-97275000D01*
X25446000Y-97276000D01*
G37*
X35646000Y-93576000D02*
X35667000Y-93577000D01*
X35688000Y-93580000D01*
X35708000Y-93584000D01*
X35729000Y-93589000D01*
X35749000Y-93595000D01*
X35768000Y-93602000D01*
X35788000Y-93610000D01*
X35807000Y-93619000D01*
X35825000Y-93629000D01*
X35843000Y-93640000D01*
X35860000Y-93651000D01*
X35877000Y-93664000D01*
X35893000Y-93678000D01*
X35908000Y-93692000D01*
X35922000Y-93707000D01*
X35936000Y-93723000D01*
X35949000Y-93740000D01*
X35960000Y-93757000D01*
X35971000Y-93775000D01*
X35981000Y-93793000D01*
X35990000Y-93812000D01*
X35998000Y-93832000D01*
X36005000Y-93851000D01*
X36011000Y-93871000D01*
X36016000Y-93892000D01*
X36020000Y-93912000D01*
X36023000Y-93933000D01*
X36024000Y-93954000D01*
X36025000Y-93975000D01*
X36025000Y-95625000D01*
X36024000Y-95646000D01*
X36023000Y-95667000D01*
X36020000Y-95688000D01*
X36016000Y-95708000D01*
X36011000Y-95729000D01*
X36005000Y-95749000D01*
X35998000Y-95768000D01*
X35990000Y-95788000D01*
X35981000Y-95807000D01*
X35971000Y-95825000D01*
X35960000Y-95843000D01*
X35949000Y-95860000D01*
X35936000Y-95877000D01*
X35922000Y-95893000D01*
X35908000Y-95908000D01*
X35893000Y-95922000D01*
X35877000Y-95936000D01*
X35860000Y-95949000D01*
X35843000Y-95960000D01*
X35825000Y-95971000D01*
X35807000Y-95981000D01*
X35788000Y-95990000D01*
X35768000Y-95998000D01*
X35749000Y-96005000D01*
X35729000Y-96011000D01*
X35708000Y-96016000D01*
X35688000Y-96020000D01*
X35667000Y-96023000D01*
X35646000Y-96024000D01*
X35625000Y-96025000D01*
X34575000Y-96025000D01*
X34554000Y-96024000D01*
X34533000Y-96023000D01*
X34512000Y-96020000D01*
X34492000Y-96016000D01*
X34471000Y-96011000D01*
X34451000Y-96005000D01*
X34432000Y-95998000D01*
X34412000Y-95990000D01*
X34393000Y-95981000D01*
X34375000Y-95971000D01*
X34357000Y-95960000D01*
X34340000Y-95949000D01*
X34323000Y-95936000D01*
X34307000Y-95922000D01*
X34292000Y-95908000D01*
X34278000Y-95893000D01*
X34264000Y-95877000D01*
X34251000Y-95860000D01*
X34240000Y-95843000D01*
X34229000Y-95825000D01*
X34219000Y-95807000D01*
X34210000Y-95788000D01*
X34202000Y-95768000D01*
X34195000Y-95749000D01*
X34189000Y-95729000D01*
X34184000Y-95708000D01*
X34180000Y-95688000D01*
X34177000Y-95667000D01*
X34176000Y-95646000D01*
X34175000Y-95625000D01*
X34175000Y-93975000D01*
X34176000Y-93954000D01*
X34177000Y-93933000D01*
X34180000Y-93912000D01*
X34184000Y-93892000D01*
X34189000Y-93871000D01*
X34195000Y-93851000D01*
X34202000Y-93832000D01*
X34210000Y-93812000D01*
X34219000Y-93793000D01*
X34229000Y-93775000D01*
X34240000Y-93757000D01*
X34251000Y-93740000D01*
X34264000Y-93723000D01*
X34278000Y-93707000D01*
X34292000Y-93692000D01*
X34307000Y-93678000D01*
X34323000Y-93664000D01*
X34340000Y-93651000D01*
X34357000Y-93640000D01*
X34375000Y-93629000D01*
X34393000Y-93619000D01*
X34412000Y-93610000D01*
X34432000Y-93602000D01*
X34451000Y-93595000D01*
X34471000Y-93589000D01*
X34492000Y-93584000D01*
X34512000Y-93580000D01*
X34533000Y-93577000D01*
X34554000Y-93576000D01*
X34575000Y-93575000D01*
X35625000Y-93575000D01*
X35646000Y-93576000D01*
G36*
X35646000Y-93576000D02*
G01*
X35667000Y-93577000D01*
X35688000Y-93580000D01*
X35708000Y-93584000D01*
X35729000Y-93589000D01*
X35749000Y-93595000D01*
X35768000Y-93602000D01*
X35788000Y-93610000D01*
X35807000Y-93619000D01*
X35825000Y-93629000D01*
X35843000Y-93640000D01*
X35860000Y-93651000D01*
X35877000Y-93664000D01*
X35893000Y-93678000D01*
X35908000Y-93692000D01*
X35922000Y-93707000D01*
X35936000Y-93723000D01*
X35949000Y-93740000D01*
X35960000Y-93757000D01*
X35971000Y-93775000D01*
X35981000Y-93793000D01*
X35990000Y-93812000D01*
X35998000Y-93832000D01*
X36005000Y-93851000D01*
X36011000Y-93871000D01*
X36016000Y-93892000D01*
X36020000Y-93912000D01*
X36023000Y-93933000D01*
X36024000Y-93954000D01*
X36025000Y-93975000D01*
X36025000Y-95625000D01*
X36024000Y-95646000D01*
X36023000Y-95667000D01*
X36020000Y-95688000D01*
X36016000Y-95708000D01*
X36011000Y-95729000D01*
X36005000Y-95749000D01*
X35998000Y-95768000D01*
X35990000Y-95788000D01*
X35981000Y-95807000D01*
X35971000Y-95825000D01*
X35960000Y-95843000D01*
X35949000Y-95860000D01*
X35936000Y-95877000D01*
X35922000Y-95893000D01*
X35908000Y-95908000D01*
X35893000Y-95922000D01*
X35877000Y-95936000D01*
X35860000Y-95949000D01*
X35843000Y-95960000D01*
X35825000Y-95971000D01*
X35807000Y-95981000D01*
X35788000Y-95990000D01*
X35768000Y-95998000D01*
X35749000Y-96005000D01*
X35729000Y-96011000D01*
X35708000Y-96016000D01*
X35688000Y-96020000D01*
X35667000Y-96023000D01*
X35646000Y-96024000D01*
X35625000Y-96025000D01*
X34575000Y-96025000D01*
X34554000Y-96024000D01*
X34533000Y-96023000D01*
X34512000Y-96020000D01*
X34492000Y-96016000D01*
X34471000Y-96011000D01*
X34451000Y-96005000D01*
X34432000Y-95998000D01*
X34412000Y-95990000D01*
X34393000Y-95981000D01*
X34375000Y-95971000D01*
X34357000Y-95960000D01*
X34340000Y-95949000D01*
X34323000Y-95936000D01*
X34307000Y-95922000D01*
X34292000Y-95908000D01*
X34278000Y-95893000D01*
X34264000Y-95877000D01*
X34251000Y-95860000D01*
X34240000Y-95843000D01*
X34229000Y-95825000D01*
X34219000Y-95807000D01*
X34210000Y-95788000D01*
X34202000Y-95768000D01*
X34195000Y-95749000D01*
X34189000Y-95729000D01*
X34184000Y-95708000D01*
X34180000Y-95688000D01*
X34177000Y-95667000D01*
X34176000Y-95646000D01*
X34175000Y-95625000D01*
X34175000Y-93975000D01*
X34176000Y-93954000D01*
X34177000Y-93933000D01*
X34180000Y-93912000D01*
X34184000Y-93892000D01*
X34189000Y-93871000D01*
X34195000Y-93851000D01*
X34202000Y-93832000D01*
X34210000Y-93812000D01*
X34219000Y-93793000D01*
X34229000Y-93775000D01*
X34240000Y-93757000D01*
X34251000Y-93740000D01*
X34264000Y-93723000D01*
X34278000Y-93707000D01*
X34292000Y-93692000D01*
X34307000Y-93678000D01*
X34323000Y-93664000D01*
X34340000Y-93651000D01*
X34357000Y-93640000D01*
X34375000Y-93629000D01*
X34393000Y-93619000D01*
X34412000Y-93610000D01*
X34432000Y-93602000D01*
X34451000Y-93595000D01*
X34471000Y-93589000D01*
X34492000Y-93584000D01*
X34512000Y-93580000D01*
X34533000Y-93577000D01*
X34554000Y-93576000D01*
X34575000Y-93575000D01*
X35625000Y-93575000D01*
X35646000Y-93576000D01*
G37*
X35646000Y-97276000D02*
X35667000Y-97277000D01*
X35688000Y-97280000D01*
X35708000Y-97284000D01*
X35729000Y-97289000D01*
X35749000Y-97295000D01*
X35768000Y-97302000D01*
X35788000Y-97310000D01*
X35807000Y-97319000D01*
X35825000Y-97329000D01*
X35843000Y-97340000D01*
X35860000Y-97351000D01*
X35877000Y-97364000D01*
X35893000Y-97378000D01*
X35908000Y-97392000D01*
X35922000Y-97407000D01*
X35936000Y-97423000D01*
X35949000Y-97440000D01*
X35960000Y-97457000D01*
X35971000Y-97475000D01*
X35981000Y-97493000D01*
X35990000Y-97512000D01*
X35998000Y-97532000D01*
X36005000Y-97551000D01*
X36011000Y-97571000D01*
X36016000Y-97592000D01*
X36020000Y-97612000D01*
X36023000Y-97633000D01*
X36024000Y-97654000D01*
X36025000Y-97675000D01*
X36025000Y-99325000D01*
X36024000Y-99346000D01*
X36023000Y-99367000D01*
X36020000Y-99388000D01*
X36016000Y-99408000D01*
X36011000Y-99429000D01*
X36005000Y-99449000D01*
X35998000Y-99468000D01*
X35990000Y-99488000D01*
X35981000Y-99507000D01*
X35971000Y-99525000D01*
X35960000Y-99543000D01*
X35949000Y-99560000D01*
X35936000Y-99577000D01*
X35922000Y-99593000D01*
X35908000Y-99608000D01*
X35893000Y-99622000D01*
X35877000Y-99636000D01*
X35860000Y-99649000D01*
X35843000Y-99660000D01*
X35825000Y-99671000D01*
X35807000Y-99681000D01*
X35788000Y-99690000D01*
X35768000Y-99698000D01*
X35749000Y-99705000D01*
X35729000Y-99711000D01*
X35708000Y-99716000D01*
X35688000Y-99720000D01*
X35667000Y-99723000D01*
X35646000Y-99724000D01*
X35625000Y-99725000D01*
X34575000Y-99725000D01*
X34554000Y-99724000D01*
X34533000Y-99723000D01*
X34512000Y-99720000D01*
X34492000Y-99716000D01*
X34471000Y-99711000D01*
X34451000Y-99705000D01*
X34432000Y-99698000D01*
X34412000Y-99690000D01*
X34393000Y-99681000D01*
X34375000Y-99671000D01*
X34357000Y-99660000D01*
X34340000Y-99649000D01*
X34323000Y-99636000D01*
X34307000Y-99622000D01*
X34292000Y-99608000D01*
X34278000Y-99593000D01*
X34264000Y-99577000D01*
X34251000Y-99560000D01*
X34240000Y-99543000D01*
X34229000Y-99525000D01*
X34219000Y-99507000D01*
X34210000Y-99488000D01*
X34202000Y-99468000D01*
X34195000Y-99449000D01*
X34189000Y-99429000D01*
X34184000Y-99408000D01*
X34180000Y-99388000D01*
X34177000Y-99367000D01*
X34176000Y-99346000D01*
X34175000Y-99325000D01*
X34175000Y-97675000D01*
X34176000Y-97654000D01*
X34177000Y-97633000D01*
X34180000Y-97612000D01*
X34184000Y-97592000D01*
X34189000Y-97571000D01*
X34195000Y-97551000D01*
X34202000Y-97532000D01*
X34210000Y-97512000D01*
X34219000Y-97493000D01*
X34229000Y-97475000D01*
X34240000Y-97457000D01*
X34251000Y-97440000D01*
X34264000Y-97423000D01*
X34278000Y-97407000D01*
X34292000Y-97392000D01*
X34307000Y-97378000D01*
X34323000Y-97364000D01*
X34340000Y-97351000D01*
X34357000Y-97340000D01*
X34375000Y-97329000D01*
X34393000Y-97319000D01*
X34412000Y-97310000D01*
X34432000Y-97302000D01*
X34451000Y-97295000D01*
X34471000Y-97289000D01*
X34492000Y-97284000D01*
X34512000Y-97280000D01*
X34533000Y-97277000D01*
X34554000Y-97276000D01*
X34575000Y-97275000D01*
X35625000Y-97275000D01*
X35646000Y-97276000D01*
G36*
X35646000Y-97276000D02*
G01*
X35667000Y-97277000D01*
X35688000Y-97280000D01*
X35708000Y-97284000D01*
X35729000Y-97289000D01*
X35749000Y-97295000D01*
X35768000Y-97302000D01*
X35788000Y-97310000D01*
X35807000Y-97319000D01*
X35825000Y-97329000D01*
X35843000Y-97340000D01*
X35860000Y-97351000D01*
X35877000Y-97364000D01*
X35893000Y-97378000D01*
X35908000Y-97392000D01*
X35922000Y-97407000D01*
X35936000Y-97423000D01*
X35949000Y-97440000D01*
X35960000Y-97457000D01*
X35971000Y-97475000D01*
X35981000Y-97493000D01*
X35990000Y-97512000D01*
X35998000Y-97532000D01*
X36005000Y-97551000D01*
X36011000Y-97571000D01*
X36016000Y-97592000D01*
X36020000Y-97612000D01*
X36023000Y-97633000D01*
X36024000Y-97654000D01*
X36025000Y-97675000D01*
X36025000Y-99325000D01*
X36024000Y-99346000D01*
X36023000Y-99367000D01*
X36020000Y-99388000D01*
X36016000Y-99408000D01*
X36011000Y-99429000D01*
X36005000Y-99449000D01*
X35998000Y-99468000D01*
X35990000Y-99488000D01*
X35981000Y-99507000D01*
X35971000Y-99525000D01*
X35960000Y-99543000D01*
X35949000Y-99560000D01*
X35936000Y-99577000D01*
X35922000Y-99593000D01*
X35908000Y-99608000D01*
X35893000Y-99622000D01*
X35877000Y-99636000D01*
X35860000Y-99649000D01*
X35843000Y-99660000D01*
X35825000Y-99671000D01*
X35807000Y-99681000D01*
X35788000Y-99690000D01*
X35768000Y-99698000D01*
X35749000Y-99705000D01*
X35729000Y-99711000D01*
X35708000Y-99716000D01*
X35688000Y-99720000D01*
X35667000Y-99723000D01*
X35646000Y-99724000D01*
X35625000Y-99725000D01*
X34575000Y-99725000D01*
X34554000Y-99724000D01*
X34533000Y-99723000D01*
X34512000Y-99720000D01*
X34492000Y-99716000D01*
X34471000Y-99711000D01*
X34451000Y-99705000D01*
X34432000Y-99698000D01*
X34412000Y-99690000D01*
X34393000Y-99681000D01*
X34375000Y-99671000D01*
X34357000Y-99660000D01*
X34340000Y-99649000D01*
X34323000Y-99636000D01*
X34307000Y-99622000D01*
X34292000Y-99608000D01*
X34278000Y-99593000D01*
X34264000Y-99577000D01*
X34251000Y-99560000D01*
X34240000Y-99543000D01*
X34229000Y-99525000D01*
X34219000Y-99507000D01*
X34210000Y-99488000D01*
X34202000Y-99468000D01*
X34195000Y-99449000D01*
X34189000Y-99429000D01*
X34184000Y-99408000D01*
X34180000Y-99388000D01*
X34177000Y-99367000D01*
X34176000Y-99346000D01*
X34175000Y-99325000D01*
X34175000Y-97675000D01*
X34176000Y-97654000D01*
X34177000Y-97633000D01*
X34180000Y-97612000D01*
X34184000Y-97592000D01*
X34189000Y-97571000D01*
X34195000Y-97551000D01*
X34202000Y-97532000D01*
X34210000Y-97512000D01*
X34219000Y-97493000D01*
X34229000Y-97475000D01*
X34240000Y-97457000D01*
X34251000Y-97440000D01*
X34264000Y-97423000D01*
X34278000Y-97407000D01*
X34292000Y-97392000D01*
X34307000Y-97378000D01*
X34323000Y-97364000D01*
X34340000Y-97351000D01*
X34357000Y-97340000D01*
X34375000Y-97329000D01*
X34393000Y-97319000D01*
X34412000Y-97310000D01*
X34432000Y-97302000D01*
X34451000Y-97295000D01*
X34471000Y-97289000D01*
X34492000Y-97284000D01*
X34512000Y-97280000D01*
X34533000Y-97277000D01*
X34554000Y-97276000D01*
X34575000Y-97275000D01*
X35625000Y-97275000D01*
X35646000Y-97276000D01*
G37*
%TD*%
D11*
%TO.C,Y3*%
X36750000Y-56600000D03*
X36750000Y-59140000D03*
%TD*%
D12*
%TO.C,Y2*%
X32400000Y-63400000D03*
X27520000Y-63400000D03*
%TD*%
D13*
%TO.C,P1*%
X27600000Y-90000000D03*
D14*
X25060000Y-90000000D03*
X27600000Y-87460000D03*
X25060000Y-87460000D03*
X27600000Y-84920000D03*
X25060000Y-84920000D03*
%TD*%
D13*
%TO.C,P2*%
X33800000Y-48500000D03*
D14*
X31260000Y-48500000D03*
X28720000Y-48500000D03*
X26180000Y-48500000D03*
%TD*%
D15*
%TO.C,R10*%
X35825000Y-84800000D03*
X34175000Y-84800000D03*
%TD*%
D16*
%TO.C,R9*%
X34175000Y-81000000D03*
X35825000Y-81000000D03*
%TD*%
%TO.C,R11*%
X34175000Y-82900000D03*
X35825000Y-82900000D03*
%TD*%
D13*
%TO.C,P4*%
X20000000Y-50000000D03*
D14*
X20000000Y-52540000D03*
X20000000Y-55080000D03*
X20000000Y-57620000D03*
X20000000Y-60160000D03*
X20000000Y-62700000D03*
X20000000Y-65240000D03*
X20000000Y-67780000D03*
X20000000Y-70320000D03*
X20000000Y-72860000D03*
X20000000Y-75400000D03*
X20000000Y-77940000D03*
X20000000Y-80480000D03*
X20000000Y-83020000D03*
X20000000Y-85560000D03*
X20000000Y-88100000D03*
X20000000Y-90640000D03*
X20000000Y-93180000D03*
X20000000Y-95720000D03*
X20000000Y-98260000D03*
%TD*%
D17*
%TO.C,C5*%
X26125000Y-81700000D03*
X24225000Y-81700000D03*
%TD*%
D18*
%TO.C,C4*%
X25550000Y-62600000D03*
X24000000Y-62600000D03*
%TD*%
D15*
%TO.C,R1*%
X35225000Y-52400000D03*
X33575000Y-52400000D03*
%TD*%
D18*
%TO.C,C7*%
X25740000Y-79550000D03*
X24190000Y-79550000D03*
%TD*%
D17*
%TO.C,C6*%
X25775000Y-68600000D03*
X23875000Y-68600000D03*
%TD*%
D15*
%TO.C,R6*%
X35925000Y-71400000D03*
X34275000Y-71400000D03*
%TD*%
D19*
%TO.C,C14*%
X36000000Y-74975000D03*
X36000000Y-73425000D03*
%TD*%
D18*
%TO.C,C12*%
X35775000Y-69500000D03*
X34225000Y-69500000D03*
%TD*%
D19*
%TO.C,C13*%
X34100000Y-74975000D03*
X34100000Y-73425000D03*
%TD*%
D18*
%TO.C,C3*%
X25550000Y-60700000D03*
X24000000Y-60700000D03*
%TD*%
%TO.C,C11*%
X25490122Y-66400000D03*
X23940122Y-66400000D03*
%TD*%
%TO.C,C9*%
X35775000Y-67600000D03*
X34225000Y-67600000D03*
%TD*%
D20*
%TO.C,C15*%
X24050000Y-72600000D03*
X25600000Y-72600000D03*
%TD*%
D15*
%TO.C,R5*%
X26456250Y-52468750D03*
X24806250Y-52468750D03*
%TD*%
D16*
%TO.C,R4*%
X34175000Y-77200000D03*
X35825000Y-77200000D03*
%TD*%
D21*
%TO.C,U1*%
X25905000Y-77000000D03*
X24965000Y-77000000D03*
X24025000Y-77000000D03*
X24025000Y-74500000D03*
X25905000Y-74500000D03*
%TD*%
D16*
%TO.C,R2*%
X34175000Y-86700000D03*
X35825000Y-86700000D03*
%TD*%
D18*
%TO.C,C2*%
X35775000Y-88600000D03*
X34225000Y-88600000D03*
%TD*%
%TO.C,C8*%
X25600000Y-70700000D03*
X24050000Y-70700000D03*
%TD*%
D15*
%TO.C,R3*%
X35825000Y-79100000D03*
X34175000Y-79100000D03*
%TD*%
D13*
%TO.C,P3*%
X40000000Y-50000000D03*
D14*
X40000000Y-52540000D03*
X40000000Y-55080000D03*
X40000000Y-57620000D03*
X40000000Y-60160000D03*
X40000000Y-62700000D03*
X40000000Y-65240000D03*
X40000000Y-67780000D03*
X40000000Y-70320000D03*
X40000000Y-72860000D03*
X40000000Y-75400000D03*
X40000000Y-77940000D03*
X40000000Y-80480000D03*
X40000000Y-83020000D03*
X40000000Y-85560000D03*
X40000000Y-88100000D03*
X40000000Y-90640000D03*
X40000000Y-93180000D03*
X40000000Y-95720000D03*
X40000000Y-98260000D03*
%TD*%
D18*
%TO.C,C10*%
X25490122Y-64479996D03*
X23940122Y-64479996D03*
%TD*%
%TO.C,C1*%
X30675000Y-52468750D03*
X29125000Y-52468750D03*
%TD*%
M02*
