%TF.GenerationSoftware,KiCad,Pcbnew,9.0.0*%
%TF.CreationDate,2025-02-28T11:04:11+07:00*%
%TF.ProjectId,SMT32_Bluepill,534d5433-325f-4426-9c75-6570696c6c2e,rev?*%
%TF.SameCoordinates,Original*%
%TF.FileFunction,Legend,Top*%
%TF.FilePolarity,Positive*%
%FSLAX46Y46*%
G04 Gerber Fmt 4.6, Leading zero omitted, Abs format (unit mm)*
G04 Created by KiCad (PCBNEW 9.0.0) date 2025-02-28 11:04:11*
%MOMM*%
%LPD*%
G01*
G04 APERTURE LIST*
%ADD10C,0.150000*%
%ADD11C,0.120000*%
%ADD12C,0.127000*%
%ADD13C,0.200000*%
%ADD14C,0.152400*%
G04 APERTURE END LIST*
D10*
X34138095Y-67054819D02*
X34138095Y-67864342D01*
X34138095Y-67864342D02*
X34185714Y-67959580D01*
X34185714Y-67959580D02*
X34233333Y-68007200D01*
X34233333Y-68007200D02*
X34328571Y-68054819D01*
X34328571Y-68054819D02*
X34519047Y-68054819D01*
X34519047Y-68054819D02*
X34614285Y-68007200D01*
X34614285Y-68007200D02*
X34661904Y-67959580D01*
X34661904Y-67959580D02*
X34709523Y-67864342D01*
X34709523Y-67864342D02*
X34709523Y-67054819D01*
X35138095Y-67150057D02*
X35185714Y-67102438D01*
X35185714Y-67102438D02*
X35280952Y-67054819D01*
X35280952Y-67054819D02*
X35519047Y-67054819D01*
X35519047Y-67054819D02*
X35614285Y-67102438D01*
X35614285Y-67102438D02*
X35661904Y-67150057D01*
X35661904Y-67150057D02*
X35709523Y-67245295D01*
X35709523Y-67245295D02*
X35709523Y-67340533D01*
X35709523Y-67340533D02*
X35661904Y-67483390D01*
X35661904Y-67483390D02*
X35090476Y-68054819D01*
X35090476Y-68054819D02*
X35709523Y-68054819D01*
X34838095Y-92154819D02*
X34838095Y-92964342D01*
X34838095Y-92964342D02*
X34885714Y-93059580D01*
X34885714Y-93059580D02*
X34933333Y-93107200D01*
X34933333Y-93107200D02*
X35028571Y-93154819D01*
X35028571Y-93154819D02*
X35219047Y-93154819D01*
X35219047Y-93154819D02*
X35314285Y-93107200D01*
X35314285Y-93107200D02*
X35361904Y-93059580D01*
X35361904Y-93059580D02*
X35409523Y-92964342D01*
X35409523Y-92964342D02*
X35409523Y-92154819D01*
X35790476Y-92154819D02*
X36409523Y-92154819D01*
X36409523Y-92154819D02*
X36076190Y-92535771D01*
X36076190Y-92535771D02*
X36219047Y-92535771D01*
X36219047Y-92535771D02*
X36314285Y-92583390D01*
X36314285Y-92583390D02*
X36361904Y-92631009D01*
X36361904Y-92631009D02*
X36409523Y-92726247D01*
X36409523Y-92726247D02*
X36409523Y-92964342D01*
X36409523Y-92964342D02*
X36361904Y-93059580D01*
X36361904Y-93059580D02*
X36314285Y-93107200D01*
X36314285Y-93107200D02*
X36219047Y-93154819D01*
X36219047Y-93154819D02*
X35933333Y-93154819D01*
X35933333Y-93154819D02*
X35838095Y-93107200D01*
X35838095Y-93107200D02*
X35790476Y-93059580D01*
X32276190Y-82654819D02*
X31942857Y-82178628D01*
X31704762Y-82654819D02*
X31704762Y-81654819D01*
X31704762Y-81654819D02*
X32085714Y-81654819D01*
X32085714Y-81654819D02*
X32180952Y-81702438D01*
X32180952Y-81702438D02*
X32228571Y-81750057D01*
X32228571Y-81750057D02*
X32276190Y-81845295D01*
X32276190Y-81845295D02*
X32276190Y-81988152D01*
X32276190Y-81988152D02*
X32228571Y-82083390D01*
X32228571Y-82083390D02*
X32180952Y-82131009D01*
X32180952Y-82131009D02*
X32085714Y-82178628D01*
X32085714Y-82178628D02*
X31704762Y-82178628D01*
X32657143Y-82607200D02*
X32800000Y-82654819D01*
X32800000Y-82654819D02*
X33038095Y-82654819D01*
X33038095Y-82654819D02*
X33133333Y-82607200D01*
X33133333Y-82607200D02*
X33180952Y-82559580D01*
X33180952Y-82559580D02*
X33228571Y-82464342D01*
X33228571Y-82464342D02*
X33228571Y-82369104D01*
X33228571Y-82369104D02*
X33180952Y-82273866D01*
X33180952Y-82273866D02*
X33133333Y-82226247D01*
X33133333Y-82226247D02*
X33038095Y-82178628D01*
X33038095Y-82178628D02*
X32847619Y-82131009D01*
X32847619Y-82131009D02*
X32752381Y-82083390D01*
X32752381Y-82083390D02*
X32704762Y-82035771D01*
X32704762Y-82035771D02*
X32657143Y-81940533D01*
X32657143Y-81940533D02*
X32657143Y-81845295D01*
X32657143Y-81845295D02*
X32704762Y-81750057D01*
X32704762Y-81750057D02*
X32752381Y-81702438D01*
X32752381Y-81702438D02*
X32847619Y-81654819D01*
X32847619Y-81654819D02*
X33085714Y-81654819D01*
X33085714Y-81654819D02*
X33228571Y-81702438D01*
X33514286Y-81654819D02*
X34085714Y-81654819D01*
X33800000Y-82654819D02*
X33800000Y-81654819D01*
X34942857Y-82654819D02*
X34371429Y-82654819D01*
X34657143Y-82654819D02*
X34657143Y-81654819D01*
X34657143Y-81654819D02*
X34561905Y-81797676D01*
X34561905Y-81797676D02*
X34466667Y-81892914D01*
X34466667Y-81892914D02*
X34371429Y-81940533D01*
X29203019Y-91035949D02*
X29441114Y-91035949D01*
X29345876Y-91274044D02*
X29441114Y-91035949D01*
X29441114Y-91035949D02*
X29345876Y-90797854D01*
X29631590Y-91178806D02*
X29441114Y-91035949D01*
X29441114Y-91035949D02*
X29631590Y-90893092D01*
X29203019Y-91035949D02*
X29441114Y-91035949D01*
X29345876Y-91274044D02*
X29441114Y-91035949D01*
X29441114Y-91035949D02*
X29345876Y-90797854D01*
X29631590Y-91178806D02*
X29441114Y-91035949D01*
X29441114Y-91035949D02*
X29631590Y-90893092D01*
X23961905Y-54954819D02*
X23961905Y-53954819D01*
X23961905Y-53954819D02*
X24200000Y-53954819D01*
X24200000Y-53954819D02*
X24342857Y-54002438D01*
X24342857Y-54002438D02*
X24438095Y-54097676D01*
X24438095Y-54097676D02*
X24485714Y-54192914D01*
X24485714Y-54192914D02*
X24533333Y-54383390D01*
X24533333Y-54383390D02*
X24533333Y-54526247D01*
X24533333Y-54526247D02*
X24485714Y-54716723D01*
X24485714Y-54716723D02*
X24438095Y-54811961D01*
X24438095Y-54811961D02*
X24342857Y-54907200D01*
X24342857Y-54907200D02*
X24200000Y-54954819D01*
X24200000Y-54954819D02*
X23961905Y-54954819D01*
X24914286Y-54050057D02*
X24961905Y-54002438D01*
X24961905Y-54002438D02*
X25057143Y-53954819D01*
X25057143Y-53954819D02*
X25295238Y-53954819D01*
X25295238Y-53954819D02*
X25390476Y-54002438D01*
X25390476Y-54002438D02*
X25438095Y-54050057D01*
X25438095Y-54050057D02*
X25485714Y-54145295D01*
X25485714Y-54145295D02*
X25485714Y-54240533D01*
X25485714Y-54240533D02*
X25438095Y-54383390D01*
X25438095Y-54383390D02*
X24866667Y-54954819D01*
X24866667Y-54954819D02*
X25485714Y-54954819D01*
X29623809Y-54778628D02*
X29623809Y-55254819D01*
X29290476Y-54254819D02*
X29623809Y-54778628D01*
X29623809Y-54778628D02*
X29957142Y-54254819D01*
X30195238Y-54254819D02*
X30814285Y-54254819D01*
X30814285Y-54254819D02*
X30480952Y-54635771D01*
X30480952Y-54635771D02*
X30623809Y-54635771D01*
X30623809Y-54635771D02*
X30719047Y-54683390D01*
X30719047Y-54683390D02*
X30766666Y-54731009D01*
X30766666Y-54731009D02*
X30814285Y-54826247D01*
X30814285Y-54826247D02*
X30814285Y-55064342D01*
X30814285Y-55064342D02*
X30766666Y-55159580D01*
X30766666Y-55159580D02*
X30719047Y-55207200D01*
X30719047Y-55207200D02*
X30623809Y-55254819D01*
X30623809Y-55254819D02*
X30338095Y-55254819D01*
X30338095Y-55254819D02*
X30242857Y-55207200D01*
X30242857Y-55207200D02*
X30195238Y-55159580D01*
X34861905Y-54754819D02*
X34861905Y-53754819D01*
X34861905Y-53754819D02*
X35100000Y-53754819D01*
X35100000Y-53754819D02*
X35242857Y-53802438D01*
X35242857Y-53802438D02*
X35338095Y-53897676D01*
X35338095Y-53897676D02*
X35385714Y-53992914D01*
X35385714Y-53992914D02*
X35433333Y-54183390D01*
X35433333Y-54183390D02*
X35433333Y-54326247D01*
X35433333Y-54326247D02*
X35385714Y-54516723D01*
X35385714Y-54516723D02*
X35338095Y-54611961D01*
X35338095Y-54611961D02*
X35242857Y-54707200D01*
X35242857Y-54707200D02*
X35100000Y-54754819D01*
X35100000Y-54754819D02*
X34861905Y-54754819D01*
X36385714Y-54754819D02*
X35814286Y-54754819D01*
X36100000Y-54754819D02*
X36100000Y-53754819D01*
X36100000Y-53754819D02*
X36004762Y-53897676D01*
X36004762Y-53897676D02*
X35909524Y-53992914D01*
X35909524Y-53992914D02*
X35814286Y-54040533D01*
X24223809Y-67078628D02*
X24223809Y-67554819D01*
X23890476Y-66554819D02*
X24223809Y-67078628D01*
X24223809Y-67078628D02*
X24557142Y-66554819D01*
X24842857Y-66650057D02*
X24890476Y-66602438D01*
X24890476Y-66602438D02*
X24985714Y-66554819D01*
X24985714Y-66554819D02*
X25223809Y-66554819D01*
X25223809Y-66554819D02*
X25319047Y-66602438D01*
X25319047Y-66602438D02*
X25366666Y-66650057D01*
X25366666Y-66650057D02*
X25414285Y-66745295D01*
X25414285Y-66745295D02*
X25414285Y-66840533D01*
X25414285Y-66840533D02*
X25366666Y-66983390D01*
X25366666Y-66983390D02*
X24795238Y-67554819D01*
X24795238Y-67554819D02*
X25414285Y-67554819D01*
X25761905Y-82854819D02*
X25761905Y-81854819D01*
X25761905Y-81854819D02*
X26142857Y-81854819D01*
X26142857Y-81854819D02*
X26238095Y-81902438D01*
X26238095Y-81902438D02*
X26285714Y-81950057D01*
X26285714Y-81950057D02*
X26333333Y-82045295D01*
X26333333Y-82045295D02*
X26333333Y-82188152D01*
X26333333Y-82188152D02*
X26285714Y-82283390D01*
X26285714Y-82283390D02*
X26238095Y-82331009D01*
X26238095Y-82331009D02*
X26142857Y-82378628D01*
X26142857Y-82378628D02*
X25761905Y-82378628D01*
X27285714Y-82854819D02*
X26714286Y-82854819D01*
X27000000Y-82854819D02*
X27000000Y-81854819D01*
X27000000Y-81854819D02*
X26904762Y-81997676D01*
X26904762Y-81997676D02*
X26809524Y-82092914D01*
X26809524Y-82092914D02*
X26714286Y-82140533D01*
X35961905Y-48954819D02*
X35961905Y-47954819D01*
X35961905Y-47954819D02*
X36342857Y-47954819D01*
X36342857Y-47954819D02*
X36438095Y-48002438D01*
X36438095Y-48002438D02*
X36485714Y-48050057D01*
X36485714Y-48050057D02*
X36533333Y-48145295D01*
X36533333Y-48145295D02*
X36533333Y-48288152D01*
X36533333Y-48288152D02*
X36485714Y-48383390D01*
X36485714Y-48383390D02*
X36438095Y-48431009D01*
X36438095Y-48431009D02*
X36342857Y-48478628D01*
X36342857Y-48478628D02*
X35961905Y-48478628D01*
X36914286Y-48050057D02*
X36961905Y-48002438D01*
X36961905Y-48002438D02*
X37057143Y-47954819D01*
X37057143Y-47954819D02*
X37295238Y-47954819D01*
X37295238Y-47954819D02*
X37390476Y-48002438D01*
X37390476Y-48002438D02*
X37438095Y-48050057D01*
X37438095Y-48050057D02*
X37485714Y-48145295D01*
X37485714Y-48145295D02*
X37485714Y-48240533D01*
X37485714Y-48240533D02*
X37438095Y-48383390D01*
X37438095Y-48383390D02*
X36866667Y-48954819D01*
X36866667Y-48954819D02*
X37485714Y-48954819D01*
X19261905Y-47954819D02*
X19261905Y-46954819D01*
X19261905Y-46954819D02*
X19642857Y-46954819D01*
X19642857Y-46954819D02*
X19738095Y-47002438D01*
X19738095Y-47002438D02*
X19785714Y-47050057D01*
X19785714Y-47050057D02*
X19833333Y-47145295D01*
X19833333Y-47145295D02*
X19833333Y-47288152D01*
X19833333Y-47288152D02*
X19785714Y-47383390D01*
X19785714Y-47383390D02*
X19738095Y-47431009D01*
X19738095Y-47431009D02*
X19642857Y-47478628D01*
X19642857Y-47478628D02*
X19261905Y-47478628D01*
X20690476Y-47288152D02*
X20690476Y-47954819D01*
X20452381Y-46907200D02*
X20214286Y-47621485D01*
X20214286Y-47621485D02*
X20833333Y-47621485D01*
X39261905Y-47954819D02*
X39261905Y-46954819D01*
X39261905Y-46954819D02*
X39642857Y-46954819D01*
X39642857Y-46954819D02*
X39738095Y-47002438D01*
X39738095Y-47002438D02*
X39785714Y-47050057D01*
X39785714Y-47050057D02*
X39833333Y-47145295D01*
X39833333Y-47145295D02*
X39833333Y-47288152D01*
X39833333Y-47288152D02*
X39785714Y-47383390D01*
X39785714Y-47383390D02*
X39738095Y-47431009D01*
X39738095Y-47431009D02*
X39642857Y-47478628D01*
X39642857Y-47478628D02*
X39261905Y-47478628D01*
X40166667Y-46954819D02*
X40785714Y-46954819D01*
X40785714Y-46954819D02*
X40452381Y-47335771D01*
X40452381Y-47335771D02*
X40595238Y-47335771D01*
X40595238Y-47335771D02*
X40690476Y-47383390D01*
X40690476Y-47383390D02*
X40738095Y-47431009D01*
X40738095Y-47431009D02*
X40785714Y-47526247D01*
X40785714Y-47526247D02*
X40785714Y-47764342D01*
X40785714Y-47764342D02*
X40738095Y-47859580D01*
X40738095Y-47859580D02*
X40690476Y-47907200D01*
X40690476Y-47907200D02*
X40595238Y-47954819D01*
X40595238Y-47954819D02*
X40309524Y-47954819D01*
X40309524Y-47954819D02*
X40214286Y-47907200D01*
X40214286Y-47907200D02*
X40166667Y-47859580D01*
D11*
%TO.C,U2*%
X26290000Y-68090000D02*
X26740000Y-68090000D01*
X26290000Y-68540000D02*
X26290000Y-68090000D01*
X26290000Y-74860000D02*
X26290000Y-75310000D01*
X26290000Y-75310000D02*
X26740000Y-75310000D01*
X33510000Y-68090000D02*
X33060000Y-68090000D01*
X33510000Y-68540000D02*
X33510000Y-68090000D01*
X33510000Y-74860000D02*
X33510000Y-75310000D01*
X33510000Y-75310000D02*
X33060000Y-75310000D01*
X33530000Y-67840000D02*
X33060000Y-67500000D01*
X33530000Y-67160000D01*
X33530000Y-67840000D01*
G36*
X33530000Y-67840000D02*
G01*
X33060000Y-67500000D01*
X33530000Y-67160000D01*
X33530000Y-67840000D01*
G37*
D12*
%TO.C,U3*%
X26250000Y-94300000D02*
X26780000Y-94300000D01*
X26250000Y-100100000D02*
X26250000Y-94300000D01*
X33220000Y-94300000D02*
X33750000Y-94300000D01*
X33750000Y-94300000D02*
X33750000Y-100100000D01*
D13*
X28800000Y-93100000D02*
G75*
G02*
X28600000Y-93100000I-100000J0D01*
G01*
X28600000Y-93100000D02*
G75*
G02*
X28800000Y-93100000I100000J0D01*
G01*
D14*
%TO.C,RST1*%
X30467900Y-84667900D02*
X30467900Y-90332100D01*
X30467900Y-90332100D02*
X30837861Y-90332100D01*
X30837861Y-84667900D02*
X30467900Y-84667900D01*
X32062141Y-90332100D02*
X34537859Y-90332100D01*
X34537859Y-84667900D02*
X32062141Y-84667900D01*
X35762139Y-90332100D02*
X36132100Y-90332100D01*
X36132100Y-84667900D02*
X35762139Y-84667900D01*
X36132100Y-90332100D02*
X36132100Y-84667900D01*
%TO.C,D2*%
D11*
X26931250Y-51468750D02*
X26131250Y-51468750D01*
X26131250Y-51168750D01*
X26931250Y-51168750D01*
X26931250Y-51468750D01*
G36*
X26931250Y-51468750D02*
G01*
X26131250Y-51468750D01*
X26131250Y-51168750D01*
X26931250Y-51168750D01*
X26931250Y-51468750D01*
G37*
X26931250Y-53768750D02*
X26131250Y-53768750D01*
X26131250Y-53468750D01*
X26931250Y-53468750D01*
X26931250Y-53768750D01*
G36*
X26931250Y-53768750D02*
G01*
X26131250Y-53768750D01*
X26131250Y-53468750D01*
X26931250Y-53468750D01*
X26931250Y-53768750D01*
G37*
X27331250Y-53468750D02*
X23931250Y-53468750D01*
X23931250Y-51468750D01*
X27331250Y-51468750D01*
X27331250Y-53468750D01*
%TO.C,Y3*%
X23050000Y-56170000D02*
X23050000Y-59570000D01*
X23050000Y-59570000D02*
X33950000Y-59570000D01*
X33950000Y-56170000D02*
X23050000Y-56170000D01*
X33950000Y-57270000D02*
X35350000Y-56600000D01*
X33950000Y-58470000D02*
X35350000Y-59140000D01*
X33950000Y-59570000D02*
X33950000Y-56170000D01*
X35350000Y-56600000D02*
X36050000Y-56600000D01*
X35350000Y-59140000D02*
X36050000Y-59140000D01*
%TO.C,D1*%
X32700000Y-51400000D02*
X36100000Y-51400000D01*
X36100000Y-53400000D01*
X32700000Y-53400000D01*
X32700000Y-51400000D01*
X33100000Y-51100000D02*
X33900000Y-51100000D01*
X33900000Y-51400000D01*
X33100000Y-51400000D01*
X33100000Y-51100000D01*
G36*
X33100000Y-51100000D02*
G01*
X33900000Y-51100000D01*
X33900000Y-51400000D01*
X33100000Y-51400000D01*
X33100000Y-51100000D01*
G37*
X33100000Y-53400000D02*
X33900000Y-53400000D01*
X33900000Y-53700000D01*
X33100000Y-53700000D01*
X33100000Y-53400000D01*
G36*
X33100000Y-53400000D02*
G01*
X33900000Y-53400000D01*
X33900000Y-53700000D01*
X33100000Y-53700000D01*
X33100000Y-53400000D01*
G37*
%TO.C,Y2*%
X33160000Y-60875000D02*
X26760000Y-60875000D01*
X33160000Y-65925000D02*
X26760000Y-65925000D01*
X26760000Y-65925000D02*
G75*
G02*
X26760000Y-60875000I0J2525000D01*
G01*
X33160000Y-60875000D02*
G75*
G02*
X33160000Y-65925000I0J-2525000D01*
G01*
%TO.C,P1*%
X23730000Y-91330000D02*
X23730000Y-83590000D01*
X26330000Y-88730000D02*
X26330000Y-91330000D01*
X26330000Y-91330000D02*
X23730000Y-91330000D01*
X28930000Y-83590000D02*
X23730000Y-83590000D01*
X28930000Y-88730000D02*
X26330000Y-88730000D01*
X28930000Y-88730000D02*
X28930000Y-83590000D01*
X28930000Y-90000000D02*
X28930000Y-91330000D01*
X28930000Y-91330000D02*
X27600000Y-91330000D01*
%TO.C,P2*%
X24850000Y-47170000D02*
X24850000Y-49830000D01*
X32530000Y-47170000D02*
X24850000Y-47170000D01*
X32530000Y-47170000D02*
X32530000Y-49830000D01*
X32530000Y-49830000D02*
X24850000Y-49830000D01*
X33800000Y-47170000D02*
X35130000Y-47170000D01*
X35130000Y-47170000D02*
X35130000Y-48500000D01*
%TD*%
M02*
