%TF.GenerationSoftware,KiCad,Pcbnew,9.0.0*%
%TF.CreationDate,2025-02-28T11:04:11+07:00*%
%TF.ProjectId,SMT32_Bluepill,534d5433-325f-4426-9c75-6570696c6c2e,rev?*%
%TF.SameCoordinates,Original*%
%TF.FileFunction,AssemblyDrawing,Top*%
%FSLAX46Y46*%
G04 Gerber Fmt 4.6, Leading zero omitted, Abs format (unit mm)*
G04 Created by KiCad (PCBNEW 9.0.0) date 2025-02-28 11:04:11*
%MOMM*%
%LPD*%
G01*
G04 APERTURE LIST*
%ADD10C,0.150000*%
%ADD11C,0.080000*%
%ADD12C,0.120000*%
%ADD13C,0.100000*%
%ADD14C,0.127000*%
%ADD15C,0.200000*%
%ADD16C,0.025400*%
%ADD17C,0.050000*%
G04 APERTURE END LIST*
D10*
X29138095Y-71154819D02*
X29138095Y-71964342D01*
X29138095Y-71964342D02*
X29185714Y-72059580D01*
X29185714Y-72059580D02*
X29233333Y-72107200D01*
X29233333Y-72107200D02*
X29328571Y-72154819D01*
X29328571Y-72154819D02*
X29519047Y-72154819D01*
X29519047Y-72154819D02*
X29614285Y-72107200D01*
X29614285Y-72107200D02*
X29661904Y-72059580D01*
X29661904Y-72059580D02*
X29709523Y-71964342D01*
X29709523Y-71964342D02*
X29709523Y-71154819D01*
X30138095Y-71250057D02*
X30185714Y-71202438D01*
X30185714Y-71202438D02*
X30280952Y-71154819D01*
X30280952Y-71154819D02*
X30519047Y-71154819D01*
X30519047Y-71154819D02*
X30614285Y-71202438D01*
X30614285Y-71202438D02*
X30661904Y-71250057D01*
X30661904Y-71250057D02*
X30709523Y-71345295D01*
X30709523Y-71345295D02*
X30709523Y-71440533D01*
X30709523Y-71440533D02*
X30661904Y-71583390D01*
X30661904Y-71583390D02*
X30090476Y-72154819D01*
X30090476Y-72154819D02*
X30709523Y-72154819D01*
X27504762Y-98862295D02*
X27504762Y-98062295D01*
X27504762Y-98062295D02*
X27809524Y-98062295D01*
X27809524Y-98062295D02*
X27885714Y-98100390D01*
X27885714Y-98100390D02*
X27923809Y-98138485D01*
X27923809Y-98138485D02*
X27961905Y-98214676D01*
X27961905Y-98214676D02*
X27961905Y-98328961D01*
X27961905Y-98328961D02*
X27923809Y-98405152D01*
X27923809Y-98405152D02*
X27885714Y-98443247D01*
X27885714Y-98443247D02*
X27809524Y-98481342D01*
X27809524Y-98481342D02*
X27504762Y-98481342D01*
X28761905Y-98786104D02*
X28723809Y-98824200D01*
X28723809Y-98824200D02*
X28609524Y-98862295D01*
X28609524Y-98862295D02*
X28533333Y-98862295D01*
X28533333Y-98862295D02*
X28419047Y-98824200D01*
X28419047Y-98824200D02*
X28342857Y-98748009D01*
X28342857Y-98748009D02*
X28304762Y-98671819D01*
X28304762Y-98671819D02*
X28266666Y-98519438D01*
X28266666Y-98519438D02*
X28266666Y-98405152D01*
X28266666Y-98405152D02*
X28304762Y-98252771D01*
X28304762Y-98252771D02*
X28342857Y-98176580D01*
X28342857Y-98176580D02*
X28419047Y-98100390D01*
X28419047Y-98100390D02*
X28533333Y-98062295D01*
X28533333Y-98062295D02*
X28609524Y-98062295D01*
X28609524Y-98062295D02*
X28723809Y-98100390D01*
X28723809Y-98100390D02*
X28761905Y-98138485D01*
X29371428Y-98443247D02*
X29485714Y-98481342D01*
X29485714Y-98481342D02*
X29523809Y-98519438D01*
X29523809Y-98519438D02*
X29561905Y-98595628D01*
X29561905Y-98595628D02*
X29561905Y-98709914D01*
X29561905Y-98709914D02*
X29523809Y-98786104D01*
X29523809Y-98786104D02*
X29485714Y-98824200D01*
X29485714Y-98824200D02*
X29409524Y-98862295D01*
X29409524Y-98862295D02*
X29104762Y-98862295D01*
X29104762Y-98862295D02*
X29104762Y-98062295D01*
X29104762Y-98062295D02*
X29371428Y-98062295D01*
X29371428Y-98062295D02*
X29447619Y-98100390D01*
X29447619Y-98100390D02*
X29485714Y-98138485D01*
X29485714Y-98138485D02*
X29523809Y-98214676D01*
X29523809Y-98214676D02*
X29523809Y-98290866D01*
X29523809Y-98290866D02*
X29485714Y-98367057D01*
X29485714Y-98367057D02*
X29447619Y-98405152D01*
X29447619Y-98405152D02*
X29371428Y-98443247D01*
X29371428Y-98443247D02*
X29104762Y-98443247D01*
X30514286Y-98443247D02*
X30780952Y-98443247D01*
X30895238Y-98862295D02*
X30514286Y-98862295D01*
X30514286Y-98862295D02*
X30514286Y-98062295D01*
X30514286Y-98062295D02*
X30895238Y-98062295D01*
X31238096Y-98862295D02*
X31238096Y-98062295D01*
X31238096Y-98062295D02*
X31695239Y-98862295D01*
X31695239Y-98862295D02*
X31695239Y-98062295D01*
X32076191Y-98862295D02*
X32076191Y-98062295D01*
X32076191Y-98062295D02*
X32266667Y-98062295D01*
X32266667Y-98062295D02*
X32380953Y-98100390D01*
X32380953Y-98100390D02*
X32457143Y-98176580D01*
X32457143Y-98176580D02*
X32495238Y-98252771D01*
X32495238Y-98252771D02*
X32533334Y-98405152D01*
X32533334Y-98405152D02*
X32533334Y-98519438D01*
X32533334Y-98519438D02*
X32495238Y-98671819D01*
X32495238Y-98671819D02*
X32457143Y-98748009D01*
X32457143Y-98748009D02*
X32380953Y-98824200D01*
X32380953Y-98824200D02*
X32266667Y-98862295D01*
X32266667Y-98862295D02*
X32076191Y-98862295D01*
X30125919Y-89824099D02*
X30364014Y-89824099D01*
X30268776Y-90062194D02*
X30364014Y-89824099D01*
X30364014Y-89824099D02*
X30268776Y-89586004D01*
X30554490Y-89966956D02*
X30364014Y-89824099D01*
X30364014Y-89824099D02*
X30554490Y-89681242D01*
X33754819Y-88523809D02*
X33278628Y-88857142D01*
X33754819Y-89095237D02*
X32754819Y-89095237D01*
X32754819Y-89095237D02*
X32754819Y-88714285D01*
X32754819Y-88714285D02*
X32802438Y-88619047D01*
X32802438Y-88619047D02*
X32850057Y-88571428D01*
X32850057Y-88571428D02*
X32945295Y-88523809D01*
X32945295Y-88523809D02*
X33088152Y-88523809D01*
X33088152Y-88523809D02*
X33183390Y-88571428D01*
X33183390Y-88571428D02*
X33231009Y-88619047D01*
X33231009Y-88619047D02*
X33278628Y-88714285D01*
X33278628Y-88714285D02*
X33278628Y-89095237D01*
X33707200Y-88142856D02*
X33754819Y-87999999D01*
X33754819Y-87999999D02*
X33754819Y-87761904D01*
X33754819Y-87761904D02*
X33707200Y-87666666D01*
X33707200Y-87666666D02*
X33659580Y-87619047D01*
X33659580Y-87619047D02*
X33564342Y-87571428D01*
X33564342Y-87571428D02*
X33469104Y-87571428D01*
X33469104Y-87571428D02*
X33373866Y-87619047D01*
X33373866Y-87619047D02*
X33326247Y-87666666D01*
X33326247Y-87666666D02*
X33278628Y-87761904D01*
X33278628Y-87761904D02*
X33231009Y-87952380D01*
X33231009Y-87952380D02*
X33183390Y-88047618D01*
X33183390Y-88047618D02*
X33135771Y-88095237D01*
X33135771Y-88095237D02*
X33040533Y-88142856D01*
X33040533Y-88142856D02*
X32945295Y-88142856D01*
X32945295Y-88142856D02*
X32850057Y-88095237D01*
X32850057Y-88095237D02*
X32802438Y-88047618D01*
X32802438Y-88047618D02*
X32754819Y-87952380D01*
X32754819Y-87952380D02*
X32754819Y-87714285D01*
X32754819Y-87714285D02*
X32802438Y-87571428D01*
X32754819Y-87285713D02*
X32754819Y-86714285D01*
X33754819Y-86999999D02*
X32754819Y-86999999D01*
X33754819Y-85857142D02*
X33754819Y-86428570D01*
X33754819Y-86142856D02*
X32754819Y-86142856D01*
X32754819Y-86142856D02*
X32897676Y-86238094D01*
X32897676Y-86238094D02*
X32992914Y-86333332D01*
X32992914Y-86333332D02*
X33040533Y-86428570D01*
X30125919Y-89824099D02*
X30364014Y-89824099D01*
X30268776Y-90062194D02*
X30364014Y-89824099D01*
X30364014Y-89824099D02*
X30268776Y-89586004D01*
X30554490Y-89966956D02*
X30364014Y-89824099D01*
X30364014Y-89824099D02*
X30554490Y-89681242D01*
D11*
X25262202Y-52695899D02*
X25262202Y-52195899D01*
X25262202Y-52195899D02*
X25381250Y-52195899D01*
X25381250Y-52195899D02*
X25452678Y-52219709D01*
X25452678Y-52219709D02*
X25500297Y-52267328D01*
X25500297Y-52267328D02*
X25524107Y-52314947D01*
X25524107Y-52314947D02*
X25547916Y-52410185D01*
X25547916Y-52410185D02*
X25547916Y-52481613D01*
X25547916Y-52481613D02*
X25524107Y-52576851D01*
X25524107Y-52576851D02*
X25500297Y-52624470D01*
X25500297Y-52624470D02*
X25452678Y-52672090D01*
X25452678Y-52672090D02*
X25381250Y-52695899D01*
X25381250Y-52695899D02*
X25262202Y-52695899D01*
X25738393Y-52243518D02*
X25762202Y-52219709D01*
X25762202Y-52219709D02*
X25809821Y-52195899D01*
X25809821Y-52195899D02*
X25928869Y-52195899D01*
X25928869Y-52195899D02*
X25976488Y-52219709D01*
X25976488Y-52219709D02*
X26000297Y-52243518D01*
X26000297Y-52243518D02*
X26024107Y-52291137D01*
X26024107Y-52291137D02*
X26024107Y-52338756D01*
X26024107Y-52338756D02*
X26000297Y-52410185D01*
X26000297Y-52410185D02*
X25714583Y-52695899D01*
X25714583Y-52695899D02*
X26024107Y-52695899D01*
D12*
X27619048Y-57832902D02*
X27619048Y-58213855D01*
X27352381Y-57413855D02*
X27619048Y-57832902D01*
X27619048Y-57832902D02*
X27885714Y-57413855D01*
X28076190Y-57413855D02*
X28571428Y-57413855D01*
X28571428Y-57413855D02*
X28304762Y-57718617D01*
X28304762Y-57718617D02*
X28419047Y-57718617D01*
X28419047Y-57718617D02*
X28495238Y-57756712D01*
X28495238Y-57756712D02*
X28533333Y-57794807D01*
X28533333Y-57794807D02*
X28571428Y-57870998D01*
X28571428Y-57870998D02*
X28571428Y-58061474D01*
X28571428Y-58061474D02*
X28533333Y-58137664D01*
X28533333Y-58137664D02*
X28495238Y-58175760D01*
X28495238Y-58175760D02*
X28419047Y-58213855D01*
X28419047Y-58213855D02*
X28190476Y-58213855D01*
X28190476Y-58213855D02*
X28114285Y-58175760D01*
X28114285Y-58175760D02*
X28076190Y-58137664D01*
D11*
X34030952Y-52627149D02*
X34030952Y-52127149D01*
X34030952Y-52127149D02*
X34150000Y-52127149D01*
X34150000Y-52127149D02*
X34221428Y-52150959D01*
X34221428Y-52150959D02*
X34269047Y-52198578D01*
X34269047Y-52198578D02*
X34292857Y-52246197D01*
X34292857Y-52246197D02*
X34316666Y-52341435D01*
X34316666Y-52341435D02*
X34316666Y-52412863D01*
X34316666Y-52412863D02*
X34292857Y-52508101D01*
X34292857Y-52508101D02*
X34269047Y-52555720D01*
X34269047Y-52555720D02*
X34221428Y-52603340D01*
X34221428Y-52603340D02*
X34150000Y-52627149D01*
X34150000Y-52627149D02*
X34030952Y-52627149D01*
X34792857Y-52627149D02*
X34507143Y-52627149D01*
X34650000Y-52627149D02*
X34650000Y-52127149D01*
X34650000Y-52127149D02*
X34602381Y-52198578D01*
X34602381Y-52198578D02*
X34554762Y-52246197D01*
X34554762Y-52246197D02*
X34507143Y-52270006D01*
D10*
X29483809Y-63378628D02*
X29483809Y-63854819D01*
X29150476Y-62854819D02*
X29483809Y-63378628D01*
X29483809Y-63378628D02*
X29817142Y-62854819D01*
X30102857Y-62950057D02*
X30150476Y-62902438D01*
X30150476Y-62902438D02*
X30245714Y-62854819D01*
X30245714Y-62854819D02*
X30483809Y-62854819D01*
X30483809Y-62854819D02*
X30579047Y-62902438D01*
X30579047Y-62902438D02*
X30626666Y-62950057D01*
X30626666Y-62950057D02*
X30674285Y-63045295D01*
X30674285Y-63045295D02*
X30674285Y-63140533D01*
X30674285Y-63140533D02*
X30626666Y-63283390D01*
X30626666Y-63283390D02*
X30055238Y-63854819D01*
X30055238Y-63854819D02*
X30674285Y-63854819D01*
X26784819Y-88198094D02*
X25784819Y-88198094D01*
X25784819Y-88198094D02*
X25784819Y-87817142D01*
X25784819Y-87817142D02*
X25832438Y-87721904D01*
X25832438Y-87721904D02*
X25880057Y-87674285D01*
X25880057Y-87674285D02*
X25975295Y-87626666D01*
X25975295Y-87626666D02*
X26118152Y-87626666D01*
X26118152Y-87626666D02*
X26213390Y-87674285D01*
X26213390Y-87674285D02*
X26261009Y-87721904D01*
X26261009Y-87721904D02*
X26308628Y-87817142D01*
X26308628Y-87817142D02*
X26308628Y-88198094D01*
X26784819Y-86674285D02*
X26784819Y-87245713D01*
X26784819Y-86959999D02*
X25784819Y-86959999D01*
X25784819Y-86959999D02*
X25927676Y-87055237D01*
X25927676Y-87055237D02*
X26022914Y-87150475D01*
X26022914Y-87150475D02*
X26070533Y-87245713D01*
X29251905Y-48954819D02*
X29251905Y-47954819D01*
X29251905Y-47954819D02*
X29632857Y-47954819D01*
X29632857Y-47954819D02*
X29728095Y-48002438D01*
X29728095Y-48002438D02*
X29775714Y-48050057D01*
X29775714Y-48050057D02*
X29823333Y-48145295D01*
X29823333Y-48145295D02*
X29823333Y-48288152D01*
X29823333Y-48288152D02*
X29775714Y-48383390D01*
X29775714Y-48383390D02*
X29728095Y-48431009D01*
X29728095Y-48431009D02*
X29632857Y-48478628D01*
X29632857Y-48478628D02*
X29251905Y-48478628D01*
X30204286Y-48050057D02*
X30251905Y-48002438D01*
X30251905Y-48002438D02*
X30347143Y-47954819D01*
X30347143Y-47954819D02*
X30585238Y-47954819D01*
X30585238Y-47954819D02*
X30680476Y-48002438D01*
X30680476Y-48002438D02*
X30728095Y-48050057D01*
X30728095Y-48050057D02*
X30775714Y-48145295D01*
X30775714Y-48145295D02*
X30775714Y-48240533D01*
X30775714Y-48240533D02*
X30728095Y-48383390D01*
X30728095Y-48383390D02*
X30156667Y-48954819D01*
X30156667Y-48954819D02*
X30775714Y-48954819D01*
D13*
%TO.C,U2*%
X26400000Y-68200000D02*
X32400000Y-68200000D01*
X26400000Y-75200000D02*
X26400000Y-68200000D01*
X32400000Y-68200000D02*
X33400000Y-69200000D01*
X33400000Y-69200000D02*
X33400000Y-75200000D01*
X33400000Y-75200000D02*
X26400000Y-75200000D01*
D14*
%TO.C,U3*%
X25980000Y-101220000D02*
X34020000Y-101220000D01*
X26250000Y-94300000D02*
X33750000Y-94300000D01*
X26250000Y-100100000D02*
X26250000Y-94300000D01*
X26250000Y-100100000D02*
X39600000Y-100100000D01*
X26250000Y-100600000D02*
X25980000Y-101220000D01*
X26250000Y-100600000D02*
X26250000Y-100100000D01*
X33750000Y-94300000D02*
X33750000Y-100600000D01*
X34020000Y-101220000D02*
X33750000Y-100600000D01*
D15*
X28800000Y-93100000D02*
G75*
G02*
X28600000Y-93100000I-100000J0D01*
G01*
X28600000Y-93100000D02*
G75*
G02*
X28800000Y-93100000I100000J0D01*
G01*
D16*
%TO.C,RST1*%
X30594900Y-84794900D02*
X30594900Y-90205100D01*
X30594900Y-90205100D02*
X36005100Y-90205100D01*
X31196000Y-84200000D02*
X31196000Y-84794900D01*
X31196000Y-84794900D02*
X31704000Y-84794900D01*
X31196000Y-90205100D02*
X31196000Y-90800000D01*
X31196000Y-90800000D02*
X31704000Y-90800000D01*
X31704000Y-84200000D02*
X31196000Y-84200000D01*
X31704000Y-84794900D02*
X31704000Y-84200000D01*
X31704000Y-90205100D02*
X31196000Y-90205100D01*
X31704000Y-90800000D02*
X31704000Y-90205100D01*
X34896000Y-84200000D02*
X34896000Y-84794900D01*
X34896000Y-84794900D02*
X35404000Y-84794900D01*
X34896000Y-90205100D02*
X34896000Y-90800000D01*
X34896000Y-90800000D02*
X35404000Y-90800000D01*
X35404000Y-84200000D02*
X34896000Y-84200000D01*
X35404000Y-84794900D02*
X35404000Y-84200000D01*
X35404000Y-90205100D02*
X34896000Y-90205100D01*
X35404000Y-90800000D02*
X35404000Y-90205100D01*
X36005100Y-84794900D02*
X30594900Y-84794900D01*
X36005100Y-90205100D02*
X36005100Y-84794900D01*
X30594900Y-87195200D02*
G75*
G02*
X30594900Y-87804800I0J-304800D01*
G01*
D13*
%TO.C,D2*%
X24631250Y-51868750D02*
X24631250Y-53068750D01*
X24631250Y-53068750D02*
X26631250Y-53068750D01*
D17*
X25281250Y-52118750D02*
X25981250Y-52468750D01*
X25281250Y-52818750D02*
X25281250Y-52118750D01*
X25981250Y-52468750D02*
X25281250Y-52818750D01*
X25981250Y-52818750D02*
X25981250Y-52118750D01*
X26381250Y-52468750D02*
X24881250Y-52468750D01*
D13*
X26631250Y-51868750D02*
X24631250Y-51868750D01*
X26631250Y-53068750D02*
X26631250Y-51868750D01*
%TO.C,Y3*%
X23250000Y-56370000D02*
X23250000Y-59370000D01*
X23250000Y-59370000D02*
X33750000Y-59370000D01*
X33750000Y-56370000D02*
X23250000Y-56370000D01*
X33750000Y-57270000D02*
X35250000Y-56600000D01*
X33750000Y-58470000D02*
X35250000Y-59140000D01*
X33750000Y-59370000D02*
X33750000Y-56370000D01*
X35250000Y-56600000D02*
X36750000Y-56600000D01*
X35250000Y-59140000D02*
X36750000Y-59140000D01*
%TO.C,D1*%
X33400000Y-51800000D02*
X33400000Y-53000000D01*
X33400000Y-53000000D02*
X35400000Y-53000000D01*
D17*
X33650000Y-52400000D02*
X35150000Y-52400000D01*
X34050000Y-52050000D02*
X34050000Y-52750000D01*
X34050000Y-52400000D02*
X34750000Y-52050000D01*
X34750000Y-52050000D02*
X34750000Y-52750000D01*
X34750000Y-52750000D02*
X34050000Y-52400000D01*
D13*
X35400000Y-51800000D02*
X33400000Y-51800000D01*
X35400000Y-53000000D02*
X35400000Y-51800000D01*
%TO.C,Y2*%
X32960000Y-61400000D02*
X26960000Y-61400000D01*
X32960000Y-65400000D02*
X26960000Y-65400000D01*
X33160000Y-61075000D02*
X26760000Y-61075000D01*
X33160000Y-65725000D02*
X26760000Y-65725000D01*
X26760000Y-65725000D02*
G75*
G02*
X26760000Y-61075000I0J2325000D01*
G01*
X26960000Y-65400000D02*
G75*
G02*
X26960000Y-61400000I0J2000000D01*
G01*
X32960000Y-61400000D02*
G75*
G02*
X32960000Y-65400000I0J-2000000D01*
G01*
X33160000Y-61075000D02*
G75*
G02*
X33160000Y-65725000I0J-2325000D01*
G01*
%TO.C,P1*%
X23790000Y-83650000D02*
X28870000Y-83650000D01*
X23790000Y-91270000D02*
X23790000Y-83650000D01*
X27600000Y-91270000D02*
X23790000Y-91270000D01*
X28870000Y-83650000D02*
X28870000Y-90000000D01*
X28870000Y-90000000D02*
X27600000Y-91270000D01*
%TO.C,P2*%
X24910000Y-47230000D02*
X34435000Y-47230000D01*
X24910000Y-49770000D02*
X24910000Y-47230000D01*
X34435000Y-47230000D02*
X35070000Y-47865000D01*
X35070000Y-47865000D02*
X35070000Y-49770000D01*
X35070000Y-49770000D02*
X24910000Y-49770000D01*
%TD*%
M02*
