%TF.GenerationSoftware,KiCad,Pcbnew,9.0.0*%
%TF.CreationDate,2025-02-28T11:04:11+07:00*%
%TF.ProjectId,SMT32_Bluepill,534d5433-325f-4426-9c75-6570696c6c2e,rev?*%
%TF.SameCoordinates,Original*%
%TF.FileFunction,Other,User*%
%FSLAX46Y46*%
G04 Gerber Fmt 4.6, Leading zero omitted, Abs format (unit mm)*
G04 Created by KiCad (PCBNEW 9.0.0) date 2025-02-28 11:04:11*
%MOMM*%
%LPD*%
G01*
G04 APERTURE LIST*
%ADD10C,0.050000*%
%ADD11C,0.152400*%
G04 APERTURE END LIST*
D10*
%TO.C,U2*%
X24750000Y-68550000D02*
X26150000Y-68550000D01*
X24750000Y-71700000D02*
X24750000Y-68550000D01*
X24750000Y-71700000D02*
X24750000Y-74850000D01*
X24750000Y-74850000D02*
X26150000Y-74850000D01*
X26150000Y-67950000D02*
X26750000Y-67950000D01*
X26150000Y-68550000D02*
X26150000Y-67950000D01*
X26150000Y-74850000D02*
X26150000Y-75450000D01*
X26150000Y-75450000D02*
X26750000Y-75450000D01*
X26750000Y-66550000D02*
X29900000Y-66550000D01*
X26750000Y-67950000D02*
X26750000Y-66550000D01*
X26750000Y-75450000D02*
X26750000Y-76850000D01*
X26750000Y-76850000D02*
X29900000Y-76850000D01*
X33050000Y-66550000D02*
X29900000Y-66550000D01*
X33050000Y-67950000D02*
X33050000Y-66550000D01*
X33050000Y-75450000D02*
X33050000Y-76850000D01*
X33050000Y-76850000D02*
X29900000Y-76850000D01*
X33650000Y-67950000D02*
X33050000Y-67950000D01*
X33650000Y-68550000D02*
X33650000Y-67950000D01*
X33650000Y-74850000D02*
X33650000Y-75450000D01*
X33650000Y-75450000D02*
X33050000Y-75450000D01*
X35050000Y-68550000D02*
X33650000Y-68550000D01*
X35050000Y-71700000D02*
X35050000Y-68550000D01*
X35050000Y-71700000D02*
X35050000Y-74850000D01*
X35050000Y-74850000D02*
X33650000Y-74850000D01*
%TO.C,U3*%
X23825000Y-93425000D02*
X36175000Y-93425000D01*
X23825000Y-101470000D02*
X23825000Y-93425000D01*
X36175000Y-93425000D02*
X36175000Y-101470000D01*
X36175000Y-101470000D02*
X23825000Y-101470000D01*
D11*
%TO.C,RST1*%
X30086900Y-84286900D02*
X30662600Y-84286900D01*
X30086900Y-90713100D02*
X30086900Y-84286900D01*
X30662600Y-83133199D02*
X30662600Y-84286900D01*
X30662600Y-83133199D02*
X35937400Y-83133199D01*
X30662600Y-90713100D02*
X30086900Y-90713100D01*
X30662600Y-91866801D02*
X30662600Y-90713100D01*
X35937400Y-83133199D02*
X35937400Y-84286900D01*
X35937400Y-84286900D02*
X36513100Y-84286900D01*
X35937400Y-91866801D02*
X30662600Y-91866801D01*
X35937400Y-91866801D02*
X35937400Y-90713100D01*
X36513100Y-84286900D02*
X36513100Y-90713100D01*
X36513100Y-90713100D02*
X35937400Y-90713100D01*
D10*
%TO.C,D2*%
X23951250Y-51518750D02*
X27311250Y-51518750D01*
X23951250Y-53418750D02*
X23951250Y-51518750D01*
X27311250Y-51518750D02*
X27311250Y-53418750D01*
X27311250Y-53418750D02*
X23951250Y-53418750D01*
%TO.C,Y3*%
X22450000Y-55600000D02*
X22450000Y-60200000D01*
X22450000Y-60200000D02*
X37550000Y-60200000D01*
X37550000Y-55600000D02*
X22450000Y-55600000D01*
X37550000Y-60200000D02*
X37550000Y-55600000D01*
%TO.C,D1*%
X32720000Y-51450000D02*
X36080000Y-51450000D01*
X32720000Y-53350000D02*
X32720000Y-51450000D01*
X36080000Y-51450000D02*
X36080000Y-53350000D01*
X36080000Y-53350000D02*
X32720000Y-53350000D01*
%TO.C,Y2*%
X23900000Y-60600000D02*
X23900000Y-66200000D01*
X23900000Y-66200000D02*
X36000000Y-66200000D01*
X36000000Y-60600000D02*
X23900000Y-60600000D01*
X36000000Y-66200000D02*
X36000000Y-60600000D01*
%TO.C,P1*%
X23250000Y-83150000D02*
X23250000Y-91800000D01*
X23250000Y-91800000D02*
X29400000Y-91800000D01*
X29400000Y-83150000D02*
X23250000Y-83150000D01*
X29400000Y-91800000D02*
X29400000Y-83150000D01*
%TO.C,P2*%
X24400000Y-46700000D02*
X24400000Y-50300000D01*
X24400000Y-50300000D02*
X35600000Y-50300000D01*
X35600000Y-46700000D02*
X24400000Y-46700000D01*
X35600000Y-50300000D02*
X35600000Y-46700000D01*
%TD*%
M02*
