%TF.GenerationSoftware,KiCad,Pcbnew,9.0.0*%
%TF.CreationDate,2025-02-28T11:04:11+07:00*%
%TF.ProjectId,SMT32_Bluepill,534d5433-325f-4426-9c75-6570696c6c2e,rev?*%
%TF.SameCoordinates,Original*%
%TF.FileFunction,Copper,L2,Bot*%
%TF.FilePolarity,Positive*%
%FSLAX46Y46*%
G04 Gerber Fmt 4.6, Leading zero omitted, Abs format (unit mm)*
G04 Created by KiCad (PCBNEW 9.0.0) date 2025-02-28 11:04:11*
%MOMM*%
%LPD*%
G01*
G04 APERTURE LIST*
G04 Aperture macros list*
%AMRoundRect*
0 Rectangle with rounded corners*
0 $1 Rounding radius*
0 $2 $3 $4 $5 $6 $7 $8 $9 X,Y pos of 4 corners*
0 Add a 4 corners polygon primitive as box body*
4,1,4,$2,$3,$4,$5,$6,$7,$8,$9,$2,$3,0*
0 Add four circle primitives for the rounded corners*
1,1,$1+$1,$2,$3*
1,1,$1+$1,$4,$5*
1,1,$1+$1,$6,$7*
1,1,$1+$1,$8,$9*
0 Add four rect primitives between the rounded corners*
20,1,$1+$1,$2,$3,$4,$5,0*
20,1,$1+$1,$4,$5,$6,$7,0*
20,1,$1+$1,$6,$7,$8,$9,0*
20,1,$1+$1,$8,$9,$2,$3,0*%
G04 Aperture macros list end*
%TA.AperFunction,EtchedComponent*%
%ADD10C,0.010000*%
%TD*%
%TA.AperFunction,ComponentPad*%
%ADD11C,1.650000*%
%TD*%
%TA.AperFunction,ComponentPad*%
%ADD12C,1.000000*%
%TD*%
%TA.AperFunction,ComponentPad*%
%ADD13C,1.500000*%
%TD*%
%TA.AperFunction,ComponentPad*%
%ADD14R,1.700000X1.700000*%
%TD*%
%TA.AperFunction,ComponentPad*%
%ADD15O,1.700000X1.700000*%
%TD*%
%TA.AperFunction,SMDPad,CuDef*%
%ADD16RoundRect,0.200000X0.200000X0.275000X-0.200000X0.275000X-0.200000X-0.275000X0.200000X-0.275000X0*%
%TD*%
%TA.AperFunction,SMDPad,CuDef*%
%ADD17RoundRect,0.200000X-0.200000X-0.275000X0.200000X-0.275000X0.200000X0.275000X-0.200000X0.275000X0*%
%TD*%
%TA.AperFunction,SMDPad,CuDef*%
%ADD18RoundRect,0.250000X0.250000X0.475000X-0.250000X0.475000X-0.250000X-0.475000X0.250000X-0.475000X0*%
%TD*%
%TA.AperFunction,SMDPad,CuDef*%
%ADD19RoundRect,0.225000X0.225000X0.250000X-0.225000X0.250000X-0.225000X-0.250000X0.225000X-0.250000X0*%
%TD*%
%TA.AperFunction,SMDPad,CuDef*%
%ADD20RoundRect,0.225000X0.250000X-0.225000X0.250000X0.225000X-0.250000X0.225000X-0.250000X-0.225000X0*%
%TD*%
%TA.AperFunction,SMDPad,CuDef*%
%ADD21RoundRect,0.225000X-0.225000X-0.250000X0.225000X-0.250000X0.225000X0.250000X-0.225000X0.250000X0*%
%TD*%
%TA.AperFunction,SMDPad,CuDef*%
%ADD22R,0.650000X1.250000*%
%TD*%
%TA.AperFunction,ViaPad*%
%ADD23C,0.600000*%
%TD*%
%TA.AperFunction,Conductor*%
%ADD24C,0.254000*%
%TD*%
G04 APERTURE END LIST*
D10*
%TO.C,U3*%
X25456000Y-93677000D02*
X25472000Y-93679000D01*
X25487000Y-93682000D01*
X25503000Y-93685000D01*
X25518000Y-93690000D01*
X25533000Y-93695000D01*
X25547000Y-93701000D01*
X25561000Y-93708000D01*
X25575000Y-93715000D01*
X25588000Y-93723000D01*
X25601000Y-93732000D01*
X25614000Y-93742000D01*
X25626000Y-93752000D01*
X25637000Y-93763000D01*
X25648000Y-93774000D01*
X25658000Y-93786000D01*
X25668000Y-93799000D01*
X25677000Y-93812000D01*
X25685000Y-93825000D01*
X25692000Y-93839000D01*
X25699000Y-93853000D01*
X25705000Y-93867000D01*
X25710000Y-93882000D01*
X25715000Y-93897000D01*
X25718000Y-93913000D01*
X25721000Y-93928000D01*
X25723000Y-93944000D01*
X25725000Y-93959000D01*
X25725000Y-93975000D01*
X25725000Y-95625000D01*
X25725000Y-95641000D01*
X25723000Y-95656000D01*
X25721000Y-95672000D01*
X25718000Y-95687000D01*
X25715000Y-95703000D01*
X25710000Y-95718000D01*
X25705000Y-95733000D01*
X25699000Y-95747000D01*
X25692000Y-95761000D01*
X25685000Y-95775000D01*
X25677000Y-95788000D01*
X25668000Y-95801000D01*
X25658000Y-95814000D01*
X25648000Y-95826000D01*
X25637000Y-95837000D01*
X25626000Y-95848000D01*
X25614000Y-95858000D01*
X25601000Y-95868000D01*
X25588000Y-95877000D01*
X25575000Y-95885000D01*
X25561000Y-95892000D01*
X25547000Y-95899000D01*
X25533000Y-95905000D01*
X25518000Y-95910000D01*
X25503000Y-95915000D01*
X25487000Y-95918000D01*
X25472000Y-95921000D01*
X25456000Y-95923000D01*
X25441000Y-95925000D01*
X25425000Y-95925000D01*
X24375000Y-95925000D01*
X24359000Y-95925000D01*
X24344000Y-95923000D01*
X24328000Y-95921000D01*
X24313000Y-95918000D01*
X24297000Y-95915000D01*
X24282000Y-95910000D01*
X24267000Y-95905000D01*
X24253000Y-95899000D01*
X24239000Y-95892000D01*
X24225000Y-95885000D01*
X24212000Y-95877000D01*
X24199000Y-95868000D01*
X24186000Y-95858000D01*
X24174000Y-95848000D01*
X24163000Y-95837000D01*
X24152000Y-95826000D01*
X24142000Y-95814000D01*
X24132000Y-95801000D01*
X24123000Y-95788000D01*
X24115000Y-95775000D01*
X24108000Y-95761000D01*
X24101000Y-95747000D01*
X24095000Y-95733000D01*
X24090000Y-95718000D01*
X24085000Y-95703000D01*
X24082000Y-95687000D01*
X24079000Y-95672000D01*
X24077000Y-95656000D01*
X24075000Y-95641000D01*
X24075000Y-95625000D01*
X24075000Y-93975000D01*
X24075000Y-93959000D01*
X24077000Y-93944000D01*
X24079000Y-93928000D01*
X24082000Y-93913000D01*
X24085000Y-93897000D01*
X24090000Y-93882000D01*
X24095000Y-93867000D01*
X24101000Y-93853000D01*
X24108000Y-93839000D01*
X24115000Y-93825000D01*
X24123000Y-93812000D01*
X24132000Y-93799000D01*
X24142000Y-93786000D01*
X24152000Y-93774000D01*
X24163000Y-93763000D01*
X24174000Y-93752000D01*
X24186000Y-93742000D01*
X24199000Y-93732000D01*
X24212000Y-93723000D01*
X24225000Y-93715000D01*
X24239000Y-93708000D01*
X24253000Y-93701000D01*
X24267000Y-93695000D01*
X24282000Y-93690000D01*
X24297000Y-93685000D01*
X24313000Y-93682000D01*
X24328000Y-93679000D01*
X24344000Y-93677000D01*
X24359000Y-93675000D01*
X24375000Y-93675000D01*
X25425000Y-93675000D01*
X25441000Y-93675000D01*
X25456000Y-93677000D01*
%TA.AperFunction,EtchedComponent*%
G36*
X25456000Y-93677000D02*
G01*
X25472000Y-93679000D01*
X25487000Y-93682000D01*
X25503000Y-93685000D01*
X25518000Y-93690000D01*
X25533000Y-93695000D01*
X25547000Y-93701000D01*
X25561000Y-93708000D01*
X25575000Y-93715000D01*
X25588000Y-93723000D01*
X25601000Y-93732000D01*
X25614000Y-93742000D01*
X25626000Y-93752000D01*
X25637000Y-93763000D01*
X25648000Y-93774000D01*
X25658000Y-93786000D01*
X25668000Y-93799000D01*
X25677000Y-93812000D01*
X25685000Y-93825000D01*
X25692000Y-93839000D01*
X25699000Y-93853000D01*
X25705000Y-93867000D01*
X25710000Y-93882000D01*
X25715000Y-93897000D01*
X25718000Y-93913000D01*
X25721000Y-93928000D01*
X25723000Y-93944000D01*
X25725000Y-93959000D01*
X25725000Y-93975000D01*
X25725000Y-95625000D01*
X25725000Y-95641000D01*
X25723000Y-95656000D01*
X25721000Y-95672000D01*
X25718000Y-95687000D01*
X25715000Y-95703000D01*
X25710000Y-95718000D01*
X25705000Y-95733000D01*
X25699000Y-95747000D01*
X25692000Y-95761000D01*
X25685000Y-95775000D01*
X25677000Y-95788000D01*
X25668000Y-95801000D01*
X25658000Y-95814000D01*
X25648000Y-95826000D01*
X25637000Y-95837000D01*
X25626000Y-95848000D01*
X25614000Y-95858000D01*
X25601000Y-95868000D01*
X25588000Y-95877000D01*
X25575000Y-95885000D01*
X25561000Y-95892000D01*
X25547000Y-95899000D01*
X25533000Y-95905000D01*
X25518000Y-95910000D01*
X25503000Y-95915000D01*
X25487000Y-95918000D01*
X25472000Y-95921000D01*
X25456000Y-95923000D01*
X25441000Y-95925000D01*
X25425000Y-95925000D01*
X24375000Y-95925000D01*
X24359000Y-95925000D01*
X24344000Y-95923000D01*
X24328000Y-95921000D01*
X24313000Y-95918000D01*
X24297000Y-95915000D01*
X24282000Y-95910000D01*
X24267000Y-95905000D01*
X24253000Y-95899000D01*
X24239000Y-95892000D01*
X24225000Y-95885000D01*
X24212000Y-95877000D01*
X24199000Y-95868000D01*
X24186000Y-95858000D01*
X24174000Y-95848000D01*
X24163000Y-95837000D01*
X24152000Y-95826000D01*
X24142000Y-95814000D01*
X24132000Y-95801000D01*
X24123000Y-95788000D01*
X24115000Y-95775000D01*
X24108000Y-95761000D01*
X24101000Y-95747000D01*
X24095000Y-95733000D01*
X24090000Y-95718000D01*
X24085000Y-95703000D01*
X24082000Y-95687000D01*
X24079000Y-95672000D01*
X24077000Y-95656000D01*
X24075000Y-95641000D01*
X24075000Y-95625000D01*
X24075000Y-93975000D01*
X24075000Y-93959000D01*
X24077000Y-93944000D01*
X24079000Y-93928000D01*
X24082000Y-93913000D01*
X24085000Y-93897000D01*
X24090000Y-93882000D01*
X24095000Y-93867000D01*
X24101000Y-93853000D01*
X24108000Y-93839000D01*
X24115000Y-93825000D01*
X24123000Y-93812000D01*
X24132000Y-93799000D01*
X24142000Y-93786000D01*
X24152000Y-93774000D01*
X24163000Y-93763000D01*
X24174000Y-93752000D01*
X24186000Y-93742000D01*
X24199000Y-93732000D01*
X24212000Y-93723000D01*
X24225000Y-93715000D01*
X24239000Y-93708000D01*
X24253000Y-93701000D01*
X24267000Y-93695000D01*
X24282000Y-93690000D01*
X24297000Y-93685000D01*
X24313000Y-93682000D01*
X24328000Y-93679000D01*
X24344000Y-93677000D01*
X24359000Y-93675000D01*
X24375000Y-93675000D01*
X25425000Y-93675000D01*
X25441000Y-93675000D01*
X25456000Y-93677000D01*
G37*
%TD.AperFunction*%
X25456000Y-97377000D02*
X25472000Y-97379000D01*
X25487000Y-97382000D01*
X25503000Y-97385000D01*
X25518000Y-97390000D01*
X25533000Y-97395000D01*
X25547000Y-97401000D01*
X25561000Y-97408000D01*
X25575000Y-97415000D01*
X25588000Y-97423000D01*
X25601000Y-97432000D01*
X25614000Y-97442000D01*
X25626000Y-97452000D01*
X25637000Y-97463000D01*
X25648000Y-97474000D01*
X25658000Y-97486000D01*
X25668000Y-97499000D01*
X25677000Y-97512000D01*
X25685000Y-97525000D01*
X25692000Y-97539000D01*
X25699000Y-97553000D01*
X25705000Y-97567000D01*
X25710000Y-97582000D01*
X25715000Y-97597000D01*
X25718000Y-97613000D01*
X25721000Y-97628000D01*
X25723000Y-97644000D01*
X25725000Y-97659000D01*
X25725000Y-97675000D01*
X25725000Y-99325000D01*
X25725000Y-99341000D01*
X25723000Y-99356000D01*
X25721000Y-99372000D01*
X25718000Y-99387000D01*
X25715000Y-99403000D01*
X25710000Y-99418000D01*
X25705000Y-99433000D01*
X25699000Y-99447000D01*
X25692000Y-99461000D01*
X25685000Y-99475000D01*
X25677000Y-99488000D01*
X25668000Y-99501000D01*
X25658000Y-99514000D01*
X25648000Y-99526000D01*
X25637000Y-99537000D01*
X25626000Y-99548000D01*
X25614000Y-99558000D01*
X25601000Y-99568000D01*
X25588000Y-99577000D01*
X25575000Y-99585000D01*
X25561000Y-99592000D01*
X25547000Y-99599000D01*
X25533000Y-99605000D01*
X25518000Y-99610000D01*
X25503000Y-99615000D01*
X25487000Y-99618000D01*
X25472000Y-99621000D01*
X25456000Y-99623000D01*
X25441000Y-99625000D01*
X25425000Y-99625000D01*
X24375000Y-99625000D01*
X24359000Y-99625000D01*
X24344000Y-99623000D01*
X24328000Y-99621000D01*
X24313000Y-99618000D01*
X24297000Y-99615000D01*
X24282000Y-99610000D01*
X24267000Y-99605000D01*
X24253000Y-99599000D01*
X24239000Y-99592000D01*
X24225000Y-99585000D01*
X24212000Y-99577000D01*
X24199000Y-99568000D01*
X24186000Y-99558000D01*
X24174000Y-99548000D01*
X24163000Y-99537000D01*
X24152000Y-99526000D01*
X24142000Y-99514000D01*
X24132000Y-99501000D01*
X24123000Y-99488000D01*
X24115000Y-99475000D01*
X24108000Y-99461000D01*
X24101000Y-99447000D01*
X24095000Y-99433000D01*
X24090000Y-99418000D01*
X24085000Y-99403000D01*
X24082000Y-99387000D01*
X24079000Y-99372000D01*
X24077000Y-99356000D01*
X24075000Y-99341000D01*
X24075000Y-99325000D01*
X24075000Y-97675000D01*
X24075000Y-97659000D01*
X24077000Y-97644000D01*
X24079000Y-97628000D01*
X24082000Y-97613000D01*
X24085000Y-97597000D01*
X24090000Y-97582000D01*
X24095000Y-97567000D01*
X24101000Y-97553000D01*
X24108000Y-97539000D01*
X24115000Y-97525000D01*
X24123000Y-97512000D01*
X24132000Y-97499000D01*
X24142000Y-97486000D01*
X24152000Y-97474000D01*
X24163000Y-97463000D01*
X24174000Y-97452000D01*
X24186000Y-97442000D01*
X24199000Y-97432000D01*
X24212000Y-97423000D01*
X24225000Y-97415000D01*
X24239000Y-97408000D01*
X24253000Y-97401000D01*
X24267000Y-97395000D01*
X24282000Y-97390000D01*
X24297000Y-97385000D01*
X24313000Y-97382000D01*
X24328000Y-97379000D01*
X24344000Y-97377000D01*
X24359000Y-97375000D01*
X24375000Y-97375000D01*
X25425000Y-97375000D01*
X25441000Y-97375000D01*
X25456000Y-97377000D01*
%TA.AperFunction,EtchedComponent*%
G36*
X25456000Y-97377000D02*
G01*
X25472000Y-97379000D01*
X25487000Y-97382000D01*
X25503000Y-97385000D01*
X25518000Y-97390000D01*
X25533000Y-97395000D01*
X25547000Y-97401000D01*
X25561000Y-97408000D01*
X25575000Y-97415000D01*
X25588000Y-97423000D01*
X25601000Y-97432000D01*
X25614000Y-97442000D01*
X25626000Y-97452000D01*
X25637000Y-97463000D01*
X25648000Y-97474000D01*
X25658000Y-97486000D01*
X25668000Y-97499000D01*
X25677000Y-97512000D01*
X25685000Y-97525000D01*
X25692000Y-97539000D01*
X25699000Y-97553000D01*
X25705000Y-97567000D01*
X25710000Y-97582000D01*
X25715000Y-97597000D01*
X25718000Y-97613000D01*
X25721000Y-97628000D01*
X25723000Y-97644000D01*
X25725000Y-97659000D01*
X25725000Y-97675000D01*
X25725000Y-99325000D01*
X25725000Y-99341000D01*
X25723000Y-99356000D01*
X25721000Y-99372000D01*
X25718000Y-99387000D01*
X25715000Y-99403000D01*
X25710000Y-99418000D01*
X25705000Y-99433000D01*
X25699000Y-99447000D01*
X25692000Y-99461000D01*
X25685000Y-99475000D01*
X25677000Y-99488000D01*
X25668000Y-99501000D01*
X25658000Y-99514000D01*
X25648000Y-99526000D01*
X25637000Y-99537000D01*
X25626000Y-99548000D01*
X25614000Y-99558000D01*
X25601000Y-99568000D01*
X25588000Y-99577000D01*
X25575000Y-99585000D01*
X25561000Y-99592000D01*
X25547000Y-99599000D01*
X25533000Y-99605000D01*
X25518000Y-99610000D01*
X25503000Y-99615000D01*
X25487000Y-99618000D01*
X25472000Y-99621000D01*
X25456000Y-99623000D01*
X25441000Y-99625000D01*
X25425000Y-99625000D01*
X24375000Y-99625000D01*
X24359000Y-99625000D01*
X24344000Y-99623000D01*
X24328000Y-99621000D01*
X24313000Y-99618000D01*
X24297000Y-99615000D01*
X24282000Y-99610000D01*
X24267000Y-99605000D01*
X24253000Y-99599000D01*
X24239000Y-99592000D01*
X24225000Y-99585000D01*
X24212000Y-99577000D01*
X24199000Y-99568000D01*
X24186000Y-99558000D01*
X24174000Y-99548000D01*
X24163000Y-99537000D01*
X24152000Y-99526000D01*
X24142000Y-99514000D01*
X24132000Y-99501000D01*
X24123000Y-99488000D01*
X24115000Y-99475000D01*
X24108000Y-99461000D01*
X24101000Y-99447000D01*
X24095000Y-99433000D01*
X24090000Y-99418000D01*
X24085000Y-99403000D01*
X24082000Y-99387000D01*
X24079000Y-99372000D01*
X24077000Y-99356000D01*
X24075000Y-99341000D01*
X24075000Y-99325000D01*
X24075000Y-97675000D01*
X24075000Y-97659000D01*
X24077000Y-97644000D01*
X24079000Y-97628000D01*
X24082000Y-97613000D01*
X24085000Y-97597000D01*
X24090000Y-97582000D01*
X24095000Y-97567000D01*
X24101000Y-97553000D01*
X24108000Y-97539000D01*
X24115000Y-97525000D01*
X24123000Y-97512000D01*
X24132000Y-97499000D01*
X24142000Y-97486000D01*
X24152000Y-97474000D01*
X24163000Y-97463000D01*
X24174000Y-97452000D01*
X24186000Y-97442000D01*
X24199000Y-97432000D01*
X24212000Y-97423000D01*
X24225000Y-97415000D01*
X24239000Y-97408000D01*
X24253000Y-97401000D01*
X24267000Y-97395000D01*
X24282000Y-97390000D01*
X24297000Y-97385000D01*
X24313000Y-97382000D01*
X24328000Y-97379000D01*
X24344000Y-97377000D01*
X24359000Y-97375000D01*
X24375000Y-97375000D01*
X25425000Y-97375000D01*
X25441000Y-97375000D01*
X25456000Y-97377000D01*
G37*
%TD.AperFunction*%
X35656000Y-93677000D02*
X35672000Y-93679000D01*
X35687000Y-93682000D01*
X35703000Y-93685000D01*
X35718000Y-93690000D01*
X35733000Y-93695000D01*
X35747000Y-93701000D01*
X35761000Y-93708000D01*
X35775000Y-93715000D01*
X35788000Y-93723000D01*
X35801000Y-93732000D01*
X35814000Y-93742000D01*
X35826000Y-93752000D01*
X35837000Y-93763000D01*
X35848000Y-93774000D01*
X35858000Y-93786000D01*
X35868000Y-93799000D01*
X35877000Y-93812000D01*
X35885000Y-93825000D01*
X35892000Y-93839000D01*
X35899000Y-93853000D01*
X35905000Y-93867000D01*
X35910000Y-93882000D01*
X35915000Y-93897000D01*
X35918000Y-93913000D01*
X35921000Y-93928000D01*
X35923000Y-93944000D01*
X35925000Y-93959000D01*
X35925000Y-93975000D01*
X35925000Y-95625000D01*
X35925000Y-95641000D01*
X35923000Y-95656000D01*
X35921000Y-95672000D01*
X35918000Y-95687000D01*
X35915000Y-95703000D01*
X35910000Y-95718000D01*
X35905000Y-95733000D01*
X35899000Y-95747000D01*
X35892000Y-95761000D01*
X35885000Y-95775000D01*
X35877000Y-95788000D01*
X35868000Y-95801000D01*
X35858000Y-95814000D01*
X35848000Y-95826000D01*
X35837000Y-95837000D01*
X35826000Y-95848000D01*
X35814000Y-95858000D01*
X35801000Y-95868000D01*
X35788000Y-95877000D01*
X35775000Y-95885000D01*
X35761000Y-95892000D01*
X35747000Y-95899000D01*
X35733000Y-95905000D01*
X35718000Y-95910000D01*
X35703000Y-95915000D01*
X35687000Y-95918000D01*
X35672000Y-95921000D01*
X35656000Y-95923000D01*
X35641000Y-95925000D01*
X35625000Y-95925000D01*
X34575000Y-95925000D01*
X34559000Y-95925000D01*
X34544000Y-95923000D01*
X34528000Y-95921000D01*
X34513000Y-95918000D01*
X34497000Y-95915000D01*
X34482000Y-95910000D01*
X34467000Y-95905000D01*
X34453000Y-95899000D01*
X34439000Y-95892000D01*
X34425000Y-95885000D01*
X34412000Y-95877000D01*
X34399000Y-95868000D01*
X34386000Y-95858000D01*
X34374000Y-95848000D01*
X34363000Y-95837000D01*
X34352000Y-95826000D01*
X34342000Y-95814000D01*
X34332000Y-95801000D01*
X34323000Y-95788000D01*
X34315000Y-95775000D01*
X34308000Y-95761000D01*
X34301000Y-95747000D01*
X34295000Y-95733000D01*
X34290000Y-95718000D01*
X34285000Y-95703000D01*
X34282000Y-95687000D01*
X34279000Y-95672000D01*
X34277000Y-95656000D01*
X34275000Y-95641000D01*
X34275000Y-95625000D01*
X34275000Y-93975000D01*
X34275000Y-93959000D01*
X34277000Y-93944000D01*
X34279000Y-93928000D01*
X34282000Y-93913000D01*
X34285000Y-93897000D01*
X34290000Y-93882000D01*
X34295000Y-93867000D01*
X34301000Y-93853000D01*
X34308000Y-93839000D01*
X34315000Y-93825000D01*
X34323000Y-93812000D01*
X34332000Y-93799000D01*
X34342000Y-93786000D01*
X34352000Y-93774000D01*
X34363000Y-93763000D01*
X34374000Y-93752000D01*
X34386000Y-93742000D01*
X34399000Y-93732000D01*
X34412000Y-93723000D01*
X34425000Y-93715000D01*
X34439000Y-93708000D01*
X34453000Y-93701000D01*
X34467000Y-93695000D01*
X34482000Y-93690000D01*
X34497000Y-93685000D01*
X34513000Y-93682000D01*
X34528000Y-93679000D01*
X34544000Y-93677000D01*
X34559000Y-93675000D01*
X34575000Y-93675000D01*
X35625000Y-93675000D01*
X35641000Y-93675000D01*
X35656000Y-93677000D01*
%TA.AperFunction,EtchedComponent*%
G36*
X35656000Y-93677000D02*
G01*
X35672000Y-93679000D01*
X35687000Y-93682000D01*
X35703000Y-93685000D01*
X35718000Y-93690000D01*
X35733000Y-93695000D01*
X35747000Y-93701000D01*
X35761000Y-93708000D01*
X35775000Y-93715000D01*
X35788000Y-93723000D01*
X35801000Y-93732000D01*
X35814000Y-93742000D01*
X35826000Y-93752000D01*
X35837000Y-93763000D01*
X35848000Y-93774000D01*
X35858000Y-93786000D01*
X35868000Y-93799000D01*
X35877000Y-93812000D01*
X35885000Y-93825000D01*
X35892000Y-93839000D01*
X35899000Y-93853000D01*
X35905000Y-93867000D01*
X35910000Y-93882000D01*
X35915000Y-93897000D01*
X35918000Y-93913000D01*
X35921000Y-93928000D01*
X35923000Y-93944000D01*
X35925000Y-93959000D01*
X35925000Y-93975000D01*
X35925000Y-95625000D01*
X35925000Y-95641000D01*
X35923000Y-95656000D01*
X35921000Y-95672000D01*
X35918000Y-95687000D01*
X35915000Y-95703000D01*
X35910000Y-95718000D01*
X35905000Y-95733000D01*
X35899000Y-95747000D01*
X35892000Y-95761000D01*
X35885000Y-95775000D01*
X35877000Y-95788000D01*
X35868000Y-95801000D01*
X35858000Y-95814000D01*
X35848000Y-95826000D01*
X35837000Y-95837000D01*
X35826000Y-95848000D01*
X35814000Y-95858000D01*
X35801000Y-95868000D01*
X35788000Y-95877000D01*
X35775000Y-95885000D01*
X35761000Y-95892000D01*
X35747000Y-95899000D01*
X35733000Y-95905000D01*
X35718000Y-95910000D01*
X35703000Y-95915000D01*
X35687000Y-95918000D01*
X35672000Y-95921000D01*
X35656000Y-95923000D01*
X35641000Y-95925000D01*
X35625000Y-95925000D01*
X34575000Y-95925000D01*
X34559000Y-95925000D01*
X34544000Y-95923000D01*
X34528000Y-95921000D01*
X34513000Y-95918000D01*
X34497000Y-95915000D01*
X34482000Y-95910000D01*
X34467000Y-95905000D01*
X34453000Y-95899000D01*
X34439000Y-95892000D01*
X34425000Y-95885000D01*
X34412000Y-95877000D01*
X34399000Y-95868000D01*
X34386000Y-95858000D01*
X34374000Y-95848000D01*
X34363000Y-95837000D01*
X34352000Y-95826000D01*
X34342000Y-95814000D01*
X34332000Y-95801000D01*
X34323000Y-95788000D01*
X34315000Y-95775000D01*
X34308000Y-95761000D01*
X34301000Y-95747000D01*
X34295000Y-95733000D01*
X34290000Y-95718000D01*
X34285000Y-95703000D01*
X34282000Y-95687000D01*
X34279000Y-95672000D01*
X34277000Y-95656000D01*
X34275000Y-95641000D01*
X34275000Y-95625000D01*
X34275000Y-93975000D01*
X34275000Y-93959000D01*
X34277000Y-93944000D01*
X34279000Y-93928000D01*
X34282000Y-93913000D01*
X34285000Y-93897000D01*
X34290000Y-93882000D01*
X34295000Y-93867000D01*
X34301000Y-93853000D01*
X34308000Y-93839000D01*
X34315000Y-93825000D01*
X34323000Y-93812000D01*
X34332000Y-93799000D01*
X34342000Y-93786000D01*
X34352000Y-93774000D01*
X34363000Y-93763000D01*
X34374000Y-93752000D01*
X34386000Y-93742000D01*
X34399000Y-93732000D01*
X34412000Y-93723000D01*
X34425000Y-93715000D01*
X34439000Y-93708000D01*
X34453000Y-93701000D01*
X34467000Y-93695000D01*
X34482000Y-93690000D01*
X34497000Y-93685000D01*
X34513000Y-93682000D01*
X34528000Y-93679000D01*
X34544000Y-93677000D01*
X34559000Y-93675000D01*
X34575000Y-93675000D01*
X35625000Y-93675000D01*
X35641000Y-93675000D01*
X35656000Y-93677000D01*
G37*
%TD.AperFunction*%
X35656000Y-97377000D02*
X35672000Y-97379000D01*
X35687000Y-97382000D01*
X35703000Y-97385000D01*
X35718000Y-97390000D01*
X35733000Y-97395000D01*
X35747000Y-97401000D01*
X35761000Y-97408000D01*
X35775000Y-97415000D01*
X35788000Y-97423000D01*
X35801000Y-97432000D01*
X35814000Y-97442000D01*
X35826000Y-97452000D01*
X35837000Y-97463000D01*
X35848000Y-97474000D01*
X35858000Y-97486000D01*
X35868000Y-97499000D01*
X35877000Y-97512000D01*
X35885000Y-97525000D01*
X35892000Y-97539000D01*
X35899000Y-97553000D01*
X35905000Y-97567000D01*
X35910000Y-97582000D01*
X35915000Y-97597000D01*
X35918000Y-97613000D01*
X35921000Y-97628000D01*
X35923000Y-97644000D01*
X35925000Y-97659000D01*
X35925000Y-97675000D01*
X35925000Y-99325000D01*
X35925000Y-99341000D01*
X35923000Y-99356000D01*
X35921000Y-99372000D01*
X35918000Y-99387000D01*
X35915000Y-99403000D01*
X35910000Y-99418000D01*
X35905000Y-99433000D01*
X35899000Y-99447000D01*
X35892000Y-99461000D01*
X35885000Y-99475000D01*
X35877000Y-99488000D01*
X35868000Y-99501000D01*
X35858000Y-99514000D01*
X35848000Y-99526000D01*
X35837000Y-99537000D01*
X35826000Y-99548000D01*
X35814000Y-99558000D01*
X35801000Y-99568000D01*
X35788000Y-99577000D01*
X35775000Y-99585000D01*
X35761000Y-99592000D01*
X35747000Y-99599000D01*
X35733000Y-99605000D01*
X35718000Y-99610000D01*
X35703000Y-99615000D01*
X35687000Y-99618000D01*
X35672000Y-99621000D01*
X35656000Y-99623000D01*
X35641000Y-99625000D01*
X35625000Y-99625000D01*
X34575000Y-99625000D01*
X34559000Y-99625000D01*
X34544000Y-99623000D01*
X34528000Y-99621000D01*
X34513000Y-99618000D01*
X34497000Y-99615000D01*
X34482000Y-99610000D01*
X34467000Y-99605000D01*
X34453000Y-99599000D01*
X34439000Y-99592000D01*
X34425000Y-99585000D01*
X34412000Y-99577000D01*
X34399000Y-99568000D01*
X34386000Y-99558000D01*
X34374000Y-99548000D01*
X34363000Y-99537000D01*
X34352000Y-99526000D01*
X34342000Y-99514000D01*
X34332000Y-99501000D01*
X34323000Y-99488000D01*
X34315000Y-99475000D01*
X34308000Y-99461000D01*
X34301000Y-99447000D01*
X34295000Y-99433000D01*
X34290000Y-99418000D01*
X34285000Y-99403000D01*
X34282000Y-99387000D01*
X34279000Y-99372000D01*
X34277000Y-99356000D01*
X34275000Y-99341000D01*
X34275000Y-99325000D01*
X34275000Y-97675000D01*
X34275000Y-97659000D01*
X34277000Y-97644000D01*
X34279000Y-97628000D01*
X34282000Y-97613000D01*
X34285000Y-97597000D01*
X34290000Y-97582000D01*
X34295000Y-97567000D01*
X34301000Y-97553000D01*
X34308000Y-97539000D01*
X34315000Y-97525000D01*
X34323000Y-97512000D01*
X34332000Y-97499000D01*
X34342000Y-97486000D01*
X34352000Y-97474000D01*
X34363000Y-97463000D01*
X34374000Y-97452000D01*
X34386000Y-97442000D01*
X34399000Y-97432000D01*
X34412000Y-97423000D01*
X34425000Y-97415000D01*
X34439000Y-97408000D01*
X34453000Y-97401000D01*
X34467000Y-97395000D01*
X34482000Y-97390000D01*
X34497000Y-97385000D01*
X34513000Y-97382000D01*
X34528000Y-97379000D01*
X34544000Y-97377000D01*
X34559000Y-97375000D01*
X34575000Y-97375000D01*
X35625000Y-97375000D01*
X35641000Y-97375000D01*
X35656000Y-97377000D01*
%TA.AperFunction,EtchedComponent*%
G36*
X35656000Y-97377000D02*
G01*
X35672000Y-97379000D01*
X35687000Y-97382000D01*
X35703000Y-97385000D01*
X35718000Y-97390000D01*
X35733000Y-97395000D01*
X35747000Y-97401000D01*
X35761000Y-97408000D01*
X35775000Y-97415000D01*
X35788000Y-97423000D01*
X35801000Y-97432000D01*
X35814000Y-97442000D01*
X35826000Y-97452000D01*
X35837000Y-97463000D01*
X35848000Y-97474000D01*
X35858000Y-97486000D01*
X35868000Y-97499000D01*
X35877000Y-97512000D01*
X35885000Y-97525000D01*
X35892000Y-97539000D01*
X35899000Y-97553000D01*
X35905000Y-97567000D01*
X35910000Y-97582000D01*
X35915000Y-97597000D01*
X35918000Y-97613000D01*
X35921000Y-97628000D01*
X35923000Y-97644000D01*
X35925000Y-97659000D01*
X35925000Y-97675000D01*
X35925000Y-99325000D01*
X35925000Y-99341000D01*
X35923000Y-99356000D01*
X35921000Y-99372000D01*
X35918000Y-99387000D01*
X35915000Y-99403000D01*
X35910000Y-99418000D01*
X35905000Y-99433000D01*
X35899000Y-99447000D01*
X35892000Y-99461000D01*
X35885000Y-99475000D01*
X35877000Y-99488000D01*
X35868000Y-99501000D01*
X35858000Y-99514000D01*
X35848000Y-99526000D01*
X35837000Y-99537000D01*
X35826000Y-99548000D01*
X35814000Y-99558000D01*
X35801000Y-99568000D01*
X35788000Y-99577000D01*
X35775000Y-99585000D01*
X35761000Y-99592000D01*
X35747000Y-99599000D01*
X35733000Y-99605000D01*
X35718000Y-99610000D01*
X35703000Y-99615000D01*
X35687000Y-99618000D01*
X35672000Y-99621000D01*
X35656000Y-99623000D01*
X35641000Y-99625000D01*
X35625000Y-99625000D01*
X34575000Y-99625000D01*
X34559000Y-99625000D01*
X34544000Y-99623000D01*
X34528000Y-99621000D01*
X34513000Y-99618000D01*
X34497000Y-99615000D01*
X34482000Y-99610000D01*
X34467000Y-99605000D01*
X34453000Y-99599000D01*
X34439000Y-99592000D01*
X34425000Y-99585000D01*
X34412000Y-99577000D01*
X34399000Y-99568000D01*
X34386000Y-99558000D01*
X34374000Y-99548000D01*
X34363000Y-99537000D01*
X34352000Y-99526000D01*
X34342000Y-99514000D01*
X34332000Y-99501000D01*
X34323000Y-99488000D01*
X34315000Y-99475000D01*
X34308000Y-99461000D01*
X34301000Y-99447000D01*
X34295000Y-99433000D01*
X34290000Y-99418000D01*
X34285000Y-99403000D01*
X34282000Y-99387000D01*
X34279000Y-99372000D01*
X34277000Y-99356000D01*
X34275000Y-99341000D01*
X34275000Y-99325000D01*
X34275000Y-97675000D01*
X34275000Y-97659000D01*
X34277000Y-97644000D01*
X34279000Y-97628000D01*
X34282000Y-97613000D01*
X34285000Y-97597000D01*
X34290000Y-97582000D01*
X34295000Y-97567000D01*
X34301000Y-97553000D01*
X34308000Y-97539000D01*
X34315000Y-97525000D01*
X34323000Y-97512000D01*
X34332000Y-97499000D01*
X34342000Y-97486000D01*
X34352000Y-97474000D01*
X34363000Y-97463000D01*
X34374000Y-97452000D01*
X34386000Y-97442000D01*
X34399000Y-97432000D01*
X34412000Y-97423000D01*
X34425000Y-97415000D01*
X34439000Y-97408000D01*
X34453000Y-97401000D01*
X34467000Y-97395000D01*
X34482000Y-97390000D01*
X34497000Y-97385000D01*
X34513000Y-97382000D01*
X34528000Y-97379000D01*
X34544000Y-97377000D01*
X34559000Y-97375000D01*
X34575000Y-97375000D01*
X35625000Y-97375000D01*
X35641000Y-97375000D01*
X35656000Y-97377000D01*
G37*
%TD.AperFunction*%
%TD*%
D11*
%TO.P,U3,S3,SHIELD*%
%TO.N,Earth*%
X24900000Y-94800000D03*
%TO.P,U3,S4,SHIELD*%
X35100000Y-94800000D03*
%TO.P,U3,S5,SHIELD*%
X24900000Y-98500000D03*
%TO.P,U3,S6,SHIELD*%
X35100000Y-98500000D03*
%TD*%
D12*
%TO.P,Y3,1*%
%TO.N,PC14*%
X36750000Y-56600000D03*
%TO.P,Y3,2*%
%TO.N,PC15*%
X36750000Y-59140000D03*
%TD*%
D13*
%TO.P,Y2,1*%
%TO.N,OSCIN*%
X32400000Y-63400000D03*
%TO.P,Y2,2*%
%TO.N,OSCOUT*%
X27520000Y-63400000D03*
%TD*%
D14*
%TO.P,P1,1*%
%TO.N,+3V3*%
X27600000Y-90000000D03*
D15*
%TO.P,P1,2*%
X25060000Y-90000000D03*
%TO.P,P1,3*%
%TO.N,Net-(P1-Pad3)*%
X27600000Y-87460000D03*
%TO.P,P1,4*%
%TO.N,Net-(P1-Pad4)*%
X25060000Y-87460000D03*
%TO.P,P1,5*%
%TO.N,GND*%
X27600000Y-84920000D03*
%TO.P,P1,6*%
X25060000Y-84920000D03*
%TD*%
D14*
%TO.P,P2,1*%
%TO.N,+3V3*%
X33800000Y-48500000D03*
D15*
%TO.P,P2,2*%
%TO.N,SWDIO*%
X31260000Y-48500000D03*
%TO.P,P2,3*%
%TO.N,SWDCLK*%
X28720000Y-48500000D03*
%TO.P,P2,4*%
%TO.N,GND*%
X26180000Y-48500000D03*
%TD*%
D16*
%TO.P,R10,1*%
%TO.N,PA12*%
X35825000Y-84800000D03*
%TO.P,R10,2*%
%TO.N,+5V*%
X34175000Y-84800000D03*
%TD*%
D17*
%TO.P,R9,1*%
%TO.N,Net-(U3-D-)*%
X34175000Y-81000000D03*
%TO.P,R9,2*%
%TO.N,PA11*%
X35825000Y-81000000D03*
%TD*%
%TO.P,R11,1*%
%TO.N,Net-(U3-D+)*%
X34175000Y-82900000D03*
%TO.P,R11,2*%
%TO.N,PA12*%
X35825000Y-82900000D03*
%TD*%
D14*
%TO.P,P4,1*%
%TO.N,VBAT*%
X20000000Y-50000000D03*
D15*
%TO.P,P4,2*%
%TO.N,PC13*%
X20000000Y-52540000D03*
%TO.P,P4,3*%
%TO.N,PC14*%
X20000000Y-55080000D03*
%TO.P,P4,4*%
%TO.N,PC15*%
X20000000Y-57620000D03*
%TO.P,P4,5*%
%TO.N,PA0*%
X20000000Y-60160000D03*
%TO.P,P4,6*%
%TO.N,PA1*%
X20000000Y-62700000D03*
%TO.P,P4,7*%
%TO.N,PA2*%
X20000000Y-65240000D03*
%TO.P,P4,8*%
%TO.N,PA3*%
X20000000Y-67780000D03*
%TO.P,P4,9*%
%TO.N,PA4*%
X20000000Y-70320000D03*
%TO.P,P4,10*%
%TO.N,PA5*%
X20000000Y-72860000D03*
%TO.P,P4,11*%
%TO.N,PA6*%
X20000000Y-75400000D03*
%TO.P,P4,12*%
%TO.N,PA7*%
X20000000Y-77940000D03*
%TO.P,P4,13*%
%TO.N,PB0*%
X20000000Y-80480000D03*
%TO.P,P4,14*%
%TO.N,PB1*%
X20000000Y-83020000D03*
%TO.P,P4,15*%
%TO.N,PB10*%
X20000000Y-85560000D03*
%TO.P,P4,16*%
%TO.N,PB11*%
X20000000Y-88100000D03*
%TO.P,P4,17*%
%TO.N,NRST*%
X20000000Y-90640000D03*
%TO.P,P4,18*%
%TO.N,+3V3*%
X20000000Y-93180000D03*
%TO.P,P4,19*%
%TO.N,GND*%
X20000000Y-95720000D03*
%TO.P,P4,20*%
X20000000Y-98260000D03*
%TD*%
D18*
%TO.P,C5,1*%
%TO.N,+5V*%
X26125000Y-81700000D03*
%TO.P,C5,2*%
%TO.N,GND*%
X24225000Y-81700000D03*
%TD*%
D19*
%TO.P,C4,1*%
%TO.N,+3V3*%
X25550000Y-62600000D03*
%TO.P,C4,2*%
%TO.N,GND*%
X24000000Y-62600000D03*
%TD*%
D16*
%TO.P,R1,1*%
%TO.N,GND*%
X35225000Y-52400000D03*
%TO.P,R1,2*%
%TO.N,Net-(D1-K)*%
X33575000Y-52400000D03*
%TD*%
D19*
%TO.P,C7,1*%
%TO.N,+5V*%
X25740000Y-79550000D03*
%TO.P,C7,2*%
%TO.N,GND*%
X24190000Y-79550000D03*
%TD*%
D18*
%TO.P,C6,1*%
%TO.N,+3V3*%
X25775000Y-68600000D03*
%TO.P,C6,2*%
%TO.N,GND*%
X23875000Y-68600000D03*
%TD*%
D16*
%TO.P,R6,1*%
%TO.N,OSCOUT*%
X35925000Y-71400000D03*
%TO.P,R6,2*%
%TO.N,OSCIN*%
X34275000Y-71400000D03*
%TD*%
D20*
%TO.P,C14,1*%
%TO.N,Net-(C13-Pad1)*%
X36000000Y-74975000D03*
%TO.P,C14,2*%
%TO.N,OSCOUT*%
X36000000Y-73425000D03*
%TD*%
D19*
%TO.P,C12,1*%
%TO.N,GND*%
X35775000Y-69500000D03*
%TO.P,C12,2*%
%TO.N,PC15*%
X34225000Y-69500000D03*
%TD*%
D20*
%TO.P,C13,1*%
%TO.N,Net-(C13-Pad1)*%
X34100000Y-74975000D03*
%TO.P,C13,2*%
%TO.N,OSCIN*%
X34100000Y-73425000D03*
%TD*%
D19*
%TO.P,C3,1*%
%TO.N,+3V3*%
X25550000Y-60700000D03*
%TO.P,C3,2*%
%TO.N,GND*%
X24000000Y-60700000D03*
%TD*%
%TO.P,C11,1*%
%TO.N,+3V3*%
X25490122Y-66400000D03*
%TO.P,C11,2*%
%TO.N,GND*%
X23940122Y-66400000D03*
%TD*%
%TO.P,C9,1*%
%TO.N,GND*%
X35775000Y-67600000D03*
%TO.P,C9,2*%
%TO.N,PC14*%
X34225000Y-67600000D03*
%TD*%
D21*
%TO.P,C15,1*%
%TO.N,Net-(U1-BP)*%
X24050000Y-72600000D03*
%TO.P,C15,2*%
%TO.N,GND*%
X25600000Y-72600000D03*
%TD*%
D16*
%TO.P,R5,1*%
%TO.N,Net-(D2-K)*%
X26456250Y-52468750D03*
%TO.P,R5,2*%
%TO.N,PC13*%
X24806250Y-52468750D03*
%TD*%
D17*
%TO.P,R4,1*%
%TO.N,Net-(P1-Pad4)*%
X34175000Y-77200000D03*
%TO.P,R4,2*%
%TO.N,BOOT1*%
X35825000Y-77200000D03*
%TD*%
D22*
%TO.P,U1,1,VIN*%
%TO.N,+5V*%
X25905000Y-77000000D03*
%TO.P,U1,2,GND*%
%TO.N,GND*%
X24965000Y-77000000D03*
%TO.P,U1,3,EN*%
%TO.N,+5V*%
X24025000Y-77000000D03*
%TO.P,U1,4,BP*%
%TO.N,Net-(U1-BP)*%
X24025000Y-74500000D03*
%TO.P,U1,5,VOUT*%
%TO.N,+3V3*%
X25905000Y-74500000D03*
%TD*%
D17*
%TO.P,R2,1*%
%TO.N,+3V3*%
X34175000Y-86700000D03*
%TO.P,R2,2*%
%TO.N,Net-(C2-Pad1)*%
X35825000Y-86700000D03*
%TD*%
D19*
%TO.P,C2,1*%
%TO.N,Net-(C2-Pad1)*%
X35775000Y-88600000D03*
%TO.P,C2,2*%
%TO.N,GND*%
X34225000Y-88600000D03*
%TD*%
%TO.P,C8,1*%
%TO.N,+3V3*%
X25600000Y-70700000D03*
%TO.P,C8,2*%
%TO.N,GND*%
X24050000Y-70700000D03*
%TD*%
D16*
%TO.P,R3,1*%
%TO.N,BOOT0*%
X35825000Y-79100000D03*
%TO.P,R3,2*%
%TO.N,Net-(P1-Pad3)*%
X34175000Y-79100000D03*
%TD*%
D14*
%TO.P,P3,1*%
%TO.N,+3V3*%
X40000000Y-50000000D03*
D15*
%TO.P,P3,2*%
%TO.N,GND*%
X40000000Y-52540000D03*
%TO.P,P3,3*%
%TO.N,+5V*%
X40000000Y-55080000D03*
%TO.P,P3,4*%
%TO.N,PB9*%
X40000000Y-57620000D03*
%TO.P,P3,5*%
%TO.N,PB8*%
X40000000Y-60160000D03*
%TO.P,P3,6*%
%TO.N,PB7*%
X40000000Y-62700000D03*
%TO.P,P3,7*%
%TO.N,PB6*%
X40000000Y-65240000D03*
%TO.P,P3,8*%
%TO.N,PB5*%
X40000000Y-67780000D03*
%TO.P,P3,9*%
%TO.N,PB4*%
X40000000Y-70320000D03*
%TO.P,P3,10*%
%TO.N,PB3*%
X40000000Y-72860000D03*
%TO.P,P3,11*%
%TO.N,PA15*%
X40000000Y-75400000D03*
%TO.P,P3,12*%
%TO.N,PA12*%
X40000000Y-77940000D03*
%TO.P,P3,13*%
%TO.N,PA11*%
X40000000Y-80480000D03*
%TO.P,P3,14*%
%TO.N,PA10*%
X40000000Y-83020000D03*
%TO.P,P3,15*%
%TO.N,PA9*%
X40000000Y-85560000D03*
%TO.P,P3,16*%
%TO.N,PA8*%
X40000000Y-88100000D03*
%TO.P,P3,17*%
%TO.N,PB15*%
X40000000Y-90640000D03*
%TO.P,P3,18*%
%TO.N,PB14*%
X40000000Y-93180000D03*
%TO.P,P3,19*%
%TO.N,PB13*%
X40000000Y-95720000D03*
%TO.P,P3,20*%
%TO.N,PB12*%
X40000000Y-98260000D03*
%TD*%
D19*
%TO.P,C10,1*%
%TO.N,+3V3*%
X25490122Y-64479996D03*
%TO.P,C10,2*%
%TO.N,GND*%
X23940122Y-64479996D03*
%TD*%
%TO.P,C1,1*%
%TO.N,+3V3*%
X30675000Y-52468750D03*
%TO.P,C1,2*%
%TO.N,GND*%
X29125000Y-52468750D03*
%TD*%
D23*
%TO.N,PC14*%
X34600000Y-66327000D03*
%TO.N,PC15*%
X31456644Y-68956644D03*
%TO.N,OSCOUT*%
X30100000Y-69800000D03*
%TO.N,OSCIN*%
X30800000Y-70600000D03*
%TO.N,GND*%
X23100000Y-49300000D03*
X24000000Y-59500000D03*
%TO.N,+3V3*%
X25500000Y-59482000D03*
%TO.N,SWDIO*%
X38050000Y-77050000D03*
X41300000Y-53800000D03*
%TO.N,GND*%
X22800000Y-91100000D03*
X22820000Y-92900000D03*
X31900000Y-74527000D03*
X27800000Y-73200000D03*
X31900000Y-73200000D03*
X35800000Y-66327000D03*
X34200000Y-92300000D03*
X37600000Y-47300000D03*
X29100000Y-69700000D03*
%TO.N,+3V3*%
X27100000Y-70700000D03*
X31100000Y-86700000D03*
X27100000Y-74500000D03*
%TO.N,Net-(C2-Pad1)*%
X35200000Y-85700000D03*
%TO.N,+5V*%
X21600000Y-59400000D03*
X23000000Y-53700000D03*
X28746000Y-81554000D03*
X31100000Y-85700000D03*
X28300000Y-92100000D03*
%TO.N,PC14*%
X33600000Y-65227000D03*
%TO.N,PC15*%
X34300000Y-64600000D03*
%TO.N,Net-(P1-Pad4)*%
X27390981Y-81593598D03*
%TO.N,Net-(P1-Pad3)*%
X28100000Y-82473000D03*
%TO.N,BOOT0*%
X32600000Y-71900000D03*
%TO.N,BOOT1*%
X28500000Y-72500000D03*
%TO.N,PC13*%
X21600000Y-58400000D03*
X32700000Y-65855000D03*
%TO.N,Net-(U3-D-)*%
X29373000Y-92200000D03*
%TO.N,Net-(U3-D+)*%
X30000000Y-91500000D03*
%TO.N,NRST*%
X29300000Y-64300000D03*
X23600000Y-83200000D03*
%TO.N,VBAT*%
X33635318Y-66215136D03*
X22300000Y-54400000D03*
%TO.N,Net-(D1-K)*%
X33443356Y-50743356D03*
%TO.N,Net-(D2-K)*%
X26600000Y-50900000D03*
%TD*%
D24*
%TO.N,PA12*%
X41500000Y-78300000D02*
X41140000Y-77940000D01*
X41500000Y-81300000D02*
X41500000Y-78300000D01*
X41100000Y-81700000D02*
X41500000Y-81300000D01*
X36800000Y-82900000D02*
X38000000Y-81700000D01*
X41140000Y-77940000D02*
X40000000Y-77940000D01*
X35825000Y-82900000D02*
X36800000Y-82900000D01*
X38000000Y-81700000D02*
X41100000Y-81700000D01*
%TO.N,BOOT0*%
X37300000Y-76500000D02*
X37300000Y-78500000D01*
X36700000Y-79100000D02*
X35825000Y-79100000D01*
X33445000Y-75845000D02*
X36645000Y-75845000D01*
X32900000Y-75300000D02*
X33445000Y-75845000D01*
X36645000Y-75845000D02*
X37300000Y-76500000D01*
X37300000Y-78500000D02*
X36700000Y-79100000D01*
X32900000Y-72200000D02*
X32900000Y-75300000D01*
X32600000Y-71900000D02*
X32900000Y-72200000D01*
%TO.N,PC14*%
X34600000Y-66300000D02*
X34600000Y-66327000D01*
X34225000Y-66675000D02*
X34600000Y-66300000D01*
X34225000Y-67600000D02*
X34225000Y-66675000D01*
X37900000Y-57000000D02*
X37500000Y-56600000D01*
X37373000Y-65227000D02*
X37900000Y-64700000D01*
X33600000Y-65227000D02*
X37373000Y-65227000D01*
X37900000Y-64700000D02*
X37900000Y-57000000D01*
X37500000Y-56600000D02*
X36750000Y-56600000D01*
%TO.N,VBAT*%
X34150454Y-65700000D02*
X33635318Y-66215136D01*
X38400000Y-65200000D02*
X37900000Y-65700000D01*
X37900000Y-65700000D02*
X34150454Y-65700000D01*
X38400000Y-55000000D02*
X38400000Y-65200000D01*
X37800000Y-54400000D02*
X38400000Y-55000000D01*
X22300000Y-54400000D02*
X37800000Y-54400000D01*
%TO.N,PC15*%
X31500000Y-69000000D02*
X31456644Y-68956644D01*
X32300000Y-69000000D02*
X31500000Y-69000000D01*
X32800000Y-69500000D02*
X32300000Y-69000000D01*
X34225000Y-69500000D02*
X32800000Y-69500000D01*
%TO.N,OSCOUT*%
X35925000Y-70725000D02*
X35925000Y-71400000D01*
X35700000Y-70500000D02*
X35925000Y-70725000D01*
X32900000Y-70500000D02*
X35700000Y-70500000D01*
X30100000Y-69800000D02*
X32200000Y-69800000D01*
X32200000Y-69800000D02*
X32900000Y-70500000D01*
%TO.N,OSCIN*%
X33100000Y-71400000D02*
X34275000Y-71400000D01*
X32300000Y-70600000D02*
X33100000Y-71400000D01*
X30800000Y-70600000D02*
X32300000Y-70600000D01*
%TO.N,+3V3*%
X27100000Y-70700000D02*
X25600000Y-70700000D01*
X27100000Y-74500000D02*
X27100000Y-70700000D01*
%TO.N,GND*%
X27800000Y-70000000D02*
X27800000Y-73200000D01*
X28100000Y-69700000D02*
X27800000Y-70000000D01*
X29100000Y-69700000D02*
X28100000Y-69700000D01*
X27400000Y-75800000D02*
X24875000Y-75800000D01*
X27800000Y-75400000D02*
X27400000Y-75800000D01*
X27800000Y-73200000D02*
X27800000Y-75400000D01*
X23900000Y-48500000D02*
X26180000Y-48500000D01*
X23100000Y-49300000D02*
X23900000Y-48500000D01*
%TO.N,+5V*%
X38865000Y-53945000D02*
X40000000Y-55080000D01*
X23272000Y-53945000D02*
X38865000Y-53945000D01*
X23100000Y-53773000D02*
X23272000Y-53945000D01*
X23100000Y-53600000D02*
X23100000Y-53773000D01*
X23000000Y-53700000D02*
X23100000Y-53600000D01*
X22300000Y-92100000D02*
X28300000Y-92100000D01*
X21600000Y-91400000D02*
X22300000Y-92100000D01*
X21600000Y-59400000D02*
X21600000Y-91400000D01*
%TO.N,GND*%
X24000000Y-60700000D02*
X24000000Y-59500000D01*
%TO.N,+3V3*%
X25550000Y-59532000D02*
X25500000Y-59482000D01*
X25550000Y-60700000D02*
X25550000Y-59532000D01*
%TO.N,NRST*%
X29300000Y-59300000D02*
X29300000Y-64300000D01*
X28855000Y-58855000D02*
X29300000Y-59300000D01*
X22300000Y-59300000D02*
X22745000Y-58855000D01*
X23600000Y-83200000D02*
X22300000Y-81900000D01*
X22300000Y-81900000D02*
X22300000Y-59300000D01*
X22745000Y-58855000D02*
X28855000Y-58855000D01*
%TO.N,PA12*%
X35825000Y-82900000D02*
X35825000Y-84800000D01*
%TO.N,PA11*%
X39480000Y-81000000D02*
X40000000Y-80480000D01*
X35825000Y-81000000D02*
X39480000Y-81000000D01*
%TO.N,GND*%
X24875000Y-75800000D02*
X22875000Y-75800000D01*
X24225000Y-81700000D02*
X24225000Y-79585000D01*
X39860000Y-52400000D02*
X35225000Y-52400000D01*
X26180000Y-49780000D02*
X26180000Y-48500000D01*
X23125000Y-79550000D02*
X24190000Y-79550000D01*
X25060000Y-84920000D02*
X23080000Y-84920000D01*
X22820000Y-92900000D02*
X33600000Y-92900000D01*
X23940122Y-68534878D02*
X23875000Y-68600000D01*
X28700000Y-50100000D02*
X26500000Y-50100000D01*
X23940122Y-66400000D02*
X23940122Y-68534878D01*
X22875000Y-71125000D02*
X22875000Y-79300000D01*
X25375000Y-71700000D02*
X24275000Y-71700000D01*
X34200000Y-88625000D02*
X34200000Y-92300000D01*
X23080000Y-84920000D02*
X22800000Y-85200000D01*
X24050000Y-70700000D02*
X24050000Y-68775000D01*
X23940122Y-62659878D02*
X24000000Y-62600000D01*
X24000000Y-60700000D02*
X24000000Y-62600000D01*
X24965000Y-77000000D02*
X24965000Y-75890000D01*
X24965000Y-75890000D02*
X24875000Y-75800000D01*
X35800000Y-66327000D02*
X35800000Y-67575000D01*
X33600000Y-92900000D02*
X34200000Y-92300000D01*
X29125000Y-52468750D02*
X29125000Y-50525000D01*
X25600000Y-71925000D02*
X25375000Y-71700000D01*
X31900000Y-73200000D02*
X31900000Y-74527000D01*
X24050000Y-70700000D02*
X23300000Y-70700000D01*
X22820000Y-95280000D02*
X22820000Y-92900000D01*
X27552000Y-47128000D02*
X26180000Y-48500000D01*
X23300000Y-70700000D02*
X22875000Y-71125000D01*
X25600000Y-72600000D02*
X25600000Y-71925000D01*
X24275000Y-71700000D02*
X24050000Y-71475000D01*
X37428000Y-47128000D02*
X27552000Y-47128000D01*
X35800000Y-67575000D02*
X35775000Y-67600000D01*
X26500000Y-50100000D02*
X26180000Y-49780000D01*
X40000000Y-52540000D02*
X39860000Y-52400000D01*
X34225000Y-88600000D02*
X34200000Y-88625000D01*
X24225000Y-79585000D02*
X24190000Y-79550000D01*
X23940122Y-64479996D02*
X23940122Y-62659878D01*
X22800000Y-85200000D02*
X22800000Y-91100000D01*
X35775000Y-69500000D02*
X35775000Y-67600000D01*
X29125000Y-50525000D02*
X28700000Y-50100000D01*
X22875000Y-79300000D02*
X23125000Y-79550000D01*
X24050000Y-68775000D02*
X23875000Y-68600000D01*
X20000000Y-95720000D02*
X22380000Y-95720000D01*
X24225000Y-81700000D02*
X24225000Y-82825000D01*
X22380000Y-95720000D02*
X22820000Y-95280000D01*
X37600000Y-47300000D02*
X37428000Y-47128000D01*
X25060000Y-83660000D02*
X25060000Y-84920000D01*
X24050000Y-71475000D02*
X24050000Y-70700000D01*
X23940122Y-64479996D02*
X23940122Y-66400000D01*
X24225000Y-82825000D02*
X25060000Y-83660000D01*
%TO.N,+3V3*%
X33800000Y-49800000D02*
X33484644Y-50115356D01*
X33800000Y-48500000D02*
X33800000Y-49800000D01*
X25490122Y-66400000D02*
X25490122Y-68315122D01*
X25490122Y-64479996D02*
X25490122Y-66400000D01*
X34175000Y-86700000D02*
X31100000Y-86700000D01*
X34000000Y-50000000D02*
X40000000Y-50000000D01*
X33800000Y-49800000D02*
X34000000Y-50000000D01*
X30675000Y-50525000D02*
X30675000Y-52468750D01*
X33484644Y-50115356D02*
X31084644Y-50115356D01*
X25600000Y-70700000D02*
X25600000Y-68775000D01*
X25490122Y-68315122D02*
X25775000Y-68600000D01*
X25550000Y-60700000D02*
X25550000Y-62600000D01*
X25550000Y-64420118D02*
X25490122Y-64479996D01*
X25550000Y-62600000D02*
X25550000Y-64420118D01*
X31084644Y-50115356D02*
X30675000Y-50525000D01*
X27100000Y-74500000D02*
X25905000Y-74500000D01*
X25600000Y-68775000D02*
X25775000Y-68600000D01*
%TO.N,Net-(C2-Pad1)*%
X35825000Y-85950000D02*
X35825000Y-86700000D01*
X35575000Y-85700000D02*
X35825000Y-85950000D01*
X35200000Y-85700000D02*
X35575000Y-85700000D01*
X35775000Y-88600000D02*
X35775000Y-86750000D01*
X35775000Y-86750000D02*
X35825000Y-86700000D01*
%TO.N,+5V*%
X26500000Y-83100000D02*
X26125000Y-82725000D01*
X26125000Y-80625000D02*
X26125000Y-81700000D01*
X24025000Y-77000000D02*
X24025000Y-77950000D01*
X28800000Y-81554000D02*
X28800000Y-82156000D01*
X28778000Y-91622000D02*
X28300000Y-92100000D01*
X28778000Y-82178000D02*
X28778000Y-91622000D01*
X24275000Y-78200000D02*
X25675000Y-78200000D01*
X24025000Y-77950000D02*
X24275000Y-78200000D01*
X25740000Y-79550000D02*
X25740000Y-78265000D01*
X28800000Y-81554000D02*
X28800000Y-83100000D01*
X28746000Y-81554000D02*
X28800000Y-81554000D01*
X28800000Y-83100000D02*
X26500000Y-83100000D01*
X34175000Y-84800000D02*
X32000000Y-84800000D01*
X25675000Y-78200000D02*
X25905000Y-77970000D01*
X25905000Y-77970000D02*
X25905000Y-77000000D01*
X25740000Y-78265000D02*
X25675000Y-78200000D01*
X32000000Y-84800000D02*
X31100000Y-85700000D01*
X25740000Y-79550000D02*
X25740000Y-80240000D01*
X26125000Y-82725000D02*
X26125000Y-81700000D01*
X28800000Y-82156000D02*
X28778000Y-82178000D01*
X25740000Y-80240000D02*
X26125000Y-80625000D01*
%TO.N,PC14*%
X36750000Y-56600000D02*
X36750000Y-55550000D01*
X36280000Y-55080000D02*
X20000000Y-55080000D01*
X36750000Y-55550000D02*
X36280000Y-55080000D01*
%TO.N,PC15*%
X36300000Y-64600000D02*
X36750000Y-64150000D01*
X36750000Y-64150000D02*
X36750000Y-59140000D01*
X36750000Y-59140000D02*
X36750000Y-58050000D01*
X34300000Y-64600000D02*
X36300000Y-64600000D01*
X36750000Y-58050000D02*
X36320000Y-57620000D01*
X36320000Y-57620000D02*
X20000000Y-57620000D01*
%TO.N,Net-(C13-Pad1)*%
X34100000Y-74975000D02*
X36000000Y-74975000D01*
%TO.N,OSCIN*%
X34100000Y-73425000D02*
X34100000Y-71575000D01*
%TO.N,OSCOUT*%
X36000000Y-71475000D02*
X35925000Y-71400000D01*
X36000000Y-73425000D02*
X36000000Y-71475000D01*
%TO.N,Net-(U1-BP)*%
X24025000Y-72625000D02*
X24050000Y-72600000D01*
X24025000Y-74500000D02*
X24025000Y-72625000D01*
%TO.N,Net-(P1-Pad4)*%
X27400000Y-81584579D02*
X27400000Y-77400000D01*
X27600000Y-77200000D02*
X34175000Y-77200000D01*
X27390981Y-81593598D02*
X27400000Y-81584579D01*
X27400000Y-77400000D02*
X27600000Y-77200000D01*
%TO.N,Net-(P1-Pad3)*%
X28100000Y-82473000D02*
X28100000Y-79300000D01*
X28100000Y-79300000D02*
X28300000Y-79100000D01*
X28300000Y-79100000D02*
X34175000Y-79100000D01*
%TO.N,BOOT1*%
X35600000Y-76300000D02*
X35825000Y-76525000D01*
X35825000Y-76525000D02*
X35825000Y-77200000D01*
X28500000Y-75900000D02*
X28900000Y-76300000D01*
X28900000Y-76300000D02*
X35600000Y-76300000D01*
X28500000Y-72500000D02*
X28500000Y-75900000D01*
%TO.N,PC13*%
X35700000Y-58950000D02*
X35700000Y-63900000D01*
X21600000Y-58400000D02*
X35150000Y-58400000D01*
X24775000Y-52500000D02*
X20040000Y-52500000D01*
X24806250Y-52468750D02*
X24775000Y-52500000D01*
X32700000Y-65000000D02*
X32700000Y-65855000D01*
X35150000Y-58400000D02*
X35700000Y-58950000D01*
X20040000Y-52500000D02*
X20000000Y-52540000D01*
X33800000Y-63900000D02*
X32700000Y-65000000D01*
X35700000Y-63900000D02*
X33800000Y-63900000D01*
%TO.N,Net-(U3-D-)*%
X29800000Y-81000000D02*
X34175000Y-81000000D01*
X29373000Y-81427000D02*
X29800000Y-81000000D01*
X29373000Y-92200000D02*
X29373000Y-81427000D01*
%TO.N,Net-(U3-D+)*%
X30000000Y-83400000D02*
X30500000Y-82900000D01*
X30000000Y-91500000D02*
X30000000Y-83400000D01*
X30500000Y-82900000D02*
X34175000Y-82900000D01*
%TO.N,Net-(D1-K)*%
X33500000Y-52325000D02*
X33575000Y-52400000D01*
X33443356Y-50743356D02*
X33443356Y-50930068D01*
X33443356Y-50930068D02*
X33500000Y-50986712D01*
X33500000Y-50986712D02*
X33500000Y-52325000D01*
%TO.N,Net-(D2-K)*%
X26600000Y-50900000D02*
X26600000Y-52325000D01*
X26600000Y-52325000D02*
X26456250Y-52468750D01*
%TO.N,SWDIO*%
X41700000Y-54200000D02*
X41300000Y-53800000D01*
X41000000Y-76700000D02*
X41700000Y-76000000D01*
X41700000Y-76000000D02*
X41700000Y-54200000D01*
X38050000Y-77050000D02*
X38400000Y-76700000D01*
X38400000Y-76700000D02*
X41000000Y-76700000D01*
%TD*%
%TA.AperFunction,Conductor*%
%TO.N,GND*%
G36*
X25710427Y-47020185D02*
G01*
X25756182Y-47072989D01*
X25766126Y-47142147D01*
X25737101Y-47205703D01*
X25681706Y-47242431D01*
X25661782Y-47248904D01*
X25472442Y-47345379D01*
X25300540Y-47470272D01*
X25300535Y-47470276D01*
X25150276Y-47620535D01*
X25150272Y-47620540D01*
X25025379Y-47792442D01*
X24928904Y-47981782D01*
X24863242Y-48183870D01*
X24863242Y-48183873D01*
X24852769Y-48250000D01*
X25746988Y-48250000D01*
X25714075Y-48307007D01*
X25680000Y-48434174D01*
X25680000Y-48565826D01*
X25714075Y-48692993D01*
X25746988Y-48750000D01*
X24852769Y-48750000D01*
X24863242Y-48816126D01*
X24863242Y-48816129D01*
X24928904Y-49018217D01*
X25025379Y-49207557D01*
X25150272Y-49379459D01*
X25150276Y-49379464D01*
X25300535Y-49529723D01*
X25300540Y-49529727D01*
X25472442Y-49654620D01*
X25661782Y-49751095D01*
X25863871Y-49816757D01*
X25930000Y-49827231D01*
X25930000Y-48933012D01*
X25987007Y-48965925D01*
X26114174Y-49000000D01*
X26245826Y-49000000D01*
X26372993Y-48965925D01*
X26430000Y-48933012D01*
X26430000Y-49827230D01*
X26496126Y-49816757D01*
X26496129Y-49816757D01*
X26698217Y-49751095D01*
X26887557Y-49654620D01*
X27059459Y-49529727D01*
X27059464Y-49529723D01*
X27209723Y-49379464D01*
X27209727Y-49379459D01*
X27334620Y-49207558D01*
X27339232Y-49198507D01*
X27387205Y-49147709D01*
X27455025Y-49130912D01*
X27521161Y-49153447D01*
X27560204Y-49198504D01*
X27564949Y-49207817D01*
X27689890Y-49379786D01*
X27840213Y-49530109D01*
X28012179Y-49655048D01*
X28012181Y-49655049D01*
X28012184Y-49655051D01*
X28201588Y-49751557D01*
X28403757Y-49817246D01*
X28613713Y-49850500D01*
X28613714Y-49850500D01*
X28826286Y-49850500D01*
X28826287Y-49850500D01*
X29036243Y-49817246D01*
X29238412Y-49751557D01*
X29427816Y-49655051D01*
X29484258Y-49614044D01*
X29599786Y-49530109D01*
X29599788Y-49530106D01*
X29599792Y-49530104D01*
X29750104Y-49379792D01*
X29750106Y-49379788D01*
X29750109Y-49379786D01*
X29875048Y-49207820D01*
X29875050Y-49207817D01*
X29875051Y-49207816D01*
X29879514Y-49199054D01*
X29927488Y-49148259D01*
X29995308Y-49131463D01*
X30061444Y-49153999D01*
X30100486Y-49199056D01*
X30104951Y-49207820D01*
X30229890Y-49379786D01*
X30380209Y-49530105D01*
X30380214Y-49530109D01*
X30495741Y-49614044D01*
X30538407Y-49669373D01*
X30544386Y-49738987D01*
X30511781Y-49800782D01*
X30510537Y-49802043D01*
X30274992Y-50037589D01*
X30231289Y-50081292D01*
X30187586Y-50124994D01*
X30187585Y-50124996D01*
X30118923Y-50227756D01*
X30118914Y-50227773D01*
X30109914Y-50249498D01*
X30109915Y-50249499D01*
X30098023Y-50278210D01*
X30071614Y-50341965D01*
X30053978Y-50430629D01*
X30053978Y-50430630D01*
X30047500Y-50463195D01*
X30047500Y-51545784D01*
X30038159Y-51577595D01*
X30029763Y-51609692D01*
X30028219Y-51611446D01*
X30027815Y-51612823D01*
X30007454Y-51637041D01*
X29999980Y-51643916D01*
X29996956Y-51645782D01*
X29985499Y-51657238D01*
X29983600Y-51658986D01*
X29954478Y-51673346D01*
X29926000Y-51688896D01*
X29923333Y-51688705D01*
X29920935Y-51689888D01*
X29888680Y-51686225D01*
X29856308Y-51683909D01*
X29853738Y-51682257D01*
X29851512Y-51682005D01*
X29844701Y-51676449D01*
X29811965Y-51655410D01*
X29802732Y-51646177D01*
X29802728Y-51646174D01*
X29658492Y-51557207D01*
X29658481Y-51557202D01*
X29497606Y-51503894D01*
X29398322Y-51493750D01*
X29375000Y-51493750D01*
X29375000Y-52344750D01*
X29355315Y-52411789D01*
X29302511Y-52457544D01*
X29251000Y-52468750D01*
X29125000Y-52468750D01*
X29125000Y-52594750D01*
X29105315Y-52661789D01*
X29052511Y-52707544D01*
X29001000Y-52718750D01*
X28175001Y-52718750D01*
X28175001Y-52767072D01*
X28185144Y-52866357D01*
X28238452Y-53027231D01*
X28238457Y-53027242D01*
X28300855Y-53128403D01*
X28319296Y-53195795D01*
X28298374Y-53262459D01*
X28244732Y-53307228D01*
X28195317Y-53317500D01*
X27347814Y-53317500D01*
X27280775Y-53297815D01*
X27235020Y-53245011D01*
X27225076Y-53175853D01*
X27241697Y-53129350D01*
X27299728Y-53033356D01*
X27350336Y-52870946D01*
X27356750Y-52800366D01*
X27356750Y-52170427D01*
X28175000Y-52170427D01*
X28175000Y-52218750D01*
X28875000Y-52218750D01*
X28875000Y-51493749D01*
X28851693Y-51493750D01*
X28851674Y-51493751D01*
X28752392Y-51503894D01*
X28591518Y-51557202D01*
X28591507Y-51557207D01*
X28447271Y-51646174D01*
X28447267Y-51646177D01*
X28327427Y-51766017D01*
X28327424Y-51766021D01*
X28238457Y-51910257D01*
X28238452Y-51910268D01*
X28185144Y-52071143D01*
X28175000Y-52170427D01*
X27356750Y-52170427D01*
X27356750Y-52137134D01*
X27350336Y-52066554D01*
X27299728Y-51904144D01*
X27258294Y-51835603D01*
X27245383Y-51814245D01*
X27227500Y-51750096D01*
X27227500Y-51439356D01*
X27247185Y-51372317D01*
X27248398Y-51370465D01*
X27255574Y-51359725D01*
X27309394Y-51279179D01*
X27369737Y-51133497D01*
X27400500Y-50978842D01*
X27400500Y-50821158D01*
X27400500Y-50821155D01*
X27400499Y-50821153D01*
X27393611Y-50786523D01*
X27369737Y-50666503D01*
X27353582Y-50627500D01*
X27309397Y-50520827D01*
X27309390Y-50520814D01*
X27221789Y-50389711D01*
X27221786Y-50389707D01*
X27110292Y-50278213D01*
X27110288Y-50278210D01*
X26979185Y-50190609D01*
X26979172Y-50190602D01*
X26833501Y-50130264D01*
X26833489Y-50130261D01*
X26678845Y-50099500D01*
X26678842Y-50099500D01*
X26521158Y-50099500D01*
X26521155Y-50099500D01*
X26366510Y-50130261D01*
X26366498Y-50130264D01*
X26220827Y-50190602D01*
X26220814Y-50190609D01*
X26089711Y-50278210D01*
X26089707Y-50278213D01*
X25978213Y-50389707D01*
X25978210Y-50389711D01*
X25890609Y-50520814D01*
X25890602Y-50520827D01*
X25830264Y-50666498D01*
X25830261Y-50666510D01*
X25799500Y-50821153D01*
X25799500Y-50978846D01*
X25830261Y-51133489D01*
X25830264Y-51133501D01*
X25890603Y-51279174D01*
X25890604Y-51279175D01*
X25890606Y-51279179D01*
X25944426Y-51359725D01*
X25951602Y-51370465D01*
X25957252Y-51388511D01*
X25967477Y-51404421D01*
X25971928Y-51435380D01*
X25972480Y-51437142D01*
X25972500Y-51439356D01*
X25972500Y-51476795D01*
X25952815Y-51543834D01*
X25912651Y-51582911D01*
X25821064Y-51638278D01*
X25821060Y-51638281D01*
X25718931Y-51740411D01*
X25657608Y-51773896D01*
X25587916Y-51768912D01*
X25543569Y-51740411D01*
X25441438Y-51638280D01*
X25439388Y-51637041D01*
X25295856Y-51550272D01*
X25133446Y-51499664D01*
X25133444Y-51499663D01*
X25133442Y-51499663D01*
X25084028Y-51495173D01*
X25062866Y-51493250D01*
X24549634Y-51493250D01*
X24530395Y-51494998D01*
X24479057Y-51499663D01*
X24316643Y-51550272D01*
X24171063Y-51638279D01*
X24050775Y-51758568D01*
X24018082Y-51812650D01*
X23966554Y-51859837D01*
X23911965Y-51872500D01*
X21247524Y-51872500D01*
X21180485Y-51852815D01*
X21147206Y-51821385D01*
X21030109Y-51660214D01*
X21030105Y-51660209D01*
X20916569Y-51546673D01*
X20883084Y-51485350D01*
X20888068Y-51415658D01*
X20929940Y-51359725D01*
X20960915Y-51342810D01*
X21092331Y-51293796D01*
X21207546Y-51207546D01*
X21293796Y-51092331D01*
X21344091Y-50957483D01*
X21350500Y-50897873D01*
X21350499Y-49102128D01*
X21344091Y-49042517D01*
X21335100Y-49018412D01*
X21293797Y-48907671D01*
X21293795Y-48907668D01*
X21225354Y-48816243D01*
X21207546Y-48792454D01*
X21207544Y-48792452D01*
X21207543Y-48792451D01*
X21092335Y-48706206D01*
X21092328Y-48706202D01*
X20957482Y-48655908D01*
X20957483Y-48655908D01*
X20897883Y-48649501D01*
X20897881Y-48649500D01*
X20897873Y-48649500D01*
X20897864Y-48649500D01*
X19102129Y-48649500D01*
X19102123Y-48649501D01*
X19042516Y-48655908D01*
X18907671Y-48706202D01*
X18907664Y-48706206D01*
X18792455Y-48792452D01*
X18792452Y-48792455D01*
X18706206Y-48907664D01*
X18706202Y-48907671D01*
X18655908Y-49042517D01*
X18649501Y-49102116D01*
X18649501Y-49102123D01*
X18649500Y-49102135D01*
X18649500Y-50897870D01*
X18649501Y-50897876D01*
X18655908Y-50957483D01*
X18706202Y-51092328D01*
X18706206Y-51092335D01*
X18792452Y-51207544D01*
X18792455Y-51207547D01*
X18907664Y-51293793D01*
X18907671Y-51293797D01*
X19039082Y-51342810D01*
X19095016Y-51384681D01*
X19119433Y-51450145D01*
X19104582Y-51518418D01*
X19083431Y-51546673D01*
X18969889Y-51660215D01*
X18844951Y-51832179D01*
X18748444Y-52021585D01*
X18682753Y-52223760D01*
X18649500Y-52433713D01*
X18649500Y-52646286D01*
X18668630Y-52767072D01*
X18682754Y-52856243D01*
X18738382Y-53027449D01*
X18748444Y-53058414D01*
X18844951Y-53247820D01*
X18969890Y-53419786D01*
X19120213Y-53570109D01*
X19292182Y-53695050D01*
X19300946Y-53699516D01*
X19351742Y-53747491D01*
X19368536Y-53815312D01*
X19345998Y-53881447D01*
X19300946Y-53920484D01*
X19292182Y-53924949D01*
X19120213Y-54049890D01*
X18969890Y-54200213D01*
X18844951Y-54372179D01*
X18748444Y-54561585D01*
X18682753Y-54763760D01*
X18649500Y-54973713D01*
X18649500Y-55186286D01*
X18682753Y-55396239D01*
X18748444Y-55598414D01*
X18844951Y-55787820D01*
X18969890Y-55959786D01*
X19120213Y-56110109D01*
X19292182Y-56235050D01*
X19300946Y-56239516D01*
X19351742Y-56287491D01*
X19368536Y-56355312D01*
X19345998Y-56421447D01*
X19300946Y-56460484D01*
X19292182Y-56464949D01*
X19120213Y-56589890D01*
X18969890Y-56740213D01*
X18844951Y-56912179D01*
X18748444Y-57101585D01*
X18682753Y-57303760D01*
X18649500Y-57513713D01*
X18649500Y-57726286D01*
X18682753Y-57936239D01*
X18748444Y-58138414D01*
X18844951Y-58327820D01*
X18969890Y-58499786D01*
X19120213Y-58650109D01*
X19292182Y-58775050D01*
X19300946Y-58779516D01*
X19351742Y-58827491D01*
X19368536Y-58895312D01*
X19345998Y-58961447D01*
X19300946Y-59000484D01*
X19292182Y-59004949D01*
X19120213Y-59129890D01*
X18969890Y-59280213D01*
X18844951Y-59452179D01*
X18748444Y-59641585D01*
X18682753Y-59843760D01*
X18649500Y-60053713D01*
X18649500Y-60266286D01*
X18682753Y-60476239D01*
X18748444Y-60678414D01*
X18844951Y-60867820D01*
X18969890Y-61039786D01*
X19120213Y-61190109D01*
X19292182Y-61315050D01*
X19300946Y-61319516D01*
X19351742Y-61367491D01*
X19368536Y-61435312D01*
X19345998Y-61501447D01*
X19300946Y-61540484D01*
X19292182Y-61544949D01*
X19120213Y-61669890D01*
X18969890Y-61820213D01*
X18844951Y-61992179D01*
X18748444Y-62181585D01*
X18682753Y-62383760D01*
X18649500Y-62593713D01*
X18649500Y-62806286D01*
X18667506Y-62919975D01*
X18682754Y-63016243D01*
X18729040Y-63158697D01*
X18748444Y-63218414D01*
X18844951Y-63407820D01*
X18969890Y-63579786D01*
X19120213Y-63730109D01*
X19292182Y-63855050D01*
X19300946Y-63859516D01*
X19351742Y-63907491D01*
X19368536Y-63975312D01*
X19345998Y-64041447D01*
X19300946Y-64080484D01*
X19292182Y-64084949D01*
X19120213Y-64209890D01*
X18969890Y-64360213D01*
X18844951Y-64532179D01*
X18748444Y-64721585D01*
X18682753Y-64923760D01*
X18649500Y-65133713D01*
X18649500Y-65346286D01*
X18681108Y-65545855D01*
X18682754Y-65556243D01*
X18743676Y-65743742D01*
X18748444Y-65758414D01*
X18844951Y-65947820D01*
X18969890Y-66119786D01*
X19120213Y-66270109D01*
X19292182Y-66395050D01*
X19300946Y-66399516D01*
X19351742Y-66447491D01*
X19368536Y-66515312D01*
X19345998Y-66581447D01*
X19300946Y-66620484D01*
X19292182Y-66624949D01*
X19120213Y-66749890D01*
X18969890Y-66900213D01*
X18844951Y-67072179D01*
X18748444Y-67261585D01*
X18682753Y-67463760D01*
X18666702Y-67565104D01*
X18649500Y-67673713D01*
X18649500Y-67886287D01*
X18682754Y-68096243D01*
X18731820Y-68247253D01*
X18748444Y-68298414D01*
X18844951Y-68487820D01*
X18969890Y-68659786D01*
X19120213Y-68810109D01*
X19292182Y-68935050D01*
X19300946Y-68939516D01*
X19351742Y-68987491D01*
X19368536Y-69055312D01*
X19345998Y-69121447D01*
X19300946Y-69160484D01*
X19292182Y-69164949D01*
X19120213Y-69289890D01*
X18969890Y-69440213D01*
X18844951Y-69612179D01*
X18748444Y-69801585D01*
X18682753Y-70003760D01*
X18670961Y-70078213D01*
X18649500Y-70213713D01*
X18649500Y-70426287D01*
X18655869Y-70466498D01*
X18680364Y-70621158D01*
X18682754Y-70636243D01*
X18747462Y-70835394D01*
X18748444Y-70838414D01*
X18844951Y-71027820D01*
X18969890Y-71199786D01*
X19120213Y-71350109D01*
X19292182Y-71475050D01*
X19300946Y-71479516D01*
X19351742Y-71527491D01*
X19368536Y-71595312D01*
X19345998Y-71661447D01*
X19300946Y-71700484D01*
X19292182Y-71704949D01*
X19120213Y-71829890D01*
X18969890Y-71980213D01*
X18844951Y-72152179D01*
X18748444Y-72341585D01*
X18682753Y-72543760D01*
X18649500Y-72753713D01*
X18649500Y-72966286D01*
X18678860Y-73151662D01*
X18682754Y-73176243D01*
X18747172Y-73374501D01*
X18748444Y-73378414D01*
X18844951Y-73567820D01*
X18969890Y-73739786D01*
X19120213Y-73890109D01*
X19292182Y-74015050D01*
X19300946Y-74019516D01*
X19351742Y-74067491D01*
X19368536Y-74135312D01*
X19345998Y-74201447D01*
X19300946Y-74240484D01*
X19292182Y-74244949D01*
X19120213Y-74369890D01*
X18969890Y-74520213D01*
X18844951Y-74692179D01*
X18748444Y-74881585D01*
X18682753Y-75083760D01*
X18649500Y-75293713D01*
X18649500Y-75506286D01*
X18682753Y-75716239D01*
X18682753Y-75716241D01*
X18682754Y-75716243D01*
X18736997Y-75883186D01*
X18748444Y-75918414D01*
X18844951Y-76107820D01*
X18969890Y-76279786D01*
X19120213Y-76430109D01*
X19292182Y-76555050D01*
X19300946Y-76559516D01*
X19351742Y-76607491D01*
X19368536Y-76675312D01*
X19345998Y-76741447D01*
X19300946Y-76780484D01*
X19292182Y-76784949D01*
X19120213Y-76909890D01*
X18969890Y-77060213D01*
X18844951Y-77232179D01*
X18748444Y-77421585D01*
X18682753Y-77623760D01*
X18655604Y-77795172D01*
X18649500Y-77833713D01*
X18649500Y-78046287D01*
X18653478Y-78071402D01*
X18681327Y-78247238D01*
X18682754Y-78256243D01*
X18741109Y-78435841D01*
X18748444Y-78458414D01*
X18844951Y-78647820D01*
X18969890Y-78819786D01*
X19120213Y-78970109D01*
X19292182Y-79095050D01*
X19300946Y-79099516D01*
X19351742Y-79147491D01*
X19368536Y-79215312D01*
X19345998Y-79281447D01*
X19300946Y-79320484D01*
X19292182Y-79324949D01*
X19120213Y-79449890D01*
X18969890Y-79600213D01*
X18844951Y-79772179D01*
X18748444Y-79961585D01*
X18682753Y-80163760D01*
X18662790Y-80289804D01*
X18649500Y-80373713D01*
X18649500Y-80586287D01*
X18652691Y-80606435D01*
X18680856Y-80784263D01*
X18682754Y-80796243D01*
X18718377Y-80905880D01*
X18748444Y-80998414D01*
X18844951Y-81187820D01*
X18969890Y-81359786D01*
X19120213Y-81510109D01*
X19292182Y-81635050D01*
X19300946Y-81639516D01*
X19351742Y-81687491D01*
X19368536Y-81755312D01*
X19345998Y-81821447D01*
X19300946Y-81860484D01*
X19292182Y-81864949D01*
X19120213Y-81989890D01*
X18969890Y-82140213D01*
X18844951Y-82312179D01*
X18748444Y-82501585D01*
X18682753Y-82703760D01*
X18649500Y-82913713D01*
X18649500Y-83126286D01*
X18673662Y-83278842D01*
X18682754Y-83336243D01*
X18746508Y-83532458D01*
X18748444Y-83538414D01*
X18844951Y-83727820D01*
X18969890Y-83899786D01*
X19120213Y-84050109D01*
X19292182Y-84175050D01*
X19300946Y-84179516D01*
X19351742Y-84227491D01*
X19368536Y-84295312D01*
X19345998Y-84361447D01*
X19300946Y-84400484D01*
X19292182Y-84404949D01*
X19120213Y-84529890D01*
X18969890Y-84680213D01*
X18844951Y-84852179D01*
X18748444Y-85041585D01*
X18682753Y-85243760D01*
X18649500Y-85453713D01*
X18649500Y-85666286D01*
X18680449Y-85861695D01*
X18682754Y-85876243D01*
X18719654Y-85989810D01*
X18748444Y-86078414D01*
X18844951Y-86267820D01*
X18969890Y-86439786D01*
X19120213Y-86590109D01*
X19292182Y-86715050D01*
X19300946Y-86719516D01*
X19351742Y-86767491D01*
X19368536Y-86835312D01*
X19345998Y-86901447D01*
X19300946Y-86940484D01*
X19292182Y-86944949D01*
X19120213Y-87069890D01*
X18969890Y-87220213D01*
X18844951Y-87392179D01*
X18748444Y-87581585D01*
X18682753Y-87783760D01*
X18664775Y-87897271D01*
X18649500Y-87993713D01*
X18649500Y-88206287D01*
X18682754Y-88416243D01*
X18714728Y-88514649D01*
X18748444Y-88618414D01*
X18844951Y-88807820D01*
X18969890Y-88979786D01*
X19120213Y-89130109D01*
X19292182Y-89255050D01*
X19300946Y-89259516D01*
X19351742Y-89307491D01*
X19368536Y-89375312D01*
X19345998Y-89441447D01*
X19300946Y-89480484D01*
X19292182Y-89484949D01*
X19120213Y-89609890D01*
X18969890Y-89760213D01*
X18844951Y-89932179D01*
X18748444Y-90121585D01*
X18682753Y-90323760D01*
X18649500Y-90533713D01*
X18649500Y-90746286D01*
X18671166Y-90883084D01*
X18682754Y-90956243D01*
X18726973Y-91092335D01*
X18748444Y-91158414D01*
X18844951Y-91347820D01*
X18969890Y-91519786D01*
X19120213Y-91670109D01*
X19292182Y-91795050D01*
X19300946Y-91799516D01*
X19351742Y-91847491D01*
X19368536Y-91915312D01*
X19345998Y-91981447D01*
X19300946Y-92020484D01*
X19292182Y-92024949D01*
X19120213Y-92149890D01*
X18969890Y-92300213D01*
X18844951Y-92472179D01*
X18748444Y-92661585D01*
X18682753Y-92863760D01*
X18665968Y-92969737D01*
X18649500Y-93073713D01*
X18649500Y-93286287D01*
X18653617Y-93312282D01*
X18681407Y-93487743D01*
X18682754Y-93496243D01*
X18737880Y-93665904D01*
X18748444Y-93698414D01*
X18844951Y-93887820D01*
X18969890Y-94059786D01*
X19120213Y-94210109D01*
X19292179Y-94335048D01*
X19292181Y-94335049D01*
X19292184Y-94335051D01*
X19301493Y-94339794D01*
X19352290Y-94387766D01*
X19369087Y-94455587D01*
X19346552Y-94521722D01*
X19301502Y-94560762D01*
X19292443Y-94565378D01*
X19120540Y-94690272D01*
X19120535Y-94690276D01*
X18970276Y-94840535D01*
X18970272Y-94840540D01*
X18845379Y-95012442D01*
X18748904Y-95201782D01*
X18683242Y-95403870D01*
X18683242Y-95403873D01*
X18672769Y-95470000D01*
X19566988Y-95470000D01*
X19534075Y-95527007D01*
X19500000Y-95654174D01*
X19500000Y-95785826D01*
X19534075Y-95912993D01*
X19566988Y-95970000D01*
X18672769Y-95970000D01*
X18683242Y-96036126D01*
X18683242Y-96036129D01*
X18748904Y-96238217D01*
X18845379Y-96427557D01*
X18970272Y-96599459D01*
X18970276Y-96599464D01*
X19120535Y-96749723D01*
X19120540Y-96749727D01*
X19292444Y-96874622D01*
X19302048Y-96879516D01*
X19352844Y-96927491D01*
X19369638Y-96995312D01*
X19347100Y-97061447D01*
X19302048Y-97100484D01*
X19292444Y-97105377D01*
X19120540Y-97230272D01*
X19120535Y-97230276D01*
X18970276Y-97380535D01*
X18970272Y-97380540D01*
X18845379Y-97552442D01*
X18748904Y-97741782D01*
X18683242Y-97943870D01*
X18683242Y-97943873D01*
X18672769Y-98010000D01*
X19566988Y-98010000D01*
X19534075Y-98067007D01*
X19500000Y-98194174D01*
X19500000Y-98325826D01*
X19534075Y-98452993D01*
X19566988Y-98510000D01*
X18672769Y-98510000D01*
X18683242Y-98576126D01*
X18683242Y-98576129D01*
X18748904Y-98778217D01*
X18845379Y-98967557D01*
X18970272Y-99139459D01*
X18970276Y-99139464D01*
X19120535Y-99289723D01*
X19120540Y-99289727D01*
X19292442Y-99414620D01*
X19481782Y-99511095D01*
X19683871Y-99576757D01*
X19750000Y-99587231D01*
X19750000Y-98693012D01*
X19807007Y-98725925D01*
X19934174Y-98760000D01*
X20065826Y-98760000D01*
X20192993Y-98725925D01*
X20250000Y-98693012D01*
X20250000Y-99587230D01*
X20316126Y-99576757D01*
X20316129Y-99576757D01*
X20518217Y-99511095D01*
X20707557Y-99414620D01*
X20879459Y-99289727D01*
X20879464Y-99289723D01*
X21029723Y-99139464D01*
X21029727Y-99139459D01*
X21154620Y-98967557D01*
X21251095Y-98778217D01*
X21316757Y-98576129D01*
X21316757Y-98576126D01*
X21327231Y-98510000D01*
X20433012Y-98510000D01*
X20465925Y-98452993D01*
X20500000Y-98325826D01*
X20500000Y-98194174D01*
X20465925Y-98067007D01*
X20433012Y-98010000D01*
X21327231Y-98010000D01*
X21316757Y-97943873D01*
X21316757Y-97943870D01*
X21251095Y-97741782D01*
X21154620Y-97552442D01*
X21029727Y-97380540D01*
X21029723Y-97380535D01*
X20879464Y-97230276D01*
X20879459Y-97230272D01*
X20707558Y-97105379D01*
X20697954Y-97100486D01*
X20647157Y-97052512D01*
X20630361Y-96984692D01*
X20652897Y-96918556D01*
X20697954Y-96879514D01*
X20707558Y-96874620D01*
X20879459Y-96749727D01*
X20879464Y-96749723D01*
X21029723Y-96599464D01*
X21029727Y-96599459D01*
X21154620Y-96427557D01*
X21251095Y-96238217D01*
X21316757Y-96036129D01*
X21316757Y-96036126D01*
X21327231Y-95970000D01*
X20433012Y-95970000D01*
X20465925Y-95912993D01*
X20500000Y-95785826D01*
X20500000Y-95654174D01*
X20465925Y-95527007D01*
X20433012Y-95470000D01*
X21327231Y-95470000D01*
X21316757Y-95403873D01*
X21316757Y-95403870D01*
X21251095Y-95201782D01*
X21154620Y-95012442D01*
X21029727Y-94840540D01*
X21029723Y-94840535D01*
X20879464Y-94690276D01*
X20879459Y-94690272D01*
X20707555Y-94565377D01*
X20698500Y-94560763D01*
X20647706Y-94512788D01*
X20630912Y-94444966D01*
X20653451Y-94378832D01*
X20698508Y-94339793D01*
X20707816Y-94335051D01*
X20787007Y-94277515D01*
X20879786Y-94210109D01*
X20879788Y-94210106D01*
X20879792Y-94210104D01*
X21030104Y-94059792D01*
X21030106Y-94059788D01*
X21030109Y-94059786D01*
X21139086Y-93909789D01*
X21155051Y-93887816D01*
X21251557Y-93698412D01*
X21317246Y-93496243D01*
X21350500Y-93286287D01*
X21350500Y-93073713D01*
X21317246Y-92863757D01*
X21251557Y-92661588D01*
X21155051Y-92472184D01*
X21155049Y-92472181D01*
X21155048Y-92472179D01*
X21030109Y-92300213D01*
X20879786Y-92149890D01*
X20707820Y-92024951D01*
X20707115Y-92024591D01*
X20699054Y-92020485D01*
X20648259Y-91972512D01*
X20631463Y-91904692D01*
X20653999Y-91838556D01*
X20683783Y-91808737D01*
X20691087Y-91803574D01*
X20707816Y-91795051D01*
X20874387Y-91674030D01*
X20875059Y-91673556D01*
X20907363Y-91662503D01*
X20939546Y-91651021D01*
X20940368Y-91651212D01*
X20941167Y-91650939D01*
X20974342Y-91659113D01*
X21007600Y-91666847D01*
X21008275Y-91667473D01*
X21009008Y-91667654D01*
X21012889Y-91671754D01*
X21049728Y-91705929D01*
X21112590Y-91800010D01*
X21112591Y-91800011D01*
X21462471Y-92149890D01*
X21812589Y-92500008D01*
X21899992Y-92587411D01*
X21940787Y-92614669D01*
X22002767Y-92656083D01*
X22002769Y-92656084D01*
X22002773Y-92656086D01*
X22116960Y-92703383D01*
X22116965Y-92703385D01*
X22116969Y-92703385D01*
X22116970Y-92703386D01*
X22238193Y-92727500D01*
X22238196Y-92727500D01*
X22238197Y-92727500D01*
X27760643Y-92727500D01*
X27827682Y-92747185D01*
X27829534Y-92748398D01*
X27920814Y-92809390D01*
X27920827Y-92809397D01*
X28052066Y-92863757D01*
X28066503Y-92869737D01*
X28221153Y-92900499D01*
X28221156Y-92900500D01*
X28221158Y-92900500D01*
X28378844Y-92900500D01*
X28378845Y-92900499D01*
X28533497Y-92869737D01*
X28679179Y-92809394D01*
X28697152Y-92797384D01*
X28763827Y-92776505D01*
X28831208Y-92794987D01*
X28853725Y-92812803D01*
X28862711Y-92821789D01*
X28906217Y-92850859D01*
X28993814Y-92909390D01*
X28993827Y-92909397D01*
X29139498Y-92969735D01*
X29139503Y-92969737D01*
X29294153Y-93000499D01*
X29294156Y-93000500D01*
X29294158Y-93000500D01*
X29451844Y-93000500D01*
X29451845Y-93000499D01*
X29606497Y-92969737D01*
X29752179Y-92909394D01*
X29883289Y-92821789D01*
X29994789Y-92710289D01*
X30082394Y-92579179D01*
X30142737Y-92433497D01*
X30157156Y-92361005D01*
X30189540Y-92299097D01*
X30231321Y-92270638D01*
X30233495Y-92269737D01*
X30233497Y-92269737D01*
X30288200Y-92247078D01*
X30379173Y-92209397D01*
X30379176Y-92209395D01*
X30379179Y-92209394D01*
X30510289Y-92121789D01*
X30621789Y-92010289D01*
X30709394Y-91879179D01*
X30722520Y-91847491D01*
X30742186Y-91800011D01*
X30769737Y-91733497D01*
X30800500Y-91578842D01*
X30800500Y-91421158D01*
X30800500Y-91421155D01*
X30800499Y-91421153D01*
X30769738Y-91266510D01*
X30769737Y-91266503D01*
X30745317Y-91207547D01*
X30709397Y-91120827D01*
X30709390Y-91120814D01*
X30648398Y-91029533D01*
X30627520Y-90962855D01*
X30627500Y-90960642D01*
X30627500Y-88898322D01*
X33275001Y-88898322D01*
X33285144Y-88997607D01*
X33338452Y-89158481D01*
X33338457Y-89158492D01*
X33427424Y-89302728D01*
X33427427Y-89302732D01*
X33547267Y-89422572D01*
X33547271Y-89422575D01*
X33691507Y-89511542D01*
X33691518Y-89511547D01*
X33852393Y-89564855D01*
X33951683Y-89574999D01*
X33975000Y-89574998D01*
X33975000Y-88850000D01*
X33275001Y-88850000D01*
X33275001Y-88898322D01*
X30627500Y-88898322D01*
X30627500Y-87556318D01*
X30647185Y-87489279D01*
X30699989Y-87443524D01*
X30769147Y-87433580D01*
X30798952Y-87441757D01*
X30866498Y-87469735D01*
X30866503Y-87469737D01*
X30964747Y-87489279D01*
X31021153Y-87500499D01*
X31021156Y-87500500D01*
X31021158Y-87500500D01*
X31178844Y-87500500D01*
X31178845Y-87500499D01*
X31333497Y-87469737D01*
X31477267Y-87410186D01*
X31479172Y-87409397D01*
X31479172Y-87409396D01*
X31479179Y-87409394D01*
X31512172Y-87387349D01*
X31570466Y-87348398D01*
X31637143Y-87327520D01*
X31639357Y-87327500D01*
X33299607Y-87327500D01*
X33366646Y-87347185D01*
X33405723Y-87387349D01*
X33419528Y-87410185D01*
X33419531Y-87410189D01*
X33539811Y-87530469D01*
X33539813Y-87530470D01*
X33539815Y-87530472D01*
X33572003Y-87549930D01*
X33619191Y-87601458D01*
X33631029Y-87670318D01*
X33603760Y-87734646D01*
X33572951Y-87761585D01*
X33547268Y-87777426D01*
X33427427Y-87897267D01*
X33427424Y-87897271D01*
X33338457Y-88041507D01*
X33338452Y-88041518D01*
X33285144Y-88202393D01*
X33275000Y-88301677D01*
X33275000Y-88350000D01*
X34101000Y-88350000D01*
X34168039Y-88369685D01*
X34213794Y-88422489D01*
X34225000Y-88474000D01*
X34225000Y-88600000D01*
X34351000Y-88600000D01*
X34418039Y-88619685D01*
X34463794Y-88672489D01*
X34475000Y-88724000D01*
X34475000Y-89574999D01*
X34498308Y-89574999D01*
X34498322Y-89574998D01*
X34597607Y-89564855D01*
X34758481Y-89511547D01*
X34758492Y-89511542D01*
X34902731Y-89422573D01*
X34911959Y-89413345D01*
X34973279Y-89379856D01*
X35042971Y-89384835D01*
X35087327Y-89413339D01*
X35096955Y-89422967D01*
X35096959Y-89422970D01*
X35241294Y-89511998D01*
X35241297Y-89511999D01*
X35241303Y-89512003D01*
X35402292Y-89565349D01*
X35501655Y-89575500D01*
X36048344Y-89575499D01*
X36048352Y-89575498D01*
X36048355Y-89575498D01*
X36102760Y-89569940D01*
X36147708Y-89565349D01*
X36308697Y-89512003D01*
X36453044Y-89422968D01*
X36572968Y-89303044D01*
X36662003Y-89158697D01*
X36715349Y-88997708D01*
X36725500Y-88898345D01*
X36725499Y-88301656D01*
X36715349Y-88202292D01*
X36662003Y-88041303D01*
X36661999Y-88041297D01*
X36661998Y-88041294D01*
X36572970Y-87896959D01*
X36572969Y-87896958D01*
X36572968Y-87896956D01*
X36453044Y-87777032D01*
X36453043Y-87777031D01*
X36453041Y-87777029D01*
X36449593Y-87774303D01*
X36447924Y-87771946D01*
X36445297Y-87770747D01*
X36427853Y-87743604D01*
X36409214Y-87717283D01*
X36408609Y-87713659D01*
X36407523Y-87711969D01*
X36402500Y-87677034D01*
X36402500Y-87635280D01*
X36422185Y-87568241D01*
X36455131Y-87536187D01*
X36454279Y-87535099D01*
X36460178Y-87530475D01*
X36460185Y-87530472D01*
X36580472Y-87410185D01*
X36668478Y-87264606D01*
X36719086Y-87102196D01*
X36725500Y-87031616D01*
X36725500Y-86368384D01*
X36719086Y-86297804D01*
X36668478Y-86135394D01*
X36580472Y-85989815D01*
X36580470Y-85989813D01*
X36580469Y-85989811D01*
X36472553Y-85881895D01*
X36464061Y-85866476D01*
X36451831Y-85854420D01*
X36440669Y-85824000D01*
X36439260Y-85821441D01*
X36438924Y-85819948D01*
X36428385Y-85766965D01*
X36425350Y-85759639D01*
X36423014Y-85749257D01*
X36424600Y-85724594D01*
X36421956Y-85700026D01*
X36426802Y-85690340D01*
X36427498Y-85679531D01*
X36442165Y-85659641D01*
X36453224Y-85637544D01*
X36456307Y-85634348D01*
X36460180Y-85630475D01*
X36460185Y-85630472D01*
X36580472Y-85510185D01*
X36668478Y-85364606D01*
X36719086Y-85202196D01*
X36725500Y-85131616D01*
X36725500Y-84468384D01*
X36719086Y-84397804D01*
X36668478Y-84235394D01*
X36580472Y-84089815D01*
X36580470Y-84089813D01*
X36580469Y-84089811D01*
X36488819Y-83998161D01*
X36474115Y-83971233D01*
X36457523Y-83945415D01*
X36456631Y-83939214D01*
X36455334Y-83936838D01*
X36452500Y-83910480D01*
X36452500Y-83789520D01*
X36472185Y-83722481D01*
X36488819Y-83701839D01*
X36580468Y-83610189D01*
X36580472Y-83610185D01*
X36594239Y-83587412D01*
X36594277Y-83587349D01*
X36645805Y-83540162D01*
X36700393Y-83527500D01*
X36861804Y-83527500D01*
X36861805Y-83527499D01*
X36983035Y-83503386D01*
X37063784Y-83469937D01*
X37097233Y-83456083D01*
X37200008Y-83387411D01*
X37287411Y-83300008D01*
X38223600Y-82363819D01*
X38284923Y-82330334D01*
X38311281Y-82327500D01*
X38634973Y-82327500D01*
X38702012Y-82347185D01*
X38747767Y-82399989D01*
X38757711Y-82469147D01*
X38749539Y-82498941D01*
X38748444Y-82501583D01*
X38682753Y-82703760D01*
X38649500Y-82913713D01*
X38649500Y-83126286D01*
X38673662Y-83278842D01*
X38682754Y-83336243D01*
X38746508Y-83532458D01*
X38748444Y-83538414D01*
X38844951Y-83727820D01*
X38969890Y-83899786D01*
X39120213Y-84050109D01*
X39292182Y-84175050D01*
X39300946Y-84179516D01*
X39351742Y-84227491D01*
X39368536Y-84295312D01*
X39345998Y-84361447D01*
X39300946Y-84400484D01*
X39292182Y-84404949D01*
X39120213Y-84529890D01*
X38969890Y-84680213D01*
X38844951Y-84852179D01*
X38748444Y-85041585D01*
X38682753Y-85243760D01*
X38649500Y-85453713D01*
X38649500Y-85666286D01*
X38680449Y-85861695D01*
X38682754Y-85876243D01*
X38719654Y-85989810D01*
X38748444Y-86078414D01*
X38844951Y-86267820D01*
X38969890Y-86439786D01*
X39120213Y-86590109D01*
X39292182Y-86715050D01*
X39300946Y-86719516D01*
X39351742Y-86767491D01*
X39368536Y-86835312D01*
X39345998Y-86901447D01*
X39300946Y-86940484D01*
X39292182Y-86944949D01*
X39120213Y-87069890D01*
X38969890Y-87220213D01*
X38844951Y-87392179D01*
X38748444Y-87581585D01*
X38682753Y-87783760D01*
X38664775Y-87897271D01*
X38649500Y-87993713D01*
X38649500Y-88206287D01*
X38682754Y-88416243D01*
X38714728Y-88514649D01*
X38748444Y-88618414D01*
X38844951Y-88807820D01*
X38969890Y-88979786D01*
X39120213Y-89130109D01*
X39292182Y-89255050D01*
X39300946Y-89259516D01*
X39351742Y-89307491D01*
X39368536Y-89375312D01*
X39345998Y-89441447D01*
X39300946Y-89480484D01*
X39292182Y-89484949D01*
X39120213Y-89609890D01*
X38969890Y-89760213D01*
X38844951Y-89932179D01*
X38748444Y-90121585D01*
X38682753Y-90323760D01*
X38649500Y-90533713D01*
X38649500Y-90746286D01*
X38671166Y-90883084D01*
X38682754Y-90956243D01*
X38726973Y-91092335D01*
X38748444Y-91158414D01*
X38844951Y-91347820D01*
X38969890Y-91519786D01*
X39120213Y-91670109D01*
X39292182Y-91795050D01*
X39300946Y-91799516D01*
X39351742Y-91847491D01*
X39368536Y-91915312D01*
X39345998Y-91981447D01*
X39300946Y-92020484D01*
X39292182Y-92024949D01*
X39120213Y-92149890D01*
X38969890Y-92300213D01*
X38844951Y-92472179D01*
X38748444Y-92661585D01*
X38682753Y-92863760D01*
X38665968Y-92969737D01*
X38649500Y-93073713D01*
X38649500Y-93286287D01*
X38653617Y-93312282D01*
X38681407Y-93487743D01*
X38682754Y-93496243D01*
X38737880Y-93665904D01*
X38748444Y-93698414D01*
X38844951Y-93887820D01*
X38969890Y-94059786D01*
X39120213Y-94210109D01*
X39292182Y-94335050D01*
X39300946Y-94339516D01*
X39351742Y-94387491D01*
X39368536Y-94455312D01*
X39345998Y-94521447D01*
X39300946Y-94560484D01*
X39292182Y-94564949D01*
X39120213Y-94689890D01*
X38969890Y-94840213D01*
X38844951Y-95012179D01*
X38748444Y-95201585D01*
X38682753Y-95403760D01*
X38649500Y-95613713D01*
X38649500Y-95826286D01*
X38677536Y-96003303D01*
X38682754Y-96036243D01*
X38738879Y-96208978D01*
X38748444Y-96238414D01*
X38844951Y-96427820D01*
X38969890Y-96599786D01*
X39120213Y-96750109D01*
X39292182Y-96875050D01*
X39300946Y-96879516D01*
X39351742Y-96927491D01*
X39368536Y-96995312D01*
X39345998Y-97061447D01*
X39300946Y-97100484D01*
X39292182Y-97104949D01*
X39120213Y-97229890D01*
X38969890Y-97380213D01*
X38844951Y-97552179D01*
X38748444Y-97741585D01*
X38682753Y-97943760D01*
X38649500Y-98153713D01*
X38649500Y-98366286D01*
X38682753Y-98576239D01*
X38748444Y-98778414D01*
X38844951Y-98967820D01*
X38969890Y-99139786D01*
X39120213Y-99290109D01*
X39292179Y-99415048D01*
X39292181Y-99415049D01*
X39292184Y-99415051D01*
X39481588Y-99511557D01*
X39683757Y-99577246D01*
X39893713Y-99610500D01*
X39893714Y-99610500D01*
X40106286Y-99610500D01*
X40106287Y-99610500D01*
X40316243Y-99577246D01*
X40518412Y-99511557D01*
X40707816Y-99415051D01*
X40729789Y-99399086D01*
X40879786Y-99290109D01*
X40879788Y-99290106D01*
X40879792Y-99290104D01*
X41030104Y-99139792D01*
X41030106Y-99139788D01*
X41030109Y-99139786D01*
X41155048Y-98967820D01*
X41155047Y-98967820D01*
X41155051Y-98967816D01*
X41251557Y-98778412D01*
X41317246Y-98576243D01*
X41350500Y-98366287D01*
X41350500Y-98153713D01*
X41317246Y-97943757D01*
X41251557Y-97741588D01*
X41155051Y-97552184D01*
X41155049Y-97552181D01*
X41155048Y-97552179D01*
X41030109Y-97380213D01*
X40879786Y-97229890D01*
X40707820Y-97104951D01*
X40707115Y-97104591D01*
X40699054Y-97100485D01*
X40648259Y-97052512D01*
X40631463Y-96984692D01*
X40653999Y-96918556D01*
X40699054Y-96879515D01*
X40707816Y-96875051D01*
X40826018Y-96789173D01*
X40879786Y-96750109D01*
X40879788Y-96750106D01*
X40879792Y-96750104D01*
X41030104Y-96599792D01*
X41030106Y-96599788D01*
X41030109Y-96599786D01*
X41155048Y-96427820D01*
X41155047Y-96427820D01*
X41155051Y-96427816D01*
X41251557Y-96238412D01*
X41317246Y-96036243D01*
X41350500Y-95826287D01*
X41350500Y-95613713D01*
X41317246Y-95403757D01*
X41251557Y-95201588D01*
X41155051Y-95012184D01*
X41155049Y-95012181D01*
X41155048Y-95012179D01*
X41030109Y-94840213D01*
X40879786Y-94689890D01*
X40707820Y-94564951D01*
X40699600Y-94560763D01*
X40699054Y-94560485D01*
X40648259Y-94512512D01*
X40631463Y-94444692D01*
X40653999Y-94378556D01*
X40699054Y-94339515D01*
X40707816Y-94335051D01*
X40729789Y-94319086D01*
X40879786Y-94210109D01*
X40879788Y-94210106D01*
X40879792Y-94210104D01*
X41030104Y-94059792D01*
X41030106Y-94059788D01*
X41030109Y-94059786D01*
X41139086Y-93909789D01*
X41155051Y-93887816D01*
X41251557Y-93698412D01*
X41317246Y-93496243D01*
X41350500Y-93286287D01*
X41350500Y-93073713D01*
X41317246Y-92863757D01*
X41251557Y-92661588D01*
X41155051Y-92472184D01*
X41155049Y-92472181D01*
X41155048Y-92472179D01*
X41030109Y-92300213D01*
X40879786Y-92149890D01*
X40707820Y-92024951D01*
X40707115Y-92024591D01*
X40699054Y-92020485D01*
X40648259Y-91972512D01*
X40631463Y-91904692D01*
X40653999Y-91838556D01*
X40699054Y-91799515D01*
X40707816Y-91795051D01*
X40792533Y-91733501D01*
X40879786Y-91670109D01*
X40879788Y-91670106D01*
X40879792Y-91670104D01*
X41030104Y-91519792D01*
X41030106Y-91519788D01*
X41030109Y-91519786D01*
X41155048Y-91347820D01*
X41155047Y-91347820D01*
X41155051Y-91347816D01*
X41251557Y-91158412D01*
X41317246Y-90956243D01*
X41350500Y-90746287D01*
X41350500Y-90533713D01*
X41317246Y-90323757D01*
X41251557Y-90121588D01*
X41155051Y-89932184D01*
X41155049Y-89932181D01*
X41155048Y-89932179D01*
X41030109Y-89760213D01*
X40879786Y-89609890D01*
X40707820Y-89484951D01*
X40707115Y-89484591D01*
X40699054Y-89480485D01*
X40648259Y-89432512D01*
X40631463Y-89364692D01*
X40653999Y-89298556D01*
X40699054Y-89259515D01*
X40707816Y-89255051D01*
X40840437Y-89158697D01*
X40879786Y-89130109D01*
X40879788Y-89130106D01*
X40879792Y-89130104D01*
X41030104Y-88979792D01*
X41030106Y-88979788D01*
X41030109Y-88979786D01*
X41155048Y-88807820D01*
X41155047Y-88807820D01*
X41155051Y-88807816D01*
X41251557Y-88618412D01*
X41317246Y-88416243D01*
X41350500Y-88206287D01*
X41350500Y-87993713D01*
X41317246Y-87783757D01*
X41251557Y-87581588D01*
X41155051Y-87392184D01*
X41155049Y-87392181D01*
X41155048Y-87392179D01*
X41030109Y-87220213D01*
X40879786Y-87069890D01*
X40707820Y-86944951D01*
X40707115Y-86944591D01*
X40699054Y-86940485D01*
X40648259Y-86892512D01*
X40631463Y-86824692D01*
X40653999Y-86758556D01*
X40699054Y-86719515D01*
X40707816Y-86715051D01*
X40729789Y-86699086D01*
X40879786Y-86590109D01*
X40879788Y-86590106D01*
X40879792Y-86590104D01*
X41030104Y-86439792D01*
X41030106Y-86439788D01*
X41030109Y-86439786D01*
X41155048Y-86267820D01*
X41155047Y-86267820D01*
X41155051Y-86267816D01*
X41251557Y-86078412D01*
X41317246Y-85876243D01*
X41350500Y-85666287D01*
X41350500Y-85453713D01*
X41317246Y-85243757D01*
X41251557Y-85041588D01*
X41155051Y-84852184D01*
X41155049Y-84852181D01*
X41155048Y-84852179D01*
X41030109Y-84680213D01*
X40879786Y-84529890D01*
X40707820Y-84404951D01*
X40701600Y-84401782D01*
X40699054Y-84400485D01*
X40648259Y-84352512D01*
X40631463Y-84284692D01*
X40653999Y-84218556D01*
X40699054Y-84179515D01*
X40707816Y-84175051D01*
X40810893Y-84100162D01*
X40879786Y-84050109D01*
X40879788Y-84050106D01*
X40879792Y-84050104D01*
X41030104Y-83899792D01*
X41030106Y-83899788D01*
X41030109Y-83899786D01*
X41143378Y-83743883D01*
X41155051Y-83727816D01*
X41251557Y-83538412D01*
X41317246Y-83336243D01*
X41350500Y-83126287D01*
X41350500Y-82913713D01*
X41317246Y-82703757D01*
X41251557Y-82501588D01*
X41234552Y-82468215D01*
X41231985Y-82454548D01*
X41224890Y-82442590D01*
X41225664Y-82420889D01*
X41221656Y-82399548D01*
X41226885Y-82386663D01*
X41227381Y-82372765D01*
X41239765Y-82354927D01*
X41247931Y-82334807D01*
X41260112Y-82325619D01*
X41267228Y-82315371D01*
X41297582Y-82297360D01*
X41306326Y-82293738D01*
X41363784Y-82269937D01*
X41397233Y-82256083D01*
X41500008Y-82187411D01*
X41587411Y-82100008D01*
X41787819Y-81899600D01*
X41849142Y-81866115D01*
X41918834Y-81871099D01*
X41974767Y-81912971D01*
X41999184Y-81978435D01*
X41999500Y-81987281D01*
X41999500Y-99875500D01*
X41979815Y-99942539D01*
X41927011Y-99988294D01*
X41875500Y-99999500D01*
X36379993Y-99999500D01*
X36312954Y-99979815D01*
X36267199Y-99927011D01*
X36257255Y-99857853D01*
X36279842Y-99802385D01*
X36287722Y-99791591D01*
X36287729Y-99791582D01*
X36296729Y-99778582D01*
X36311772Y-99755552D01*
X36319772Y-99742552D01*
X36341605Y-99703303D01*
X36355605Y-99675303D01*
X36368224Y-99648096D01*
X36374224Y-99634096D01*
X36389303Y-99594434D01*
X36391705Y-99587230D01*
X36399298Y-99564448D01*
X36399303Y-99564434D01*
X36416756Y-99497079D01*
X36419192Y-99484087D01*
X36421586Y-99472117D01*
X36427558Y-99435320D01*
X36429298Y-99421400D01*
X36431022Y-99408470D01*
X36435500Y-99341000D01*
X36435500Y-97659000D01*
X36431022Y-97591530D01*
X36429298Y-97578600D01*
X36427558Y-97564680D01*
X36421586Y-97527883D01*
X36419192Y-97515913D01*
X36418489Y-97512163D01*
X36416760Y-97502938D01*
X36416756Y-97502921D01*
X36399303Y-97435566D01*
X36399298Y-97435551D01*
X36389307Y-97405576D01*
X36374223Y-97365901D01*
X36372222Y-97361232D01*
X36368224Y-97351904D01*
X36355605Y-97324697D01*
X36341605Y-97296697D01*
X36319772Y-97257448D01*
X36311772Y-97244448D01*
X36311761Y-97244430D01*
X36296747Y-97221445D01*
X36296740Y-97221435D01*
X36296729Y-97221418D01*
X36287729Y-97208418D01*
X36272635Y-97187743D01*
X36262635Y-97174743D01*
X36250177Y-97159186D01*
X36240177Y-97147186D01*
X36208978Y-97113022D01*
X36208971Y-97113015D01*
X36208958Y-97113001D01*
X36186998Y-97091041D01*
X36186984Y-97091028D01*
X36186978Y-97091022D01*
X36152814Y-97059823D01*
X36140814Y-97049823D01*
X36140806Y-97049816D01*
X36125276Y-97037380D01*
X36125269Y-97037374D01*
X36125257Y-97037365D01*
X36112257Y-97027365D01*
X36091582Y-97012271D01*
X36078582Y-97003271D01*
X36078572Y-97003264D01*
X36078554Y-97003252D01*
X36055569Y-96988238D01*
X36042559Y-96980232D01*
X36026964Y-96971557D01*
X36003303Y-96958395D01*
X35975303Y-96944395D01*
X35975302Y-96944394D01*
X35975283Y-96944385D01*
X35948103Y-96931779D01*
X35934098Y-96925776D01*
X35894423Y-96910692D01*
X35864448Y-96900701D01*
X35864441Y-96900699D01*
X35864434Y-96900697D01*
X35797079Y-96883244D01*
X35797080Y-96883244D01*
X35797064Y-96883240D01*
X35786400Y-96881241D01*
X35786373Y-96881236D01*
X35784087Y-96880808D01*
X35772117Y-96878414D01*
X35735320Y-96872442D01*
X35721400Y-96870702D01*
X35719242Y-96870414D01*
X35719228Y-96870412D01*
X35708478Y-96868979D01*
X35708462Y-96868977D01*
X35649361Y-96865054D01*
X35641000Y-96864500D01*
X34559000Y-96864500D01*
X34551560Y-96864993D01*
X34491537Y-96868977D01*
X34491512Y-96868979D01*
X34480779Y-96870411D01*
X34480762Y-96870413D01*
X34478600Y-96870702D01*
X34464680Y-96872442D01*
X34427883Y-96878414D01*
X34415913Y-96880808D01*
X34413665Y-96881229D01*
X34413606Y-96881239D01*
X34402929Y-96883241D01*
X34355603Y-96895505D01*
X34285769Y-96893265D01*
X34228232Y-96853626D01*
X34201260Y-96789173D01*
X34200500Y-96775469D01*
X34200500Y-96524530D01*
X34207128Y-96501956D01*
X34209347Y-96478531D01*
X34216790Y-96469050D01*
X34220185Y-96457491D01*
X34237962Y-96442086D01*
X34252496Y-96423577D01*
X34263883Y-96419626D01*
X34272989Y-96411736D01*
X34296276Y-96408387D01*
X34318506Y-96400675D01*
X34336808Y-96402559D01*
X34342147Y-96401792D01*
X34353643Y-96404003D01*
X34354560Y-96404224D01*
X34402921Y-96416756D01*
X34415913Y-96419192D01*
X34419077Y-96419824D01*
X34419082Y-96419826D01*
X34422011Y-96420411D01*
X34427883Y-96421586D01*
X34464680Y-96427558D01*
X34478312Y-96429262D01*
X34478870Y-96429334D01*
X34491530Y-96431022D01*
X34559000Y-96435500D01*
X34559001Y-96435500D01*
X35640999Y-96435500D01*
X35641000Y-96435500D01*
X35708470Y-96431022D01*
X35721400Y-96429298D01*
X35735320Y-96427558D01*
X35772117Y-96421586D01*
X35784087Y-96419192D01*
X35797079Y-96416756D01*
X35864434Y-96399303D01*
X35879435Y-96394302D01*
X35894423Y-96389307D01*
X35894434Y-96389303D01*
X35934096Y-96374224D01*
X35948096Y-96368224D01*
X35975303Y-96355605D01*
X36003303Y-96341605D01*
X36042552Y-96319772D01*
X36055552Y-96311772D01*
X36078582Y-96296729D01*
X36091582Y-96287729D01*
X36112257Y-96272635D01*
X36125257Y-96262635D01*
X36140814Y-96250177D01*
X36152814Y-96240177D01*
X36186978Y-96208978D01*
X36208978Y-96186978D01*
X36240177Y-96152814D01*
X36250177Y-96140814D01*
X36262635Y-96125257D01*
X36272635Y-96112257D01*
X36287729Y-96091582D01*
X36296729Y-96078582D01*
X36311772Y-96055552D01*
X36319772Y-96042552D01*
X36341605Y-96003303D01*
X36355605Y-95975303D01*
X36368224Y-95948096D01*
X36374224Y-95934096D01*
X36389303Y-95894434D01*
X36399303Y-95864434D01*
X36416756Y-95797079D01*
X36419192Y-95784087D01*
X36421586Y-95772117D01*
X36427558Y-95735320D01*
X36429298Y-95721400D01*
X36431022Y-95708470D01*
X36435500Y-95641000D01*
X36435500Y-93959000D01*
X36431022Y-93891530D01*
X36429298Y-93878600D01*
X36427558Y-93864680D01*
X36421586Y-93827883D01*
X36419192Y-93815913D01*
X36418489Y-93812163D01*
X36416760Y-93802938D01*
X36416756Y-93802921D01*
X36399303Y-93735566D01*
X36399298Y-93735551D01*
X36389307Y-93705576D01*
X36374223Y-93665901D01*
X36372222Y-93661232D01*
X36368224Y-93651904D01*
X36355605Y-93624697D01*
X36341605Y-93596697D01*
X36319772Y-93557448D01*
X36311772Y-93544448D01*
X36311761Y-93544430D01*
X36296747Y-93521445D01*
X36296740Y-93521435D01*
X36296729Y-93521418D01*
X36287729Y-93508418D01*
X36272635Y-93487743D01*
X36262635Y-93474743D01*
X36250177Y-93459186D01*
X36240177Y-93447186D01*
X36208978Y-93413022D01*
X36208971Y-93413015D01*
X36208958Y-93413001D01*
X36186998Y-93391041D01*
X36186984Y-93391028D01*
X36186978Y-93391022D01*
X36152814Y-93359823D01*
X36140814Y-93349823D01*
X36140806Y-93349816D01*
X36125276Y-93337380D01*
X36125269Y-93337374D01*
X36125257Y-93337365D01*
X36112257Y-93327365D01*
X36091582Y-93312271D01*
X36078582Y-93303271D01*
X36078572Y-93303264D01*
X36078554Y-93303252D01*
X36055569Y-93288238D01*
X36042559Y-93280232D01*
X36042552Y-93280228D01*
X36003303Y-93258395D01*
X35975303Y-93244395D01*
X35975302Y-93244394D01*
X35975283Y-93244385D01*
X35948103Y-93231779D01*
X35934098Y-93225776D01*
X35894423Y-93210692D01*
X35864448Y-93200701D01*
X35864441Y-93200699D01*
X35864434Y-93200697D01*
X35797079Y-93183244D01*
X35797080Y-93183244D01*
X35797064Y-93183240D01*
X35786400Y-93181241D01*
X35786373Y-93181236D01*
X35784087Y-93180808D01*
X35772117Y-93178414D01*
X35735320Y-93172442D01*
X35721400Y-93170702D01*
X35719242Y-93170414D01*
X35719228Y-93170412D01*
X35708478Y-93168979D01*
X35708462Y-93168977D01*
X35649361Y-93165054D01*
X35641000Y-93164500D01*
X34559000Y-93164500D01*
X34551560Y-93164993D01*
X34491537Y-93168977D01*
X34491512Y-93168979D01*
X34480779Y-93170411D01*
X34480762Y-93170413D01*
X34478600Y-93170702D01*
X34464680Y-93172442D01*
X34427883Y-93178414D01*
X34415913Y-93180808D01*
X34413665Y-93181229D01*
X34413606Y-93181239D01*
X34402933Y-93183241D01*
X34402922Y-93183243D01*
X34402921Y-93183244D01*
X34335566Y-93200697D01*
X34335560Y-93200698D01*
X34335551Y-93200701D01*
X34305576Y-93210692D01*
X34265901Y-93225776D01*
X34251896Y-93231779D01*
X34224716Y-93244385D01*
X34196699Y-93258394D01*
X34157440Y-93280232D01*
X34144430Y-93288238D01*
X34121445Y-93303252D01*
X34108402Y-93312282D01*
X34087759Y-93327353D01*
X34074723Y-93337380D01*
X34059193Y-93349816D01*
X34047194Y-93359816D01*
X34013015Y-93391028D01*
X34013001Y-93391041D01*
X33991041Y-93413001D01*
X33991028Y-93413015D01*
X33959816Y-93447194D01*
X33949816Y-93459193D01*
X33937380Y-93474723D01*
X33927353Y-93487759D01*
X33912282Y-93508402D01*
X33903252Y-93521445D01*
X33888238Y-93544430D01*
X33880232Y-93557440D01*
X33858394Y-93596699D01*
X33844385Y-93624716D01*
X33831779Y-93651896D01*
X33825776Y-93665901D01*
X33810692Y-93705576D01*
X33800701Y-93735551D01*
X33800698Y-93735564D01*
X33783241Y-93802933D01*
X33781239Y-93813606D01*
X33781229Y-93813665D01*
X33780808Y-93815913D01*
X33778414Y-93827883D01*
X33772442Y-93864680D01*
X33770702Y-93878600D01*
X33770413Y-93880762D01*
X33770411Y-93880779D01*
X33768979Y-93891512D01*
X33768977Y-93891537D01*
X33764500Y-93959000D01*
X33764500Y-94646260D01*
X33744815Y-94713299D01*
X33692011Y-94759054D01*
X33622853Y-94768998D01*
X33616309Y-94767877D01*
X33523922Y-94749500D01*
X33523918Y-94749500D01*
X33515892Y-94749500D01*
X33450000Y-94749500D01*
X33376082Y-94749500D01*
X33376080Y-94749500D01*
X33231092Y-94778340D01*
X33231082Y-94778343D01*
X33094511Y-94834912D01*
X33094498Y-94834919D01*
X32971584Y-94917048D01*
X32971580Y-94917051D01*
X32925453Y-94963180D01*
X32864130Y-94996666D01*
X32837771Y-94999500D01*
X27162229Y-94999500D01*
X27095190Y-94979815D01*
X27074547Y-94963180D01*
X27028419Y-94917051D01*
X27028415Y-94917048D01*
X26905501Y-94834919D01*
X26905488Y-94834912D01*
X26768917Y-94778343D01*
X26768907Y-94778340D01*
X26623920Y-94749500D01*
X26623918Y-94749500D01*
X26615892Y-94749500D01*
X26550000Y-94749500D01*
X26476082Y-94749500D01*
X26476077Y-94749500D01*
X26383691Y-94767877D01*
X26314100Y-94761650D01*
X26258922Y-94718787D01*
X26235678Y-94652897D01*
X26235500Y-94646260D01*
X26235500Y-93959000D01*
X26231022Y-93891537D01*
X26231021Y-93891522D01*
X26230527Y-93887820D01*
X26229298Y-93878600D01*
X26227558Y-93864680D01*
X26221586Y-93827883D01*
X26219192Y-93815913D01*
X26218489Y-93812163D01*
X26216760Y-93802938D01*
X26216756Y-93802921D01*
X26199303Y-93735566D01*
X26199298Y-93735551D01*
X26189307Y-93705576D01*
X26174223Y-93665901D01*
X26172222Y-93661232D01*
X26168224Y-93651904D01*
X26155605Y-93624697D01*
X26141605Y-93596697D01*
X26119772Y-93557448D01*
X26111772Y-93544448D01*
X26111761Y-93544430D01*
X26096747Y-93521445D01*
X26096740Y-93521435D01*
X26096729Y-93521418D01*
X26087729Y-93508418D01*
X26072635Y-93487743D01*
X26062635Y-93474743D01*
X26050177Y-93459186D01*
X26040177Y-93447186D01*
X26008978Y-93413022D01*
X26008971Y-93413015D01*
X26008958Y-93413001D01*
X25986998Y-93391041D01*
X25986984Y-93391028D01*
X25986978Y-93391022D01*
X25952814Y-93359823D01*
X25940814Y-93349823D01*
X25940806Y-93349816D01*
X25925276Y-93337380D01*
X25925269Y-93337374D01*
X25925257Y-93337365D01*
X25912257Y-93327365D01*
X25891582Y-93312271D01*
X25878582Y-93303271D01*
X25878572Y-93303264D01*
X25878554Y-93303252D01*
X25855569Y-93288238D01*
X25842559Y-93280232D01*
X25842552Y-93280228D01*
X25803303Y-93258395D01*
X25775303Y-93244395D01*
X25775302Y-93244394D01*
X25775283Y-93244385D01*
X25748103Y-93231779D01*
X25734098Y-93225776D01*
X25694423Y-93210692D01*
X25664448Y-93200701D01*
X25664441Y-93200699D01*
X25664434Y-93200697D01*
X25597079Y-93183244D01*
X25597080Y-93183244D01*
X25597064Y-93183240D01*
X25586400Y-93181241D01*
X25586373Y-93181236D01*
X25584087Y-93180808D01*
X25572117Y-93178414D01*
X25535320Y-93172442D01*
X25521400Y-93170702D01*
X25519242Y-93170414D01*
X25519228Y-93170412D01*
X25508478Y-93168979D01*
X25508462Y-93168977D01*
X25449361Y-93165054D01*
X25441000Y-93164500D01*
X24359000Y-93164500D01*
X24351560Y-93164993D01*
X24291537Y-93168977D01*
X24291512Y-93168979D01*
X24280779Y-93170411D01*
X24280762Y-93170413D01*
X24278600Y-93170702D01*
X24264680Y-93172442D01*
X24227883Y-93178414D01*
X24215913Y-93180808D01*
X24213665Y-93181229D01*
X24213606Y-93181239D01*
X24202933Y-93183241D01*
X24202922Y-93183243D01*
X24202921Y-93183244D01*
X24135566Y-93200697D01*
X24135560Y-93200698D01*
X24135551Y-93200701D01*
X24105576Y-93210692D01*
X24065901Y-93225776D01*
X24051896Y-93231779D01*
X24024716Y-93244385D01*
X23996699Y-93258394D01*
X23957440Y-93280232D01*
X23944430Y-93288238D01*
X23921445Y-93303252D01*
X23908402Y-93312282D01*
X23887759Y-93327353D01*
X23874723Y-93337380D01*
X23859193Y-93349816D01*
X23847194Y-93359816D01*
X23813015Y-93391028D01*
X23813001Y-93391041D01*
X23791041Y-93413001D01*
X23791028Y-93413015D01*
X23759816Y-93447194D01*
X23749816Y-93459193D01*
X23737380Y-93474723D01*
X23727353Y-93487759D01*
X23712282Y-93508402D01*
X23703252Y-93521445D01*
X23688238Y-93544430D01*
X23680232Y-93557440D01*
X23658394Y-93596699D01*
X23644385Y-93624716D01*
X23631779Y-93651896D01*
X23625776Y-93665901D01*
X23610692Y-93705576D01*
X23600701Y-93735551D01*
X23600698Y-93735564D01*
X23583241Y-93802933D01*
X23581239Y-93813606D01*
X23581229Y-93813665D01*
X23580808Y-93815913D01*
X23578414Y-93827883D01*
X23572442Y-93864680D01*
X23570702Y-93878600D01*
X23570413Y-93880762D01*
X23570411Y-93880779D01*
X23568979Y-93891512D01*
X23568977Y-93891537D01*
X23564500Y-93959000D01*
X23564500Y-95641000D01*
X23568978Y-95708470D01*
X23570702Y-95721400D01*
X23572442Y-95735320D01*
X23578414Y-95772117D01*
X23580808Y-95784087D01*
X23581236Y-95786373D01*
X23581241Y-95786400D01*
X23583240Y-95797064D01*
X23583244Y-95797079D01*
X23600697Y-95864434D01*
X23600699Y-95864441D01*
X23600701Y-95864448D01*
X23610692Y-95894423D01*
X23625776Y-95934098D01*
X23631779Y-95948103D01*
X23644385Y-95975283D01*
X23644394Y-95975302D01*
X23644395Y-95975303D01*
X23658395Y-96003303D01*
X23680228Y-96042552D01*
X23680232Y-96042559D01*
X23688238Y-96055569D01*
X23703252Y-96078554D01*
X23703264Y-96078572D01*
X23703271Y-96078582D01*
X23712271Y-96091582D01*
X23727365Y-96112257D01*
X23737365Y-96125257D01*
X23737380Y-96125276D01*
X23749816Y-96140806D01*
X23749823Y-96140814D01*
X23759823Y-96152814D01*
X23791022Y-96186978D01*
X23791028Y-96186984D01*
X23791041Y-96186998D01*
X23813001Y-96208958D01*
X23813015Y-96208971D01*
X23813022Y-96208978D01*
X23847186Y-96240177D01*
X23859186Y-96250177D01*
X23874743Y-96262635D01*
X23887743Y-96272635D01*
X23908418Y-96287729D01*
X23921418Y-96296729D01*
X23921435Y-96296740D01*
X23921445Y-96296747D01*
X23944430Y-96311761D01*
X23944448Y-96311772D01*
X23957448Y-96319772D01*
X23996697Y-96341605D01*
X24024697Y-96355605D01*
X24051904Y-96368224D01*
X24061232Y-96372222D01*
X24065901Y-96374223D01*
X24105576Y-96389307D01*
X24135551Y-96399298D01*
X24135566Y-96399303D01*
X24202921Y-96416756D01*
X24202926Y-96416757D01*
X24202938Y-96416760D01*
X24212163Y-96418489D01*
X24215913Y-96419192D01*
X24227883Y-96421586D01*
X24264680Y-96427558D01*
X24278600Y-96429298D01*
X24291530Y-96431022D01*
X24359000Y-96435500D01*
X24359001Y-96435500D01*
X25440999Y-96435500D01*
X25441000Y-96435500D01*
X25508470Y-96431022D01*
X25521400Y-96429298D01*
X25535320Y-96427558D01*
X25572117Y-96421586D01*
X25584087Y-96419192D01*
X25597079Y-96416756D01*
X25644396Y-96404495D01*
X25714228Y-96406733D01*
X25771766Y-96446371D01*
X25798740Y-96510824D01*
X25799500Y-96524530D01*
X25799500Y-96775469D01*
X25792871Y-96798042D01*
X25790653Y-96821468D01*
X25783209Y-96830948D01*
X25779815Y-96842508D01*
X25762037Y-96857912D01*
X25747504Y-96876422D01*
X25736116Y-96880372D01*
X25727011Y-96888263D01*
X25703723Y-96891611D01*
X25681494Y-96899324D01*
X25663189Y-96897439D01*
X25657853Y-96898207D01*
X25646358Y-96895996D01*
X25645367Y-96895756D01*
X25597079Y-96883244D01*
X25584087Y-96880808D01*
X25580948Y-96880180D01*
X25580939Y-96880178D01*
X25572117Y-96878414D01*
X25559843Y-96876422D01*
X25535320Y-96872442D01*
X25535317Y-96872441D01*
X25535307Y-96872440D01*
X25521928Y-96870768D01*
X25520948Y-96870641D01*
X25508470Y-96868978D01*
X25508462Y-96868977D01*
X25449361Y-96865054D01*
X25441000Y-96864500D01*
X24359000Y-96864500D01*
X24351560Y-96864993D01*
X24291537Y-96868977D01*
X24291512Y-96868979D01*
X24280779Y-96870411D01*
X24280762Y-96870413D01*
X24278600Y-96870702D01*
X24264680Y-96872442D01*
X24227883Y-96878414D01*
X24215913Y-96880808D01*
X24213665Y-96881229D01*
X24213606Y-96881239D01*
X24202933Y-96883241D01*
X24202922Y-96883243D01*
X24202921Y-96883244D01*
X24135566Y-96900697D01*
X24135560Y-96900698D01*
X24135551Y-96900701D01*
X24105576Y-96910692D01*
X24065901Y-96925776D01*
X24051896Y-96931779D01*
X24024716Y-96944385D01*
X23996699Y-96958394D01*
X23957440Y-96980232D01*
X23944430Y-96988238D01*
X23921445Y-97003252D01*
X23908402Y-97012282D01*
X23887759Y-97027353D01*
X23874723Y-97037380D01*
X23859193Y-97049816D01*
X23847194Y-97059816D01*
X23813015Y-97091028D01*
X23813001Y-97091041D01*
X23791041Y-97113001D01*
X23791028Y-97113015D01*
X23759816Y-97147194D01*
X23749816Y-97159193D01*
X23737380Y-97174723D01*
X23727353Y-97187759D01*
X23712282Y-97208402D01*
X23703252Y-97221445D01*
X23688238Y-97244430D01*
X23680232Y-97257440D01*
X23658394Y-97296699D01*
X23644385Y-97324716D01*
X23631779Y-97351896D01*
X23625776Y-97365901D01*
X23610692Y-97405576D01*
X23600701Y-97435551D01*
X23600698Y-97435564D01*
X23583241Y-97502933D01*
X23581239Y-97513606D01*
X23581229Y-97513665D01*
X23580808Y-97515913D01*
X23578414Y-97527883D01*
X23572442Y-97564680D01*
X23570702Y-97578600D01*
X23570413Y-97580762D01*
X23570411Y-97580779D01*
X23568979Y-97591512D01*
X23568977Y-97591537D01*
X23564500Y-97659000D01*
X23564500Y-99341000D01*
X23568978Y-99408470D01*
X23570702Y-99421400D01*
X23572442Y-99435320D01*
X23578414Y-99472117D01*
X23580808Y-99484087D01*
X23581236Y-99486373D01*
X23581241Y-99486400D01*
X23583240Y-99497064D01*
X23583244Y-99497079D01*
X23600697Y-99564434D01*
X23600699Y-99564441D01*
X23600701Y-99564448D01*
X23610692Y-99594423D01*
X23625776Y-99634098D01*
X23631779Y-99648103D01*
X23644385Y-99675283D01*
X23644394Y-99675302D01*
X23644395Y-99675303D01*
X23658395Y-99703303D01*
X23680228Y-99742552D01*
X23680232Y-99742559D01*
X23688238Y-99755569D01*
X23703252Y-99778554D01*
X23712277Y-99791591D01*
X23720158Y-99802385D01*
X23743788Y-99868137D01*
X23728119Y-99936227D01*
X23678125Y-99985037D01*
X23620007Y-99999500D01*
X18124500Y-99999500D01*
X18057461Y-99979815D01*
X18011706Y-99927011D01*
X18000500Y-99875500D01*
X18000500Y-47124500D01*
X18020185Y-47057461D01*
X18072989Y-47011706D01*
X18124500Y-47000500D01*
X25643388Y-47000500D01*
X25710427Y-47020185D01*
G37*
%TD.AperFunction*%
%TA.AperFunction,Conductor*%
G36*
X20250000Y-97826988D02*
G01*
X20192993Y-97794075D01*
X20065826Y-97760000D01*
X19934174Y-97760000D01*
X19807007Y-97794075D01*
X19750000Y-97826988D01*
X19750000Y-96153012D01*
X19807007Y-96185925D01*
X19934174Y-96220000D01*
X20065826Y-96220000D01*
X20192993Y-96185925D01*
X20250000Y-96153012D01*
X20250000Y-97826988D01*
G37*
%TD.AperFunction*%
%TA.AperFunction,Conductor*%
G36*
X22432703Y-82920568D02*
G01*
X22439181Y-82926600D01*
X22774907Y-83262326D01*
X22808392Y-83323649D01*
X22808843Y-83325815D01*
X22830261Y-83433491D01*
X22830264Y-83433501D01*
X22890602Y-83579172D01*
X22890609Y-83579185D01*
X22978210Y-83710288D01*
X22978213Y-83710292D01*
X23089707Y-83821786D01*
X23089711Y-83821789D01*
X23220814Y-83909390D01*
X23220827Y-83909397D01*
X23366498Y-83969735D01*
X23366503Y-83969737D01*
X23509399Y-83998161D01*
X23521153Y-84000499D01*
X23521156Y-84000500D01*
X23521158Y-84000500D01*
X23678844Y-84000500D01*
X23812915Y-83973831D01*
X23882507Y-83980058D01*
X23937684Y-84022921D01*
X23960929Y-84088810D01*
X23944861Y-84156807D01*
X23937426Y-84168332D01*
X23905378Y-84212442D01*
X23808904Y-84401782D01*
X23743242Y-84603870D01*
X23743242Y-84603873D01*
X23732769Y-84670000D01*
X24626988Y-84670000D01*
X24594075Y-84727007D01*
X24560000Y-84854174D01*
X24560000Y-84985826D01*
X24594075Y-85112993D01*
X24626988Y-85170000D01*
X23732769Y-85170000D01*
X23743242Y-85236126D01*
X23743242Y-85236129D01*
X23808904Y-85438217D01*
X23905379Y-85627557D01*
X24030272Y-85799459D01*
X24030276Y-85799464D01*
X24180535Y-85949723D01*
X24180540Y-85949727D01*
X24352444Y-86074622D01*
X24361495Y-86079234D01*
X24412292Y-86127208D01*
X24429087Y-86195029D01*
X24406550Y-86261164D01*
X24361499Y-86300202D01*
X24352182Y-86304949D01*
X24180213Y-86429890D01*
X24029890Y-86580213D01*
X23904951Y-86752179D01*
X23808444Y-86941585D01*
X23742753Y-87143760D01*
X23730645Y-87220208D01*
X23709500Y-87353713D01*
X23709500Y-87566287D01*
X23715071Y-87601458D01*
X23742446Y-87774303D01*
X23742754Y-87776243D01*
X23782077Y-87897267D01*
X23808444Y-87978414D01*
X23904951Y-88167820D01*
X24029890Y-88339786D01*
X24180213Y-88490109D01*
X24352182Y-88615050D01*
X24360946Y-88619516D01*
X24411742Y-88667491D01*
X24428536Y-88735312D01*
X24405998Y-88801447D01*
X24360946Y-88840484D01*
X24352182Y-88844949D01*
X24180213Y-88969890D01*
X24029890Y-89120213D01*
X23904951Y-89292179D01*
X23808444Y-89481585D01*
X23742753Y-89683760D01*
X23730645Y-89760208D01*
X23709500Y-89893713D01*
X23709500Y-90106287D01*
X23742754Y-90316243D01*
X23745196Y-90323760D01*
X23808444Y-90518414D01*
X23904951Y-90707820D01*
X24029890Y-90879786D01*
X24180213Y-91030109D01*
X24352179Y-91155048D01*
X24352181Y-91155049D01*
X24352184Y-91155051D01*
X24475446Y-91217856D01*
X24515010Y-91238015D01*
X24565806Y-91285990D01*
X24582601Y-91353811D01*
X24560064Y-91419946D01*
X24505348Y-91463397D01*
X24458715Y-91472500D01*
X22611281Y-91472500D01*
X22544242Y-91452815D01*
X22523600Y-91436181D01*
X22263819Y-91176400D01*
X22230334Y-91115077D01*
X22227500Y-91088719D01*
X22227500Y-83014281D01*
X22247185Y-82947242D01*
X22299989Y-82901487D01*
X22369147Y-82891543D01*
X22432703Y-82920568D01*
G37*
%TD.AperFunction*%
%TA.AperFunction,Conductor*%
G36*
X27134075Y-84727007D02*
G01*
X27100000Y-84854174D01*
X27100000Y-84985826D01*
X27134075Y-85112993D01*
X27166988Y-85170000D01*
X25493012Y-85170000D01*
X25525925Y-85112993D01*
X25560000Y-84985826D01*
X25560000Y-84854174D01*
X25525925Y-84727007D01*
X25493012Y-84670000D01*
X27166988Y-84670000D01*
X27134075Y-84727007D01*
G37*
%TD.AperFunction*%
%TA.AperFunction,Conductor*%
G36*
X25254156Y-82610236D02*
G01*
X25280243Y-82640341D01*
X25282288Y-82643656D01*
X25282289Y-82643657D01*
X25406344Y-82767712D01*
X25459937Y-82800768D01*
X25476353Y-82819019D01*
X25495685Y-82834151D01*
X25500997Y-82846417D01*
X25506662Y-82852715D01*
X25511929Y-82865485D01*
X25514772Y-82873641D01*
X25521614Y-82908035D01*
X25552786Y-82983289D01*
X25554144Y-82986568D01*
X25554147Y-82986576D01*
X25568913Y-83022226D01*
X25568921Y-83022241D01*
X25619876Y-83098498D01*
X25619877Y-83098500D01*
X25637590Y-83125010D01*
X25637593Y-83125013D01*
X26012589Y-83500008D01*
X26059766Y-83547185D01*
X26099993Y-83587412D01*
X26202760Y-83656079D01*
X26202773Y-83656086D01*
X26316740Y-83703292D01*
X26316965Y-83703385D01*
X26316969Y-83703385D01*
X26316970Y-83703386D01*
X26438194Y-83727500D01*
X26438197Y-83727500D01*
X26583950Y-83727500D01*
X26650989Y-83747185D01*
X26696744Y-83799989D01*
X26706688Y-83869147D01*
X26677663Y-83932703D01*
X26671631Y-83939181D01*
X26570276Y-84040535D01*
X26570272Y-84040540D01*
X26445377Y-84212444D01*
X26440484Y-84222048D01*
X26392509Y-84272844D01*
X26324688Y-84289638D01*
X26258553Y-84267100D01*
X26219516Y-84222048D01*
X26214622Y-84212444D01*
X26089727Y-84040540D01*
X26089723Y-84040535D01*
X25939464Y-83890276D01*
X25939459Y-83890272D01*
X25767557Y-83765379D01*
X25578215Y-83668903D01*
X25376124Y-83603241D01*
X25310000Y-83592768D01*
X25310000Y-84486988D01*
X25252993Y-84454075D01*
X25125826Y-84420000D01*
X24994174Y-84420000D01*
X24867007Y-84454075D01*
X24810000Y-84486988D01*
X24810000Y-83592768D01*
X24809999Y-83592768D01*
X24743875Y-83603241D01*
X24541783Y-83668903D01*
X24541779Y-83668905D01*
X24499601Y-83690396D01*
X24430931Y-83703292D01*
X24366191Y-83677015D01*
X24325935Y-83619908D01*
X24322943Y-83550102D01*
X24328746Y-83532458D01*
X24330800Y-83527499D01*
X24369737Y-83433497D01*
X24400500Y-83278842D01*
X24400500Y-83121158D01*
X24400500Y-83121155D01*
X24390959Y-83073191D01*
X24397186Y-83003599D01*
X24440049Y-82948422D01*
X24505938Y-82925177D01*
X24512576Y-82924999D01*
X24524972Y-82924999D01*
X24524986Y-82924998D01*
X24627697Y-82914505D01*
X24794119Y-82859358D01*
X24794124Y-82859356D01*
X24943345Y-82767315D01*
X25067318Y-82643342D01*
X25069165Y-82640348D01*
X25070969Y-82638724D01*
X25071798Y-82637677D01*
X25071976Y-82637818D01*
X25121110Y-82593621D01*
X25190073Y-82582396D01*
X25254156Y-82610236D01*
G37*
%TD.AperFunction*%
%TA.AperFunction,Conductor*%
G36*
X23132703Y-73119286D02*
G01*
X23158252Y-73153137D01*
X23159205Y-73152550D01*
X23252029Y-73303040D01*
X23252032Y-73303044D01*
X23319558Y-73370570D01*
X23353043Y-73431893D01*
X23348059Y-73501585D01*
X23331144Y-73532562D01*
X23256204Y-73632669D01*
X23256202Y-73632671D01*
X23205908Y-73767517D01*
X23199501Y-73827116D01*
X23199500Y-73827135D01*
X23199500Y-75172870D01*
X23199501Y-75172876D01*
X23205908Y-75232483D01*
X23256202Y-75367328D01*
X23256206Y-75367335D01*
X23342452Y-75482544D01*
X23342455Y-75482547D01*
X23457664Y-75568793D01*
X23457671Y-75568797D01*
X23462283Y-75570517D01*
X23592517Y-75619091D01*
X23652127Y-75625500D01*
X24397872Y-75625499D01*
X24457483Y-75619091D01*
X24592331Y-75568796D01*
X24707546Y-75482546D01*
X24793796Y-75367331D01*
X24844091Y-75232483D01*
X24844092Y-75232470D01*
X24844319Y-75231515D01*
X24844705Y-75230836D01*
X24846802Y-75225215D01*
X24847712Y-75225554D01*
X24878885Y-75170795D01*
X24940792Y-75138402D01*
X25010384Y-75144620D01*
X25065567Y-75187476D01*
X25082864Y-75225339D01*
X25083198Y-75225215D01*
X25084935Y-75229874D01*
X25085673Y-75231488D01*
X25085907Y-75232478D01*
X25136202Y-75367328D01*
X25136206Y-75367335D01*
X25222452Y-75482544D01*
X25222455Y-75482547D01*
X25337664Y-75568793D01*
X25337671Y-75568797D01*
X25342283Y-75570517D01*
X25472517Y-75619091D01*
X25532127Y-75625500D01*
X26277872Y-75625499D01*
X26337483Y-75619091D01*
X26472331Y-75568796D01*
X26587546Y-75482546D01*
X26673796Y-75367331D01*
X26686204Y-75334061D01*
X26728073Y-75278130D01*
X26793537Y-75253711D01*
X26849840Y-75262835D01*
X26866497Y-75269735D01*
X26866499Y-75269735D01*
X26866503Y-75269737D01*
X27021153Y-75300499D01*
X27021156Y-75300500D01*
X27021158Y-75300500D01*
X27178844Y-75300500D01*
X27178845Y-75300499D01*
X27333497Y-75269737D01*
X27479179Y-75209394D01*
X27610289Y-75121789D01*
X27610292Y-75121786D01*
X27660819Y-75071260D01*
X27722142Y-75037775D01*
X27791834Y-75042759D01*
X27847767Y-75084631D01*
X27872184Y-75150095D01*
X27872500Y-75158941D01*
X27872500Y-75961807D01*
X27896612Y-76083028D01*
X27896613Y-76083032D01*
X27896614Y-76083035D01*
X27910669Y-76116965D01*
X27943917Y-76197233D01*
X28010735Y-76297233D01*
X28012589Y-76300008D01*
X28012988Y-76300407D01*
X28012990Y-76300410D01*
X28073399Y-76360819D01*
X28106884Y-76422142D01*
X28101900Y-76491834D01*
X28060028Y-76547767D01*
X27994564Y-76572184D01*
X27985718Y-76572500D01*
X27538192Y-76572500D01*
X27416973Y-76596612D01*
X27416965Y-76596614D01*
X27360051Y-76620189D01*
X27353859Y-76622754D01*
X27302767Y-76643917D01*
X27244223Y-76683035D01*
X27239681Y-76686069D01*
X27239677Y-76686072D01*
X27199989Y-76712590D01*
X27199988Y-76712591D01*
X26999993Y-76912587D01*
X26999992Y-76912589D01*
X26971085Y-76941496D01*
X26942179Y-76970401D01*
X26880855Y-77003885D01*
X26811163Y-76998899D01*
X26755231Y-76957027D01*
X26730815Y-76891562D01*
X26730499Y-76882718D01*
X26730499Y-76327129D01*
X26730498Y-76327123D01*
X26730497Y-76327116D01*
X26724091Y-76267517D01*
X26709360Y-76228022D01*
X26673797Y-76132671D01*
X26673793Y-76132664D01*
X26587547Y-76017455D01*
X26587544Y-76017452D01*
X26472335Y-75931206D01*
X26472328Y-75931202D01*
X26337486Y-75880910D01*
X26337485Y-75880909D01*
X26337483Y-75880909D01*
X26277873Y-75874500D01*
X26277863Y-75874500D01*
X25532129Y-75874500D01*
X25532123Y-75874501D01*
X25472515Y-75880909D01*
X25464971Y-75882692D01*
X25464325Y-75879958D01*
X25407916Y-75883988D01*
X25404946Y-75883116D01*
X25404930Y-75883187D01*
X25397372Y-75881401D01*
X25337844Y-75875000D01*
X25215000Y-75875000D01*
X25215000Y-75986139D01*
X25195315Y-76053178D01*
X25190267Y-76060450D01*
X25136204Y-76132668D01*
X25136202Y-76132671D01*
X25085908Y-76267518D01*
X25085676Y-76268501D01*
X25085286Y-76269184D01*
X25083198Y-76274785D01*
X25082290Y-76274446D01*
X25051102Y-76329216D01*
X24989190Y-76361601D01*
X24919599Y-76355372D01*
X24864422Y-76312509D01*
X24847136Y-76274660D01*
X24846802Y-76274785D01*
X24845056Y-76270104D01*
X24844324Y-76268501D01*
X24844091Y-76267518D01*
X24844090Y-76267516D01*
X24793796Y-76132669D01*
X24756635Y-76083028D01*
X24739733Y-76060450D01*
X24715316Y-75994986D01*
X24715000Y-75986139D01*
X24715000Y-75875000D01*
X24592155Y-75875000D01*
X24532624Y-75881401D01*
X24525073Y-75883186D01*
X24524336Y-75880069D01*
X24469288Y-75883975D01*
X24464480Y-75882561D01*
X24457491Y-75880910D01*
X24457483Y-75880909D01*
X24397873Y-75874500D01*
X24397863Y-75874500D01*
X23652129Y-75874500D01*
X23652123Y-75874501D01*
X23592516Y-75880908D01*
X23457671Y-75931202D01*
X23457664Y-75931206D01*
X23342455Y-76017452D01*
X23342452Y-76017455D01*
X23256206Y-76132664D01*
X23256202Y-76132671D01*
X23205908Y-76267517D01*
X23199501Y-76327116D01*
X23199501Y-76327123D01*
X23199500Y-76327135D01*
X23199500Y-77672870D01*
X23199501Y-77672876D01*
X23205908Y-77732483D01*
X23256202Y-77867328D01*
X23256206Y-77867335D01*
X23319213Y-77951500D01*
X23342454Y-77982546D01*
X23343026Y-77982974D01*
X23362255Y-77997369D01*
X23374901Y-78014262D01*
X23391086Y-78027804D01*
X23398564Y-78045873D01*
X23404126Y-78053303D01*
X23406300Y-78059651D01*
X23408272Y-78065961D01*
X23421614Y-78133035D01*
X23450499Y-78202768D01*
X23452631Y-78207916D01*
X23452632Y-78207918D01*
X23468915Y-78247229D01*
X23468920Y-78247238D01*
X23515511Y-78316966D01*
X23515512Y-78316967D01*
X23537590Y-78350010D01*
X23650471Y-78462891D01*
X23683956Y-78524214D01*
X23678972Y-78593906D01*
X23637100Y-78649839D01*
X23627888Y-78656110D01*
X23512268Y-78727426D01*
X23392427Y-78847267D01*
X23392424Y-78847271D01*
X23303457Y-78991507D01*
X23303452Y-78991518D01*
X23250144Y-79152393D01*
X23240000Y-79251677D01*
X23240000Y-79300000D01*
X24066000Y-79300000D01*
X24133039Y-79319685D01*
X24178794Y-79372489D01*
X24190000Y-79424000D01*
X24190000Y-79550000D01*
X24316000Y-79550000D01*
X24383039Y-79569685D01*
X24428794Y-79622489D01*
X24440000Y-79674000D01*
X24440000Y-80346096D01*
X24472166Y-80405004D01*
X24475000Y-80431362D01*
X24475000Y-81576000D01*
X24455315Y-81643039D01*
X24402511Y-81688794D01*
X24351000Y-81700000D01*
X24225000Y-81700000D01*
X24225000Y-81826000D01*
X24205315Y-81893039D01*
X24152511Y-81938794D01*
X24101000Y-81950000D01*
X23288781Y-81950000D01*
X23221742Y-81930315D01*
X23201100Y-81913681D01*
X22963819Y-81676400D01*
X22930334Y-81615077D01*
X22927500Y-81588719D01*
X22927500Y-81175013D01*
X23225000Y-81175013D01*
X23225000Y-81450000D01*
X23975000Y-81450000D01*
X23975000Y-80653903D01*
X23942834Y-80594996D01*
X23940000Y-80568638D01*
X23940000Y-79800000D01*
X23240001Y-79800000D01*
X23240001Y-79848322D01*
X23250144Y-79947607D01*
X23303452Y-80108481D01*
X23303457Y-80108492D01*
X23392424Y-80252728D01*
X23392427Y-80252732D01*
X23512266Y-80372571D01*
X23549209Y-80395358D01*
X23595933Y-80447306D01*
X23607155Y-80516269D01*
X23579312Y-80580351D01*
X23549210Y-80606435D01*
X23506656Y-80632682D01*
X23382684Y-80756654D01*
X23290643Y-80905875D01*
X23290641Y-80905880D01*
X23235494Y-81072302D01*
X23235493Y-81072309D01*
X23225000Y-81175013D01*
X22927500Y-81175013D01*
X22927500Y-73212999D01*
X22947185Y-73145960D01*
X22999989Y-73100205D01*
X23069147Y-73090261D01*
X23132703Y-73119286D01*
G37*
%TD.AperFunction*%
%TA.AperFunction,Conductor*%
G36*
X38710581Y-65834739D02*
G01*
X38738688Y-65833535D01*
X38744964Y-65837198D01*
X38752213Y-65837717D01*
X38774736Y-65854577D01*
X38799029Y-65868758D01*
X38805006Y-65877237D01*
X38808147Y-65879588D01*
X38819365Y-65897604D01*
X38844951Y-65947820D01*
X38969890Y-66119786D01*
X39120213Y-66270109D01*
X39292182Y-66395050D01*
X39300946Y-66399516D01*
X39351742Y-66447491D01*
X39368536Y-66515312D01*
X39345998Y-66581447D01*
X39300946Y-66620484D01*
X39292182Y-66624949D01*
X39120213Y-66749890D01*
X38969890Y-66900213D01*
X38844951Y-67072179D01*
X38748444Y-67261585D01*
X38682753Y-67463760D01*
X38666702Y-67565104D01*
X38649500Y-67673713D01*
X38649500Y-67886287D01*
X38682754Y-68096243D01*
X38731820Y-68247253D01*
X38748444Y-68298414D01*
X38844951Y-68487820D01*
X38969890Y-68659786D01*
X39120213Y-68810109D01*
X39292182Y-68935050D01*
X39300946Y-68939516D01*
X39351742Y-68987491D01*
X39368536Y-69055312D01*
X39345998Y-69121447D01*
X39300946Y-69160484D01*
X39292182Y-69164949D01*
X39120213Y-69289890D01*
X38969890Y-69440213D01*
X38844951Y-69612179D01*
X38748444Y-69801585D01*
X38682753Y-70003760D01*
X38670961Y-70078213D01*
X38649500Y-70213713D01*
X38649500Y-70426287D01*
X38655869Y-70466498D01*
X38680364Y-70621158D01*
X38682754Y-70636243D01*
X38747462Y-70835394D01*
X38748444Y-70838414D01*
X38844951Y-71027820D01*
X38969890Y-71199786D01*
X39120213Y-71350109D01*
X39292182Y-71475050D01*
X39300946Y-71479516D01*
X39351742Y-71527491D01*
X39368536Y-71595312D01*
X39345998Y-71661447D01*
X39300946Y-71700484D01*
X39292182Y-71704949D01*
X39120213Y-71829890D01*
X38969890Y-71980213D01*
X38844951Y-72152179D01*
X38748444Y-72341585D01*
X38682753Y-72543760D01*
X38649500Y-72753713D01*
X38649500Y-72966286D01*
X38678860Y-73151662D01*
X38682754Y-73176243D01*
X38747172Y-73374501D01*
X38748444Y-73378414D01*
X38844951Y-73567820D01*
X38969890Y-73739786D01*
X39120213Y-73890109D01*
X39292182Y-74015050D01*
X39300946Y-74019516D01*
X39351742Y-74067491D01*
X39368536Y-74135312D01*
X39345998Y-74201447D01*
X39300946Y-74240484D01*
X39292182Y-74244949D01*
X39120213Y-74369890D01*
X38969890Y-74520213D01*
X38844951Y-74692179D01*
X38748444Y-74881585D01*
X38682753Y-75083760D01*
X38649500Y-75293713D01*
X38649500Y-75506286D01*
X38682753Y-75716240D01*
X38682754Y-75716243D01*
X38736257Y-75880909D01*
X38745769Y-75910182D01*
X38747764Y-75980023D01*
X38711684Y-76039856D01*
X38648983Y-76070684D01*
X38627838Y-76072500D01*
X38338192Y-76072500D01*
X38216973Y-76096612D01*
X38216965Y-76096614D01*
X38174215Y-76114322D01*
X38174212Y-76114323D01*
X38167835Y-76116965D01*
X38102767Y-76143917D01*
X38022974Y-76197233D01*
X38018598Y-76200156D01*
X38018596Y-76200158D01*
X38008140Y-76207145D01*
X37941463Y-76228022D01*
X37874083Y-76209537D01*
X37836149Y-76172934D01*
X37787411Y-76099992D01*
X37700008Y-76012589D01*
X37403658Y-75716239D01*
X37045011Y-75357591D01*
X37045003Y-75357585D01*
X37030609Y-75347967D01*
X36985803Y-75294355D01*
X36975499Y-75244869D01*
X36975499Y-74701656D01*
X36974531Y-74692184D01*
X36965349Y-74602292D01*
X36965348Y-74602289D01*
X36919061Y-74462604D01*
X36912003Y-74441303D01*
X36911999Y-74441297D01*
X36911998Y-74441294D01*
X36822970Y-74296959D01*
X36822967Y-74296955D01*
X36813693Y-74287681D01*
X36780208Y-74226358D01*
X36785192Y-74156666D01*
X36813693Y-74112319D01*
X36814455Y-74111557D01*
X36822968Y-74103044D01*
X36912003Y-73958697D01*
X36965349Y-73797708D01*
X36975500Y-73698345D01*
X36975499Y-73151656D01*
X36972192Y-73119286D01*
X36965349Y-73052292D01*
X36965348Y-73052289D01*
X36936850Y-72966287D01*
X36912003Y-72891303D01*
X36911999Y-72891297D01*
X36911998Y-72891294D01*
X36822970Y-72746959D01*
X36822969Y-72746958D01*
X36822968Y-72746956D01*
X36703044Y-72627032D01*
X36703043Y-72627031D01*
X36703041Y-72627029D01*
X36686401Y-72616765D01*
X36639678Y-72564817D01*
X36627500Y-72511228D01*
X36627500Y-72214519D01*
X36647185Y-72147480D01*
X36663821Y-72126836D01*
X36680469Y-72110188D01*
X36680472Y-72110185D01*
X36768478Y-71964606D01*
X36819086Y-71802196D01*
X36825500Y-71731616D01*
X36825500Y-71068384D01*
X36819086Y-70997804D01*
X36768478Y-70835394D01*
X36680472Y-70689815D01*
X36680470Y-70689813D01*
X36680469Y-70689811D01*
X36560185Y-70569527D01*
X36555636Y-70565963D01*
X36546486Y-70554057D01*
X36536461Y-70547266D01*
X36519193Y-70518541D01*
X36518103Y-70517122D01*
X36517843Y-70516514D01*
X36481083Y-70427767D01*
X36477741Y-70422765D01*
X36473223Y-70412203D01*
X36470396Y-70388482D01*
X36463251Y-70365688D01*
X36466337Y-70354421D01*
X36464956Y-70342824D01*
X36475402Y-70321341D01*
X36481715Y-70298302D01*
X36494409Y-70282252D01*
X36495510Y-70279989D01*
X36496840Y-70279178D01*
X36499550Y-70275753D01*
X36572576Y-70202727D01*
X36661542Y-70058492D01*
X36661547Y-70058481D01*
X36714855Y-69897606D01*
X36724999Y-69798322D01*
X36725000Y-69798309D01*
X36725000Y-69750000D01*
X35899000Y-69750000D01*
X35831961Y-69730315D01*
X35786206Y-69677511D01*
X35775000Y-69626000D01*
X35775000Y-69500000D01*
X35649000Y-69500000D01*
X35581961Y-69480315D01*
X35536206Y-69427511D01*
X35525000Y-69376000D01*
X35525000Y-69250000D01*
X36025000Y-69250000D01*
X36724999Y-69250000D01*
X36724999Y-69201692D01*
X36724998Y-69201677D01*
X36714855Y-69102392D01*
X36661547Y-68941518D01*
X36661542Y-68941507D01*
X36572575Y-68797271D01*
X36572572Y-68797267D01*
X36452733Y-68677428D01*
X36417245Y-68655539D01*
X36370521Y-68603591D01*
X36359298Y-68534628D01*
X36387142Y-68470546D01*
X36417245Y-68444461D01*
X36452733Y-68422571D01*
X36572572Y-68302732D01*
X36572575Y-68302728D01*
X36661542Y-68158492D01*
X36661547Y-68158481D01*
X36714855Y-67997606D01*
X36724999Y-67898322D01*
X36725000Y-67898309D01*
X36725000Y-67850000D01*
X36025000Y-67850000D01*
X36025000Y-69250000D01*
X35525000Y-69250000D01*
X35525000Y-67350000D01*
X36025000Y-67350000D01*
X36724999Y-67350000D01*
X36724999Y-67301692D01*
X36724998Y-67301677D01*
X36714855Y-67202392D01*
X36661547Y-67041518D01*
X36661542Y-67041507D01*
X36572575Y-66897271D01*
X36572572Y-66897267D01*
X36452732Y-66777427D01*
X36452728Y-66777424D01*
X36308492Y-66688457D01*
X36308481Y-66688452D01*
X36147606Y-66635144D01*
X36048322Y-66625000D01*
X36025000Y-66625000D01*
X36025000Y-67350000D01*
X35525000Y-67350000D01*
X35525000Y-66649244D01*
X35451213Y-66611232D01*
X35446805Y-66607031D01*
X35440965Y-66605317D01*
X35421808Y-66583211D01*
X35400632Y-66563031D01*
X35399195Y-66557116D01*
X35395208Y-66552515D01*
X35391044Y-66523559D01*
X35384140Y-66495136D01*
X35386129Y-66489382D01*
X35385263Y-66483357D01*
X35386384Y-66476807D01*
X35396231Y-66427307D01*
X35428617Y-66365396D01*
X35489333Y-66330823D01*
X35517848Y-66327500D01*
X37961804Y-66327500D01*
X37961805Y-66327499D01*
X38083035Y-66303386D01*
X38144622Y-66277875D01*
X38180699Y-66262932D01*
X38187217Y-66260231D01*
X38197233Y-66256083D01*
X38300008Y-66187411D01*
X38387411Y-66100008D01*
X38621203Y-65866215D01*
X38645890Y-65852734D01*
X38668882Y-65836527D01*
X38676142Y-65836215D01*
X38682521Y-65832733D01*
X38710581Y-65834739D01*
G37*
%TD.AperFunction*%
%TA.AperFunction,Conductor*%
G36*
X34905758Y-59047185D02*
G01*
X34926400Y-59063819D01*
X35036181Y-59173600D01*
X35069666Y-59234923D01*
X35072500Y-59261281D01*
X35072500Y-63148500D01*
X35052815Y-63215539D01*
X35000011Y-63261294D01*
X34948500Y-63272500D01*
X33751799Y-63272500D01*
X33684760Y-63252815D01*
X33639005Y-63200011D01*
X33629327Y-63167905D01*
X33619709Y-63107174D01*
X33558884Y-62919975D01*
X33558882Y-62919972D01*
X33558882Y-62919970D01*
X33469523Y-62744594D01*
X33353828Y-62585354D01*
X33214646Y-62446172D01*
X33055405Y-62330476D01*
X32880029Y-62241117D01*
X32692826Y-62180290D01*
X32498422Y-62149500D01*
X32498417Y-62149500D01*
X32301583Y-62149500D01*
X32301578Y-62149500D01*
X32107173Y-62180290D01*
X31919970Y-62241117D01*
X31744594Y-62330476D01*
X31714752Y-62352158D01*
X31585354Y-62446172D01*
X31585352Y-62446174D01*
X31585351Y-62446174D01*
X31446174Y-62585351D01*
X31446174Y-62585352D01*
X31446172Y-62585354D01*
X31440099Y-62593713D01*
X31330476Y-62744594D01*
X31241117Y-62919970D01*
X31180290Y-63107173D01*
X31149500Y-63301577D01*
X31149500Y-63498422D01*
X31180290Y-63692826D01*
X31241117Y-63880029D01*
X31296357Y-63988443D01*
X31330476Y-64055405D01*
X31446172Y-64214646D01*
X31585354Y-64353828D01*
X31744595Y-64469524D01*
X31919975Y-64558884D01*
X32042304Y-64598631D01*
X32099979Y-64638069D01*
X32127177Y-64702428D01*
X32118547Y-64764013D01*
X32096614Y-64816965D01*
X32096612Y-64816972D01*
X32078599Y-64907526D01*
X32078600Y-64907527D01*
X32072500Y-64938196D01*
X32072500Y-65315642D01*
X32052815Y-65382681D01*
X32051602Y-65384533D01*
X31990609Y-65475814D01*
X31990602Y-65475827D01*
X31930264Y-65621498D01*
X31930261Y-65621510D01*
X31899500Y-65776153D01*
X31899500Y-65933846D01*
X31930261Y-66088489D01*
X31930264Y-66088501D01*
X31990602Y-66234172D01*
X31990609Y-66234185D01*
X32078210Y-66365288D01*
X32078213Y-66365292D01*
X32189707Y-66476786D01*
X32189711Y-66476789D01*
X32320814Y-66564390D01*
X32320827Y-66564397D01*
X32456235Y-66620484D01*
X32466503Y-66624737D01*
X32621153Y-66655499D01*
X32621156Y-66655500D01*
X32621158Y-66655500D01*
X32778844Y-66655500D01*
X32863492Y-66638662D01*
X32933084Y-66644889D01*
X32988261Y-66687752D01*
X32990786Y-66691389D01*
X33013525Y-66725420D01*
X33013531Y-66725428D01*
X33125025Y-66836922D01*
X33125029Y-66836925D01*
X33256135Y-66924528D01*
X33261505Y-66927398D01*
X33260885Y-66928557D01*
X33310026Y-66968156D01*
X33332091Y-67034450D01*
X33325876Y-67077881D01*
X33284651Y-67202290D01*
X33274500Y-67301647D01*
X33274500Y-67898337D01*
X33274501Y-67898355D01*
X33284650Y-67997707D01*
X33284651Y-67997710D01*
X33337996Y-68158694D01*
X33338001Y-68158705D01*
X33427027Y-68303037D01*
X33427032Y-68303044D01*
X33546955Y-68422967D01*
X33546959Y-68422970D01*
X33581802Y-68444462D01*
X33628527Y-68496410D01*
X33639748Y-68565372D01*
X33611905Y-68629454D01*
X33581802Y-68655538D01*
X33546959Y-68677029D01*
X33546955Y-68677032D01*
X33427031Y-68796956D01*
X33416767Y-68813598D01*
X33409180Y-68820421D01*
X33404942Y-68829703D01*
X33383643Y-68843390D01*
X33364819Y-68860322D01*
X33353182Y-68862966D01*
X33346164Y-68867477D01*
X33311229Y-68872500D01*
X33111281Y-68872500D01*
X33044242Y-68852815D01*
X33023600Y-68836181D01*
X32700011Y-68512591D01*
X32700010Y-68512590D01*
X32681504Y-68500225D01*
X32681503Y-68500224D01*
X32678409Y-68498157D01*
X32597233Y-68443917D01*
X32563784Y-68430062D01*
X32555957Y-68426820D01*
X32555954Y-68426818D01*
X32483035Y-68396614D01*
X32483027Y-68396612D01*
X32361807Y-68372500D01*
X32361803Y-68372500D01*
X32055941Y-68372500D01*
X31988902Y-68352815D01*
X31968260Y-68336181D01*
X31966936Y-68334857D01*
X31966932Y-68334854D01*
X31835829Y-68247253D01*
X31835816Y-68247246D01*
X31690145Y-68186908D01*
X31690133Y-68186905D01*
X31535489Y-68156144D01*
X31535486Y-68156144D01*
X31377802Y-68156144D01*
X31377799Y-68156144D01*
X31223154Y-68186905D01*
X31223142Y-68186908D01*
X31077471Y-68247246D01*
X31077458Y-68247253D01*
X30946355Y-68334854D01*
X30946351Y-68334857D01*
X30834857Y-68446351D01*
X30834854Y-68446355D01*
X30747253Y-68577458D01*
X30747246Y-68577471D01*
X30686908Y-68723142D01*
X30686905Y-68723154D01*
X30656144Y-68877797D01*
X30656144Y-68978327D01*
X30636459Y-69045366D01*
X30583655Y-69091121D01*
X30514497Y-69101065D01*
X30484692Y-69092889D01*
X30425672Y-69068443D01*
X30333497Y-69030263D01*
X30333492Y-69030262D01*
X30333489Y-69030261D01*
X30178845Y-68999500D01*
X30178842Y-68999500D01*
X30021158Y-68999500D01*
X30021155Y-68999500D01*
X29866510Y-69030261D01*
X29866498Y-69030264D01*
X29720827Y-69090602D01*
X29720814Y-69090609D01*
X29589711Y-69178210D01*
X29589707Y-69178213D01*
X29478213Y-69289707D01*
X29478210Y-69289711D01*
X29390609Y-69420814D01*
X29390602Y-69420827D01*
X29330264Y-69566498D01*
X29330261Y-69566510D01*
X29299500Y-69721153D01*
X29299500Y-69878846D01*
X29330261Y-70033489D01*
X29330264Y-70033501D01*
X29390602Y-70179172D01*
X29390609Y-70179185D01*
X29478210Y-70310288D01*
X29478213Y-70310292D01*
X29589707Y-70421786D01*
X29589711Y-70421789D01*
X29720814Y-70509390D01*
X29720827Y-70509397D01*
X29799455Y-70541965D01*
X29866503Y-70569737D01*
X29876990Y-70571823D01*
X29901120Y-70576623D01*
X29963031Y-70609008D01*
X29997605Y-70669724D01*
X29998545Y-70674048D01*
X30030261Y-70833491D01*
X30030264Y-70833501D01*
X30090602Y-70979172D01*
X30090609Y-70979185D01*
X30178210Y-71110288D01*
X30178213Y-71110292D01*
X30289707Y-71221786D01*
X30289711Y-71221789D01*
X30420814Y-71309390D01*
X30420827Y-71309397D01*
X30566498Y-71369735D01*
X30566503Y-71369737D01*
X30696474Y-71395590D01*
X30721153Y-71400499D01*
X30721156Y-71400500D01*
X30721158Y-71400500D01*
X30878844Y-71400500D01*
X30878845Y-71400499D01*
X31033497Y-71369737D01*
X31179179Y-71309394D01*
X31255052Y-71258697D01*
X31270466Y-71248398D01*
X31337143Y-71227520D01*
X31339357Y-71227500D01*
X31854609Y-71227500D01*
X31921648Y-71247185D01*
X31967403Y-71299989D01*
X31977347Y-71369147D01*
X31957711Y-71420391D01*
X31890609Y-71520814D01*
X31890602Y-71520827D01*
X31830264Y-71666498D01*
X31830261Y-71666510D01*
X31799500Y-71821153D01*
X31799500Y-71978846D01*
X31830261Y-72133489D01*
X31830264Y-72133501D01*
X31890602Y-72279172D01*
X31890609Y-72279185D01*
X31978210Y-72410288D01*
X31978213Y-72410292D01*
X32089710Y-72521789D01*
X32217391Y-72607102D01*
X32262196Y-72660714D01*
X32272500Y-72710204D01*
X32272500Y-75361807D01*
X32296612Y-75483027D01*
X32296614Y-75483035D01*
X32304075Y-75501047D01*
X32311544Y-75570517D01*
X32280269Y-75632996D01*
X32220180Y-75668648D01*
X32189514Y-75672500D01*
X29251500Y-75672500D01*
X29184461Y-75652815D01*
X29138706Y-75600011D01*
X29127500Y-75548500D01*
X29127500Y-73039356D01*
X29147185Y-72972317D01*
X29148398Y-72970465D01*
X29151190Y-72966286D01*
X29209394Y-72879179D01*
X29269737Y-72733497D01*
X29300500Y-72578842D01*
X29300500Y-72421158D01*
X29300500Y-72421155D01*
X29300499Y-72421153D01*
X29298338Y-72410288D01*
X29269737Y-72266503D01*
X29254813Y-72230472D01*
X29209397Y-72120827D01*
X29209390Y-72120814D01*
X29121789Y-71989711D01*
X29121786Y-71989707D01*
X29010292Y-71878213D01*
X29010288Y-71878210D01*
X28879185Y-71790609D01*
X28879172Y-71790602D01*
X28733501Y-71730264D01*
X28733489Y-71730261D01*
X28578845Y-71699500D01*
X28578842Y-71699500D01*
X28421158Y-71699500D01*
X28421155Y-71699500D01*
X28266510Y-71730261D01*
X28266498Y-71730264D01*
X28120827Y-71790602D01*
X28120814Y-71790609D01*
X27989711Y-71878210D01*
X27989707Y-71878213D01*
X27939181Y-71928740D01*
X27877858Y-71962225D01*
X27808166Y-71957241D01*
X27752233Y-71915369D01*
X27727816Y-71849905D01*
X27727500Y-71841059D01*
X27727500Y-71239356D01*
X27747185Y-71172317D01*
X27748398Y-71170465D01*
X27809394Y-71079179D01*
X27869737Y-70933497D01*
X27900500Y-70778842D01*
X27900500Y-70621158D01*
X27900500Y-70621155D01*
X27900499Y-70621153D01*
X27878269Y-70509397D01*
X27869737Y-70466503D01*
X27851215Y-70421786D01*
X27809397Y-70320827D01*
X27809390Y-70320814D01*
X27721789Y-70189711D01*
X27721786Y-70189707D01*
X27610292Y-70078213D01*
X27610288Y-70078210D01*
X27479185Y-69990609D01*
X27479172Y-69990602D01*
X27333501Y-69930264D01*
X27333489Y-69930261D01*
X27178845Y-69899500D01*
X27178842Y-69899500D01*
X27021158Y-69899500D01*
X27021155Y-69899500D01*
X26866510Y-69930261D01*
X26866498Y-69930264D01*
X26720827Y-69990602D01*
X26720814Y-69990609D01*
X26629534Y-70051602D01*
X26611487Y-70057252D01*
X26595578Y-70067477D01*
X26564618Y-70071928D01*
X26562857Y-70072480D01*
X26560643Y-70072500D01*
X26513771Y-70072500D01*
X26446732Y-70052815D01*
X26408233Y-70013598D01*
X26397969Y-69996958D01*
X26397968Y-69996956D01*
X26341724Y-69940712D01*
X26308240Y-69879388D01*
X26313225Y-69809696D01*
X26355096Y-69753763D01*
X26364297Y-69747500D01*
X26493656Y-69667712D01*
X26617712Y-69543656D01*
X26709814Y-69394334D01*
X26764999Y-69227797D01*
X26775500Y-69125009D01*
X26775499Y-68074992D01*
X26764999Y-67972203D01*
X26709814Y-67805666D01*
X26617712Y-67656344D01*
X26493656Y-67532288D01*
X26344334Y-67440186D01*
X26239685Y-67405508D01*
X26182242Y-67365738D01*
X26155419Y-67301222D01*
X26167734Y-67232446D01*
X26191004Y-67200129D01*
X26288090Y-67103044D01*
X26377125Y-66958697D01*
X26430471Y-66797708D01*
X26440622Y-66698345D01*
X26440621Y-66101656D01*
X26430471Y-66002292D01*
X26377125Y-65841303D01*
X26377121Y-65841297D01*
X26377120Y-65841294D01*
X26288092Y-65696959D01*
X26288091Y-65696958D01*
X26288090Y-65696956D01*
X26168166Y-65577032D01*
X26168165Y-65577031D01*
X26168163Y-65577029D01*
X26164715Y-65574303D01*
X26163046Y-65571946D01*
X26160419Y-65570747D01*
X26142975Y-65543604D01*
X26124336Y-65517283D01*
X26123731Y-65513659D01*
X26122645Y-65511969D01*
X26117622Y-65477034D01*
X26117622Y-65402961D01*
X26137307Y-65335922D01*
X26164717Y-65305690D01*
X26168155Y-65302970D01*
X26168166Y-65302964D01*
X26288090Y-65183040D01*
X26377125Y-65038693D01*
X26430471Y-64877704D01*
X26440622Y-64778341D01*
X26440621Y-64388455D01*
X26460305Y-64321418D01*
X26513109Y-64275663D01*
X26582268Y-64265719D01*
X26645823Y-64294744D01*
X26652302Y-64300776D01*
X26705354Y-64353828D01*
X26864595Y-64469524D01*
X26947455Y-64511743D01*
X27039970Y-64558882D01*
X27039972Y-64558882D01*
X27039975Y-64558884D01*
X27140317Y-64591487D01*
X27227173Y-64619709D01*
X27421578Y-64650500D01*
X27421583Y-64650500D01*
X27618422Y-64650500D01*
X27812826Y-64619709D01*
X28000025Y-64558884D01*
X28175405Y-64469524D01*
X28317625Y-64366194D01*
X28383429Y-64342715D01*
X28451483Y-64358540D01*
X28500178Y-64408645D01*
X28512126Y-64442321D01*
X28530261Y-64533491D01*
X28530264Y-64533501D01*
X28590602Y-64679172D01*
X28590609Y-64679185D01*
X28678210Y-64810288D01*
X28678213Y-64810292D01*
X28789707Y-64921786D01*
X28789711Y-64921789D01*
X28920814Y-65009390D01*
X28920827Y-65009397D01*
X29066498Y-65069735D01*
X29066503Y-65069737D01*
X29221153Y-65100499D01*
X29221156Y-65100500D01*
X29221158Y-65100500D01*
X29378844Y-65100500D01*
X29378845Y-65100499D01*
X29533497Y-65069737D01*
X29679179Y-65009394D01*
X29810289Y-64921789D01*
X29921789Y-64810289D01*
X30009394Y-64679179D01*
X30069737Y-64533497D01*
X30100500Y-64378842D01*
X30100500Y-64221158D01*
X30100500Y-64221155D01*
X30100499Y-64221153D01*
X30092642Y-64181652D01*
X30069737Y-64066503D01*
X30031965Y-63975312D01*
X30009397Y-63920827D01*
X30009390Y-63920814D01*
X29948398Y-63829533D01*
X29927520Y-63762855D01*
X29927500Y-63760642D01*
X29927500Y-59238196D01*
X29927499Y-59238195D01*
X29920261Y-59201803D01*
X29915067Y-59175690D01*
X29921294Y-59106100D01*
X29964157Y-59050922D01*
X30030047Y-59027678D01*
X30036684Y-59027500D01*
X34838719Y-59027500D01*
X34905758Y-59047185D01*
G37*
%TD.AperFunction*%
%TA.AperFunction,Conductor*%
G36*
X23132703Y-71218095D02*
G01*
X23158900Y-71252805D01*
X23159661Y-71252337D01*
X23252424Y-71402728D01*
X23252427Y-71402732D01*
X23372267Y-71522572D01*
X23372271Y-71522575D01*
X23407278Y-71544168D01*
X23454003Y-71596116D01*
X23465224Y-71665078D01*
X23437381Y-71729160D01*
X23407279Y-71755244D01*
X23371956Y-71777031D01*
X23252032Y-71896955D01*
X23252029Y-71896959D01*
X23159205Y-72047450D01*
X23157645Y-72046488D01*
X23117709Y-72091845D01*
X23050515Y-72110996D01*
X22983634Y-72090779D01*
X22938300Y-72037614D01*
X22927500Y-71987000D01*
X22927500Y-71311808D01*
X22947185Y-71244769D01*
X22999989Y-71199014D01*
X23069147Y-71189070D01*
X23132703Y-71218095D01*
G37*
%TD.AperFunction*%
%TA.AperFunction,Conductor*%
G36*
X24193039Y-60719685D02*
G01*
X24238794Y-60772489D01*
X24250000Y-60824000D01*
X24250000Y-63593760D01*
X24230315Y-63660799D01*
X24213681Y-63681441D01*
X24190122Y-63705000D01*
X24190122Y-67388516D01*
X24170437Y-67455555D01*
X24153803Y-67476197D01*
X24125000Y-67505000D01*
X24125000Y-69595000D01*
X24176000Y-69595000D01*
X24243039Y-69614685D01*
X24288794Y-69667489D01*
X24300000Y-69719000D01*
X24300000Y-70576000D01*
X24280315Y-70643039D01*
X24227511Y-70688794D01*
X24176000Y-70700000D01*
X23924000Y-70700000D01*
X23856961Y-70680315D01*
X23811206Y-70627511D01*
X23800000Y-70576000D01*
X23800000Y-69955000D01*
X23749000Y-69955000D01*
X23681961Y-69935315D01*
X23636206Y-69882511D01*
X23625000Y-69831000D01*
X23625000Y-67361484D01*
X23644685Y-67294445D01*
X23661319Y-67273803D01*
X23690122Y-67245000D01*
X23690122Y-63486236D01*
X23709807Y-63419197D01*
X23726441Y-63398555D01*
X23750000Y-63374996D01*
X23750000Y-60824000D01*
X23769685Y-60756961D01*
X23822489Y-60711206D01*
X23874000Y-60700000D01*
X24126000Y-60700000D01*
X24193039Y-60719685D01*
G37*
%TD.AperFunction*%
%TA.AperFunction,Conductor*%
G36*
X23733576Y-59502185D02*
G01*
X23779331Y-59554989D01*
X23789275Y-59624147D01*
X23760250Y-59687703D01*
X23701472Y-59725477D01*
X23679139Y-59729858D01*
X23627392Y-59735144D01*
X23466518Y-59788452D01*
X23466507Y-59788457D01*
X23322271Y-59877424D01*
X23322267Y-59877427D01*
X23202426Y-59997268D01*
X23157038Y-60070854D01*
X23105090Y-60117578D01*
X23036127Y-60128799D01*
X22972045Y-60100956D01*
X22933190Y-60042887D01*
X22927500Y-60005756D01*
X22927500Y-59611281D01*
X22936144Y-59581840D01*
X22942668Y-59551854D01*
X22946422Y-59546838D01*
X22947185Y-59544242D01*
X22963819Y-59523600D01*
X22968600Y-59518819D01*
X23029923Y-59485334D01*
X23056281Y-59482500D01*
X23666537Y-59482500D01*
X23733576Y-59502185D01*
G37*
%TD.AperFunction*%
%TA.AperFunction,Conductor*%
G36*
X24649191Y-59502185D02*
G01*
X24694946Y-59554989D01*
X24703769Y-59582309D01*
X24718797Y-59657859D01*
X24712570Y-59727450D01*
X24669707Y-59782628D01*
X24603817Y-59805872D01*
X24540329Y-59790869D01*
X24540032Y-59791507D01*
X24536954Y-59790072D01*
X24535820Y-59789804D01*
X24533758Y-59788581D01*
X24533481Y-59788452D01*
X24372606Y-59735144D01*
X24320867Y-59729858D01*
X24256175Y-59703462D01*
X24216024Y-59646281D01*
X24213161Y-59576470D01*
X24248495Y-59516193D01*
X24310808Y-59484588D01*
X24333470Y-59482500D01*
X24582152Y-59482500D01*
X24649191Y-59502185D01*
G37*
%TD.AperFunction*%
%TA.AperFunction,Conductor*%
G36*
X35995255Y-55727185D02*
G01*
X36041010Y-55779989D01*
X36050954Y-55849147D01*
X36021929Y-55912703D01*
X36015897Y-55919181D01*
X35972863Y-55962214D01*
X35972860Y-55962218D01*
X35863371Y-56126079D01*
X35863364Y-56126092D01*
X35787950Y-56308160D01*
X35787947Y-56308170D01*
X35749500Y-56501456D01*
X35749500Y-56501459D01*
X35749500Y-56698541D01*
X35749500Y-56698543D01*
X35749499Y-56698543D01*
X35778495Y-56844308D01*
X35772268Y-56913900D01*
X35729405Y-56969077D01*
X35663516Y-56992322D01*
X35656878Y-56992500D01*
X21271961Y-56992500D01*
X21204922Y-56972815D01*
X21161475Y-56924792D01*
X21155050Y-56912181D01*
X21030109Y-56740213D01*
X20879786Y-56589890D01*
X20707820Y-56464951D01*
X20707115Y-56464591D01*
X20699054Y-56460485D01*
X20648259Y-56412512D01*
X20631463Y-56344692D01*
X20653999Y-56278556D01*
X20699054Y-56239515D01*
X20707816Y-56235051D01*
X20737538Y-56213457D01*
X20879786Y-56110109D01*
X20879788Y-56110106D01*
X20879792Y-56110104D01*
X21030104Y-55959792D01*
X21030106Y-55959788D01*
X21030109Y-55959786D01*
X21155050Y-55787818D01*
X21161475Y-55775208D01*
X21209448Y-55724411D01*
X21271961Y-55707500D01*
X35928216Y-55707500D01*
X35995255Y-55727185D01*
G37*
%TD.AperFunction*%
%TA.AperFunction,Conductor*%
G36*
X38592540Y-50647185D02*
G01*
X38638295Y-50699989D01*
X38649501Y-50751500D01*
X38649501Y-50897876D01*
X38655908Y-50957483D01*
X38706202Y-51092328D01*
X38706206Y-51092335D01*
X38792452Y-51207544D01*
X38792455Y-51207547D01*
X38907664Y-51293793D01*
X38907671Y-51293797D01*
X38907674Y-51293798D01*
X39039598Y-51343002D01*
X39095531Y-51384873D01*
X39119949Y-51450337D01*
X39105098Y-51518610D01*
X39083947Y-51546865D01*
X38970271Y-51660541D01*
X38845379Y-51832442D01*
X38748904Y-52021782D01*
X38683242Y-52223870D01*
X38683242Y-52223873D01*
X38672769Y-52290000D01*
X39566988Y-52290000D01*
X39534075Y-52347007D01*
X39500000Y-52474174D01*
X39500000Y-52605826D01*
X39534075Y-52732993D01*
X39566988Y-52790000D01*
X38672769Y-52790000D01*
X38683242Y-52856126D01*
X38683242Y-52856129D01*
X38748904Y-53058217D01*
X38789151Y-53137205D01*
X38802047Y-53205874D01*
X38775771Y-53270615D01*
X38718665Y-53310872D01*
X38678666Y-53317500D01*
X36071812Y-53317500D01*
X36004773Y-53297815D01*
X35959018Y-53245011D01*
X35949074Y-53175853D01*
X35976227Y-53116395D01*
X35975446Y-53115783D01*
X35977990Y-53112535D01*
X35978099Y-53112297D01*
X35978589Y-53111769D01*
X35980072Y-53109877D01*
X36068019Y-52964395D01*
X36118590Y-52802106D01*
X36125000Y-52731572D01*
X36125000Y-52650000D01*
X35349000Y-52650000D01*
X35281961Y-52630315D01*
X35236206Y-52577511D01*
X35225000Y-52526000D01*
X35225000Y-52400000D01*
X35099000Y-52400000D01*
X35031961Y-52380315D01*
X34986206Y-52327511D01*
X34975000Y-52276000D01*
X34975000Y-52150000D01*
X35475000Y-52150000D01*
X36124999Y-52150000D01*
X36124999Y-52068417D01*
X36118591Y-51997897D01*
X36118590Y-51997892D01*
X36068018Y-51835603D01*
X35980072Y-51690122D01*
X35859877Y-51569927D01*
X35714395Y-51481980D01*
X35714396Y-51481980D01*
X35552105Y-51431409D01*
X35552106Y-51431409D01*
X35481572Y-51425000D01*
X35475000Y-51425000D01*
X35475000Y-52150000D01*
X34975000Y-52150000D01*
X34975000Y-51425000D01*
X34974999Y-51424999D01*
X34968436Y-51425000D01*
X34968417Y-51425001D01*
X34897897Y-51431408D01*
X34897892Y-51431409D01*
X34735603Y-51481981D01*
X34590122Y-51569927D01*
X34590121Y-51569928D01*
X34488035Y-51672015D01*
X34482826Y-51674858D01*
X34479511Y-51679781D01*
X34452509Y-51691413D01*
X34426712Y-51705500D01*
X34420793Y-51705076D01*
X34415343Y-51707425D01*
X34386341Y-51702612D01*
X34357020Y-51700516D01*
X34350758Y-51696708D01*
X34346415Y-51695988D01*
X34327663Y-51682665D01*
X34317144Y-51676269D01*
X34314846Y-51674189D01*
X34210185Y-51569528D01*
X34177139Y-51549551D01*
X34168290Y-51541541D01*
X34156022Y-51521513D01*
X34140162Y-51504193D01*
X34136961Y-51490394D01*
X34131795Y-51481960D01*
X34132068Y-51469302D01*
X34127500Y-51449606D01*
X34127500Y-51197938D01*
X34147185Y-51130899D01*
X34148360Y-51129103D01*
X34152750Y-51122535D01*
X34213093Y-50976853D01*
X34243856Y-50822198D01*
X34243856Y-50751500D01*
X34263541Y-50684461D01*
X34316345Y-50638706D01*
X34367856Y-50627500D01*
X38525501Y-50627500D01*
X38592540Y-50647185D01*
G37*
%TD.AperFunction*%
%TA.AperFunction,Conductor*%
G36*
X41942539Y-47020185D02*
G01*
X41988294Y-47072989D01*
X41999500Y-47124500D01*
X41999500Y-53072649D01*
X41979815Y-53139688D01*
X41927011Y-53185443D01*
X41857853Y-53195387D01*
X41806609Y-53175751D01*
X41679185Y-53090609D01*
X41679172Y-53090602D01*
X41533501Y-53030264D01*
X41533491Y-53030261D01*
X41413224Y-53006338D01*
X41351313Y-52973953D01*
X41316739Y-52913237D01*
X41316832Y-52861069D01*
X41315996Y-52860937D01*
X41327231Y-52790000D01*
X40433012Y-52790000D01*
X40465925Y-52732993D01*
X40500000Y-52605826D01*
X40500000Y-52474174D01*
X40465925Y-52347007D01*
X40433012Y-52290000D01*
X41327231Y-52290000D01*
X41316757Y-52223873D01*
X41316757Y-52223870D01*
X41251095Y-52021782D01*
X41154620Y-51832442D01*
X41029727Y-51660540D01*
X41029723Y-51660535D01*
X40916053Y-51546865D01*
X40882568Y-51485542D01*
X40887552Y-51415850D01*
X40929424Y-51359917D01*
X40960400Y-51343002D01*
X41092331Y-51293796D01*
X41207546Y-51207546D01*
X41293796Y-51092331D01*
X41344091Y-50957483D01*
X41350500Y-50897873D01*
X41350499Y-49102128D01*
X41344091Y-49042517D01*
X41335100Y-49018412D01*
X41293797Y-48907671D01*
X41293793Y-48907664D01*
X41207547Y-48792455D01*
X41207544Y-48792452D01*
X41092335Y-48706206D01*
X41092328Y-48706202D01*
X40957482Y-48655908D01*
X40957483Y-48655908D01*
X40897883Y-48649501D01*
X40897881Y-48649500D01*
X40897873Y-48649500D01*
X40897864Y-48649500D01*
X39102129Y-48649500D01*
X39102123Y-48649501D01*
X39042516Y-48655908D01*
X38907671Y-48706202D01*
X38907664Y-48706206D01*
X38792455Y-48792452D01*
X38792452Y-48792455D01*
X38706206Y-48907664D01*
X38706202Y-48907671D01*
X38655908Y-49042517D01*
X38649501Y-49102116D01*
X38649501Y-49102123D01*
X38649500Y-49102135D01*
X38649500Y-49248500D01*
X38629815Y-49315539D01*
X38577011Y-49361294D01*
X38525500Y-49372500D01*
X35274500Y-49372500D01*
X35207461Y-49352815D01*
X35161706Y-49300011D01*
X35150500Y-49248500D01*
X35150499Y-47602129D01*
X35150498Y-47602123D01*
X35144091Y-47542516D01*
X35093797Y-47407671D01*
X35093793Y-47407664D01*
X35007547Y-47292455D01*
X35007544Y-47292452D01*
X34915792Y-47223766D01*
X34873921Y-47167832D01*
X34868937Y-47098141D01*
X34902423Y-47036818D01*
X34963746Y-47003334D01*
X34990103Y-47000500D01*
X41875500Y-47000500D01*
X41942539Y-47020185D01*
G37*
%TD.AperFunction*%
%TA.AperFunction,Conductor*%
G36*
X28248813Y-47020185D02*
G01*
X28294568Y-47072989D01*
X28304512Y-47142147D01*
X28275487Y-47205703D01*
X28220093Y-47242430D01*
X28201588Y-47248443D01*
X28201585Y-47248444D01*
X28012179Y-47344951D01*
X27840213Y-47469890D01*
X27689890Y-47620213D01*
X27564949Y-47792182D01*
X27560202Y-47801499D01*
X27512227Y-47852293D01*
X27444405Y-47869087D01*
X27378271Y-47846548D01*
X27339234Y-47801495D01*
X27334622Y-47792444D01*
X27209727Y-47620540D01*
X27209723Y-47620535D01*
X27059464Y-47470276D01*
X27059459Y-47470272D01*
X26887557Y-47345379D01*
X26698217Y-47248904D01*
X26678294Y-47242431D01*
X26620619Y-47202994D01*
X26593420Y-47138635D01*
X26605335Y-47069789D01*
X26652579Y-47018313D01*
X26716612Y-47000500D01*
X28181774Y-47000500D01*
X28248813Y-47020185D01*
G37*
%TD.AperFunction*%
%TA.AperFunction,Conductor*%
G36*
X30737213Y-47005033D02*
G01*
X30753297Y-47004574D01*
X30770047Y-47014674D01*
X30788813Y-47020185D01*
X30799348Y-47032343D01*
X30813130Y-47040654D01*
X30821761Y-47058209D01*
X30834568Y-47072989D01*
X30836857Y-47088913D01*
X30843958Y-47103355D01*
X30841728Y-47122786D01*
X30844512Y-47142147D01*
X30837827Y-47156784D01*
X30835993Y-47172769D01*
X30823613Y-47187908D01*
X30815487Y-47205703D01*
X30801456Y-47215005D01*
X30791765Y-47226858D01*
X30760094Y-47242429D01*
X30741588Y-47248443D01*
X30741585Y-47248444D01*
X30552179Y-47344951D01*
X30380213Y-47469890D01*
X30229890Y-47620213D01*
X30104949Y-47792182D01*
X30100484Y-47800946D01*
X30052509Y-47851742D01*
X29984688Y-47868536D01*
X29918553Y-47845998D01*
X29879516Y-47800946D01*
X29875050Y-47792182D01*
X29750109Y-47620213D01*
X29599786Y-47469890D01*
X29427820Y-47344951D01*
X29238414Y-47248444D01*
X29238413Y-47248443D01*
X29238412Y-47248443D01*
X29219907Y-47242430D01*
X29162232Y-47202994D01*
X29135034Y-47138635D01*
X29146949Y-47069789D01*
X29194193Y-47018313D01*
X29258226Y-47000500D01*
X30721774Y-47000500D01*
X30737213Y-47005033D01*
G37*
%TD.AperFunction*%
%TA.AperFunction,Conductor*%
G36*
X32676936Y-47020185D02*
G01*
X32722691Y-47072989D01*
X32732635Y-47142147D01*
X32703610Y-47205703D01*
X32684208Y-47223766D01*
X32592455Y-47292452D01*
X32592452Y-47292455D01*
X32506206Y-47407664D01*
X32506203Y-47407669D01*
X32457189Y-47539083D01*
X32415317Y-47595016D01*
X32349853Y-47619433D01*
X32281580Y-47604581D01*
X32253326Y-47583430D01*
X32139786Y-47469890D01*
X31967820Y-47344951D01*
X31778414Y-47248444D01*
X31778413Y-47248443D01*
X31778412Y-47248443D01*
X31759907Y-47242430D01*
X31702232Y-47202994D01*
X31675034Y-47138635D01*
X31686949Y-47069789D01*
X31734193Y-47018313D01*
X31798226Y-47000500D01*
X32609897Y-47000500D01*
X32676936Y-47020185D01*
G37*
%TD.AperFunction*%
%TD*%
M02*
