%TF.GenerationSoftware,KiCad,Pcbnew,9.0.0*%
%TF.CreationDate,2025-02-28T11:04:11+07:00*%
%TF.ProjectId,SMT32_Bluepill,534d5433-325f-4426-9c75-6570696c6c2e,rev?*%
%TF.SameCoordinates,Original*%
%TF.FileFunction,Copper,L1,Top*%
%TF.FilePolarity,Positive*%
%FSLAX46Y46*%
G04 Gerber Fmt 4.6, Leading zero omitted, Abs format (unit mm)*
G04 Created by KiCad (PCBNEW 9.0.0) date 2025-02-28 11:04:11*
%MOMM*%
%LPD*%
G01*
G04 APERTURE LIST*
G04 Aperture macros list*
%AMRoundRect*
0 Rectangle with rounded corners*
0 $1 Rounding radius*
0 $2 $3 $4 $5 $6 $7 $8 $9 X,Y pos of 4 corners*
0 Add a 4 corners polygon primitive as box body*
4,1,4,$2,$3,$4,$5,$6,$7,$8,$9,$2,$3,0*
0 Add four circle primitives for the rounded corners*
1,1,$1+$1,$2,$3*
1,1,$1+$1,$4,$5*
1,1,$1+$1,$6,$7*
1,1,$1+$1,$8,$9*
0 Add four rect primitives between the rounded corners*
20,1,$1+$1,$2,$3,$4,$5,0*
20,1,$1+$1,$4,$5,$6,$7,0*
20,1,$1+$1,$6,$7,$8,$9,0*
20,1,$1+$1,$8,$9,$2,$3,0*%
G04 Aperture macros list end*
%TA.AperFunction,EtchedComponent*%
%ADD10C,0.010000*%
%TD*%
%TA.AperFunction,SMDPad,CuDef*%
%ADD11RoundRect,0.075000X-0.075000X0.662500X-0.075000X-0.662500X0.075000X-0.662500X0.075000X0.662500X0*%
%TD*%
%TA.AperFunction,SMDPad,CuDef*%
%ADD12RoundRect,0.075000X-0.662500X0.075000X-0.662500X-0.075000X0.662500X-0.075000X0.662500X0.075000X0*%
%TD*%
%TA.AperFunction,SMDPad,CuDef*%
%ADD13R,0.400000X1.500000*%
%TD*%
%TA.AperFunction,SMDPad,CuDef*%
%ADD14R,1.150000X1.500000*%
%TD*%
%TA.AperFunction,ComponentPad*%
%ADD15C,1.650000*%
%TD*%
%TA.AperFunction,SMDPad,CuDef*%
%ADD16R,0.558800X1.153700*%
%TD*%
%TA.AperFunction,SMDPad,CuDef*%
%ADD17RoundRect,0.243750X0.243750X0.456250X-0.243750X0.456250X-0.243750X-0.456250X0.243750X-0.456250X0*%
%TD*%
%TA.AperFunction,ComponentPad*%
%ADD18C,1.000000*%
%TD*%
%TA.AperFunction,SMDPad,CuDef*%
%ADD19RoundRect,0.243750X-0.243750X-0.456250X0.243750X-0.456250X0.243750X0.456250X-0.243750X0.456250X0*%
%TD*%
%TA.AperFunction,ComponentPad*%
%ADD20C,1.500000*%
%TD*%
%TA.AperFunction,ComponentPad*%
%ADD21R,1.700000X1.700000*%
%TD*%
%TA.AperFunction,ComponentPad*%
%ADD22O,1.700000X1.700000*%
%TD*%
%TA.AperFunction,ViaPad*%
%ADD23C,0.600000*%
%TD*%
%TA.AperFunction,Conductor*%
%ADD24C,0.254000*%
%TD*%
G04 APERTURE END LIST*
D10*
%TO.C,U3*%
X25456000Y-93677000D02*
X25472000Y-93679000D01*
X25487000Y-93682000D01*
X25503000Y-93685000D01*
X25518000Y-93690000D01*
X25533000Y-93695000D01*
X25547000Y-93701000D01*
X25561000Y-93708000D01*
X25575000Y-93715000D01*
X25588000Y-93723000D01*
X25601000Y-93732000D01*
X25614000Y-93742000D01*
X25626000Y-93752000D01*
X25637000Y-93763000D01*
X25648000Y-93774000D01*
X25658000Y-93786000D01*
X25668000Y-93799000D01*
X25677000Y-93812000D01*
X25685000Y-93825000D01*
X25692000Y-93839000D01*
X25699000Y-93853000D01*
X25705000Y-93867000D01*
X25710000Y-93882000D01*
X25715000Y-93897000D01*
X25718000Y-93913000D01*
X25721000Y-93928000D01*
X25723000Y-93944000D01*
X25725000Y-93959000D01*
X25725000Y-93975000D01*
X25725000Y-95625000D01*
X25725000Y-95641000D01*
X25723000Y-95656000D01*
X25721000Y-95672000D01*
X25718000Y-95687000D01*
X25715000Y-95703000D01*
X25710000Y-95718000D01*
X25705000Y-95733000D01*
X25699000Y-95747000D01*
X25692000Y-95761000D01*
X25685000Y-95775000D01*
X25677000Y-95788000D01*
X25668000Y-95801000D01*
X25658000Y-95814000D01*
X25648000Y-95826000D01*
X25637000Y-95837000D01*
X25626000Y-95848000D01*
X25614000Y-95858000D01*
X25601000Y-95868000D01*
X25588000Y-95877000D01*
X25575000Y-95885000D01*
X25561000Y-95892000D01*
X25547000Y-95899000D01*
X25533000Y-95905000D01*
X25518000Y-95910000D01*
X25503000Y-95915000D01*
X25487000Y-95918000D01*
X25472000Y-95921000D01*
X25456000Y-95923000D01*
X25441000Y-95925000D01*
X25425000Y-95925000D01*
X24375000Y-95925000D01*
X24359000Y-95925000D01*
X24344000Y-95923000D01*
X24328000Y-95921000D01*
X24313000Y-95918000D01*
X24297000Y-95915000D01*
X24282000Y-95910000D01*
X24267000Y-95905000D01*
X24253000Y-95899000D01*
X24239000Y-95892000D01*
X24225000Y-95885000D01*
X24212000Y-95877000D01*
X24199000Y-95868000D01*
X24186000Y-95858000D01*
X24174000Y-95848000D01*
X24163000Y-95837000D01*
X24152000Y-95826000D01*
X24142000Y-95814000D01*
X24132000Y-95801000D01*
X24123000Y-95788000D01*
X24115000Y-95775000D01*
X24108000Y-95761000D01*
X24101000Y-95747000D01*
X24095000Y-95733000D01*
X24090000Y-95718000D01*
X24085000Y-95703000D01*
X24082000Y-95687000D01*
X24079000Y-95672000D01*
X24077000Y-95656000D01*
X24075000Y-95641000D01*
X24075000Y-95625000D01*
X24075000Y-93975000D01*
X24075000Y-93959000D01*
X24077000Y-93944000D01*
X24079000Y-93928000D01*
X24082000Y-93913000D01*
X24085000Y-93897000D01*
X24090000Y-93882000D01*
X24095000Y-93867000D01*
X24101000Y-93853000D01*
X24108000Y-93839000D01*
X24115000Y-93825000D01*
X24123000Y-93812000D01*
X24132000Y-93799000D01*
X24142000Y-93786000D01*
X24152000Y-93774000D01*
X24163000Y-93763000D01*
X24174000Y-93752000D01*
X24186000Y-93742000D01*
X24199000Y-93732000D01*
X24212000Y-93723000D01*
X24225000Y-93715000D01*
X24239000Y-93708000D01*
X24253000Y-93701000D01*
X24267000Y-93695000D01*
X24282000Y-93690000D01*
X24297000Y-93685000D01*
X24313000Y-93682000D01*
X24328000Y-93679000D01*
X24344000Y-93677000D01*
X24359000Y-93675000D01*
X24375000Y-93675000D01*
X25425000Y-93675000D01*
X25441000Y-93675000D01*
X25456000Y-93677000D01*
%TA.AperFunction,EtchedComponent*%
G36*
X25456000Y-93677000D02*
G01*
X25472000Y-93679000D01*
X25487000Y-93682000D01*
X25503000Y-93685000D01*
X25518000Y-93690000D01*
X25533000Y-93695000D01*
X25547000Y-93701000D01*
X25561000Y-93708000D01*
X25575000Y-93715000D01*
X25588000Y-93723000D01*
X25601000Y-93732000D01*
X25614000Y-93742000D01*
X25626000Y-93752000D01*
X25637000Y-93763000D01*
X25648000Y-93774000D01*
X25658000Y-93786000D01*
X25668000Y-93799000D01*
X25677000Y-93812000D01*
X25685000Y-93825000D01*
X25692000Y-93839000D01*
X25699000Y-93853000D01*
X25705000Y-93867000D01*
X25710000Y-93882000D01*
X25715000Y-93897000D01*
X25718000Y-93913000D01*
X25721000Y-93928000D01*
X25723000Y-93944000D01*
X25725000Y-93959000D01*
X25725000Y-93975000D01*
X25725000Y-95625000D01*
X25725000Y-95641000D01*
X25723000Y-95656000D01*
X25721000Y-95672000D01*
X25718000Y-95687000D01*
X25715000Y-95703000D01*
X25710000Y-95718000D01*
X25705000Y-95733000D01*
X25699000Y-95747000D01*
X25692000Y-95761000D01*
X25685000Y-95775000D01*
X25677000Y-95788000D01*
X25668000Y-95801000D01*
X25658000Y-95814000D01*
X25648000Y-95826000D01*
X25637000Y-95837000D01*
X25626000Y-95848000D01*
X25614000Y-95858000D01*
X25601000Y-95868000D01*
X25588000Y-95877000D01*
X25575000Y-95885000D01*
X25561000Y-95892000D01*
X25547000Y-95899000D01*
X25533000Y-95905000D01*
X25518000Y-95910000D01*
X25503000Y-95915000D01*
X25487000Y-95918000D01*
X25472000Y-95921000D01*
X25456000Y-95923000D01*
X25441000Y-95925000D01*
X25425000Y-95925000D01*
X24375000Y-95925000D01*
X24359000Y-95925000D01*
X24344000Y-95923000D01*
X24328000Y-95921000D01*
X24313000Y-95918000D01*
X24297000Y-95915000D01*
X24282000Y-95910000D01*
X24267000Y-95905000D01*
X24253000Y-95899000D01*
X24239000Y-95892000D01*
X24225000Y-95885000D01*
X24212000Y-95877000D01*
X24199000Y-95868000D01*
X24186000Y-95858000D01*
X24174000Y-95848000D01*
X24163000Y-95837000D01*
X24152000Y-95826000D01*
X24142000Y-95814000D01*
X24132000Y-95801000D01*
X24123000Y-95788000D01*
X24115000Y-95775000D01*
X24108000Y-95761000D01*
X24101000Y-95747000D01*
X24095000Y-95733000D01*
X24090000Y-95718000D01*
X24085000Y-95703000D01*
X24082000Y-95687000D01*
X24079000Y-95672000D01*
X24077000Y-95656000D01*
X24075000Y-95641000D01*
X24075000Y-95625000D01*
X24075000Y-93975000D01*
X24075000Y-93959000D01*
X24077000Y-93944000D01*
X24079000Y-93928000D01*
X24082000Y-93913000D01*
X24085000Y-93897000D01*
X24090000Y-93882000D01*
X24095000Y-93867000D01*
X24101000Y-93853000D01*
X24108000Y-93839000D01*
X24115000Y-93825000D01*
X24123000Y-93812000D01*
X24132000Y-93799000D01*
X24142000Y-93786000D01*
X24152000Y-93774000D01*
X24163000Y-93763000D01*
X24174000Y-93752000D01*
X24186000Y-93742000D01*
X24199000Y-93732000D01*
X24212000Y-93723000D01*
X24225000Y-93715000D01*
X24239000Y-93708000D01*
X24253000Y-93701000D01*
X24267000Y-93695000D01*
X24282000Y-93690000D01*
X24297000Y-93685000D01*
X24313000Y-93682000D01*
X24328000Y-93679000D01*
X24344000Y-93677000D01*
X24359000Y-93675000D01*
X24375000Y-93675000D01*
X25425000Y-93675000D01*
X25441000Y-93675000D01*
X25456000Y-93677000D01*
G37*
%TD.AperFunction*%
X25456000Y-97377000D02*
X25472000Y-97379000D01*
X25487000Y-97382000D01*
X25503000Y-97385000D01*
X25518000Y-97390000D01*
X25533000Y-97395000D01*
X25547000Y-97401000D01*
X25561000Y-97408000D01*
X25575000Y-97415000D01*
X25588000Y-97423000D01*
X25601000Y-97432000D01*
X25614000Y-97442000D01*
X25626000Y-97452000D01*
X25637000Y-97463000D01*
X25648000Y-97474000D01*
X25658000Y-97486000D01*
X25668000Y-97499000D01*
X25677000Y-97512000D01*
X25685000Y-97525000D01*
X25692000Y-97539000D01*
X25699000Y-97553000D01*
X25705000Y-97567000D01*
X25710000Y-97582000D01*
X25715000Y-97597000D01*
X25718000Y-97613000D01*
X25721000Y-97628000D01*
X25723000Y-97644000D01*
X25725000Y-97659000D01*
X25725000Y-97675000D01*
X25725000Y-99325000D01*
X25725000Y-99341000D01*
X25723000Y-99356000D01*
X25721000Y-99372000D01*
X25718000Y-99387000D01*
X25715000Y-99403000D01*
X25710000Y-99418000D01*
X25705000Y-99433000D01*
X25699000Y-99447000D01*
X25692000Y-99461000D01*
X25685000Y-99475000D01*
X25677000Y-99488000D01*
X25668000Y-99501000D01*
X25658000Y-99514000D01*
X25648000Y-99526000D01*
X25637000Y-99537000D01*
X25626000Y-99548000D01*
X25614000Y-99558000D01*
X25601000Y-99568000D01*
X25588000Y-99577000D01*
X25575000Y-99585000D01*
X25561000Y-99592000D01*
X25547000Y-99599000D01*
X25533000Y-99605000D01*
X25518000Y-99610000D01*
X25503000Y-99615000D01*
X25487000Y-99618000D01*
X25472000Y-99621000D01*
X25456000Y-99623000D01*
X25441000Y-99625000D01*
X25425000Y-99625000D01*
X24375000Y-99625000D01*
X24359000Y-99625000D01*
X24344000Y-99623000D01*
X24328000Y-99621000D01*
X24313000Y-99618000D01*
X24297000Y-99615000D01*
X24282000Y-99610000D01*
X24267000Y-99605000D01*
X24253000Y-99599000D01*
X24239000Y-99592000D01*
X24225000Y-99585000D01*
X24212000Y-99577000D01*
X24199000Y-99568000D01*
X24186000Y-99558000D01*
X24174000Y-99548000D01*
X24163000Y-99537000D01*
X24152000Y-99526000D01*
X24142000Y-99514000D01*
X24132000Y-99501000D01*
X24123000Y-99488000D01*
X24115000Y-99475000D01*
X24108000Y-99461000D01*
X24101000Y-99447000D01*
X24095000Y-99433000D01*
X24090000Y-99418000D01*
X24085000Y-99403000D01*
X24082000Y-99387000D01*
X24079000Y-99372000D01*
X24077000Y-99356000D01*
X24075000Y-99341000D01*
X24075000Y-99325000D01*
X24075000Y-97675000D01*
X24075000Y-97659000D01*
X24077000Y-97644000D01*
X24079000Y-97628000D01*
X24082000Y-97613000D01*
X24085000Y-97597000D01*
X24090000Y-97582000D01*
X24095000Y-97567000D01*
X24101000Y-97553000D01*
X24108000Y-97539000D01*
X24115000Y-97525000D01*
X24123000Y-97512000D01*
X24132000Y-97499000D01*
X24142000Y-97486000D01*
X24152000Y-97474000D01*
X24163000Y-97463000D01*
X24174000Y-97452000D01*
X24186000Y-97442000D01*
X24199000Y-97432000D01*
X24212000Y-97423000D01*
X24225000Y-97415000D01*
X24239000Y-97408000D01*
X24253000Y-97401000D01*
X24267000Y-97395000D01*
X24282000Y-97390000D01*
X24297000Y-97385000D01*
X24313000Y-97382000D01*
X24328000Y-97379000D01*
X24344000Y-97377000D01*
X24359000Y-97375000D01*
X24375000Y-97375000D01*
X25425000Y-97375000D01*
X25441000Y-97375000D01*
X25456000Y-97377000D01*
%TA.AperFunction,EtchedComponent*%
G36*
X25456000Y-97377000D02*
G01*
X25472000Y-97379000D01*
X25487000Y-97382000D01*
X25503000Y-97385000D01*
X25518000Y-97390000D01*
X25533000Y-97395000D01*
X25547000Y-97401000D01*
X25561000Y-97408000D01*
X25575000Y-97415000D01*
X25588000Y-97423000D01*
X25601000Y-97432000D01*
X25614000Y-97442000D01*
X25626000Y-97452000D01*
X25637000Y-97463000D01*
X25648000Y-97474000D01*
X25658000Y-97486000D01*
X25668000Y-97499000D01*
X25677000Y-97512000D01*
X25685000Y-97525000D01*
X25692000Y-97539000D01*
X25699000Y-97553000D01*
X25705000Y-97567000D01*
X25710000Y-97582000D01*
X25715000Y-97597000D01*
X25718000Y-97613000D01*
X25721000Y-97628000D01*
X25723000Y-97644000D01*
X25725000Y-97659000D01*
X25725000Y-97675000D01*
X25725000Y-99325000D01*
X25725000Y-99341000D01*
X25723000Y-99356000D01*
X25721000Y-99372000D01*
X25718000Y-99387000D01*
X25715000Y-99403000D01*
X25710000Y-99418000D01*
X25705000Y-99433000D01*
X25699000Y-99447000D01*
X25692000Y-99461000D01*
X25685000Y-99475000D01*
X25677000Y-99488000D01*
X25668000Y-99501000D01*
X25658000Y-99514000D01*
X25648000Y-99526000D01*
X25637000Y-99537000D01*
X25626000Y-99548000D01*
X25614000Y-99558000D01*
X25601000Y-99568000D01*
X25588000Y-99577000D01*
X25575000Y-99585000D01*
X25561000Y-99592000D01*
X25547000Y-99599000D01*
X25533000Y-99605000D01*
X25518000Y-99610000D01*
X25503000Y-99615000D01*
X25487000Y-99618000D01*
X25472000Y-99621000D01*
X25456000Y-99623000D01*
X25441000Y-99625000D01*
X25425000Y-99625000D01*
X24375000Y-99625000D01*
X24359000Y-99625000D01*
X24344000Y-99623000D01*
X24328000Y-99621000D01*
X24313000Y-99618000D01*
X24297000Y-99615000D01*
X24282000Y-99610000D01*
X24267000Y-99605000D01*
X24253000Y-99599000D01*
X24239000Y-99592000D01*
X24225000Y-99585000D01*
X24212000Y-99577000D01*
X24199000Y-99568000D01*
X24186000Y-99558000D01*
X24174000Y-99548000D01*
X24163000Y-99537000D01*
X24152000Y-99526000D01*
X24142000Y-99514000D01*
X24132000Y-99501000D01*
X24123000Y-99488000D01*
X24115000Y-99475000D01*
X24108000Y-99461000D01*
X24101000Y-99447000D01*
X24095000Y-99433000D01*
X24090000Y-99418000D01*
X24085000Y-99403000D01*
X24082000Y-99387000D01*
X24079000Y-99372000D01*
X24077000Y-99356000D01*
X24075000Y-99341000D01*
X24075000Y-99325000D01*
X24075000Y-97675000D01*
X24075000Y-97659000D01*
X24077000Y-97644000D01*
X24079000Y-97628000D01*
X24082000Y-97613000D01*
X24085000Y-97597000D01*
X24090000Y-97582000D01*
X24095000Y-97567000D01*
X24101000Y-97553000D01*
X24108000Y-97539000D01*
X24115000Y-97525000D01*
X24123000Y-97512000D01*
X24132000Y-97499000D01*
X24142000Y-97486000D01*
X24152000Y-97474000D01*
X24163000Y-97463000D01*
X24174000Y-97452000D01*
X24186000Y-97442000D01*
X24199000Y-97432000D01*
X24212000Y-97423000D01*
X24225000Y-97415000D01*
X24239000Y-97408000D01*
X24253000Y-97401000D01*
X24267000Y-97395000D01*
X24282000Y-97390000D01*
X24297000Y-97385000D01*
X24313000Y-97382000D01*
X24328000Y-97379000D01*
X24344000Y-97377000D01*
X24359000Y-97375000D01*
X24375000Y-97375000D01*
X25425000Y-97375000D01*
X25441000Y-97375000D01*
X25456000Y-97377000D01*
G37*
%TD.AperFunction*%
X35656000Y-93677000D02*
X35672000Y-93679000D01*
X35687000Y-93682000D01*
X35703000Y-93685000D01*
X35718000Y-93690000D01*
X35733000Y-93695000D01*
X35747000Y-93701000D01*
X35761000Y-93708000D01*
X35775000Y-93715000D01*
X35788000Y-93723000D01*
X35801000Y-93732000D01*
X35814000Y-93742000D01*
X35826000Y-93752000D01*
X35837000Y-93763000D01*
X35848000Y-93774000D01*
X35858000Y-93786000D01*
X35868000Y-93799000D01*
X35877000Y-93812000D01*
X35885000Y-93825000D01*
X35892000Y-93839000D01*
X35899000Y-93853000D01*
X35905000Y-93867000D01*
X35910000Y-93882000D01*
X35915000Y-93897000D01*
X35918000Y-93913000D01*
X35921000Y-93928000D01*
X35923000Y-93944000D01*
X35925000Y-93959000D01*
X35925000Y-93975000D01*
X35925000Y-95625000D01*
X35925000Y-95641000D01*
X35923000Y-95656000D01*
X35921000Y-95672000D01*
X35918000Y-95687000D01*
X35915000Y-95703000D01*
X35910000Y-95718000D01*
X35905000Y-95733000D01*
X35899000Y-95747000D01*
X35892000Y-95761000D01*
X35885000Y-95775000D01*
X35877000Y-95788000D01*
X35868000Y-95801000D01*
X35858000Y-95814000D01*
X35848000Y-95826000D01*
X35837000Y-95837000D01*
X35826000Y-95848000D01*
X35814000Y-95858000D01*
X35801000Y-95868000D01*
X35788000Y-95877000D01*
X35775000Y-95885000D01*
X35761000Y-95892000D01*
X35747000Y-95899000D01*
X35733000Y-95905000D01*
X35718000Y-95910000D01*
X35703000Y-95915000D01*
X35687000Y-95918000D01*
X35672000Y-95921000D01*
X35656000Y-95923000D01*
X35641000Y-95925000D01*
X35625000Y-95925000D01*
X34575000Y-95925000D01*
X34559000Y-95925000D01*
X34544000Y-95923000D01*
X34528000Y-95921000D01*
X34513000Y-95918000D01*
X34497000Y-95915000D01*
X34482000Y-95910000D01*
X34467000Y-95905000D01*
X34453000Y-95899000D01*
X34439000Y-95892000D01*
X34425000Y-95885000D01*
X34412000Y-95877000D01*
X34399000Y-95868000D01*
X34386000Y-95858000D01*
X34374000Y-95848000D01*
X34363000Y-95837000D01*
X34352000Y-95826000D01*
X34342000Y-95814000D01*
X34332000Y-95801000D01*
X34323000Y-95788000D01*
X34315000Y-95775000D01*
X34308000Y-95761000D01*
X34301000Y-95747000D01*
X34295000Y-95733000D01*
X34290000Y-95718000D01*
X34285000Y-95703000D01*
X34282000Y-95687000D01*
X34279000Y-95672000D01*
X34277000Y-95656000D01*
X34275000Y-95641000D01*
X34275000Y-95625000D01*
X34275000Y-93975000D01*
X34275000Y-93959000D01*
X34277000Y-93944000D01*
X34279000Y-93928000D01*
X34282000Y-93913000D01*
X34285000Y-93897000D01*
X34290000Y-93882000D01*
X34295000Y-93867000D01*
X34301000Y-93853000D01*
X34308000Y-93839000D01*
X34315000Y-93825000D01*
X34323000Y-93812000D01*
X34332000Y-93799000D01*
X34342000Y-93786000D01*
X34352000Y-93774000D01*
X34363000Y-93763000D01*
X34374000Y-93752000D01*
X34386000Y-93742000D01*
X34399000Y-93732000D01*
X34412000Y-93723000D01*
X34425000Y-93715000D01*
X34439000Y-93708000D01*
X34453000Y-93701000D01*
X34467000Y-93695000D01*
X34482000Y-93690000D01*
X34497000Y-93685000D01*
X34513000Y-93682000D01*
X34528000Y-93679000D01*
X34544000Y-93677000D01*
X34559000Y-93675000D01*
X34575000Y-93675000D01*
X35625000Y-93675000D01*
X35641000Y-93675000D01*
X35656000Y-93677000D01*
%TA.AperFunction,EtchedComponent*%
G36*
X35656000Y-93677000D02*
G01*
X35672000Y-93679000D01*
X35687000Y-93682000D01*
X35703000Y-93685000D01*
X35718000Y-93690000D01*
X35733000Y-93695000D01*
X35747000Y-93701000D01*
X35761000Y-93708000D01*
X35775000Y-93715000D01*
X35788000Y-93723000D01*
X35801000Y-93732000D01*
X35814000Y-93742000D01*
X35826000Y-93752000D01*
X35837000Y-93763000D01*
X35848000Y-93774000D01*
X35858000Y-93786000D01*
X35868000Y-93799000D01*
X35877000Y-93812000D01*
X35885000Y-93825000D01*
X35892000Y-93839000D01*
X35899000Y-93853000D01*
X35905000Y-93867000D01*
X35910000Y-93882000D01*
X35915000Y-93897000D01*
X35918000Y-93913000D01*
X35921000Y-93928000D01*
X35923000Y-93944000D01*
X35925000Y-93959000D01*
X35925000Y-93975000D01*
X35925000Y-95625000D01*
X35925000Y-95641000D01*
X35923000Y-95656000D01*
X35921000Y-95672000D01*
X35918000Y-95687000D01*
X35915000Y-95703000D01*
X35910000Y-95718000D01*
X35905000Y-95733000D01*
X35899000Y-95747000D01*
X35892000Y-95761000D01*
X35885000Y-95775000D01*
X35877000Y-95788000D01*
X35868000Y-95801000D01*
X35858000Y-95814000D01*
X35848000Y-95826000D01*
X35837000Y-95837000D01*
X35826000Y-95848000D01*
X35814000Y-95858000D01*
X35801000Y-95868000D01*
X35788000Y-95877000D01*
X35775000Y-95885000D01*
X35761000Y-95892000D01*
X35747000Y-95899000D01*
X35733000Y-95905000D01*
X35718000Y-95910000D01*
X35703000Y-95915000D01*
X35687000Y-95918000D01*
X35672000Y-95921000D01*
X35656000Y-95923000D01*
X35641000Y-95925000D01*
X35625000Y-95925000D01*
X34575000Y-95925000D01*
X34559000Y-95925000D01*
X34544000Y-95923000D01*
X34528000Y-95921000D01*
X34513000Y-95918000D01*
X34497000Y-95915000D01*
X34482000Y-95910000D01*
X34467000Y-95905000D01*
X34453000Y-95899000D01*
X34439000Y-95892000D01*
X34425000Y-95885000D01*
X34412000Y-95877000D01*
X34399000Y-95868000D01*
X34386000Y-95858000D01*
X34374000Y-95848000D01*
X34363000Y-95837000D01*
X34352000Y-95826000D01*
X34342000Y-95814000D01*
X34332000Y-95801000D01*
X34323000Y-95788000D01*
X34315000Y-95775000D01*
X34308000Y-95761000D01*
X34301000Y-95747000D01*
X34295000Y-95733000D01*
X34290000Y-95718000D01*
X34285000Y-95703000D01*
X34282000Y-95687000D01*
X34279000Y-95672000D01*
X34277000Y-95656000D01*
X34275000Y-95641000D01*
X34275000Y-95625000D01*
X34275000Y-93975000D01*
X34275000Y-93959000D01*
X34277000Y-93944000D01*
X34279000Y-93928000D01*
X34282000Y-93913000D01*
X34285000Y-93897000D01*
X34290000Y-93882000D01*
X34295000Y-93867000D01*
X34301000Y-93853000D01*
X34308000Y-93839000D01*
X34315000Y-93825000D01*
X34323000Y-93812000D01*
X34332000Y-93799000D01*
X34342000Y-93786000D01*
X34352000Y-93774000D01*
X34363000Y-93763000D01*
X34374000Y-93752000D01*
X34386000Y-93742000D01*
X34399000Y-93732000D01*
X34412000Y-93723000D01*
X34425000Y-93715000D01*
X34439000Y-93708000D01*
X34453000Y-93701000D01*
X34467000Y-93695000D01*
X34482000Y-93690000D01*
X34497000Y-93685000D01*
X34513000Y-93682000D01*
X34528000Y-93679000D01*
X34544000Y-93677000D01*
X34559000Y-93675000D01*
X34575000Y-93675000D01*
X35625000Y-93675000D01*
X35641000Y-93675000D01*
X35656000Y-93677000D01*
G37*
%TD.AperFunction*%
X35656000Y-97377000D02*
X35672000Y-97379000D01*
X35687000Y-97382000D01*
X35703000Y-97385000D01*
X35718000Y-97390000D01*
X35733000Y-97395000D01*
X35747000Y-97401000D01*
X35761000Y-97408000D01*
X35775000Y-97415000D01*
X35788000Y-97423000D01*
X35801000Y-97432000D01*
X35814000Y-97442000D01*
X35826000Y-97452000D01*
X35837000Y-97463000D01*
X35848000Y-97474000D01*
X35858000Y-97486000D01*
X35868000Y-97499000D01*
X35877000Y-97512000D01*
X35885000Y-97525000D01*
X35892000Y-97539000D01*
X35899000Y-97553000D01*
X35905000Y-97567000D01*
X35910000Y-97582000D01*
X35915000Y-97597000D01*
X35918000Y-97613000D01*
X35921000Y-97628000D01*
X35923000Y-97644000D01*
X35925000Y-97659000D01*
X35925000Y-97675000D01*
X35925000Y-99325000D01*
X35925000Y-99341000D01*
X35923000Y-99356000D01*
X35921000Y-99372000D01*
X35918000Y-99387000D01*
X35915000Y-99403000D01*
X35910000Y-99418000D01*
X35905000Y-99433000D01*
X35899000Y-99447000D01*
X35892000Y-99461000D01*
X35885000Y-99475000D01*
X35877000Y-99488000D01*
X35868000Y-99501000D01*
X35858000Y-99514000D01*
X35848000Y-99526000D01*
X35837000Y-99537000D01*
X35826000Y-99548000D01*
X35814000Y-99558000D01*
X35801000Y-99568000D01*
X35788000Y-99577000D01*
X35775000Y-99585000D01*
X35761000Y-99592000D01*
X35747000Y-99599000D01*
X35733000Y-99605000D01*
X35718000Y-99610000D01*
X35703000Y-99615000D01*
X35687000Y-99618000D01*
X35672000Y-99621000D01*
X35656000Y-99623000D01*
X35641000Y-99625000D01*
X35625000Y-99625000D01*
X34575000Y-99625000D01*
X34559000Y-99625000D01*
X34544000Y-99623000D01*
X34528000Y-99621000D01*
X34513000Y-99618000D01*
X34497000Y-99615000D01*
X34482000Y-99610000D01*
X34467000Y-99605000D01*
X34453000Y-99599000D01*
X34439000Y-99592000D01*
X34425000Y-99585000D01*
X34412000Y-99577000D01*
X34399000Y-99568000D01*
X34386000Y-99558000D01*
X34374000Y-99548000D01*
X34363000Y-99537000D01*
X34352000Y-99526000D01*
X34342000Y-99514000D01*
X34332000Y-99501000D01*
X34323000Y-99488000D01*
X34315000Y-99475000D01*
X34308000Y-99461000D01*
X34301000Y-99447000D01*
X34295000Y-99433000D01*
X34290000Y-99418000D01*
X34285000Y-99403000D01*
X34282000Y-99387000D01*
X34279000Y-99372000D01*
X34277000Y-99356000D01*
X34275000Y-99341000D01*
X34275000Y-99325000D01*
X34275000Y-97675000D01*
X34275000Y-97659000D01*
X34277000Y-97644000D01*
X34279000Y-97628000D01*
X34282000Y-97613000D01*
X34285000Y-97597000D01*
X34290000Y-97582000D01*
X34295000Y-97567000D01*
X34301000Y-97553000D01*
X34308000Y-97539000D01*
X34315000Y-97525000D01*
X34323000Y-97512000D01*
X34332000Y-97499000D01*
X34342000Y-97486000D01*
X34352000Y-97474000D01*
X34363000Y-97463000D01*
X34374000Y-97452000D01*
X34386000Y-97442000D01*
X34399000Y-97432000D01*
X34412000Y-97423000D01*
X34425000Y-97415000D01*
X34439000Y-97408000D01*
X34453000Y-97401000D01*
X34467000Y-97395000D01*
X34482000Y-97390000D01*
X34497000Y-97385000D01*
X34513000Y-97382000D01*
X34528000Y-97379000D01*
X34544000Y-97377000D01*
X34559000Y-97375000D01*
X34575000Y-97375000D01*
X35625000Y-97375000D01*
X35641000Y-97375000D01*
X35656000Y-97377000D01*
%TA.AperFunction,EtchedComponent*%
G36*
X35656000Y-97377000D02*
G01*
X35672000Y-97379000D01*
X35687000Y-97382000D01*
X35703000Y-97385000D01*
X35718000Y-97390000D01*
X35733000Y-97395000D01*
X35747000Y-97401000D01*
X35761000Y-97408000D01*
X35775000Y-97415000D01*
X35788000Y-97423000D01*
X35801000Y-97432000D01*
X35814000Y-97442000D01*
X35826000Y-97452000D01*
X35837000Y-97463000D01*
X35848000Y-97474000D01*
X35858000Y-97486000D01*
X35868000Y-97499000D01*
X35877000Y-97512000D01*
X35885000Y-97525000D01*
X35892000Y-97539000D01*
X35899000Y-97553000D01*
X35905000Y-97567000D01*
X35910000Y-97582000D01*
X35915000Y-97597000D01*
X35918000Y-97613000D01*
X35921000Y-97628000D01*
X35923000Y-97644000D01*
X35925000Y-97659000D01*
X35925000Y-97675000D01*
X35925000Y-99325000D01*
X35925000Y-99341000D01*
X35923000Y-99356000D01*
X35921000Y-99372000D01*
X35918000Y-99387000D01*
X35915000Y-99403000D01*
X35910000Y-99418000D01*
X35905000Y-99433000D01*
X35899000Y-99447000D01*
X35892000Y-99461000D01*
X35885000Y-99475000D01*
X35877000Y-99488000D01*
X35868000Y-99501000D01*
X35858000Y-99514000D01*
X35848000Y-99526000D01*
X35837000Y-99537000D01*
X35826000Y-99548000D01*
X35814000Y-99558000D01*
X35801000Y-99568000D01*
X35788000Y-99577000D01*
X35775000Y-99585000D01*
X35761000Y-99592000D01*
X35747000Y-99599000D01*
X35733000Y-99605000D01*
X35718000Y-99610000D01*
X35703000Y-99615000D01*
X35687000Y-99618000D01*
X35672000Y-99621000D01*
X35656000Y-99623000D01*
X35641000Y-99625000D01*
X35625000Y-99625000D01*
X34575000Y-99625000D01*
X34559000Y-99625000D01*
X34544000Y-99623000D01*
X34528000Y-99621000D01*
X34513000Y-99618000D01*
X34497000Y-99615000D01*
X34482000Y-99610000D01*
X34467000Y-99605000D01*
X34453000Y-99599000D01*
X34439000Y-99592000D01*
X34425000Y-99585000D01*
X34412000Y-99577000D01*
X34399000Y-99568000D01*
X34386000Y-99558000D01*
X34374000Y-99548000D01*
X34363000Y-99537000D01*
X34352000Y-99526000D01*
X34342000Y-99514000D01*
X34332000Y-99501000D01*
X34323000Y-99488000D01*
X34315000Y-99475000D01*
X34308000Y-99461000D01*
X34301000Y-99447000D01*
X34295000Y-99433000D01*
X34290000Y-99418000D01*
X34285000Y-99403000D01*
X34282000Y-99387000D01*
X34279000Y-99372000D01*
X34277000Y-99356000D01*
X34275000Y-99341000D01*
X34275000Y-99325000D01*
X34275000Y-97675000D01*
X34275000Y-97659000D01*
X34277000Y-97644000D01*
X34279000Y-97628000D01*
X34282000Y-97613000D01*
X34285000Y-97597000D01*
X34290000Y-97582000D01*
X34295000Y-97567000D01*
X34301000Y-97553000D01*
X34308000Y-97539000D01*
X34315000Y-97525000D01*
X34323000Y-97512000D01*
X34332000Y-97499000D01*
X34342000Y-97486000D01*
X34352000Y-97474000D01*
X34363000Y-97463000D01*
X34374000Y-97452000D01*
X34386000Y-97442000D01*
X34399000Y-97432000D01*
X34412000Y-97423000D01*
X34425000Y-97415000D01*
X34439000Y-97408000D01*
X34453000Y-97401000D01*
X34467000Y-97395000D01*
X34482000Y-97390000D01*
X34497000Y-97385000D01*
X34513000Y-97382000D01*
X34528000Y-97379000D01*
X34544000Y-97377000D01*
X34559000Y-97375000D01*
X34575000Y-97375000D01*
X35625000Y-97375000D01*
X35641000Y-97375000D01*
X35656000Y-97377000D01*
G37*
%TD.AperFunction*%
%TD*%
D11*
%TO.P,U2,1,VBAT*%
%TO.N,VBAT*%
X32650000Y-67537500D03*
%TO.P,U2,2,PC13*%
%TO.N,PC13*%
X32150000Y-67537500D03*
%TO.P,U2,3,PC14*%
%TO.N,PC14*%
X31650000Y-67537500D03*
%TO.P,U2,4,PC15*%
%TO.N,PC15*%
X31150000Y-67537500D03*
%TO.P,U2,5,PD0*%
%TO.N,OSCIN*%
X30650000Y-67537500D03*
%TO.P,U2,6,PD1*%
%TO.N,OSCOUT*%
X30150000Y-67537500D03*
%TO.P,U2,7,NRST*%
%TO.N,NRST*%
X29650000Y-67537500D03*
%TO.P,U2,8,VSSA*%
%TO.N,GND*%
X29150000Y-67537500D03*
%TO.P,U2,9,VDDA*%
%TO.N,+3V3*%
X28650000Y-67537500D03*
%TO.P,U2,10,PA0*%
%TO.N,PA0*%
X28150000Y-67537500D03*
%TO.P,U2,11,PA1*%
%TO.N,PA1*%
X27650000Y-67537500D03*
%TO.P,U2,12,PA2*%
%TO.N,PA2*%
X27150000Y-67537500D03*
D12*
%TO.P,U2,13,PA3*%
%TO.N,PA3*%
X25737500Y-68950000D03*
%TO.P,U2,14,PA4*%
%TO.N,PA4*%
X25737500Y-69450000D03*
%TO.P,U2,15,PA5*%
%TO.N,PA5*%
X25737500Y-69950000D03*
%TO.P,U2,16,PA6*%
%TO.N,PA6*%
X25737500Y-70450000D03*
%TO.P,U2,17,PA7*%
%TO.N,PA7*%
X25737500Y-70950000D03*
%TO.P,U2,18,PB0*%
%TO.N,PB0*%
X25737500Y-71450000D03*
%TO.P,U2,19,PB1*%
%TO.N,PB1*%
X25737500Y-71950000D03*
%TO.P,U2,20,PB2*%
%TO.N,BOOT1*%
X25737500Y-72450000D03*
%TO.P,U2,21,PB10*%
%TO.N,PB10*%
X25737500Y-72950000D03*
%TO.P,U2,22,PB11*%
%TO.N,PB11*%
X25737500Y-73450000D03*
%TO.P,U2,23,VSS*%
%TO.N,GND*%
X25737500Y-73950000D03*
%TO.P,U2,24,VDD*%
%TO.N,+3V3*%
X25737500Y-74450000D03*
D11*
%TO.P,U2,25,PB12*%
%TO.N,PB12*%
X27150000Y-75862500D03*
%TO.P,U2,26,PB13*%
%TO.N,PB13*%
X27650000Y-75862500D03*
%TO.P,U2,27,PB14*%
%TO.N,PB14*%
X28150000Y-75862500D03*
%TO.P,U2,28,PB15*%
%TO.N,PB15*%
X28650000Y-75862500D03*
%TO.P,U2,29,PA8*%
%TO.N,PA8*%
X29150000Y-75862500D03*
%TO.P,U2,30,PA9*%
%TO.N,PA9*%
X29650000Y-75862500D03*
%TO.P,U2,31,PA10*%
%TO.N,PA10*%
X30150000Y-75862500D03*
%TO.P,U2,32,PA11*%
%TO.N,PA11*%
X30650000Y-75862500D03*
%TO.P,U2,33,PA12*%
%TO.N,PA12*%
X31150000Y-75862500D03*
%TO.P,U2,34,PA13*%
%TO.N,SWDIO*%
X31650000Y-75862500D03*
%TO.P,U2,35,VSS*%
%TO.N,GND*%
X32150000Y-75862500D03*
%TO.P,U2,36,VDD*%
%TO.N,+3V3*%
X32650000Y-75862500D03*
D12*
%TO.P,U2,37,PA14*%
%TO.N,SWDCLK*%
X34062500Y-74450000D03*
%TO.P,U2,38,PA15*%
%TO.N,PA15*%
X34062500Y-73950000D03*
%TO.P,U2,39,PB3*%
%TO.N,PB3*%
X34062500Y-73450000D03*
%TO.P,U2,40,PB4*%
%TO.N,PB4*%
X34062500Y-72950000D03*
%TO.P,U2,41,PB5*%
%TO.N,PB5*%
X34062500Y-72450000D03*
%TO.P,U2,42,PB6*%
%TO.N,PB6*%
X34062500Y-71950000D03*
%TO.P,U2,43,PB7*%
%TO.N,PB7*%
X34062500Y-71450000D03*
%TO.P,U2,44,BOOT0*%
%TO.N,BOOT0*%
X34062500Y-70950000D03*
%TO.P,U2,45,PB8*%
%TO.N,PB8*%
X34062500Y-70450000D03*
%TO.P,U2,46,PB9*%
%TO.N,PB9*%
X34062500Y-69950000D03*
%TO.P,U2,47,VSS*%
%TO.N,GND*%
X34062500Y-69450000D03*
%TO.P,U2,48,VDD*%
%TO.N,+3V3*%
X34062500Y-68950000D03*
%TD*%
D13*
%TO.P,U3,1,VCC*%
%TO.N,+5V*%
X28700000Y-94550000D03*
%TO.P,U3,2,D-*%
%TO.N,Net-(U3-D-)*%
X29350000Y-94550000D03*
%TO.P,U3,3,D+*%
%TO.N,Net-(U3-D+)*%
X30000000Y-94550000D03*
%TO.P,U3,4,ID*%
%TO.N,GND*%
X30650000Y-94550000D03*
%TO.P,U3,5,GND*%
X31300000Y-94550000D03*
D14*
%TO.P,U3,S1,SHIELD*%
%TO.N,Earth*%
X27675000Y-94550000D03*
%TO.P,U3,S2,SHIELD*%
X32325000Y-94550000D03*
D15*
%TO.P,U3,S3,SHIELD*%
X24900000Y-94800000D03*
%TO.P,U3,S4,SHIELD*%
X35100000Y-94800000D03*
%TO.P,U3,S5,SHIELD*%
X24900000Y-98500000D03*
%TO.P,U3,S6,SHIELD*%
X35100000Y-98500000D03*
%TD*%
D16*
%TO.P,RST1,1,1*%
%TO.N,GND*%
X31450001Y-90781949D03*
%TO.P,RST1,2,2*%
X35149999Y-90781949D03*
%TO.P,RST1,3,3*%
%TO.N,Net-(C2-Pad1)*%
X35149999Y-84218051D03*
%TO.P,RST1,4,4*%
X31450001Y-84218051D03*
%TD*%
D17*
%TO.P,D2,1,K*%
%TO.N,Net-(D2-K)*%
X26568750Y-52468750D03*
%TO.P,D2,2,A*%
%TO.N,+3V3*%
X24693750Y-52468750D03*
%TD*%
D18*
%TO.P,Y3,1*%
%TO.N,PC14*%
X36750000Y-56600000D03*
%TO.P,Y3,2*%
%TO.N,PC15*%
X36750000Y-59140000D03*
%TD*%
D19*
%TO.P,D1,1,K*%
%TO.N,Net-(D1-K)*%
X33462500Y-52400000D03*
%TO.P,D1,2,A*%
%TO.N,+3V3*%
X35337500Y-52400000D03*
%TD*%
D20*
%TO.P,Y2,1*%
%TO.N,OSCIN*%
X32400000Y-63400000D03*
%TO.P,Y2,2*%
%TO.N,OSCOUT*%
X27520000Y-63400000D03*
%TD*%
D21*
%TO.P,P1,1*%
%TO.N,+3V3*%
X27600000Y-90000000D03*
D22*
%TO.P,P1,2*%
X25060000Y-90000000D03*
%TO.P,P1,3*%
%TO.N,Net-(P1-Pad3)*%
X27600000Y-87460000D03*
%TO.P,P1,4*%
%TO.N,Net-(P1-Pad4)*%
X25060000Y-87460000D03*
%TO.P,P1,5*%
%TO.N,GND*%
X27600000Y-84920000D03*
%TO.P,P1,6*%
X25060000Y-84920000D03*
%TD*%
D21*
%TO.P,P2,1*%
%TO.N,+3V3*%
X33800000Y-48500000D03*
D22*
%TO.P,P2,2*%
%TO.N,SWDIO*%
X31260000Y-48500000D03*
%TO.P,P2,3*%
%TO.N,SWDCLK*%
X28720000Y-48500000D03*
%TO.P,P2,4*%
%TO.N,GND*%
X26180000Y-48500000D03*
%TD*%
D21*
%TO.P,P4,1*%
%TO.N,VBAT*%
X20000000Y-50000000D03*
D22*
%TO.P,P4,2*%
%TO.N,PC13*%
X20000000Y-52540000D03*
%TO.P,P4,3*%
%TO.N,PC14*%
X20000000Y-55080000D03*
%TO.P,P4,4*%
%TO.N,PC15*%
X20000000Y-57620000D03*
%TO.P,P4,5*%
%TO.N,PA0*%
X20000000Y-60160000D03*
%TO.P,P4,6*%
%TO.N,PA1*%
X20000000Y-62700000D03*
%TO.P,P4,7*%
%TO.N,PA2*%
X20000000Y-65240000D03*
%TO.P,P4,8*%
%TO.N,PA3*%
X20000000Y-67780000D03*
%TO.P,P4,9*%
%TO.N,PA4*%
X20000000Y-70320000D03*
%TO.P,P4,10*%
%TO.N,PA5*%
X20000000Y-72860000D03*
%TO.P,P4,11*%
%TO.N,PA6*%
X20000000Y-75400000D03*
%TO.P,P4,12*%
%TO.N,PA7*%
X20000000Y-77940000D03*
%TO.P,P4,13*%
%TO.N,PB0*%
X20000000Y-80480000D03*
%TO.P,P4,14*%
%TO.N,PB1*%
X20000000Y-83020000D03*
%TO.P,P4,15*%
%TO.N,PB10*%
X20000000Y-85560000D03*
%TO.P,P4,16*%
%TO.N,PB11*%
X20000000Y-88100000D03*
%TO.P,P4,17*%
%TO.N,NRST*%
X20000000Y-90640000D03*
%TO.P,P4,18*%
%TO.N,+3V3*%
X20000000Y-93180000D03*
%TO.P,P4,19*%
%TO.N,GND*%
X20000000Y-95720000D03*
%TO.P,P4,20*%
X20000000Y-98260000D03*
%TD*%
D21*
%TO.P,P3,1*%
%TO.N,+3V3*%
X40000000Y-50000000D03*
D22*
%TO.P,P3,2*%
%TO.N,GND*%
X40000000Y-52540000D03*
%TO.P,P3,3*%
%TO.N,+5V*%
X40000000Y-55080000D03*
%TO.P,P3,4*%
%TO.N,PB9*%
X40000000Y-57620000D03*
%TO.P,P3,5*%
%TO.N,PB8*%
X40000000Y-60160000D03*
%TO.P,P3,6*%
%TO.N,PB7*%
X40000000Y-62700000D03*
%TO.P,P3,7*%
%TO.N,PB6*%
X40000000Y-65240000D03*
%TO.P,P3,8*%
%TO.N,PB5*%
X40000000Y-67780000D03*
%TO.P,P3,9*%
%TO.N,PB4*%
X40000000Y-70320000D03*
%TO.P,P3,10*%
%TO.N,PB3*%
X40000000Y-72860000D03*
%TO.P,P3,11*%
%TO.N,PA15*%
X40000000Y-75400000D03*
%TO.P,P3,12*%
%TO.N,PA12*%
X40000000Y-77940000D03*
%TO.P,P3,13*%
%TO.N,PA11*%
X40000000Y-80480000D03*
%TO.P,P3,14*%
%TO.N,PA10*%
X40000000Y-83020000D03*
%TO.P,P3,15*%
%TO.N,PA9*%
X40000000Y-85560000D03*
%TO.P,P3,16*%
%TO.N,PA8*%
X40000000Y-88100000D03*
%TO.P,P3,17*%
%TO.N,PB15*%
X40000000Y-90640000D03*
%TO.P,P3,18*%
%TO.N,PB14*%
X40000000Y-93180000D03*
%TO.P,P3,19*%
%TO.N,PB13*%
X40000000Y-95720000D03*
%TO.P,P3,20*%
%TO.N,PB12*%
X40000000Y-98260000D03*
%TD*%
D23*
%TO.N,PC14*%
X34600000Y-66327000D03*
%TO.N,PC15*%
X31456644Y-68956644D03*
%TO.N,OSCOUT*%
X30100000Y-69800000D03*
%TO.N,OSCIN*%
X30800000Y-70600000D03*
%TO.N,GND*%
X23100000Y-49300000D03*
X24000000Y-59500000D03*
%TO.N,+3V3*%
X25500000Y-59482000D03*
%TO.N,SWDIO*%
X38050000Y-77050000D03*
X41300000Y-53800000D03*
%TO.N,GND*%
X22800000Y-91100000D03*
X22820000Y-92900000D03*
X31900000Y-74527000D03*
X27800000Y-73200000D03*
X31900000Y-73200000D03*
X35800000Y-66327000D03*
X34200000Y-92300000D03*
X37600000Y-47300000D03*
X29100000Y-69700000D03*
%TO.N,+3V3*%
X27100000Y-70700000D03*
X31100000Y-86700000D03*
X27100000Y-74500000D03*
%TO.N,Net-(C2-Pad1)*%
X35200000Y-85700000D03*
%TO.N,+5V*%
X21600000Y-59400000D03*
X23000000Y-53700000D03*
X28746000Y-81554000D03*
X31100000Y-85700000D03*
X28300000Y-92100000D03*
%TO.N,PC14*%
X33600000Y-65227000D03*
%TO.N,PC15*%
X34300000Y-64600000D03*
%TO.N,Net-(P1-Pad4)*%
X27390981Y-81593598D03*
%TO.N,Net-(P1-Pad3)*%
X28100000Y-82473000D03*
%TO.N,BOOT0*%
X32600000Y-71900000D03*
%TO.N,BOOT1*%
X28500000Y-72500000D03*
%TO.N,PC13*%
X21600000Y-58400000D03*
X32700000Y-65855000D03*
%TO.N,Net-(U3-D-)*%
X29373000Y-92200000D03*
%TO.N,Net-(U3-D+)*%
X30000000Y-91500000D03*
%TO.N,NRST*%
X29300000Y-64300000D03*
X23600000Y-83200000D03*
%TO.N,VBAT*%
X33635318Y-66215136D03*
X22300000Y-54400000D03*
%TO.N,Net-(D1-K)*%
X33443356Y-50743356D03*
%TO.N,Net-(D2-K)*%
X26600000Y-50900000D03*
%TD*%
D24*
%TO.N,SWDCLK*%
X37922791Y-76062202D02*
G75*
G02*
X38262203Y-76062202I169706J-169704D01*
G01*
X37074263Y-75213673D02*
G75*
G02*
X37413674Y-75213672I169706J-169707D01*
G01*
X36054354Y-75894171D02*
G75*
G03*
X36393766Y-75894171I169706J169704D01*
G01*
X36650000Y-74450000D02*
G75*
G02*
X36649995Y-74789405I-169700J-169700D01*
G01*
X35969502Y-75469908D02*
G75*
G03*
X35969515Y-75809305I169698J-169692D01*
G01*
X36818043Y-76318423D02*
G75*
G03*
X36818072Y-76657806I169657J-169677D01*
G01*
X36902895Y-76742687D02*
G75*
G03*
X37242307Y-76742687I169706J169704D01*
G01*
X37498528Y-75298528D02*
G75*
G02*
X37498495Y-75637906I-169728J-169672D01*
G01*
X41300000Y-56300000D02*
X38700000Y-56300000D01*
X38685696Y-76485696D02*
X38900000Y-76700000D01*
X36393766Y-75894171D02*
X37074263Y-75213673D01*
X37413674Y-75213673D02*
X37498528Y-75298528D01*
X38700000Y-56300000D02*
X38400000Y-56000000D01*
X38400000Y-56000000D02*
X38400000Y-55000000D01*
X38900000Y-76700000D02*
X41000000Y-76700000D01*
X37498528Y-75637939D02*
X36818043Y-76318423D01*
X37242307Y-76742687D02*
X37922791Y-76062202D01*
X36650000Y-74789411D02*
X35969502Y-75469908D01*
X28700000Y-50440000D02*
X28720000Y-50420000D01*
X38347056Y-76147056D02*
X38685696Y-76485696D01*
X41700000Y-76000000D02*
X41700000Y-56700000D01*
X38262203Y-76062202D02*
X38347056Y-76147056D01*
X35969502Y-75809319D02*
X36054354Y-75894171D01*
X28720000Y-50420000D02*
X28720000Y-48500000D01*
X28700000Y-53800000D02*
X28700000Y-50440000D01*
X38400000Y-55000000D02*
X37800000Y-54400000D01*
X36818043Y-76657835D02*
X36902895Y-76742687D01*
X29300000Y-54400000D02*
X28700000Y-53800000D01*
X37800000Y-54400000D02*
X29300000Y-54400000D01*
X35800000Y-74450000D02*
X36450000Y-74450000D01*
X41000000Y-76700000D02*
X41700000Y-76000000D01*
X34062500Y-74450000D02*
X35800000Y-74450000D01*
X41700000Y-56700000D02*
X41300000Y-56300000D01*
X36450000Y-74450000D02*
X36650000Y-74450000D01*
%TO.N,+3V3*%
X22643468Y-90000000D02*
X25060000Y-90000000D01*
X22000000Y-90643468D02*
X22643468Y-90000000D01*
X22000000Y-92700000D02*
X22000000Y-90643468D01*
X21520000Y-93180000D02*
X22000000Y-92700000D01*
X20000000Y-93180000D02*
X21520000Y-93180000D01*
%TO.N,PB14*%
X38320000Y-93180000D02*
X40000000Y-93180000D01*
X37710000Y-92570000D02*
X38320000Y-93180000D01*
X37710000Y-91623064D02*
X37710000Y-91623065D01*
X37010000Y-83278868D02*
X37010000Y-83655802D01*
X37010000Y-83278867D02*
X37010000Y-83278868D01*
X37010000Y-83278866D02*
X37010000Y-83278867D01*
X35542666Y-81811533D02*
X37010000Y-83278866D01*
X35542666Y-81811534D02*
X35542666Y-81811533D01*
X35431132Y-81700000D02*
X35542666Y-81811534D01*
X37010000Y-90923064D02*
X37710000Y-91623064D01*
X35276134Y-81545000D02*
X35431132Y-81700000D01*
X35276133Y-81545000D02*
X35276134Y-81545000D01*
X37010000Y-83655802D02*
X37010000Y-90923064D01*
X31575402Y-81545000D02*
X34899198Y-81545000D01*
X30312936Y-80282534D02*
X31575402Y-81545000D01*
X30312936Y-80282533D02*
X30312936Y-80282534D01*
X37710000Y-91623065D02*
X37710000Y-92000000D01*
X30312936Y-80282532D02*
X30312936Y-80282533D01*
X30046403Y-80015999D02*
X30046404Y-80016000D01*
X30046403Y-80016000D02*
X30046403Y-80015999D01*
X30046402Y-80016000D02*
X30046403Y-80016000D01*
X28615999Y-80015999D02*
X30046402Y-80016000D01*
X28150000Y-79550000D02*
X28615999Y-80015999D01*
X34899198Y-81545000D02*
X35276133Y-81545000D01*
X37710000Y-92000000D02*
X37710000Y-92570000D01*
X28150000Y-75862500D02*
X28150000Y-79550000D01*
X30046404Y-80016000D02*
X30312936Y-80282532D01*
%TO.N,PB13*%
X29857936Y-80471000D02*
X28171000Y-80471000D01*
X31386936Y-82000000D02*
X29857936Y-80471000D01*
X35087666Y-82000000D02*
X31386936Y-82000000D01*
X28171000Y-80471000D02*
X27650000Y-79950000D01*
X36555000Y-83467334D02*
X35087666Y-82000000D01*
X27650000Y-79950000D02*
X27650000Y-75862500D01*
X36555000Y-91111532D02*
X36555000Y-83467334D01*
X37255000Y-94855000D02*
X37255000Y-91811532D01*
X38120000Y-95720000D02*
X37255000Y-94855000D01*
X37255000Y-91811532D02*
X36555000Y-91111532D01*
X40000000Y-95720000D02*
X38120000Y-95720000D01*
%TO.N,PB12*%
X37160000Y-98260000D02*
X40000000Y-98260000D01*
X36800000Y-97900000D02*
X37160000Y-98260000D01*
X36800000Y-92000000D02*
X36800000Y-97900000D01*
X36100000Y-91300000D02*
X36800000Y-92000000D01*
X34944198Y-82500000D02*
X36100000Y-83655802D01*
X31243468Y-82500000D02*
X34944198Y-82500000D01*
X29669468Y-80926000D02*
X31243468Y-82500000D01*
X27626000Y-80926000D02*
X29669468Y-80926000D01*
X27150000Y-80450000D02*
X27626000Y-80926000D01*
X27150000Y-75862500D02*
X27150000Y-80450000D01*
X36100000Y-83655802D02*
X36100000Y-91300000D01*
%TO.N,PB15*%
X37465000Y-90300000D02*
X37465000Y-83090400D01*
X37805000Y-90640000D02*
X37465000Y-90300000D01*
X40000000Y-90640000D02*
X37805000Y-90640000D01*
%TO.N,SWDIO*%
X31650000Y-77076128D02*
X31650000Y-75862500D01*
X32773872Y-78200000D02*
X31650000Y-77076128D01*
X36900000Y-78200000D02*
X32773872Y-78200000D01*
X38050000Y-77050000D02*
X36900000Y-78200000D01*
%TO.N,OSCIN*%
X32000000Y-61600000D02*
X32400000Y-62000000D01*
X31050000Y-61600000D02*
X32000000Y-61600000D01*
X30650000Y-62000000D02*
X31050000Y-61600000D01*
X32400000Y-62000000D02*
X32400000Y-63400000D01*
X30650000Y-67537500D02*
X30650000Y-62000000D01*
%TO.N,PC14*%
X34600000Y-66327000D02*
X34600000Y-66227000D01*
X34600000Y-66227000D02*
X33600000Y-65227000D01*
%TO.N,SWDIO*%
X31700000Y-53800000D02*
X31260000Y-53360000D01*
X31260000Y-53360000D02*
X31260000Y-48500000D01*
X41300000Y-53800000D02*
X31700000Y-53800000D01*
%TO.N,GND*%
X28400000Y-55000000D02*
X27800000Y-54400000D01*
X27800000Y-54400000D02*
X27800000Y-50200000D01*
X35300000Y-55000000D02*
X28400000Y-55000000D01*
X27800000Y-50200000D02*
X26180000Y-48580000D01*
X35800000Y-55500000D02*
X35300000Y-55000000D01*
X35800000Y-66327000D02*
X35800000Y-55500000D01*
X26180000Y-48580000D02*
X26180000Y-48500000D01*
%TO.N,+3V3*%
X32650000Y-73061874D02*
X32650000Y-75862500D01*
X31900000Y-69500000D02*
X31900000Y-72311874D01*
X31900000Y-72311874D02*
X32650000Y-73061874D01*
X32450000Y-68950000D02*
X31900000Y-69500000D01*
X34062500Y-68950000D02*
X32450000Y-68950000D01*
%TO.N,PC15*%
X31150000Y-68650000D02*
X31456644Y-68956644D01*
X31150000Y-67537500D02*
X31150000Y-68650000D01*
%TO.N,OSCIN*%
X30650000Y-69150000D02*
X30650000Y-67537500D01*
X30800000Y-69300000D02*
X30650000Y-69150000D01*
X30800000Y-70600000D02*
X30800000Y-69300000D01*
%TO.N,GND*%
X26650000Y-73950000D02*
X25737500Y-73950000D01*
X27400000Y-73200000D02*
X26650000Y-73950000D01*
X27800000Y-73200000D02*
X27400000Y-73200000D01*
%TO.N,+3V3*%
X28400000Y-69100000D02*
X28650000Y-68850000D01*
X27400000Y-69100000D02*
X28400000Y-69100000D01*
X27100000Y-69400000D02*
X27400000Y-69100000D01*
X27100000Y-70700000D02*
X27100000Y-69400000D01*
X28650000Y-68850000D02*
X28650000Y-67537500D01*
%TO.N,GND*%
X29150000Y-69650000D02*
X29150000Y-67537500D01*
X29100000Y-69700000D02*
X29150000Y-69650000D01*
%TO.N,OSCOUT*%
X30150000Y-69750000D02*
X30150000Y-67537500D01*
X30100000Y-69800000D02*
X30150000Y-69750000D01*
%TO.N,BOOT0*%
X32850000Y-70950000D02*
X34062500Y-70950000D01*
X32600000Y-71900000D02*
X32600000Y-71200000D01*
X32600000Y-71200000D02*
X32850000Y-70950000D01*
%TO.N,+3V3*%
X27700000Y-73900000D02*
X32650000Y-73900000D01*
X27100000Y-74500000D02*
X27700000Y-73900000D01*
%TO.N,GND*%
X23100000Y-52800000D02*
X23100000Y-49300000D01*
X24000000Y-53700000D02*
X23100000Y-52800000D01*
X24000000Y-59500000D02*
X24000000Y-53700000D01*
%TO.N,+5V*%
X23000000Y-58900000D02*
X22500000Y-59400000D01*
X23000000Y-53700000D02*
X23000000Y-58900000D01*
X22500000Y-59400000D02*
X21600000Y-59400000D01*
%TO.N,VBAT*%
X21800000Y-50000000D02*
X20000000Y-50000000D01*
X22300000Y-50500000D02*
X21800000Y-50000000D01*
X22300000Y-54400000D02*
X22300000Y-50500000D01*
%TO.N,+3V3*%
X24693750Y-58693750D02*
X24693750Y-52468750D01*
X25482000Y-59482000D02*
X24693750Y-58693750D01*
X25500000Y-59482000D02*
X25482000Y-59482000D01*
X18400000Y-91580000D02*
X20000000Y-93180000D01*
X19772000Y-47128000D02*
X18400000Y-48500000D01*
X25200000Y-47128000D02*
X19772000Y-47128000D01*
X18400000Y-48500000D02*
X18400000Y-91580000D01*
%TO.N,GND*%
X30650000Y-94550000D02*
X30650000Y-92650000D01*
X32150000Y-74750000D02*
X31900000Y-74500000D01*
X32150000Y-75862500D02*
X32150000Y-74750000D01*
X31450001Y-90781949D02*
X35149999Y-90781949D01*
X30650000Y-92650000D02*
X31000000Y-92300000D01*
X20000000Y-98260000D02*
X20000000Y-95720000D01*
X31900000Y-74500000D02*
X31900000Y-74527000D01*
X35800000Y-69200000D02*
X35550000Y-69450000D01*
X25060000Y-84920000D02*
X27600000Y-84920000D01*
X35550000Y-69450000D02*
X34062500Y-69450000D01*
X34200000Y-92300000D02*
X31450001Y-92300000D01*
X27800000Y-73200000D02*
X31800000Y-73200000D01*
X22800000Y-91100000D02*
X22800000Y-92880000D01*
X30650000Y-94550000D02*
X31300000Y-94550000D01*
X38140000Y-52540000D02*
X40000000Y-52540000D01*
X31000000Y-92300000D02*
X31450001Y-92300000D01*
X37600000Y-52000000D02*
X38140000Y-52540000D01*
X31450001Y-92300000D02*
X31450001Y-90781949D01*
X37600000Y-47300000D02*
X37600000Y-52000000D01*
X31800000Y-73200000D02*
X31900000Y-73200000D01*
X22800000Y-92880000D02*
X22820000Y-92900000D01*
X35800000Y-66327000D02*
X35800000Y-69200000D01*
%TO.N,+3V3*%
X25200000Y-47128000D02*
X33528000Y-47128000D01*
X30200000Y-86700000D02*
X29700000Y-87200000D01*
X33800000Y-47400000D02*
X33800000Y-48500000D01*
X29700000Y-89550000D02*
X29250000Y-90000000D01*
X24693750Y-47634250D02*
X25200000Y-47128000D01*
X33528000Y-47128000D02*
X33800000Y-47400000D01*
X27050000Y-74450000D02*
X25737500Y-74450000D01*
X35000000Y-48500000D02*
X35337500Y-48837500D01*
X32628000Y-75840500D02*
X32650000Y-75862500D01*
X27600000Y-90000000D02*
X25060000Y-90000000D01*
X33800000Y-48500000D02*
X35000000Y-48500000D01*
X29700000Y-87200000D02*
X29700000Y-89550000D01*
X35337500Y-48837500D02*
X35337500Y-52400000D01*
X31100000Y-86700000D02*
X30200000Y-86700000D01*
X29250000Y-90000000D02*
X27600000Y-90000000D01*
X24693750Y-52468750D02*
X24693750Y-47634250D01*
X27100000Y-74500000D02*
X27050000Y-74450000D01*
%TO.N,Net-(C2-Pad1)*%
X35149999Y-85649999D02*
X35200000Y-85700000D01*
X31450001Y-84218051D02*
X35149999Y-84218051D01*
X35149999Y-84218051D02*
X35149999Y-85649999D01*
%TO.N,+5V*%
X28300000Y-92100000D02*
X28700000Y-92500000D01*
X30500000Y-85700000D02*
X31100000Y-85700000D01*
X29654000Y-81554000D02*
X30000000Y-81900000D01*
X30000000Y-85200000D02*
X30500000Y-85700000D01*
X30000000Y-81900000D02*
X30000000Y-85200000D01*
X28746000Y-81554000D02*
X29654000Y-81554000D01*
X28700000Y-92500000D02*
X28700000Y-94550000D01*
%TO.N,PC14*%
X33573000Y-65200000D02*
X32100000Y-65200000D01*
X31650000Y-65650000D02*
X31650000Y-67537500D01*
X32100000Y-65200000D02*
X31650000Y-65650000D01*
X33600000Y-65227000D02*
X33573000Y-65200000D01*
%TO.N,PC15*%
X31150000Y-64974523D02*
X31150000Y-67537500D01*
X34300000Y-64600000D02*
X31524523Y-64600000D01*
X31524523Y-64600000D02*
X31150000Y-64974523D01*
%TO.N,OSCOUT*%
X30150000Y-63750000D02*
X30150000Y-67537500D01*
X29800000Y-63400000D02*
X30150000Y-63750000D01*
X27520000Y-63400000D02*
X29800000Y-63400000D01*
%TO.N,Net-(P1-Pad4)*%
X27400000Y-82800000D02*
X28945000Y-84345000D01*
X28945000Y-85855000D02*
X28600000Y-86200000D01*
X27390981Y-81593598D02*
X27400000Y-81602617D01*
X26320000Y-86200000D02*
X25060000Y-87460000D01*
X28945000Y-84345000D02*
X28945000Y-85855000D01*
X27400000Y-81602617D02*
X27400000Y-82800000D01*
X28600000Y-86200000D02*
X26320000Y-86200000D01*
%TO.N,Net-(P1-Pad3)*%
X28740000Y-87460000D02*
X27600000Y-87460000D01*
X29500000Y-82900000D02*
X29500000Y-86700000D01*
X29073000Y-82473000D02*
X29500000Y-82900000D01*
X28100000Y-82473000D02*
X29073000Y-82473000D01*
X29500000Y-86700000D02*
X28740000Y-87460000D01*
%TO.N,BOOT1*%
X25737500Y-72450000D02*
X28500000Y-72450000D01*
X28500000Y-72450000D02*
X28500000Y-72500000D01*
%TO.N,PC13*%
X32150000Y-66405000D02*
X32150000Y-67537500D01*
X32700000Y-65855000D02*
X32150000Y-66405000D01*
X21600000Y-58400000D02*
X21600000Y-53000000D01*
X21140000Y-52540000D02*
X20000000Y-52540000D01*
X21600000Y-53000000D02*
X21140000Y-52540000D01*
%TO.N,PA11*%
X38735000Y-79215000D02*
X40000000Y-80480000D01*
X32501935Y-79214999D02*
X38735000Y-79215000D01*
X30650000Y-75862500D02*
X30650000Y-77363064D01*
X30650000Y-77363064D02*
X32501935Y-79214999D01*
%TO.N,Net-(U3-D-)*%
X29350000Y-92223000D02*
X29350000Y-94550000D01*
X29373000Y-92200000D02*
X29350000Y-92223000D01*
%TO.N,PA12*%
X31150000Y-75862500D02*
X31150000Y-77219596D01*
X32630404Y-78700000D02*
X39240000Y-78700000D01*
X31150000Y-77219596D02*
X32630404Y-78700000D01*
X39240000Y-78700000D02*
X40000000Y-77940000D01*
%TO.N,Net-(U3-D+)*%
X30000000Y-94550000D02*
X30000000Y-91500000D01*
%TO.N,PA10*%
X39027499Y-82047499D02*
X40000000Y-83020000D01*
X30128000Y-75884500D02*
X30128000Y-77484532D01*
X32313467Y-79669999D02*
X35975002Y-79670000D01*
X35975002Y-79670000D02*
X38352501Y-82047499D01*
X38352501Y-82047499D02*
X39027499Y-82047499D01*
X30128000Y-77484532D02*
X32313467Y-79669999D01*
X30150000Y-75862500D02*
X30128000Y-75884500D01*
%TO.N,PA9*%
X32124999Y-80124999D02*
X35409597Y-80124999D01*
X29650000Y-77650000D02*
X32124999Y-80124999D01*
X35786534Y-80125000D02*
X38374999Y-82713464D01*
X29650000Y-75862500D02*
X29650000Y-77650000D01*
X35409597Y-80124999D02*
X35786534Y-80125000D01*
X38374999Y-82713464D02*
X38375000Y-85275000D01*
X38660000Y-85560000D02*
X40000000Y-85560000D01*
X38375000Y-85275000D02*
X38660000Y-85560000D01*
%TO.N,PB7*%
X37584800Y-68908265D02*
X38013266Y-68479798D01*
X38600000Y-65996532D02*
X38600000Y-64100000D01*
X38013266Y-66583266D02*
X38600000Y-65996532D01*
X38600000Y-64100000D02*
X40000000Y-62700000D01*
X36835000Y-71000000D02*
X36835002Y-70234596D01*
X34062500Y-71450000D02*
X36385000Y-71450000D01*
X37584800Y-69484799D02*
X37584800Y-68908265D01*
X38013266Y-68479798D02*
X38013266Y-66583266D01*
X36835002Y-70234596D02*
X37584800Y-69484799D01*
X36385000Y-71450000D02*
X36835000Y-71000000D01*
%TO.N,PB9*%
X35832664Y-69950000D02*
X36658066Y-69124599D01*
X38216532Y-61300000D02*
X38508266Y-61008266D01*
X36658066Y-69124599D02*
X36658066Y-68548064D01*
X38508266Y-59111734D02*
X40000000Y-57620000D01*
X37690000Y-61810000D02*
X38200000Y-61300000D01*
X38508266Y-61008266D02*
X38508266Y-59111734D01*
X36658066Y-68548064D02*
X37103266Y-68102864D01*
X38200000Y-61300000D02*
X38216532Y-61300000D01*
X37103266Y-66198266D02*
X37690000Y-65611532D01*
X37690000Y-65611532D02*
X37690000Y-61810000D01*
X37103266Y-68102864D02*
X37103266Y-66198266D01*
X34062500Y-69950000D02*
X35832664Y-69950000D01*
%TO.N,PB5*%
X34062500Y-72450000D02*
X37295000Y-72450000D01*
X37745000Y-70611532D02*
X38500000Y-69856533D01*
X38500000Y-69856533D02*
X38500000Y-69280000D01*
X37745000Y-72000000D02*
X37745000Y-70611532D01*
X37295000Y-72450000D02*
X37745000Y-72000000D01*
X38500000Y-69280000D02*
X40000000Y-67780000D01*
%TO.N,PB15*%
X33165406Y-81035000D02*
X33165404Y-81035001D01*
X34523066Y-81035001D02*
X34523065Y-81035000D01*
X33278465Y-81035000D02*
X33278463Y-81034998D01*
X35032664Y-81035001D02*
X34900000Y-81035000D01*
X33278463Y-81034998D02*
X33165406Y-81035000D01*
X32788468Y-81035001D02*
X31735001Y-81035001D01*
X32901533Y-81035001D02*
X32788469Y-81035000D01*
X35409599Y-81035000D02*
X35032664Y-81035001D01*
X37464999Y-83090399D02*
X35409599Y-81035000D01*
X32901535Y-81034999D02*
X32901533Y-81035001D01*
X33165404Y-81035001D02*
X32996066Y-81035001D01*
X37464999Y-83090399D02*
X37465000Y-83090400D01*
X28650000Y-77950000D02*
X28650000Y-75862500D01*
X32788469Y-81035000D02*
X32788468Y-81035001D01*
X31735001Y-81035001D02*
X28650000Y-77950000D01*
X34523065Y-81035000D02*
X33278465Y-81035000D01*
X34900000Y-81035000D02*
X34523066Y-81035001D01*
X32996066Y-81035001D02*
X32901535Y-81034999D01*
%TO.N,PB3*%
X38440000Y-72860000D02*
X40000000Y-72860000D01*
X34062500Y-73450000D02*
X37850000Y-73450000D01*
X37850000Y-73450000D02*
X38440000Y-72860000D01*
%TO.N,PB4*%
X38680000Y-70320000D02*
X40000000Y-70320000D01*
X37706532Y-72950000D02*
X38200000Y-72456533D01*
X34062500Y-72950000D02*
X37706532Y-72950000D01*
X38200000Y-72456533D02*
X38200000Y-70800000D01*
X38200000Y-70800000D02*
X38680000Y-70320000D01*
%TO.N,PA8*%
X37920000Y-83278866D02*
X37920000Y-83278867D01*
X37786731Y-82768664D02*
X37919999Y-82901930D01*
X29150000Y-77806532D02*
X31923468Y-80580000D01*
X32600006Y-80579998D02*
X32713074Y-80579999D01*
X37920000Y-83278868D02*
X37920000Y-83655800D01*
X37920000Y-83278867D02*
X37920000Y-83278868D01*
X38700000Y-88100000D02*
X40000000Y-88100000D01*
X32600004Y-80580000D02*
X32600006Y-80579998D01*
X33466922Y-80579995D02*
X33466925Y-80579998D01*
X34711532Y-80580000D02*
X34711535Y-80580000D01*
X37919999Y-83278865D02*
X37920000Y-83278866D01*
X37919998Y-82901930D02*
X37919999Y-82901931D01*
X33089993Y-80580000D02*
X33089995Y-80579998D01*
X32948811Y-80580000D02*
X32976937Y-80580000D01*
X32901664Y-80579999D02*
X32948811Y-80580000D01*
X37653466Y-82635399D02*
X37786731Y-82768664D01*
X37920000Y-87320000D02*
X38700000Y-88100000D01*
X37653465Y-82635399D02*
X37653466Y-82635399D01*
X35598067Y-80580000D02*
X35864599Y-80846532D01*
X33283176Y-80579998D02*
X33466922Y-80579995D01*
X37920000Y-84032736D02*
X37920000Y-87320000D01*
X32600002Y-80580000D02*
X32600004Y-80580000D01*
X34881402Y-80580000D02*
X35088466Y-80580000D01*
X37919999Y-82901932D02*
X37919999Y-83278865D01*
X33089995Y-80579998D02*
X33283176Y-80579998D01*
X34711535Y-80580000D02*
X34711536Y-80579999D01*
X31923468Y-80580000D02*
X32600002Y-80580000D01*
X35221131Y-80580000D02*
X35598065Y-80580000D01*
X34334599Y-80580000D02*
X34334598Y-80580001D01*
X37920000Y-83655800D02*
X37920000Y-83655802D01*
X33466925Y-80579998D02*
X33466931Y-80579998D01*
X35598065Y-80580000D02*
X35598066Y-80580000D01*
X35864599Y-80846532D02*
X37653464Y-82635398D01*
X34334598Y-80580001D02*
X34711532Y-80580000D01*
X32713078Y-80579995D02*
X32901664Y-80579999D01*
X33466933Y-80580000D02*
X34334599Y-80580000D01*
X37920000Y-83655802D02*
X37920000Y-84032736D01*
X37919999Y-82901931D02*
X37919999Y-82901932D01*
X33466931Y-80579998D02*
X33466933Y-80580000D01*
X32713074Y-80579999D02*
X32713078Y-80579995D01*
X37653464Y-82635398D02*
X37653465Y-82635399D01*
X35598066Y-80580000D02*
X35598067Y-80580000D01*
X37919999Y-82901930D02*
X37919998Y-82901930D01*
X32976937Y-80580000D02*
X33089993Y-80580000D01*
X34711536Y-80579999D02*
X34881402Y-80580000D01*
X32976937Y-80580000D02*
X32976936Y-80580000D01*
X29150000Y-75862500D02*
X29150000Y-77806532D01*
X35088466Y-80580000D02*
X35221131Y-80580000D01*
%TO.N,PB6*%
X38045000Y-69668066D02*
X38045000Y-69091532D01*
X38045000Y-69091532D02*
X38468266Y-68668266D01*
X36940000Y-71950000D02*
X37290000Y-71600000D01*
X37290000Y-71600000D02*
X37290001Y-70423064D01*
X38468266Y-68668266D02*
X38468266Y-66771734D01*
X38468266Y-66771734D02*
X40000000Y-65240000D01*
X34062500Y-71950000D02*
X36940000Y-71950000D01*
X37290001Y-70423064D02*
X38045000Y-69668066D01*
%TO.N,PA15*%
X34062500Y-73950000D02*
X37050000Y-73950000D01*
X37050000Y-73950000D02*
X38500000Y-75400000D01*
X38500000Y-75400000D02*
X40000000Y-75400000D01*
%TO.N,PB8*%
X37558266Y-68291332D02*
X37558266Y-66386734D01*
X34062500Y-70450000D02*
X35976131Y-70450000D01*
X38145000Y-65800000D02*
X38145000Y-62015000D01*
X35976131Y-70450000D02*
X37113066Y-69313066D01*
X37113066Y-69313066D02*
X37113066Y-68736532D01*
X37113066Y-68736532D02*
X37558266Y-68291332D01*
X38145000Y-62015000D02*
X40000000Y-60160000D01*
X37558266Y-66386734D02*
X38145000Y-65800000D01*
%TO.N,PB10*%
X23920000Y-73330000D02*
X23920000Y-80423468D01*
X25737500Y-72950000D02*
X24300000Y-72950000D01*
X21640000Y-85560000D02*
X20000000Y-85560000D01*
X23920000Y-80423468D02*
X22271734Y-82071734D01*
X22271734Y-84928266D02*
X21640000Y-85560000D01*
X24300000Y-72950000D02*
X23920000Y-73330000D01*
X22271734Y-82071734D02*
X22271734Y-84928266D01*
%TO.N,PB0*%
X23010000Y-71990000D02*
X23010000Y-79990000D01*
X23572000Y-71428000D02*
X23010000Y-71990000D01*
X25737500Y-71450000D02*
X25715500Y-71428000D01*
X25715500Y-71428000D02*
X23572000Y-71428000D01*
X22520000Y-80480000D02*
X20000000Y-80480000D01*
X23010000Y-79990000D02*
X22520000Y-80480000D01*
X20020000Y-80500000D02*
X20000000Y-80480000D01*
%TO.N,PA4*%
X20000000Y-70320000D02*
X20870000Y-69450000D01*
X20870000Y-69450000D02*
X25737500Y-69450000D01*
%TO.N,PB1*%
X25737500Y-71950000D02*
X23915000Y-71950000D01*
X21800000Y-81900000D02*
X21800000Y-82600000D01*
X21800000Y-82600000D02*
X21380000Y-83020000D01*
X23465000Y-72400000D02*
X23465000Y-80235000D01*
X21380000Y-83020000D02*
X20000000Y-83020000D01*
X23465000Y-80235000D02*
X21800000Y-81900000D01*
X23915000Y-71950000D02*
X23465000Y-72400000D01*
%TO.N,PA6*%
X22450000Y-70450000D02*
X25737500Y-70450000D01*
X22100000Y-70800000D02*
X22450000Y-70450000D01*
X21400000Y-75400000D02*
X22100000Y-74700000D01*
X20000000Y-75400000D02*
X21400000Y-75400000D01*
X22100000Y-74700000D02*
X22100000Y-70800000D01*
%TO.N,PA1*%
X20000000Y-62700000D02*
X25300000Y-62700000D01*
X25300000Y-62700000D02*
X25700000Y-63100000D01*
X25700000Y-63100000D02*
X25700000Y-64600000D01*
X26300000Y-65200000D02*
X27400000Y-65200000D01*
X27650000Y-65450000D02*
X27650000Y-67537500D01*
X27400000Y-65200000D02*
X27650000Y-65450000D01*
X25700000Y-64600000D02*
X26300000Y-65200000D01*
%TO.N,NRST*%
X29650000Y-64950000D02*
X29300000Y-64600000D01*
X29650000Y-67537500D02*
X29650000Y-64950000D01*
X23600000Y-83200000D02*
X23600000Y-88400000D01*
X23600000Y-88400000D02*
X21360000Y-90640000D01*
X21360000Y-90640000D02*
X20000000Y-90640000D01*
X29300000Y-64600000D02*
X29300000Y-64300000D01*
%TO.N,PA5*%
X21600000Y-72500000D02*
X21600000Y-70400000D01*
X21240000Y-72860000D02*
X21600000Y-72500000D01*
X20000000Y-72860000D02*
X21240000Y-72860000D01*
X21600000Y-70400000D02*
X22050000Y-69950000D01*
X22050000Y-69950000D02*
X25737500Y-69950000D01*
%TO.N,PA0*%
X28150000Y-64950000D02*
X28150000Y-67537500D01*
X26600000Y-64700000D02*
X27900000Y-64700000D01*
X25760000Y-60160000D02*
X26200000Y-60600000D01*
X26200000Y-60600000D02*
X26200000Y-64300000D01*
X27900000Y-64700000D02*
X28150000Y-64950000D01*
X26200000Y-64300000D02*
X26600000Y-64700000D01*
X20000000Y-60160000D02*
X25760000Y-60160000D01*
%TO.N,PA2*%
X26111532Y-65655000D02*
X25696532Y-65240000D01*
X27150000Y-67537500D02*
X27150000Y-65950000D01*
X25696532Y-65240000D02*
X20000000Y-65240000D01*
X26855000Y-65655000D02*
X26488468Y-65655000D01*
X26111533Y-65655000D02*
X26111532Y-65655000D01*
X27150000Y-65950000D02*
X26855000Y-65655000D01*
X26488468Y-65655000D02*
X26111533Y-65655000D01*
%TO.N,VBAT*%
X33262500Y-67537500D02*
X32650000Y-67537500D01*
X33635318Y-67164682D02*
X33262500Y-67537500D01*
X33635318Y-66215136D02*
X33635318Y-67164682D01*
%TO.N,PA7*%
X23000000Y-70950000D02*
X25737500Y-70950000D01*
X22555000Y-71395000D02*
X23000000Y-70950000D01*
X22555000Y-77545000D02*
X22555000Y-71395000D01*
X20000000Y-77940000D02*
X22160000Y-77940000D01*
X22160000Y-77940000D02*
X22555000Y-77545000D01*
%TO.N,PB11*%
X24750000Y-73450000D02*
X25737500Y-73450000D01*
X22300000Y-88100000D02*
X22726734Y-87673266D01*
X24375000Y-73825000D02*
X24750000Y-73450000D01*
X24375000Y-80651734D02*
X24375000Y-73825000D01*
X22726734Y-82300000D02*
X24375000Y-80651734D01*
X20000000Y-88100000D02*
X22300000Y-88100000D01*
X22726734Y-87673266D02*
X22726734Y-82300000D01*
%TO.N,PA3*%
X20000000Y-67780000D02*
X21170000Y-68950000D01*
X21170000Y-68950000D02*
X25737500Y-68950000D01*
%TO.N,Net-(D1-K)*%
X33443356Y-52380856D02*
X33462500Y-52400000D01*
X33443356Y-50743356D02*
X33443356Y-52380856D01*
%TO.N,Net-(D2-K)*%
X26568750Y-52468750D02*
X26568750Y-50931250D01*
X26568750Y-50931250D02*
X26600000Y-50900000D01*
%TD*%
%TA.AperFunction,Conductor*%
%TO.N,GND*%
G36*
X23855078Y-90647185D02*
G01*
X23898525Y-90695208D01*
X23904949Y-90707818D01*
X24029890Y-90879786D01*
X24180213Y-91030109D01*
X24352179Y-91155048D01*
X24352181Y-91155049D01*
X24352184Y-91155051D01*
X24541588Y-91251557D01*
X24743757Y-91317246D01*
X24953713Y-91350500D01*
X24953714Y-91350500D01*
X25166286Y-91350500D01*
X25166287Y-91350500D01*
X25376243Y-91317246D01*
X25578412Y-91251557D01*
X25767816Y-91155051D01*
X25939792Y-91030104D01*
X26053329Y-90916566D01*
X26114648Y-90883084D01*
X26184340Y-90888068D01*
X26240274Y-90929939D01*
X26257189Y-90960917D01*
X26306202Y-91092328D01*
X26306206Y-91092335D01*
X26392452Y-91207544D01*
X26392455Y-91207547D01*
X26507664Y-91293793D01*
X26507671Y-91293797D01*
X26642517Y-91344091D01*
X26642516Y-91344091D01*
X26649444Y-91344835D01*
X26702127Y-91350500D01*
X27618060Y-91350499D01*
X27685098Y-91370183D01*
X27730853Y-91422987D01*
X27740797Y-91492146D01*
X27711772Y-91555702D01*
X27705742Y-91562179D01*
X27678210Y-91589711D01*
X27590609Y-91720814D01*
X27590602Y-91720827D01*
X27530264Y-91866498D01*
X27530261Y-91866510D01*
X27499500Y-92021153D01*
X27499500Y-92178846D01*
X27530261Y-92333489D01*
X27530264Y-92333501D01*
X27590602Y-92479172D01*
X27590609Y-92479185D01*
X27678210Y-92610288D01*
X27678213Y-92610292D01*
X27789707Y-92721786D01*
X27789711Y-92721789D01*
X27920814Y-92809390D01*
X27920818Y-92809392D01*
X27920821Y-92809394D01*
X27995954Y-92840515D01*
X28011519Y-92853057D01*
X28029703Y-92861362D01*
X28038165Y-92874530D01*
X28050356Y-92884354D01*
X28056669Y-92903323D01*
X28067477Y-92920140D01*
X28071439Y-92947699D01*
X28072421Y-92950648D01*
X28072500Y-92955075D01*
X28072500Y-93175500D01*
X28052815Y-93242539D01*
X28000011Y-93288294D01*
X27948500Y-93299500D01*
X27052129Y-93299500D01*
X27052123Y-93299501D01*
X26992516Y-93305908D01*
X26857671Y-93356202D01*
X26857664Y-93356206D01*
X26742455Y-93442452D01*
X26742452Y-93442455D01*
X26656206Y-93557664D01*
X26656202Y-93557671D01*
X26605908Y-93692517D01*
X26600715Y-93740823D01*
X26599500Y-93752127D01*
X26599500Y-94210109D01*
X26599501Y-94625500D01*
X26579817Y-94692539D01*
X26527013Y-94738294D01*
X26497345Y-94747561D01*
X26486510Y-94749500D01*
X26476082Y-94749500D01*
X26382547Y-94768105D01*
X26381344Y-94768321D01*
X26347742Y-94764660D01*
X26314100Y-94761650D01*
X26313119Y-94760888D01*
X26311886Y-94760754D01*
X26285618Y-94739525D01*
X26258922Y-94718787D01*
X26258508Y-94717615D01*
X26257544Y-94716836D01*
X26246920Y-94684765D01*
X26235678Y-94652897D01*
X26235617Y-94650645D01*
X26235573Y-94650511D01*
X26235610Y-94650366D01*
X26235500Y-94646260D01*
X26235500Y-93959000D01*
X26231022Y-93891537D01*
X26231021Y-93891522D01*
X26230527Y-93887818D01*
X26229298Y-93878600D01*
X26227558Y-93864680D01*
X26221586Y-93827883D01*
X26219192Y-93815913D01*
X26217615Y-93807500D01*
X26216760Y-93802938D01*
X26216073Y-93800287D01*
X26199303Y-93735566D01*
X26199298Y-93735551D01*
X26189307Y-93705576D01*
X26174223Y-93665901D01*
X26172222Y-93661232D01*
X26168224Y-93651904D01*
X26155605Y-93624697D01*
X26141605Y-93596697D01*
X26119772Y-93557448D01*
X26111772Y-93544448D01*
X26111761Y-93544430D01*
X26096747Y-93521445D01*
X26096740Y-93521435D01*
X26096729Y-93521418D01*
X26087729Y-93508418D01*
X26072635Y-93487743D01*
X26062635Y-93474743D01*
X26059191Y-93470442D01*
X26050183Y-93459193D01*
X26048183Y-93456793D01*
X26040177Y-93447186D01*
X26008978Y-93413022D01*
X26008971Y-93413015D01*
X26008958Y-93413001D01*
X25986998Y-93391041D01*
X25986984Y-93391028D01*
X25986978Y-93391022D01*
X25952814Y-93359823D01*
X25940814Y-93349823D01*
X25940806Y-93349816D01*
X25925276Y-93337380D01*
X25925269Y-93337374D01*
X25925257Y-93337365D01*
X25912257Y-93327365D01*
X25891582Y-93312271D01*
X25878582Y-93303271D01*
X25878572Y-93303264D01*
X25878554Y-93303252D01*
X25855569Y-93288238D01*
X25842559Y-93280232D01*
X25842552Y-93280228D01*
X25803303Y-93258395D01*
X25775303Y-93244395D01*
X25775297Y-93244392D01*
X25775283Y-93244385D01*
X25748103Y-93231779D01*
X25734098Y-93225776D01*
X25694423Y-93210692D01*
X25664448Y-93200701D01*
X25664441Y-93200699D01*
X25664434Y-93200697D01*
X25597079Y-93183244D01*
X25597080Y-93183244D01*
X25597064Y-93183240D01*
X25586400Y-93181241D01*
X25586373Y-93181236D01*
X25584087Y-93180808D01*
X25572117Y-93178414D01*
X25535320Y-93172442D01*
X25521400Y-93170702D01*
X25519242Y-93170414D01*
X25519228Y-93170412D01*
X25508478Y-93168979D01*
X25508462Y-93168977D01*
X25449361Y-93165054D01*
X25441000Y-93164500D01*
X24359000Y-93164500D01*
X24351560Y-93164993D01*
X24291537Y-93168977D01*
X24291512Y-93168979D01*
X24280779Y-93170411D01*
X24280762Y-93170413D01*
X24278600Y-93170702D01*
X24264680Y-93172442D01*
X24227883Y-93178414D01*
X24215913Y-93180808D01*
X24213665Y-93181229D01*
X24213606Y-93181239D01*
X24202933Y-93183241D01*
X24202922Y-93183243D01*
X24202921Y-93183244D01*
X24135566Y-93200697D01*
X24135560Y-93200698D01*
X24135551Y-93200701D01*
X24105576Y-93210692D01*
X24065901Y-93225776D01*
X24051896Y-93231779D01*
X24024716Y-93244385D01*
X23996699Y-93258394D01*
X23957440Y-93280232D01*
X23944430Y-93288238D01*
X23921445Y-93303252D01*
X23908402Y-93312282D01*
X23887759Y-93327353D01*
X23874723Y-93337380D01*
X23859193Y-93349816D01*
X23847194Y-93359816D01*
X23813015Y-93391028D01*
X23813001Y-93391041D01*
X23791041Y-93413001D01*
X23791028Y-93413015D01*
X23791022Y-93413022D01*
X23764144Y-93442455D01*
X23759816Y-93447194D01*
X23749816Y-93459193D01*
X23737380Y-93474723D01*
X23727353Y-93487759D01*
X23712282Y-93508402D01*
X23703252Y-93521445D01*
X23688238Y-93544430D01*
X23680232Y-93557440D01*
X23658394Y-93596699D01*
X23644385Y-93624716D01*
X23631779Y-93651896D01*
X23625776Y-93665901D01*
X23610692Y-93705576D01*
X23600701Y-93735551D01*
X23600698Y-93735560D01*
X23600697Y-93735566D01*
X23588306Y-93783385D01*
X23583241Y-93802933D01*
X23581239Y-93813606D01*
X23581229Y-93813665D01*
X23580808Y-93815913D01*
X23578414Y-93827883D01*
X23572442Y-93864680D01*
X23570702Y-93878600D01*
X23570413Y-93880762D01*
X23570411Y-93880779D01*
X23568979Y-93891512D01*
X23568977Y-93891537D01*
X23564500Y-93959000D01*
X23564500Y-95641000D01*
X23568978Y-95708470D01*
X23570702Y-95721400D01*
X23572442Y-95735320D01*
X23578414Y-95772117D01*
X23580808Y-95784087D01*
X23581236Y-95786373D01*
X23581241Y-95786400D01*
X23583240Y-95797064D01*
X23583244Y-95797079D01*
X23600697Y-95864434D01*
X23600699Y-95864441D01*
X23600701Y-95864448D01*
X23610692Y-95894423D01*
X23625776Y-95934098D01*
X23631779Y-95948103D01*
X23644385Y-95975283D01*
X23644394Y-95975302D01*
X23644395Y-95975303D01*
X23658395Y-96003303D01*
X23680228Y-96042552D01*
X23680232Y-96042559D01*
X23688238Y-96055569D01*
X23703252Y-96078554D01*
X23703264Y-96078572D01*
X23703271Y-96078582D01*
X23712271Y-96091582D01*
X23727365Y-96112257D01*
X23737365Y-96125257D01*
X23737380Y-96125276D01*
X23749816Y-96140806D01*
X23749823Y-96140814D01*
X23759823Y-96152814D01*
X23791022Y-96186978D01*
X23791028Y-96186984D01*
X23791041Y-96186998D01*
X23813001Y-96208958D01*
X23813015Y-96208971D01*
X23813022Y-96208978D01*
X23847186Y-96240177D01*
X23859186Y-96250177D01*
X23874743Y-96262635D01*
X23887743Y-96272635D01*
X23908418Y-96287729D01*
X23921418Y-96296729D01*
X23921435Y-96296740D01*
X23921445Y-96296747D01*
X23944430Y-96311761D01*
X23944448Y-96311772D01*
X23957448Y-96319772D01*
X23996697Y-96341605D01*
X24024697Y-96355605D01*
X24024710Y-96355611D01*
X24024716Y-96355614D01*
X24035401Y-96360569D01*
X24051904Y-96368224D01*
X24061232Y-96372222D01*
X24065901Y-96374223D01*
X24105576Y-96389307D01*
X24135551Y-96399298D01*
X24135566Y-96399303D01*
X24202921Y-96416756D01*
X24202926Y-96416757D01*
X24202938Y-96416760D01*
X24212163Y-96418489D01*
X24215913Y-96419192D01*
X24227883Y-96421586D01*
X24264680Y-96427558D01*
X24278600Y-96429298D01*
X24291530Y-96431022D01*
X24359000Y-96435500D01*
X24359001Y-96435500D01*
X25440999Y-96435500D01*
X25441000Y-96435500D01*
X25508470Y-96431022D01*
X25521400Y-96429298D01*
X25535320Y-96427558D01*
X25572117Y-96421586D01*
X25584087Y-96419192D01*
X25597079Y-96416756D01*
X25644396Y-96404495D01*
X25714228Y-96406733D01*
X25771766Y-96446371D01*
X25798740Y-96510824D01*
X25799500Y-96524530D01*
X25799500Y-96775469D01*
X25792871Y-96798042D01*
X25790653Y-96821468D01*
X25783209Y-96830948D01*
X25779815Y-96842508D01*
X25762037Y-96857912D01*
X25747504Y-96876422D01*
X25736116Y-96880372D01*
X25727011Y-96888263D01*
X25703723Y-96891611D01*
X25681494Y-96899324D01*
X25663189Y-96897439D01*
X25657853Y-96898207D01*
X25646358Y-96895996D01*
X25645367Y-96895756D01*
X25597079Y-96883244D01*
X25584087Y-96880808D01*
X25580948Y-96880180D01*
X25580939Y-96880178D01*
X25572117Y-96878414D01*
X25559843Y-96876422D01*
X25535320Y-96872442D01*
X25535317Y-96872441D01*
X25535307Y-96872440D01*
X25521928Y-96870768D01*
X25520948Y-96870641D01*
X25508470Y-96868978D01*
X25508462Y-96868977D01*
X25449361Y-96865054D01*
X25441000Y-96864500D01*
X24359000Y-96864500D01*
X24351560Y-96864993D01*
X24291537Y-96868977D01*
X24291512Y-96868979D01*
X24280779Y-96870411D01*
X24280762Y-96870413D01*
X24278600Y-96870702D01*
X24264680Y-96872442D01*
X24227883Y-96878414D01*
X24215913Y-96880808D01*
X24213665Y-96881229D01*
X24213606Y-96881239D01*
X24202933Y-96883241D01*
X24202922Y-96883243D01*
X24202921Y-96883244D01*
X24135566Y-96900697D01*
X24135560Y-96900698D01*
X24135551Y-96900701D01*
X24105576Y-96910692D01*
X24065901Y-96925776D01*
X24051896Y-96931779D01*
X24024716Y-96944385D01*
X23996699Y-96958394D01*
X23957440Y-96980232D01*
X23944430Y-96988238D01*
X23921445Y-97003252D01*
X23908402Y-97012282D01*
X23887759Y-97027353D01*
X23874723Y-97037380D01*
X23859193Y-97049816D01*
X23847194Y-97059816D01*
X23813015Y-97091028D01*
X23813001Y-97091041D01*
X23791041Y-97113001D01*
X23791028Y-97113015D01*
X23759816Y-97147194D01*
X23749816Y-97159193D01*
X23737380Y-97174723D01*
X23727353Y-97187759D01*
X23712282Y-97208402D01*
X23703252Y-97221445D01*
X23688238Y-97244430D01*
X23680232Y-97257440D01*
X23658394Y-97296699D01*
X23644385Y-97324716D01*
X23631779Y-97351896D01*
X23625776Y-97365901D01*
X23610692Y-97405576D01*
X23600701Y-97435551D01*
X23600698Y-97435564D01*
X23583241Y-97502933D01*
X23581239Y-97513606D01*
X23581229Y-97513665D01*
X23580808Y-97515913D01*
X23578414Y-97527883D01*
X23572442Y-97564680D01*
X23570702Y-97578600D01*
X23570413Y-97580762D01*
X23570411Y-97580779D01*
X23568979Y-97591512D01*
X23568977Y-97591537D01*
X23567565Y-97612815D01*
X23564500Y-97659000D01*
X23564500Y-99341000D01*
X23568978Y-99408470D01*
X23570702Y-99421400D01*
X23572442Y-99435320D01*
X23578414Y-99472117D01*
X23580808Y-99484087D01*
X23581236Y-99486373D01*
X23581241Y-99486400D01*
X23583240Y-99497064D01*
X23583244Y-99497079D01*
X23600697Y-99564434D01*
X23600699Y-99564441D01*
X23600701Y-99564448D01*
X23610692Y-99594423D01*
X23625776Y-99634098D01*
X23631779Y-99648103D01*
X23644385Y-99675283D01*
X23644394Y-99675302D01*
X23644395Y-99675303D01*
X23658395Y-99703303D01*
X23680228Y-99742552D01*
X23680232Y-99742559D01*
X23688238Y-99755569D01*
X23703252Y-99778554D01*
X23712277Y-99791591D01*
X23720158Y-99802385D01*
X23743788Y-99868137D01*
X23728119Y-99936227D01*
X23678125Y-99985037D01*
X23620007Y-99999500D01*
X18124500Y-99999500D01*
X18057461Y-99979815D01*
X18011706Y-99927011D01*
X18000500Y-99875500D01*
X18000500Y-92367281D01*
X18020185Y-92300242D01*
X18072989Y-92254487D01*
X18142147Y-92244543D01*
X18205703Y-92273568D01*
X18212181Y-92279600D01*
X18656877Y-92724296D01*
X18690362Y-92785619D01*
X18687128Y-92850293D01*
X18682754Y-92863755D01*
X18661614Y-92997231D01*
X18649500Y-93073713D01*
X18649500Y-93286287D01*
X18653617Y-93312282D01*
X18681407Y-93487743D01*
X18682754Y-93496243D01*
X18746527Y-93692516D01*
X18748444Y-93698414D01*
X18844951Y-93887820D01*
X18969890Y-94059786D01*
X19120213Y-94210109D01*
X19292179Y-94335048D01*
X19292181Y-94335049D01*
X19292184Y-94335051D01*
X19301493Y-94339794D01*
X19352290Y-94387766D01*
X19369087Y-94455587D01*
X19346552Y-94521722D01*
X19301502Y-94560762D01*
X19292443Y-94565378D01*
X19120540Y-94690272D01*
X19120535Y-94690276D01*
X18970276Y-94840535D01*
X18970272Y-94840540D01*
X18845379Y-95012442D01*
X18748904Y-95201782D01*
X18683242Y-95403870D01*
X18683242Y-95403873D01*
X18672769Y-95470000D01*
X19566988Y-95470000D01*
X19534075Y-95527007D01*
X19500000Y-95654174D01*
X19500000Y-95785826D01*
X19534075Y-95912993D01*
X19566988Y-95970000D01*
X18672769Y-95970000D01*
X18683242Y-96036126D01*
X18683242Y-96036129D01*
X18748904Y-96238217D01*
X18845379Y-96427557D01*
X18970272Y-96599459D01*
X18970276Y-96599464D01*
X19120535Y-96749723D01*
X19120540Y-96749727D01*
X19292444Y-96874622D01*
X19302048Y-96879516D01*
X19352844Y-96927491D01*
X19369638Y-96995312D01*
X19347100Y-97061447D01*
X19302048Y-97100484D01*
X19292444Y-97105377D01*
X19120540Y-97230272D01*
X19120535Y-97230276D01*
X18970276Y-97380535D01*
X18970272Y-97380540D01*
X18845379Y-97552442D01*
X18748904Y-97741782D01*
X18683242Y-97943870D01*
X18683242Y-97943873D01*
X18672769Y-98010000D01*
X19566988Y-98010000D01*
X19534075Y-98067007D01*
X19500000Y-98194174D01*
X19500000Y-98325826D01*
X19534075Y-98452993D01*
X19566988Y-98510000D01*
X18672769Y-98510000D01*
X18683242Y-98576126D01*
X18683242Y-98576129D01*
X18748904Y-98778217D01*
X18845379Y-98967557D01*
X18970272Y-99139459D01*
X18970276Y-99139464D01*
X19120535Y-99289723D01*
X19120540Y-99289727D01*
X19292442Y-99414620D01*
X19481782Y-99511095D01*
X19683871Y-99576757D01*
X19750000Y-99587231D01*
X19750000Y-98693012D01*
X19807007Y-98725925D01*
X19934174Y-98760000D01*
X20065826Y-98760000D01*
X20192993Y-98725925D01*
X20250000Y-98693012D01*
X20250000Y-99587230D01*
X20316126Y-99576757D01*
X20316129Y-99576757D01*
X20518217Y-99511095D01*
X20707557Y-99414620D01*
X20879459Y-99289727D01*
X20879464Y-99289723D01*
X21029723Y-99139464D01*
X21029727Y-99139459D01*
X21154620Y-98967557D01*
X21251095Y-98778217D01*
X21316757Y-98576129D01*
X21316757Y-98576126D01*
X21327231Y-98510000D01*
X20433012Y-98510000D01*
X20465925Y-98452993D01*
X20500000Y-98325826D01*
X20500000Y-98194174D01*
X20465925Y-98067007D01*
X20433012Y-98010000D01*
X21327231Y-98010000D01*
X21316757Y-97943873D01*
X21316757Y-97943870D01*
X21251095Y-97741782D01*
X21154620Y-97552442D01*
X21029727Y-97380540D01*
X21029723Y-97380535D01*
X20879464Y-97230276D01*
X20879459Y-97230272D01*
X20707558Y-97105379D01*
X20697954Y-97100486D01*
X20647157Y-97052512D01*
X20630361Y-96984692D01*
X20652897Y-96918556D01*
X20697954Y-96879514D01*
X20707558Y-96874620D01*
X20879459Y-96749727D01*
X20879464Y-96749723D01*
X21029723Y-96599464D01*
X21029727Y-96599459D01*
X21154620Y-96427557D01*
X21251095Y-96238217D01*
X21316757Y-96036129D01*
X21316757Y-96036126D01*
X21327231Y-95970000D01*
X20433012Y-95970000D01*
X20465925Y-95912993D01*
X20500000Y-95785826D01*
X20500000Y-95654174D01*
X20465925Y-95527007D01*
X20433012Y-95470000D01*
X21327231Y-95470000D01*
X21316757Y-95403873D01*
X21316757Y-95403870D01*
X21251095Y-95201782D01*
X21154620Y-95012442D01*
X21029727Y-94840540D01*
X21029723Y-94840535D01*
X20879464Y-94690276D01*
X20879459Y-94690272D01*
X20707555Y-94565377D01*
X20698500Y-94560763D01*
X20647706Y-94512788D01*
X20630912Y-94444966D01*
X20653451Y-94378832D01*
X20698508Y-94339793D01*
X20707816Y-94335051D01*
X20787007Y-94277515D01*
X20879786Y-94210109D01*
X20879788Y-94210106D01*
X20879792Y-94210104D01*
X21030104Y-94059792D01*
X21030106Y-94059788D01*
X21030109Y-94059786D01*
X21155050Y-93887818D01*
X21156176Y-93885608D01*
X21161475Y-93875207D01*
X21209448Y-93824411D01*
X21271961Y-93807500D01*
X21581804Y-93807500D01*
X21581805Y-93807499D01*
X21703035Y-93783386D01*
X21783784Y-93749937D01*
X21817233Y-93736083D01*
X21920008Y-93667411D01*
X22007411Y-93580008D01*
X22487411Y-93100008D01*
X22515873Y-93057411D01*
X22556083Y-92997233D01*
X22596355Y-92900008D01*
X22603386Y-92883034D01*
X22627500Y-92761803D01*
X22627500Y-92638196D01*
X22627500Y-90954749D01*
X22647185Y-90887710D01*
X22663819Y-90867068D01*
X22867068Y-90663819D01*
X22928391Y-90630334D01*
X22954749Y-90627500D01*
X23788039Y-90627500D01*
X23855078Y-90647185D01*
G37*
%TD.AperFunction*%
%TA.AperFunction,Conductor*%
G36*
X20250000Y-97826988D02*
G01*
X20192993Y-97794075D01*
X20065826Y-97760000D01*
X19934174Y-97760000D01*
X19807007Y-97794075D01*
X19750000Y-97826988D01*
X19750000Y-96153012D01*
X19807007Y-96185925D01*
X19934174Y-96220000D01*
X20065826Y-96220000D01*
X20192993Y-96185925D01*
X20250000Y-96153012D01*
X20250000Y-97826988D01*
G37*
%TD.AperFunction*%
%TA.AperFunction,Conductor*%
G36*
X34336254Y-84865236D02*
G01*
X34382009Y-84918040D01*
X34385397Y-84926218D01*
X34426801Y-85037229D01*
X34426802Y-85037231D01*
X34497766Y-85132026D01*
X34505504Y-85152774D01*
X34517476Y-85171402D01*
X34520627Y-85193318D01*
X34522183Y-85197490D01*
X34522499Y-85206337D01*
X34522499Y-85235474D01*
X34502814Y-85302513D01*
X34501602Y-85304363D01*
X34490611Y-85320812D01*
X34490602Y-85320828D01*
X34430264Y-85466498D01*
X34430261Y-85466510D01*
X34399500Y-85621153D01*
X34399500Y-85778846D01*
X34430261Y-85933489D01*
X34430264Y-85933501D01*
X34490602Y-86079172D01*
X34490609Y-86079185D01*
X34578210Y-86210288D01*
X34578213Y-86210292D01*
X34689707Y-86321786D01*
X34689711Y-86321789D01*
X34820814Y-86409390D01*
X34820827Y-86409397D01*
X34958683Y-86466498D01*
X34966503Y-86469737D01*
X35105553Y-86497396D01*
X35121153Y-86500499D01*
X35121156Y-86500500D01*
X35121158Y-86500500D01*
X35278843Y-86500500D01*
X35294447Y-86497396D01*
X35324308Y-86491456D01*
X35393899Y-86497683D01*
X35449077Y-86540545D01*
X35472322Y-86606434D01*
X35472500Y-86613073D01*
X35472500Y-89581236D01*
X35452815Y-89648275D01*
X35436181Y-89668917D01*
X35399999Y-89705099D01*
X35399999Y-91858799D01*
X35477227Y-91858799D01*
X35477243Y-91858798D01*
X35536771Y-91852397D01*
X35536775Y-91852396D01*
X35628319Y-91818252D01*
X35698010Y-91813268D01*
X35759331Y-91846750D01*
X35759334Y-91846753D01*
X36136181Y-92223600D01*
X36169666Y-92284923D01*
X36172500Y-92311281D01*
X36172500Y-93142357D01*
X36152815Y-93209396D01*
X36100011Y-93255151D01*
X36030853Y-93265095D01*
X35993048Y-93253267D01*
X35975297Y-93244392D01*
X35948103Y-93231779D01*
X35934098Y-93225776D01*
X35894423Y-93210692D01*
X35864448Y-93200701D01*
X35864441Y-93200699D01*
X35864434Y-93200697D01*
X35797079Y-93183244D01*
X35797080Y-93183244D01*
X35797064Y-93183240D01*
X35786400Y-93181241D01*
X35786373Y-93181236D01*
X35784087Y-93180808D01*
X35772117Y-93178414D01*
X35735320Y-93172442D01*
X35721400Y-93170702D01*
X35719242Y-93170414D01*
X35719228Y-93170412D01*
X35708478Y-93168979D01*
X35708462Y-93168977D01*
X35649361Y-93165054D01*
X35641000Y-93164500D01*
X34559000Y-93164500D01*
X34551560Y-93164993D01*
X34491537Y-93168977D01*
X34491512Y-93168979D01*
X34480779Y-93170411D01*
X34480762Y-93170413D01*
X34478600Y-93170702D01*
X34464680Y-93172442D01*
X34427883Y-93178414D01*
X34415913Y-93180808D01*
X34413665Y-93181229D01*
X34413606Y-93181239D01*
X34402933Y-93183241D01*
X34402922Y-93183243D01*
X34402921Y-93183244D01*
X34335566Y-93200697D01*
X34335560Y-93200698D01*
X34335551Y-93200701D01*
X34305576Y-93210692D01*
X34265901Y-93225776D01*
X34251896Y-93231779D01*
X34224716Y-93244385D01*
X34196699Y-93258394D01*
X34157440Y-93280232D01*
X34144430Y-93288238D01*
X34121445Y-93303252D01*
X34108402Y-93312282D01*
X34087759Y-93327353D01*
X34074723Y-93337380D01*
X34059193Y-93349816D01*
X34047194Y-93359816D01*
X34013015Y-93391028D01*
X34013001Y-93391041D01*
X33991041Y-93413001D01*
X33991028Y-93413015D01*
X33991022Y-93413022D01*
X33964144Y-93442455D01*
X33959816Y-93447194D01*
X33949816Y-93459193D01*
X33937380Y-93474723D01*
X33927353Y-93487759D01*
X33912282Y-93508402D01*
X33903252Y-93521445D01*
X33888238Y-93544430D01*
X33880232Y-93557440D01*
X33858394Y-93596699D01*
X33844385Y-93624716D01*
X33831779Y-93651896D01*
X33825776Y-93665901D01*
X33810692Y-93705576D01*
X33800701Y-93735551D01*
X33800698Y-93735560D01*
X33800697Y-93735566D01*
X33788306Y-93783385D01*
X33783241Y-93802933D01*
X33781239Y-93813606D01*
X33781229Y-93813665D01*
X33780808Y-93815913D01*
X33778414Y-93827883D01*
X33772442Y-93864680D01*
X33770702Y-93878600D01*
X33770413Y-93880762D01*
X33770411Y-93880779D01*
X33768979Y-93891512D01*
X33768977Y-93891537D01*
X33764500Y-93959000D01*
X33764500Y-94646260D01*
X33758891Y-94665359D01*
X33758209Y-94685253D01*
X33749249Y-94698195D01*
X33744815Y-94713299D01*
X33729772Y-94726333D01*
X33718442Y-94742702D01*
X33703905Y-94748747D01*
X33692011Y-94759054D01*
X33672310Y-94761886D01*
X33653929Y-94769531D01*
X33627291Y-94768359D01*
X33622853Y-94768998D01*
X33618655Y-94768321D01*
X33617461Y-94768107D01*
X33523918Y-94749500D01*
X33515892Y-94749500D01*
X33513489Y-94749500D01*
X33502655Y-94747561D01*
X33480841Y-94736680D01*
X33457461Y-94729815D01*
X33450139Y-94721366D01*
X33440132Y-94716374D01*
X33427664Y-94695427D01*
X33411706Y-94677011D01*
X33408828Y-94663783D01*
X33404395Y-94656335D01*
X33404778Y-94645165D01*
X33400500Y-94625500D01*
X33400499Y-93752129D01*
X33400498Y-93752123D01*
X33400497Y-93752116D01*
X33394091Y-93692517D01*
X33384728Y-93667414D01*
X33343797Y-93557671D01*
X33343793Y-93557664D01*
X33257547Y-93442455D01*
X33257544Y-93442452D01*
X33142335Y-93356206D01*
X33142328Y-93356202D01*
X33007482Y-93305908D01*
X33007483Y-93305908D01*
X32947883Y-93299501D01*
X32947881Y-93299500D01*
X32947873Y-93299500D01*
X32947864Y-93299500D01*
X31702129Y-93299500D01*
X31702125Y-93299501D01*
X31654160Y-93304657D01*
X31642517Y-93305909D01*
X31642516Y-93305909D01*
X31635904Y-93306620D01*
X31609393Y-93306619D01*
X31547842Y-93300000D01*
X31500000Y-93300000D01*
X31499948Y-93300051D01*
X31480315Y-93366914D01*
X31466083Y-93385087D01*
X31458796Y-93392789D01*
X31392454Y-93442454D01*
X31318988Y-93540590D01*
X31314083Y-93545777D01*
X31289812Y-93559918D01*
X31267332Y-93576747D01*
X31260035Y-93577268D01*
X31253714Y-93580952D01*
X31225654Y-93579727D01*
X31197641Y-93581731D01*
X31191220Y-93578224D01*
X31183911Y-93577906D01*
X31160967Y-93561705D01*
X31136318Y-93548245D01*
X31132811Y-93541823D01*
X31126836Y-93537604D01*
X31116292Y-93511570D01*
X31102834Y-93486922D01*
X31101577Y-93475235D01*
X31100609Y-93472844D01*
X31101062Y-93470442D01*
X31100000Y-93460565D01*
X31100000Y-93300000D01*
X31052172Y-93300000D01*
X31052153Y-93300001D01*
X30992453Y-93306419D01*
X30773110Y-93345240D01*
X30740707Y-93341647D01*
X30708166Y-93339320D01*
X30706157Y-93337816D01*
X30703666Y-93337540D01*
X30678340Y-93316992D01*
X30652233Y-93297448D01*
X30651357Y-93295099D01*
X30649409Y-93293519D01*
X30639211Y-93262536D01*
X30627816Y-93231984D01*
X30627652Y-93227418D01*
X30627565Y-93227151D01*
X30627633Y-93226884D01*
X30627500Y-93223138D01*
X30627500Y-92039356D01*
X30647185Y-91972317D01*
X30648398Y-91970465D01*
X30669959Y-91938197D01*
X30709394Y-91879179D01*
X30724523Y-91842651D01*
X30768363Y-91788248D01*
X30834657Y-91766182D01*
X30902356Y-91783460D01*
X30913396Y-91790837D01*
X30928507Y-91802149D01*
X30928514Y-91802153D01*
X31063221Y-91852395D01*
X31063228Y-91852397D01*
X31122756Y-91858798D01*
X31122773Y-91858799D01*
X31200001Y-91858799D01*
X31700001Y-91858799D01*
X31777229Y-91858799D01*
X31777245Y-91858798D01*
X31836773Y-91852397D01*
X31836780Y-91852395D01*
X31971487Y-91802153D01*
X31971494Y-91802149D01*
X32086588Y-91715989D01*
X32086591Y-91715986D01*
X32172751Y-91600892D01*
X32172755Y-91600885D01*
X32222997Y-91466178D01*
X32222999Y-91466171D01*
X32229400Y-91406643D01*
X34370599Y-91406643D01*
X34377000Y-91466171D01*
X34377002Y-91466178D01*
X34427244Y-91600885D01*
X34427248Y-91600892D01*
X34513408Y-91715986D01*
X34513411Y-91715989D01*
X34628505Y-91802149D01*
X34628512Y-91802153D01*
X34763219Y-91852395D01*
X34763226Y-91852397D01*
X34822754Y-91858798D01*
X34822771Y-91858799D01*
X34899999Y-91858799D01*
X34899999Y-91031949D01*
X34370599Y-91031949D01*
X34370599Y-91406643D01*
X32229400Y-91406643D01*
X32229401Y-91406626D01*
X32229401Y-91031949D01*
X31700001Y-91031949D01*
X31700001Y-91858799D01*
X31200001Y-91858799D01*
X31200001Y-91031949D01*
X30715101Y-91031949D01*
X30648062Y-91012264D01*
X30626788Y-90993326D01*
X30626097Y-90994018D01*
X30510292Y-90878213D01*
X30510288Y-90878210D01*
X30379185Y-90790609D01*
X30379172Y-90790602D01*
X30233501Y-90730264D01*
X30233489Y-90730261D01*
X30078845Y-90699500D01*
X30078842Y-90699500D01*
X29921158Y-90699500D01*
X29921155Y-90699500D01*
X29766510Y-90730261D01*
X29766507Y-90730262D01*
X29766506Y-90730262D01*
X29766503Y-90730263D01*
X29715232Y-90751500D01*
X29669240Y-90770550D01*
X29669232Y-90770553D01*
X29620821Y-90790606D01*
X29609432Y-90798215D01*
X29609425Y-90798219D01*
X29489711Y-90878210D01*
X29489707Y-90878213D01*
X29378213Y-90989707D01*
X29378210Y-90989711D01*
X29290609Y-91120814D01*
X29290602Y-91120827D01*
X29230264Y-91266498D01*
X29230261Y-91266508D01*
X29215843Y-91338992D01*
X29213098Y-91344239D01*
X29213077Y-91350161D01*
X29197089Y-91374842D01*
X29183458Y-91400903D01*
X29177480Y-91405116D01*
X29175092Y-91408804D01*
X29152749Y-91422550D01*
X29145333Y-91427778D01*
X29140103Y-91430143D01*
X29139503Y-91430263D01*
X28993821Y-91490606D01*
X28967363Y-91508283D01*
X28958061Y-91512492D01*
X28933159Y-91515981D01*
X28909163Y-91523494D01*
X28899150Y-91520746D01*
X28888867Y-91522188D01*
X28866031Y-91511659D01*
X28841783Y-91505007D01*
X28828077Y-91494162D01*
X28825416Y-91492935D01*
X28824284Y-91491160D01*
X28819273Y-91487195D01*
X28810289Y-91478211D01*
X28810288Y-91478210D01*
X28810287Y-91478209D01*
X28763498Y-91446946D01*
X28718693Y-91393334D01*
X28709986Y-91324009D01*
X28740140Y-91260982D01*
X28758073Y-91244581D01*
X28807546Y-91207546D01*
X28893796Y-91092331D01*
X28944091Y-90957483D01*
X28950500Y-90897873D01*
X28950500Y-90751500D01*
X28970185Y-90684461D01*
X29022989Y-90638706D01*
X29074500Y-90627500D01*
X29311804Y-90627500D01*
X29311805Y-90627499D01*
X29433035Y-90603386D01*
X29513784Y-90569937D01*
X29547233Y-90556083D01*
X29650008Y-90487411D01*
X29737411Y-90400008D01*
X29980166Y-90157254D01*
X30670601Y-90157254D01*
X30670601Y-90531949D01*
X31200001Y-90531949D01*
X31700001Y-90531949D01*
X32229401Y-90531949D01*
X32229401Y-90157271D01*
X32229400Y-90157254D01*
X34370599Y-90157254D01*
X34370599Y-90531949D01*
X34899999Y-90531949D01*
X34899999Y-89705099D01*
X34822754Y-89705099D01*
X34763226Y-89711500D01*
X34763219Y-89711502D01*
X34628512Y-89761744D01*
X34628505Y-89761748D01*
X34513411Y-89847908D01*
X34513408Y-89847911D01*
X34427248Y-89963005D01*
X34427244Y-89963012D01*
X34377002Y-90097719D01*
X34377000Y-90097726D01*
X34370599Y-90157254D01*
X32229400Y-90157254D01*
X32222999Y-90097726D01*
X32222997Y-90097719D01*
X32172755Y-89963012D01*
X32172751Y-89963005D01*
X32086591Y-89847911D01*
X32086588Y-89847908D01*
X31971494Y-89761748D01*
X31971487Y-89761744D01*
X31836780Y-89711502D01*
X31836773Y-89711500D01*
X31777245Y-89705099D01*
X31700001Y-89705099D01*
X31700001Y-90531949D01*
X31200001Y-90531949D01*
X31200001Y-89705099D01*
X31122756Y-89705099D01*
X31063228Y-89711500D01*
X31063221Y-89711502D01*
X30928514Y-89761744D01*
X30928507Y-89761748D01*
X30813413Y-89847908D01*
X30813410Y-89847911D01*
X30727250Y-89963005D01*
X30727246Y-89963012D01*
X30677004Y-90097719D01*
X30677002Y-90097726D01*
X30670601Y-90157254D01*
X29980166Y-90157254D01*
X30071151Y-90066269D01*
X30187405Y-89950015D01*
X30187407Y-89950012D01*
X30187411Y-89950008D01*
X30195303Y-89938197D01*
X30256083Y-89847233D01*
X30303385Y-89733035D01*
X30327500Y-89611803D01*
X30327500Y-87511281D01*
X30336144Y-87481840D01*
X30342668Y-87451854D01*
X30346422Y-87446838D01*
X30347185Y-87444242D01*
X30363819Y-87423600D01*
X30423600Y-87363819D01*
X30484923Y-87330334D01*
X30511281Y-87327500D01*
X30560643Y-87327500D01*
X30627682Y-87347185D01*
X30629534Y-87348398D01*
X30720814Y-87409390D01*
X30720827Y-87409397D01*
X30823329Y-87451854D01*
X30866503Y-87469737D01*
X31021153Y-87500499D01*
X31021156Y-87500500D01*
X31021158Y-87500500D01*
X31178844Y-87500500D01*
X31178845Y-87500499D01*
X31333497Y-87469737D01*
X31479179Y-87409394D01*
X31610289Y-87321789D01*
X31721789Y-87210289D01*
X31809394Y-87079179D01*
X31869737Y-86933497D01*
X31900500Y-86778842D01*
X31900500Y-86621158D01*
X31900500Y-86621155D01*
X31900499Y-86621153D01*
X31869738Y-86466510D01*
X31869737Y-86466503D01*
X31809394Y-86320821D01*
X31774694Y-86268889D01*
X31753816Y-86202215D01*
X31772300Y-86134835D01*
X31774676Y-86131136D01*
X31809394Y-86079179D01*
X31869737Y-85933497D01*
X31900500Y-85778842D01*
X31900500Y-85621158D01*
X31900500Y-85621155D01*
X31900499Y-85621153D01*
X31869738Y-85466510D01*
X31869737Y-85466503D01*
X31850829Y-85420856D01*
X31843361Y-85351390D01*
X31874635Y-85288911D01*
X31922059Y-85257224D01*
X31971727Y-85238699D01*
X31971727Y-85238698D01*
X31971732Y-85238697D01*
X32086947Y-85152447D01*
X32173197Y-85037232D01*
X32209432Y-84940081D01*
X32214603Y-84926218D01*
X32256474Y-84870284D01*
X32321938Y-84845867D01*
X32330785Y-84845551D01*
X34269215Y-84845551D01*
X34336254Y-84865236D01*
G37*
%TD.AperFunction*%
%TA.AperFunction,Conductor*%
G36*
X27134075Y-84727007D02*
G01*
X27100000Y-84854174D01*
X27100000Y-84985826D01*
X27134075Y-85112993D01*
X27166988Y-85170000D01*
X25493012Y-85170000D01*
X25525925Y-85112993D01*
X25560000Y-84985826D01*
X25560000Y-84854174D01*
X25525925Y-84727007D01*
X25493012Y-84670000D01*
X27166988Y-84670000D01*
X27134075Y-84727007D01*
G37*
%TD.AperFunction*%
%TA.AperFunction,Conductor*%
G36*
X26442539Y-75120185D02*
G01*
X26488294Y-75172989D01*
X26499500Y-75224500D01*
X26499500Y-76562727D01*
X26514313Y-76675235D01*
X26516417Y-76683087D01*
X26515283Y-76683390D01*
X26522500Y-76719665D01*
X26522500Y-80511807D01*
X26546612Y-80633027D01*
X26546615Y-80633039D01*
X26566517Y-80681085D01*
X26593915Y-80747229D01*
X26593920Y-80747239D01*
X26654975Y-80838613D01*
X26662590Y-80850009D01*
X26662595Y-80850015D01*
X26747981Y-80935401D01*
X26781466Y-80996724D01*
X26776482Y-81066416D01*
X26763402Y-81091973D01*
X26681590Y-81214412D01*
X26681583Y-81214425D01*
X26621245Y-81360096D01*
X26621242Y-81360108D01*
X26590481Y-81514751D01*
X26590481Y-81672444D01*
X26621242Y-81827087D01*
X26621245Y-81827099D01*
X26681583Y-81972770D01*
X26681590Y-81972783D01*
X26751602Y-82077562D01*
X26772480Y-82144239D01*
X26772500Y-82146453D01*
X26772500Y-82861807D01*
X26796612Y-82983028D01*
X26796613Y-82983032D01*
X26796614Y-82983035D01*
X26818308Y-83035407D01*
X26843917Y-83097233D01*
X26843918Y-83097234D01*
X26906889Y-83191478D01*
X26909699Y-83195683D01*
X26912589Y-83200008D01*
X26912591Y-83200010D01*
X26912594Y-83200014D01*
X27164904Y-83452323D01*
X27198389Y-83513646D01*
X27193405Y-83583337D01*
X27151534Y-83639271D01*
X27115543Y-83657934D01*
X27081785Y-83668903D01*
X26892442Y-83765379D01*
X26720540Y-83890272D01*
X26720535Y-83890276D01*
X26570276Y-84040535D01*
X26570272Y-84040540D01*
X26445377Y-84212444D01*
X26440484Y-84222048D01*
X26392509Y-84272844D01*
X26324688Y-84289638D01*
X26258553Y-84267100D01*
X26219516Y-84222048D01*
X26214622Y-84212444D01*
X26089727Y-84040540D01*
X26089723Y-84040535D01*
X25939464Y-83890276D01*
X25939459Y-83890272D01*
X25767557Y-83765379D01*
X25578215Y-83668903D01*
X25376124Y-83603241D01*
X25310000Y-83592768D01*
X25310000Y-84486988D01*
X25252993Y-84454075D01*
X25125826Y-84420000D01*
X24994174Y-84420000D01*
X24867007Y-84454075D01*
X24810000Y-84486988D01*
X24810000Y-83592768D01*
X24809999Y-83592768D01*
X24743875Y-83603241D01*
X24541783Y-83668903D01*
X24541779Y-83668905D01*
X24499601Y-83690396D01*
X24430931Y-83703292D01*
X24366191Y-83677015D01*
X24325935Y-83619908D01*
X24322943Y-83550102D01*
X24328746Y-83532458D01*
X24336538Y-83513646D01*
X24369737Y-83433497D01*
X24400500Y-83278842D01*
X24400500Y-83121158D01*
X24400500Y-83121155D01*
X24400499Y-83121153D01*
X24369738Y-82966510D01*
X24369737Y-82966503D01*
X24326371Y-82861807D01*
X24309397Y-82820827D01*
X24309390Y-82820814D01*
X24221789Y-82689711D01*
X24221786Y-82689707D01*
X24110292Y-82578213D01*
X24110288Y-82578210D01*
X23979185Y-82490609D01*
X23979172Y-82490602D01*
X23833501Y-82430264D01*
X23833491Y-82430261D01*
X23769422Y-82417517D01*
X23707511Y-82385132D01*
X23672937Y-82324416D01*
X23676678Y-82254646D01*
X23705933Y-82208219D01*
X24197181Y-81716972D01*
X24862411Y-81051742D01*
X24872874Y-81036083D01*
X24931083Y-80948967D01*
X24978385Y-80834769D01*
X24995796Y-80747239D01*
X25002500Y-80713539D01*
X25002500Y-75224500D01*
X25022185Y-75157461D01*
X25074989Y-75111706D01*
X25126500Y-75100500D01*
X26375500Y-75100500D01*
X26442539Y-75120185D01*
G37*
%TD.AperFunction*%
%TA.AperFunction,Conductor*%
G36*
X27489604Y-73097185D02*
G01*
X27535359Y-73149989D01*
X27545303Y-73219147D01*
X27516278Y-73282703D01*
X27470017Y-73316061D01*
X27402773Y-73343913D01*
X27402760Y-73343920D01*
X27327938Y-73393915D01*
X27327937Y-73393917D01*
X27299992Y-73412589D01*
X27187181Y-73525400D01*
X27171512Y-73533955D01*
X27158886Y-73546572D01*
X27141486Y-73550350D01*
X27125858Y-73558884D01*
X27108053Y-73557610D01*
X27090608Y-73561399D01*
X27073927Y-73555170D01*
X27056166Y-73553900D01*
X27041874Y-73543200D01*
X27025153Y-73536957D01*
X27014488Y-73522699D01*
X27000233Y-73512028D01*
X26993994Y-73495302D01*
X26983302Y-73481008D01*
X26978289Y-73453195D01*
X26975816Y-73446564D01*
X26975813Y-73446518D01*
X26975500Y-73442118D01*
X26975500Y-73337280D01*
X26960687Y-73224764D01*
X26959901Y-73222866D01*
X26959007Y-73210300D01*
X26965685Y-73179654D01*
X26970520Y-73148650D01*
X26973067Y-73145780D01*
X26973884Y-73142032D01*
X26996069Y-73119863D01*
X27016900Y-73096394D01*
X27020628Y-73095323D01*
X27023308Y-73092646D01*
X27050557Y-73086728D01*
X27082694Y-73077500D01*
X27422565Y-73077500D01*
X27489604Y-73097185D01*
G37*
%TD.AperFunction*%
%TA.AperFunction,Conductor*%
G36*
X29439754Y-68822164D02*
G01*
X29496425Y-68863030D01*
X29522007Y-68928048D01*
X29522500Y-68939100D01*
X29522500Y-69194059D01*
X29502815Y-69261098D01*
X29486181Y-69281740D01*
X29478213Y-69289707D01*
X29478210Y-69289711D01*
X29390609Y-69420814D01*
X29390602Y-69420827D01*
X29330264Y-69566498D01*
X29330261Y-69566510D01*
X29299500Y-69721153D01*
X29299500Y-69878846D01*
X29330261Y-70033489D01*
X29330264Y-70033501D01*
X29390602Y-70179172D01*
X29390609Y-70179185D01*
X29478210Y-70310288D01*
X29478213Y-70310292D01*
X29589707Y-70421786D01*
X29589711Y-70421789D01*
X29720814Y-70509390D01*
X29720827Y-70509397D01*
X29808230Y-70545599D01*
X29866503Y-70569737D01*
X29876990Y-70571823D01*
X29901120Y-70576623D01*
X29963031Y-70609008D01*
X29997605Y-70669724D01*
X29998545Y-70674048D01*
X30030261Y-70833491D01*
X30030264Y-70833501D01*
X30090602Y-70979172D01*
X30090609Y-70979185D01*
X30178210Y-71110288D01*
X30178213Y-71110292D01*
X30289707Y-71221786D01*
X30289711Y-71221789D01*
X30420814Y-71309390D01*
X30420827Y-71309397D01*
X30556426Y-71365563D01*
X30566503Y-71369737D01*
X30696474Y-71395590D01*
X30721153Y-71400499D01*
X30721156Y-71400500D01*
X30721158Y-71400500D01*
X30878844Y-71400500D01*
X30878845Y-71400499D01*
X31033497Y-71369737D01*
X31068090Y-71355407D01*
X31101048Y-71341757D01*
X31170517Y-71334288D01*
X31232996Y-71365563D01*
X31268648Y-71425652D01*
X31272500Y-71456318D01*
X31272500Y-72373681D01*
X31296612Y-72494902D01*
X31296613Y-72494906D01*
X31296614Y-72494909D01*
X31319431Y-72549992D01*
X31343917Y-72609107D01*
X31384429Y-72669737D01*
X31387625Y-72674520D01*
X31387626Y-72674522D01*
X31412590Y-72711884D01*
X31412593Y-72711887D01*
X31761526Y-73060819D01*
X31795011Y-73122142D01*
X31790027Y-73191833D01*
X31748156Y-73247767D01*
X31682691Y-73272184D01*
X31673845Y-73272500D01*
X29158941Y-73272500D01*
X29091902Y-73252815D01*
X29046147Y-73200011D01*
X29036203Y-73130853D01*
X29065228Y-73067297D01*
X29071260Y-73060819D01*
X29121786Y-73010292D01*
X29121789Y-73010289D01*
X29209394Y-72879179D01*
X29269737Y-72733497D01*
X29300500Y-72578842D01*
X29300500Y-72421158D01*
X29300500Y-72421155D01*
X29300499Y-72421153D01*
X29269738Y-72266510D01*
X29269737Y-72266503D01*
X29222385Y-72152184D01*
X29209397Y-72120827D01*
X29209390Y-72120814D01*
X29121789Y-71989711D01*
X29121786Y-71989707D01*
X29010292Y-71878213D01*
X29010288Y-71878210D01*
X28879185Y-71790609D01*
X28879172Y-71790602D01*
X28733501Y-71730264D01*
X28733489Y-71730261D01*
X28578845Y-71699500D01*
X28578842Y-71699500D01*
X28421158Y-71699500D01*
X28421155Y-71699500D01*
X28266510Y-71730261D01*
X28266498Y-71730264D01*
X28120828Y-71790602D01*
X28120814Y-71790610D01*
X28104366Y-71801601D01*
X28037689Y-71822480D01*
X28035474Y-71822500D01*
X27082694Y-71822500D01*
X27066283Y-71817681D01*
X27049178Y-71817885D01*
X27033451Y-71808040D01*
X27015655Y-71802815D01*
X27004454Y-71789889D01*
X26989954Y-71780812D01*
X26982046Y-71764029D01*
X26969900Y-71750011D01*
X26967314Y-71732761D01*
X26960175Y-71717607D01*
X26959755Y-71682315D01*
X26969497Y-71608315D01*
X26997763Y-71544419D01*
X27056087Y-71505947D01*
X27092436Y-71500500D01*
X27178844Y-71500500D01*
X27178845Y-71500499D01*
X27333497Y-71469737D01*
X27479179Y-71409394D01*
X27610289Y-71321789D01*
X27721789Y-71210289D01*
X27809394Y-71079179D01*
X27869737Y-70933497D01*
X27900500Y-70778842D01*
X27900500Y-70621158D01*
X27900500Y-70621155D01*
X27900499Y-70621153D01*
X27878269Y-70509397D01*
X27869737Y-70466503D01*
X27839671Y-70393917D01*
X27809397Y-70320827D01*
X27809390Y-70320814D01*
X27748398Y-70229533D01*
X27727520Y-70162855D01*
X27727500Y-70160642D01*
X27727500Y-69851500D01*
X27747185Y-69784461D01*
X27799989Y-69738706D01*
X27851500Y-69727500D01*
X28461804Y-69727500D01*
X28461805Y-69727499D01*
X28583035Y-69703386D01*
X28673199Y-69666038D01*
X28697233Y-69656083D01*
X28800008Y-69587411D01*
X28887411Y-69500008D01*
X29137411Y-69250008D01*
X29206083Y-69147233D01*
X29253385Y-69033035D01*
X29271988Y-68939514D01*
X29276883Y-68914908D01*
X29309268Y-68852997D01*
X29369984Y-68818423D01*
X29439754Y-68822164D01*
G37*
%TD.AperFunction*%
%TA.AperFunction,Conductor*%
G36*
X26430000Y-49827230D02*
G01*
X26496126Y-49816757D01*
X26496129Y-49816757D01*
X26698217Y-49751095D01*
X26887557Y-49654620D01*
X27059459Y-49529727D01*
X27059464Y-49529723D01*
X27209723Y-49379464D01*
X27209727Y-49379459D01*
X27334620Y-49207558D01*
X27339232Y-49198507D01*
X27387205Y-49147709D01*
X27455025Y-49130912D01*
X27521161Y-49153447D01*
X27560204Y-49198504D01*
X27564949Y-49207817D01*
X27689890Y-49379786D01*
X27689896Y-49379792D01*
X27840208Y-49530104D01*
X28012184Y-49655051D01*
X28012188Y-49655053D01*
X28012195Y-49655057D01*
X28024790Y-49661474D01*
X28075588Y-49709446D01*
X28092500Y-49771961D01*
X28092500Y-50265432D01*
X28090118Y-50289622D01*
X28082348Y-50328687D01*
X28072500Y-50378198D01*
X28072500Y-53861807D01*
X28096612Y-53983027D01*
X28096614Y-53983035D01*
X28130062Y-54063785D01*
X28143915Y-54097229D01*
X28143921Y-54097241D01*
X28190200Y-54166500D01*
X28190201Y-54166502D01*
X28212590Y-54200010D01*
X28212593Y-54200013D01*
X28812589Y-54800008D01*
X28899992Y-54887411D01*
X28899993Y-54887412D01*
X29002760Y-54956079D01*
X29002773Y-54956086D01*
X29116960Y-55003383D01*
X29116965Y-55003385D01*
X29116969Y-55003385D01*
X29116970Y-55003386D01*
X29238194Y-55027500D01*
X29238197Y-55027500D01*
X37488719Y-55027500D01*
X37518159Y-55036144D01*
X37548146Y-55042668D01*
X37553161Y-55046422D01*
X37555758Y-55047185D01*
X37576400Y-55063819D01*
X37736181Y-55223600D01*
X37769666Y-55284923D01*
X37772500Y-55311281D01*
X37772500Y-55920652D01*
X37752815Y-55987691D01*
X37700011Y-56033446D01*
X37630853Y-56043390D01*
X37567297Y-56014365D01*
X37545399Y-55989544D01*
X37527141Y-55962220D01*
X37527136Y-55962214D01*
X37387785Y-55822863D01*
X37387781Y-55822860D01*
X37223920Y-55713371D01*
X37223907Y-55713364D01*
X37041839Y-55637950D01*
X37041829Y-55637947D01*
X36848543Y-55599500D01*
X36848541Y-55599500D01*
X36651459Y-55599500D01*
X36651457Y-55599500D01*
X36458170Y-55637947D01*
X36458160Y-55637950D01*
X36276092Y-55713364D01*
X36276079Y-55713371D01*
X36112218Y-55822860D01*
X36112214Y-55822863D01*
X35972863Y-55962214D01*
X35972860Y-55962218D01*
X35863371Y-56126079D01*
X35863364Y-56126092D01*
X35787950Y-56308160D01*
X35787947Y-56308170D01*
X35749500Y-56501456D01*
X35749500Y-56501459D01*
X35749500Y-56698541D01*
X35749500Y-56698543D01*
X35749499Y-56698543D01*
X35787947Y-56891829D01*
X35787950Y-56891839D01*
X35863364Y-57073907D01*
X35863371Y-57073920D01*
X35972860Y-57237781D01*
X35972863Y-57237785D01*
X36112214Y-57377136D01*
X36112218Y-57377139D01*
X36276079Y-57486628D01*
X36276092Y-57486635D01*
X36458160Y-57562049D01*
X36458165Y-57562051D01*
X36458169Y-57562051D01*
X36458170Y-57562052D01*
X36651456Y-57600500D01*
X36651459Y-57600500D01*
X36848543Y-57600500D01*
X36978582Y-57574632D01*
X37041835Y-57562051D01*
X37223914Y-57486632D01*
X37387782Y-57377139D01*
X37527139Y-57237782D01*
X37636632Y-57073914D01*
X37712051Y-56891835D01*
X37732822Y-56787412D01*
X37750500Y-56698543D01*
X37750500Y-56537281D01*
X37770185Y-56470242D01*
X37822989Y-56424487D01*
X37892147Y-56414543D01*
X37955703Y-56443568D01*
X37962181Y-56449600D01*
X38212589Y-56700008D01*
X38299992Y-56787411D01*
X38299993Y-56787412D01*
X38402760Y-56856079D01*
X38402764Y-56856081D01*
X38402767Y-56856083D01*
X38467833Y-56883034D01*
X38516965Y-56903385D01*
X38638197Y-56927500D01*
X38650310Y-56927500D01*
X38665183Y-56931236D01*
X38682614Y-56941489D01*
X38702012Y-56947185D01*
X38712109Y-56958838D01*
X38725407Y-56966660D01*
X38734527Y-56984710D01*
X38747767Y-56999989D01*
X38749962Y-57015255D01*
X38756918Y-57029021D01*
X38754833Y-57049131D01*
X38757711Y-57069147D01*
X38749748Y-57098178D01*
X38749713Y-57098518D01*
X38749624Y-57098628D01*
X38749539Y-57098941D01*
X38748444Y-57101583D01*
X38682753Y-57303760D01*
X38649500Y-57513713D01*
X38649500Y-57726286D01*
X38682753Y-57936240D01*
X38682754Y-57936245D01*
X38687128Y-57949707D01*
X38689121Y-58019549D01*
X38656877Y-58075702D01*
X38232789Y-58499792D01*
X38108258Y-58624323D01*
X38083128Y-58649453D01*
X38020853Y-58711727D01*
X37952186Y-58814494D01*
X37952182Y-58814501D01*
X37948442Y-58823533D01*
X37948439Y-58823540D01*
X37939703Y-58844628D01*
X37895860Y-58899029D01*
X37829565Y-58921091D01*
X37761866Y-58903809D01*
X37714258Y-58852670D01*
X37710583Y-58844622D01*
X37636635Y-58666092D01*
X37636628Y-58666079D01*
X37527139Y-58502218D01*
X37527136Y-58502214D01*
X37387785Y-58362863D01*
X37387781Y-58362860D01*
X37223920Y-58253371D01*
X37223907Y-58253364D01*
X37041839Y-58177950D01*
X37041829Y-58177947D01*
X36848543Y-58139500D01*
X36848541Y-58139500D01*
X36651459Y-58139500D01*
X36651457Y-58139500D01*
X36458170Y-58177947D01*
X36458160Y-58177950D01*
X36276092Y-58253364D01*
X36276079Y-58253371D01*
X36112218Y-58362860D01*
X36112214Y-58362863D01*
X35972863Y-58502214D01*
X35972860Y-58502218D01*
X35863371Y-58666079D01*
X35863364Y-58666092D01*
X35787950Y-58848160D01*
X35787947Y-58848170D01*
X35749500Y-59041456D01*
X35749500Y-59041459D01*
X35749500Y-59238541D01*
X35749500Y-59238543D01*
X35749499Y-59238543D01*
X35787947Y-59431829D01*
X35787950Y-59431839D01*
X35863364Y-59613907D01*
X35863371Y-59613920D01*
X35972860Y-59777781D01*
X35972863Y-59777785D01*
X36112214Y-59917136D01*
X36112218Y-59917139D01*
X36276079Y-60026628D01*
X36276092Y-60026635D01*
X36458160Y-60102049D01*
X36458165Y-60102051D01*
X36458169Y-60102051D01*
X36458170Y-60102052D01*
X36651456Y-60140500D01*
X36651459Y-60140500D01*
X36848543Y-60140500D01*
X36988857Y-60112589D01*
X37041835Y-60102051D01*
X37223914Y-60026632D01*
X37387782Y-59917139D01*
X37527139Y-59777782D01*
X37636632Y-59613914D01*
X37642204Y-59600460D01*
X37686044Y-59546057D01*
X37752338Y-59523991D01*
X37820037Y-59541269D01*
X37867649Y-59592405D01*
X37880766Y-59647912D01*
X37880766Y-60692338D01*
X37878529Y-60699955D01*
X37879799Y-60707791D01*
X37868826Y-60732999D01*
X37861081Y-60759377D01*
X37854371Y-60766207D01*
X37851914Y-60771854D01*
X37825657Y-60795440D01*
X37822152Y-60797782D01*
X37822151Y-60797783D01*
X37799989Y-60812590D01*
X37799988Y-60812591D01*
X37376991Y-61235590D01*
X37289992Y-61322589D01*
X37267841Y-61344740D01*
X37202586Y-61409994D01*
X37202585Y-61409996D01*
X37133803Y-61512936D01*
X37133662Y-61513382D01*
X37086614Y-61626965D01*
X37068553Y-61717767D01*
X37067238Y-61724374D01*
X37067236Y-61724383D01*
X37062500Y-61748192D01*
X37062500Y-65300251D01*
X37042815Y-65367290D01*
X37026181Y-65387932D01*
X36703258Y-65710855D01*
X36615855Y-65798258D01*
X36547181Y-65901036D01*
X36540194Y-65917901D01*
X36540195Y-65917902D01*
X36499881Y-66015228D01*
X36499878Y-66015238D01*
X36476449Y-66133022D01*
X36476450Y-66133023D01*
X36475766Y-66136462D01*
X36475766Y-67791583D01*
X36456081Y-67858622D01*
X36439447Y-67879264D01*
X36258058Y-68060653D01*
X36225128Y-68093583D01*
X36170652Y-68148058D01*
X36170651Y-68148060D01*
X36101900Y-68250953D01*
X36101800Y-68251272D01*
X36054680Y-68365029D01*
X36035275Y-68462589D01*
X36033999Y-68468998D01*
X36033998Y-68469005D01*
X36030566Y-68486261D01*
X36030566Y-68813317D01*
X36010881Y-68880356D01*
X35994247Y-68900998D01*
X35609064Y-69286181D01*
X35582136Y-69300884D01*
X35556318Y-69317477D01*
X35550117Y-69318368D01*
X35547741Y-69319666D01*
X35521383Y-69322500D01*
X35407694Y-69322500D01*
X35340655Y-69302815D01*
X35294900Y-69250011D01*
X35284755Y-69182315D01*
X35289373Y-69147239D01*
X35300500Y-69062720D01*
X35300500Y-68837280D01*
X35285687Y-68724764D01*
X35227698Y-68584767D01*
X35135451Y-68464549D01*
X35015233Y-68372302D01*
X35015229Y-68372300D01*
X34951801Y-68346027D01*
X34875236Y-68314313D01*
X34861171Y-68312461D01*
X34762727Y-68299500D01*
X34762720Y-68299500D01*
X33660330Y-68299500D01*
X33634360Y-68291874D01*
X33607616Y-68287737D01*
X33601336Y-68282177D01*
X33593291Y-68279815D01*
X33575570Y-68259364D01*
X33555304Y-68241421D01*
X33553026Y-68233347D01*
X33547536Y-68227011D01*
X33543684Y-68200223D01*
X33536337Y-68174174D01*
X33538785Y-68166153D01*
X33537592Y-68157853D01*
X33548834Y-68133234D01*
X33556737Y-68107349D01*
X33563994Y-68100039D01*
X33566617Y-68094297D01*
X33580134Y-68080924D01*
X33585543Y-68076337D01*
X33662508Y-68024911D01*
X33749911Y-67937508D01*
X34122729Y-67564690D01*
X34191401Y-67461915D01*
X34238703Y-67347717D01*
X34246594Y-67308043D01*
X34262818Y-67226487D01*
X34263415Y-67220425D01*
X34264770Y-67220558D01*
X34282503Y-67160168D01*
X34335307Y-67114413D01*
X34404465Y-67104469D01*
X34411010Y-67105590D01*
X34521155Y-67127500D01*
X34521158Y-67127500D01*
X34678844Y-67127500D01*
X34678845Y-67127499D01*
X34833497Y-67096737D01*
X34979179Y-67036394D01*
X35110289Y-66948789D01*
X35221789Y-66837289D01*
X35309394Y-66706179D01*
X35369737Y-66560497D01*
X35400500Y-66405842D01*
X35400500Y-66248158D01*
X35400500Y-66248155D01*
X35400499Y-66248153D01*
X35369738Y-66093510D01*
X35369737Y-66093503D01*
X35369735Y-66093498D01*
X35309397Y-65947827D01*
X35309390Y-65947814D01*
X35221789Y-65816711D01*
X35221786Y-65816707D01*
X35110292Y-65705213D01*
X35110288Y-65705210D01*
X34979185Y-65617609D01*
X34979176Y-65617604D01*
X34829285Y-65555518D01*
X34822352Y-65550885D01*
X34817311Y-65549789D01*
X34789057Y-65528638D01*
X34720458Y-65460039D01*
X34686973Y-65398716D01*
X34691957Y-65329024D01*
X34733829Y-65273091D01*
X34739229Y-65269269D01*
X34810289Y-65221789D01*
X34921789Y-65110289D01*
X35009394Y-64979179D01*
X35069737Y-64833497D01*
X35100500Y-64678842D01*
X35100500Y-64521158D01*
X35100500Y-64521155D01*
X35100499Y-64521153D01*
X35094004Y-64488500D01*
X35069737Y-64366503D01*
X35067130Y-64360208D01*
X35009397Y-64220827D01*
X35009390Y-64220814D01*
X34921789Y-64089711D01*
X34921786Y-64089707D01*
X34810292Y-63978213D01*
X34810288Y-63978210D01*
X34679185Y-63890609D01*
X34679172Y-63890602D01*
X34533501Y-63830264D01*
X34533489Y-63830261D01*
X34378845Y-63799500D01*
X34378842Y-63799500D01*
X34221158Y-63799500D01*
X34221155Y-63799500D01*
X34066510Y-63830261D01*
X34066498Y-63830264D01*
X33920827Y-63890602D01*
X33920814Y-63890609D01*
X33829534Y-63951602D01*
X33811487Y-63957252D01*
X33795578Y-63967477D01*
X33764618Y-63971928D01*
X33762857Y-63972480D01*
X33760643Y-63972500D01*
X33699509Y-63972500D01*
X33632470Y-63952815D01*
X33586715Y-63900011D01*
X33576771Y-63830853D01*
X33581578Y-63810182D01*
X33619708Y-63692830D01*
X33619708Y-63692829D01*
X33619709Y-63692826D01*
X33646854Y-63521438D01*
X33650500Y-63498422D01*
X33650500Y-63301577D01*
X33619709Y-63107173D01*
X33558882Y-62919970D01*
X33496029Y-62796614D01*
X33469524Y-62744595D01*
X33353828Y-62585354D01*
X33214646Y-62446172D01*
X33092500Y-62357427D01*
X33078614Y-62347338D01*
X33035949Y-62292007D01*
X33027500Y-62247020D01*
X33027500Y-61938200D01*
X33027500Y-61938197D01*
X33024449Y-61922861D01*
X33003385Y-61816965D01*
X32969938Y-61736215D01*
X32956086Y-61702772D01*
X32956079Y-61702760D01*
X32887411Y-61599992D01*
X32887408Y-61599988D01*
X32400011Y-61112591D01*
X32400006Y-61112587D01*
X32340931Y-61073115D01*
X32340929Y-61073114D01*
X32336372Y-61070069D01*
X32297233Y-61043917D01*
X32263784Y-61030062D01*
X32257580Y-61027492D01*
X32257578Y-61027491D01*
X32183035Y-60996614D01*
X32183027Y-60996612D01*
X32061807Y-60972500D01*
X32061803Y-60972500D01*
X31111803Y-60972500D01*
X30988196Y-60972500D01*
X30988194Y-60972500D01*
X30866970Y-60996613D01*
X30866960Y-60996616D01*
X30752773Y-61043913D01*
X30752760Y-61043920D01*
X30649992Y-61112588D01*
X30649988Y-61112591D01*
X30337889Y-61424692D01*
X30249992Y-61512589D01*
X30196039Y-61566542D01*
X30162589Y-61599992D01*
X30093916Y-61702769D01*
X30080061Y-61736214D01*
X30080062Y-61736215D01*
X30046615Y-61816962D01*
X30046612Y-61816972D01*
X30024628Y-61927497D01*
X30024628Y-61927501D01*
X30022500Y-61938197D01*
X30022500Y-62653370D01*
X30002815Y-62720409D01*
X29950011Y-62766164D01*
X29880853Y-62776108D01*
X29874325Y-62774990D01*
X29861803Y-62772500D01*
X29861801Y-62772500D01*
X28672979Y-62772500D01*
X28605940Y-62752815D01*
X28572662Y-62721387D01*
X28473828Y-62585354D01*
X28334646Y-62446172D01*
X28175405Y-62330476D01*
X28000029Y-62241117D01*
X27812826Y-62180290D01*
X27618422Y-62149500D01*
X27618417Y-62149500D01*
X27421583Y-62149500D01*
X27421578Y-62149500D01*
X27227173Y-62180290D01*
X27039967Y-62241118D01*
X27007794Y-62257512D01*
X26939125Y-62270408D01*
X26874384Y-62244131D01*
X26834128Y-62187024D01*
X26827500Y-62147027D01*
X26827500Y-60538196D01*
X26827499Y-60538192D01*
X26803387Y-60416972D01*
X26803386Y-60416965D01*
X26758412Y-60308392D01*
X26756764Y-60303786D01*
X26687414Y-60199996D01*
X26687413Y-60199994D01*
X26687411Y-60199992D01*
X26600008Y-60112589D01*
X26305517Y-59818098D01*
X26272032Y-59756775D01*
X26271581Y-59706225D01*
X26300500Y-59560844D01*
X26300500Y-59403155D01*
X26300499Y-59403153D01*
X26296320Y-59382142D01*
X26269737Y-59248503D01*
X26268757Y-59246137D01*
X26209397Y-59102827D01*
X26209390Y-59102814D01*
X26121789Y-58971711D01*
X26121786Y-58971707D01*
X26010292Y-58860213D01*
X26010288Y-58860210D01*
X25879185Y-58772609D01*
X25879172Y-58772602D01*
X25733501Y-58712264D01*
X25733491Y-58712261D01*
X25603345Y-58686373D01*
X25541434Y-58653988D01*
X25539856Y-58652437D01*
X25357569Y-58470150D01*
X25324084Y-58408827D01*
X25321250Y-58382469D01*
X25321250Y-53631946D01*
X25340935Y-53564907D01*
X25380153Y-53526408D01*
X25392793Y-53518610D01*
X25402253Y-53512776D01*
X25525276Y-53389753D01*
X25525708Y-53389051D01*
X25526131Y-53388671D01*
X25529757Y-53384086D01*
X25530540Y-53384705D01*
X25577652Y-53342325D01*
X25646614Y-53331099D01*
X25710698Y-53358938D01*
X25732592Y-53384205D01*
X25732743Y-53384086D01*
X25735393Y-53387437D01*
X25736790Y-53389049D01*
X25737222Y-53389749D01*
X25737225Y-53389754D01*
X25860246Y-53512775D01*
X25860250Y-53512778D01*
X26008316Y-53604107D01*
X26008319Y-53604108D01*
X26008325Y-53604112D01*
X26173475Y-53658837D01*
X26275402Y-53669250D01*
X26275407Y-53669250D01*
X26862093Y-53669250D01*
X26862098Y-53669250D01*
X26964025Y-53658837D01*
X27129175Y-53604112D01*
X27277253Y-53512776D01*
X27400276Y-53389753D01*
X27491612Y-53241675D01*
X27546337Y-53076525D01*
X27556750Y-52974598D01*
X27556750Y-51962902D01*
X27546337Y-51860975D01*
X27491612Y-51695825D01*
X27491608Y-51695819D01*
X27491607Y-51695816D01*
X27400278Y-51547750D01*
X27400277Y-51547749D01*
X27400276Y-51547747D01*
X27310180Y-51457651D01*
X27276696Y-51396327D01*
X27281680Y-51326636D01*
X27294761Y-51301078D01*
X27298535Y-51295430D01*
X27309394Y-51279179D01*
X27369737Y-51133497D01*
X27400500Y-50978842D01*
X27400500Y-50821158D01*
X27400500Y-50821155D01*
X27400499Y-50821153D01*
X27381094Y-50723600D01*
X27369737Y-50666503D01*
X27368625Y-50663819D01*
X27309397Y-50520827D01*
X27309390Y-50520814D01*
X27221789Y-50389711D01*
X27221786Y-50389707D01*
X27110292Y-50278213D01*
X27110288Y-50278210D01*
X26979185Y-50190609D01*
X26979172Y-50190602D01*
X26833501Y-50130264D01*
X26833489Y-50130261D01*
X26678845Y-50099500D01*
X26678842Y-50099500D01*
X26521158Y-50099500D01*
X26521155Y-50099500D01*
X26366510Y-50130261D01*
X26366498Y-50130264D01*
X26220827Y-50190602D01*
X26220814Y-50190609D01*
X26089711Y-50278210D01*
X26089707Y-50278213D01*
X25978213Y-50389707D01*
X25978210Y-50389711D01*
X25890609Y-50520814D01*
X25890602Y-50520827D01*
X25830264Y-50666498D01*
X25830261Y-50666510D01*
X25799500Y-50821153D01*
X25799500Y-50978846D01*
X25830261Y-51133489D01*
X25830264Y-51133501D01*
X25892662Y-51284144D01*
X25894692Y-51303030D01*
X25901623Y-51320718D01*
X25898350Y-51337050D01*
X25900131Y-51353613D01*
X25891627Y-51370601D01*
X25887895Y-51389226D01*
X25873775Y-51406264D01*
X25868856Y-51416092D01*
X25867212Y-51417824D01*
X25860961Y-51424283D01*
X25860247Y-51424724D01*
X25737224Y-51547747D01*
X25729721Y-51559910D01*
X25720361Y-51569584D01*
X25701210Y-51580453D01*
X25684840Y-51595178D01*
X25671420Y-51597361D01*
X25659596Y-51604073D01*
X25637608Y-51602863D01*
X25615878Y-51606399D01*
X25603408Y-51600981D01*
X25589832Y-51600234D01*
X25571991Y-51587330D01*
X25551796Y-51578556D01*
X25538260Y-51562935D01*
X25533218Y-51559288D01*
X25531664Y-51555322D01*
X25529907Y-51553294D01*
X25529757Y-51553414D01*
X25527109Y-51550065D01*
X25525712Y-51548453D01*
X25525278Y-51547750D01*
X25525277Y-51547749D01*
X25525276Y-51547747D01*
X25402253Y-51424724D01*
X25388259Y-51416092D01*
X25380150Y-51411090D01*
X25333427Y-51359141D01*
X25321250Y-51305553D01*
X25321250Y-49779934D01*
X25340935Y-49712895D01*
X25393739Y-49667140D01*
X25462897Y-49657196D01*
X25501546Y-49669450D01*
X25661780Y-49751094D01*
X25661779Y-49751094D01*
X25863871Y-49816757D01*
X25930000Y-49827231D01*
X25930000Y-48933012D01*
X25987007Y-48965925D01*
X26114174Y-49000000D01*
X26245826Y-49000000D01*
X26372993Y-48965925D01*
X26430000Y-48933012D01*
X26430000Y-49827230D01*
G37*
%TD.AperFunction*%
%TA.AperFunction,Conductor*%
G36*
X25452290Y-65887185D02*
G01*
X25472932Y-65903819D01*
X25624121Y-66055008D01*
X25688899Y-66119786D01*
X25711526Y-66142413D01*
X25711528Y-66142414D01*
X25814288Y-66211076D01*
X25814290Y-66211077D01*
X25814299Y-66211083D01*
X25840569Y-66221964D01*
X25840570Y-66221965D01*
X25840571Y-66221965D01*
X25928498Y-66258386D01*
X26049724Y-66282499D01*
X26049728Y-66282500D01*
X26049729Y-66282500D01*
X26049730Y-66282500D01*
X26398500Y-66282500D01*
X26465539Y-66302185D01*
X26511294Y-66354989D01*
X26522500Y-66406500D01*
X26522500Y-66680332D01*
X26515286Y-66716606D01*
X26516417Y-66716909D01*
X26514313Y-66724759D01*
X26499500Y-66837272D01*
X26499500Y-68175500D01*
X26479815Y-68242539D01*
X26427011Y-68288294D01*
X26375500Y-68299500D01*
X25037272Y-68299500D01*
X24924764Y-68314313D01*
X24916913Y-68316417D01*
X24916609Y-68315285D01*
X24880334Y-68322500D01*
X21481281Y-68322500D01*
X21451840Y-68313855D01*
X21421854Y-68307332D01*
X21416838Y-68303577D01*
X21414242Y-68302815D01*
X21393600Y-68286181D01*
X21343121Y-68235702D01*
X21309636Y-68174379D01*
X21312873Y-68109698D01*
X21317246Y-68096243D01*
X21350500Y-67886287D01*
X21350500Y-67673713D01*
X21317246Y-67463757D01*
X21251557Y-67261588D01*
X21155051Y-67072184D01*
X21155049Y-67072181D01*
X21155048Y-67072179D01*
X21030109Y-66900213D01*
X20879786Y-66749890D01*
X20707820Y-66624951D01*
X20707115Y-66624591D01*
X20699054Y-66620485D01*
X20648259Y-66572512D01*
X20631463Y-66504692D01*
X20653999Y-66438556D01*
X20699054Y-66399515D01*
X20707816Y-66395051D01*
X20762957Y-66354989D01*
X20879786Y-66270109D01*
X20879788Y-66270106D01*
X20879792Y-66270104D01*
X21030104Y-66119792D01*
X21030106Y-66119788D01*
X21030109Y-66119786D01*
X21155050Y-65947818D01*
X21161475Y-65935208D01*
X21209448Y-65884411D01*
X21271961Y-65867500D01*
X25385251Y-65867500D01*
X25452290Y-65887185D01*
G37*
%TD.AperFunction*%
%TA.AperFunction,Conductor*%
G36*
X23989596Y-53515458D02*
G01*
X24007348Y-53526408D01*
X24007350Y-53526409D01*
X24054073Y-53578358D01*
X24066250Y-53631946D01*
X24066250Y-58755557D01*
X24090362Y-58876777D01*
X24090364Y-58876785D01*
X24123211Y-58956084D01*
X24137666Y-58990982D01*
X24199172Y-59083032D01*
X24206340Y-59093759D01*
X24206344Y-59093764D01*
X24433400Y-59320819D01*
X24466885Y-59382142D01*
X24461901Y-59451833D01*
X24420030Y-59507767D01*
X24354565Y-59532184D01*
X24345719Y-59532500D01*
X23554282Y-59532500D01*
X23540301Y-59528394D01*
X23525751Y-59529173D01*
X23507449Y-59518748D01*
X23487243Y-59512815D01*
X23477702Y-59501804D01*
X23465040Y-59494592D01*
X23455279Y-59475926D01*
X23441488Y-59460011D01*
X23439414Y-59445589D01*
X23432662Y-59432677D01*
X23434541Y-59411700D01*
X23431544Y-59390853D01*
X23437710Y-59376335D01*
X23438898Y-59363086D01*
X23451517Y-59343832D01*
X23456366Y-59332418D01*
X23461121Y-59326297D01*
X23487411Y-59300008D01*
X23520937Y-59249833D01*
X23556083Y-59197233D01*
X23592467Y-59109394D01*
X23603386Y-59083034D01*
X23627500Y-58961803D01*
X23627500Y-58838197D01*
X23627500Y-54239356D01*
X23647185Y-54172317D01*
X23648398Y-54170465D01*
X23667014Y-54142604D01*
X23709394Y-54079179D01*
X23769737Y-53933497D01*
X23800500Y-53778842D01*
X23800500Y-53621158D01*
X23800500Y-53620997D01*
X23820185Y-53553958D01*
X23872989Y-53508203D01*
X23942147Y-53498259D01*
X23989596Y-53515458D01*
G37*
%TD.AperFunction*%
%TA.AperFunction,Conductor*%
G36*
X41942539Y-47020185D02*
G01*
X41988294Y-47072989D01*
X41999500Y-47124500D01*
X41999500Y-53072649D01*
X41979815Y-53139688D01*
X41927011Y-53185443D01*
X41857853Y-53195387D01*
X41806609Y-53175751D01*
X41679185Y-53090609D01*
X41679172Y-53090602D01*
X41533501Y-53030264D01*
X41533491Y-53030261D01*
X41413224Y-53006338D01*
X41351313Y-52973953D01*
X41316739Y-52913237D01*
X41316832Y-52861069D01*
X41315996Y-52860937D01*
X41327231Y-52790000D01*
X40433012Y-52790000D01*
X40465925Y-52732993D01*
X40500000Y-52605826D01*
X40500000Y-52474174D01*
X40465925Y-52347007D01*
X40433012Y-52290000D01*
X41327231Y-52290000D01*
X41316757Y-52223873D01*
X41316757Y-52223870D01*
X41251095Y-52021782D01*
X41154620Y-51832442D01*
X41029727Y-51660540D01*
X41029723Y-51660535D01*
X40916053Y-51546865D01*
X40882568Y-51485542D01*
X40887552Y-51415850D01*
X40929424Y-51359917D01*
X40960400Y-51343002D01*
X41087950Y-51295430D01*
X41092326Y-51293798D01*
X41092326Y-51293797D01*
X41092331Y-51293796D01*
X41207546Y-51207546D01*
X41293796Y-51092331D01*
X41344091Y-50957483D01*
X41350500Y-50897873D01*
X41350499Y-49102128D01*
X41344091Y-49042517D01*
X41335100Y-49018412D01*
X41293797Y-48907671D01*
X41293793Y-48907664D01*
X41207547Y-48792455D01*
X41207544Y-48792452D01*
X41092335Y-48706206D01*
X41092328Y-48706202D01*
X40957482Y-48655908D01*
X40957483Y-48655908D01*
X40897883Y-48649501D01*
X40897881Y-48649500D01*
X40897873Y-48649500D01*
X40897864Y-48649500D01*
X39102129Y-48649500D01*
X39102123Y-48649501D01*
X39042516Y-48655908D01*
X38907671Y-48706202D01*
X38907664Y-48706206D01*
X38792455Y-48792452D01*
X38792452Y-48792455D01*
X38706206Y-48907664D01*
X38706202Y-48907671D01*
X38655908Y-49042517D01*
X38649501Y-49102116D01*
X38649501Y-49102123D01*
X38649500Y-49102135D01*
X38649500Y-50897870D01*
X38649501Y-50897876D01*
X38655908Y-50957483D01*
X38706202Y-51092328D01*
X38706206Y-51092335D01*
X38792452Y-51207544D01*
X38792455Y-51207547D01*
X38907664Y-51293793D01*
X38907671Y-51293797D01*
X38969902Y-51317007D01*
X39039598Y-51343002D01*
X39095531Y-51384873D01*
X39119949Y-51450337D01*
X39105098Y-51518610D01*
X39083947Y-51546865D01*
X38970271Y-51660541D01*
X38845379Y-51832442D01*
X38748904Y-52021782D01*
X38683242Y-52223870D01*
X38683242Y-52223873D01*
X38672769Y-52290000D01*
X39566988Y-52290000D01*
X39534075Y-52347007D01*
X39500000Y-52474174D01*
X39500000Y-52605826D01*
X39534075Y-52732993D01*
X39566988Y-52790000D01*
X38672769Y-52790000D01*
X38683242Y-52856126D01*
X38683242Y-52856129D01*
X38733297Y-53010182D01*
X38735292Y-53080023D01*
X38699211Y-53139856D01*
X38636510Y-53170684D01*
X38615366Y-53172500D01*
X36432223Y-53172500D01*
X36365184Y-53152815D01*
X36319429Y-53100011D01*
X36309485Y-53030853D01*
X36314517Y-53009496D01*
X36314684Y-53008990D01*
X36315087Y-53007775D01*
X36325500Y-52905848D01*
X36325500Y-51894152D01*
X36315087Y-51792225D01*
X36260362Y-51627075D01*
X36260358Y-51627069D01*
X36260357Y-51627066D01*
X36169028Y-51479000D01*
X36169027Y-51478999D01*
X36169026Y-51478997D01*
X36046003Y-51355974D01*
X36042175Y-51353613D01*
X36023900Y-51342340D01*
X35977177Y-51290391D01*
X35965000Y-51236803D01*
X35965000Y-48775694D01*
X35940886Y-48654470D01*
X35940885Y-48654469D01*
X35940885Y-48654465D01*
X35938829Y-48649501D01*
X35893586Y-48540273D01*
X35893579Y-48540260D01*
X35824912Y-48437493D01*
X35821593Y-48434174D01*
X35737508Y-48350089D01*
X35571176Y-48183757D01*
X35400013Y-48012593D01*
X35400011Y-48012591D01*
X35386230Y-48003383D01*
X35386230Y-48003382D01*
X35297239Y-47943920D01*
X35297226Y-47943913D01*
X35263785Y-47930062D01*
X35227046Y-47914844D01*
X35172642Y-47871003D01*
X35150578Y-47804708D01*
X35150499Y-47800283D01*
X35150499Y-47602129D01*
X35150498Y-47602123D01*
X35144091Y-47542516D01*
X35093797Y-47407671D01*
X35093793Y-47407664D01*
X35007547Y-47292455D01*
X35007544Y-47292452D01*
X34915792Y-47223766D01*
X34873921Y-47167832D01*
X34868937Y-47098141D01*
X34902423Y-47036818D01*
X34963746Y-47003334D01*
X34990103Y-47000500D01*
X41875500Y-47000500D01*
X41942539Y-47020185D01*
G37*
%TD.AperFunction*%
%TA.AperFunction,Conductor*%
G36*
X24009289Y-47775185D02*
G01*
X24055044Y-47827989D01*
X24066250Y-47879500D01*
X24066250Y-51305553D01*
X24046565Y-51372592D01*
X24007350Y-51411090D01*
X23985246Y-51424724D01*
X23862221Y-51547750D01*
X23770892Y-51695816D01*
X23770887Y-51695827D01*
X23716163Y-51860973D01*
X23705750Y-51962894D01*
X23705750Y-52976825D01*
X23686065Y-53043864D01*
X23633261Y-53089619D01*
X23564103Y-53099563D01*
X23512860Y-53079927D01*
X23379190Y-52990612D01*
X23379172Y-52990602D01*
X23233501Y-52930264D01*
X23233489Y-52930261D01*
X23078845Y-52899500D01*
X23078842Y-52899500D01*
X23051500Y-52899500D01*
X22984461Y-52879815D01*
X22938706Y-52827011D01*
X22927500Y-52775500D01*
X22927500Y-50438196D01*
X22927499Y-50438195D01*
X22918853Y-50394724D01*
X22903386Y-50316966D01*
X22870710Y-50238080D01*
X22863779Y-50221348D01*
X22856086Y-50202773D01*
X22856079Y-50202760D01*
X22787412Y-50099993D01*
X22765019Y-50077600D01*
X22700008Y-50012589D01*
X22459380Y-49771961D01*
X22200011Y-49512591D01*
X22200007Y-49512588D01*
X22097239Y-49443920D01*
X22097226Y-49443913D01*
X22063785Y-49430062D01*
X21983035Y-49396614D01*
X21983027Y-49396612D01*
X21861807Y-49372500D01*
X21861803Y-49372500D01*
X21474499Y-49372500D01*
X21407460Y-49352815D01*
X21361705Y-49300011D01*
X21350499Y-49248500D01*
X21350499Y-49102129D01*
X21350498Y-49102123D01*
X21350497Y-49102116D01*
X21344091Y-49042517D01*
X21335100Y-49018412D01*
X21293797Y-48907671D01*
X21293793Y-48907664D01*
X21207547Y-48792455D01*
X21207544Y-48792452D01*
X21092335Y-48706206D01*
X21092328Y-48706202D01*
X20957482Y-48655908D01*
X20957483Y-48655908D01*
X20897883Y-48649501D01*
X20897881Y-48649500D01*
X20897873Y-48649500D01*
X20897865Y-48649500D01*
X19437280Y-48649500D01*
X19370241Y-48629815D01*
X19324486Y-48577011D01*
X19314542Y-48507853D01*
X19343567Y-48444297D01*
X19349599Y-48437819D01*
X19594426Y-48192993D01*
X19995600Y-47791819D01*
X20056923Y-47758334D01*
X20083281Y-47755500D01*
X23942250Y-47755500D01*
X24009289Y-47775185D01*
G37*
%TD.AperFunction*%
%TD*%
%TA.AperFunction,NonConductor*%
G36*
X41918834Y-76771099D02*
G01*
X41974767Y-76812971D01*
X41999184Y-76878435D01*
X41999500Y-76887281D01*
X41999500Y-99875500D01*
X41979815Y-99942539D01*
X41927011Y-99988294D01*
X41875500Y-99999500D01*
X36379993Y-99999500D01*
X36312954Y-99979815D01*
X36267199Y-99927011D01*
X36257255Y-99857853D01*
X36279842Y-99802385D01*
X36287722Y-99791591D01*
X36287729Y-99791582D01*
X36296729Y-99778582D01*
X36311772Y-99755552D01*
X36319772Y-99742552D01*
X36341605Y-99703303D01*
X36355605Y-99675303D01*
X36368224Y-99648096D01*
X36374224Y-99634096D01*
X36389303Y-99594434D01*
X36391705Y-99587230D01*
X36399298Y-99564448D01*
X36399303Y-99564434D01*
X36416756Y-99497079D01*
X36419192Y-99484087D01*
X36421586Y-99472117D01*
X36427558Y-99435320D01*
X36429298Y-99421400D01*
X36431022Y-99408470D01*
X36435500Y-99341000D01*
X36435500Y-98722281D01*
X36441738Y-98701035D01*
X36443318Y-98678947D01*
X36451390Y-98668163D01*
X36455185Y-98655242D01*
X36471918Y-98640742D01*
X36485190Y-98623014D01*
X36497810Y-98618306D01*
X36507989Y-98609487D01*
X36529906Y-98606335D01*
X36550654Y-98598597D01*
X36563814Y-98601459D01*
X36577147Y-98599543D01*
X36597290Y-98608742D01*
X36618927Y-98613449D01*
X36636652Y-98626717D01*
X36640703Y-98628568D01*
X36647181Y-98634600D01*
X36672589Y-98660008D01*
X36734862Y-98722281D01*
X36759994Y-98747413D01*
X36759996Y-98747414D01*
X36806096Y-98778217D01*
X36862767Y-98816083D01*
X36896215Y-98829937D01*
X36976965Y-98863386D01*
X37098192Y-98887499D01*
X37098196Y-98887500D01*
X37098197Y-98887500D01*
X37221803Y-98887500D01*
X38728039Y-98887500D01*
X38795078Y-98907185D01*
X38838525Y-98955208D01*
X38844949Y-98967818D01*
X38969890Y-99139786D01*
X39120213Y-99290109D01*
X39292179Y-99415048D01*
X39292181Y-99415049D01*
X39292184Y-99415051D01*
X39481588Y-99511557D01*
X39683757Y-99577246D01*
X39893713Y-99610500D01*
X39893714Y-99610500D01*
X40106286Y-99610500D01*
X40106287Y-99610500D01*
X40316243Y-99577246D01*
X40518412Y-99511557D01*
X40707816Y-99415051D01*
X40729789Y-99399086D01*
X40879786Y-99290109D01*
X40879788Y-99290106D01*
X40879792Y-99290104D01*
X41030104Y-99139792D01*
X41030106Y-99139788D01*
X41030109Y-99139786D01*
X41155048Y-98967820D01*
X41155047Y-98967820D01*
X41155051Y-98967816D01*
X41251557Y-98778412D01*
X41317246Y-98576243D01*
X41350500Y-98366287D01*
X41350500Y-98153713D01*
X41317246Y-97943757D01*
X41251557Y-97741588D01*
X41155051Y-97552184D01*
X41155049Y-97552181D01*
X41155048Y-97552179D01*
X41030109Y-97380213D01*
X40879786Y-97229890D01*
X40707820Y-97104951D01*
X40707115Y-97104591D01*
X40699054Y-97100485D01*
X40648259Y-97052512D01*
X40631463Y-96984692D01*
X40653999Y-96918556D01*
X40699054Y-96879515D01*
X40707816Y-96875051D01*
X40826018Y-96789173D01*
X40879786Y-96750109D01*
X40879788Y-96750106D01*
X40879792Y-96750104D01*
X41030104Y-96599792D01*
X41030106Y-96599788D01*
X41030109Y-96599786D01*
X41155048Y-96427820D01*
X41155047Y-96427820D01*
X41155051Y-96427816D01*
X41251557Y-96238412D01*
X41317246Y-96036243D01*
X41350500Y-95826287D01*
X41350500Y-95613713D01*
X41317246Y-95403757D01*
X41251557Y-95201588D01*
X41155051Y-95012184D01*
X41155049Y-95012181D01*
X41155048Y-95012179D01*
X41030109Y-94840213D01*
X40879786Y-94689890D01*
X40707820Y-94564951D01*
X40699600Y-94560763D01*
X40699054Y-94560485D01*
X40648259Y-94512512D01*
X40631463Y-94444692D01*
X40653999Y-94378556D01*
X40699054Y-94339515D01*
X40707816Y-94335051D01*
X40729789Y-94319086D01*
X40879786Y-94210109D01*
X40879788Y-94210106D01*
X40879792Y-94210104D01*
X41030104Y-94059792D01*
X41030106Y-94059788D01*
X41030109Y-94059786D01*
X41139086Y-93909789D01*
X41155051Y-93887816D01*
X41251557Y-93698412D01*
X41317246Y-93496243D01*
X41350500Y-93286287D01*
X41350500Y-93073713D01*
X41317246Y-92863757D01*
X41251557Y-92661588D01*
X41155051Y-92472184D01*
X41155049Y-92472181D01*
X41155048Y-92472179D01*
X41030109Y-92300213D01*
X40879786Y-92149890D01*
X40707820Y-92024951D01*
X40707115Y-92024591D01*
X40699054Y-92020485D01*
X40648259Y-91972512D01*
X40631463Y-91904692D01*
X40653999Y-91838556D01*
X40699054Y-91799515D01*
X40707816Y-91795051D01*
X40747551Y-91766182D01*
X40879786Y-91670109D01*
X40879788Y-91670106D01*
X40879792Y-91670104D01*
X41030104Y-91519792D01*
X41030106Y-91519788D01*
X41030109Y-91519786D01*
X41155048Y-91347820D01*
X41155047Y-91347820D01*
X41155051Y-91347816D01*
X41251557Y-91158412D01*
X41317246Y-90956243D01*
X41350500Y-90746287D01*
X41350500Y-90533713D01*
X41317246Y-90323757D01*
X41251557Y-90121588D01*
X41155051Y-89932184D01*
X41155049Y-89932181D01*
X41155048Y-89932179D01*
X41030109Y-89760213D01*
X40879786Y-89609890D01*
X40707820Y-89484951D01*
X40707115Y-89484591D01*
X40699054Y-89480485D01*
X40648259Y-89432512D01*
X40631463Y-89364692D01*
X40653999Y-89298556D01*
X40699054Y-89259515D01*
X40707816Y-89255051D01*
X40729789Y-89239086D01*
X40879786Y-89130109D01*
X40879788Y-89130106D01*
X40879792Y-89130104D01*
X41030104Y-88979792D01*
X41030106Y-88979788D01*
X41030109Y-88979786D01*
X41155048Y-88807820D01*
X41155047Y-88807820D01*
X41155051Y-88807816D01*
X41251557Y-88618412D01*
X41317246Y-88416243D01*
X41350500Y-88206287D01*
X41350500Y-87993713D01*
X41317246Y-87783757D01*
X41251557Y-87581588D01*
X41155051Y-87392184D01*
X41155049Y-87392181D01*
X41155048Y-87392179D01*
X41030109Y-87220213D01*
X40879786Y-87069890D01*
X40707820Y-86944951D01*
X40707115Y-86944591D01*
X40699054Y-86940485D01*
X40648259Y-86892512D01*
X40631463Y-86824692D01*
X40653999Y-86758556D01*
X40699054Y-86719515D01*
X40707816Y-86715051D01*
X40837054Y-86621155D01*
X40879786Y-86590109D01*
X40879788Y-86590106D01*
X40879792Y-86590104D01*
X41030104Y-86439792D01*
X41030106Y-86439788D01*
X41030109Y-86439786D01*
X41155048Y-86267820D01*
X41155047Y-86267820D01*
X41155051Y-86267816D01*
X41251557Y-86078412D01*
X41317246Y-85876243D01*
X41350500Y-85666287D01*
X41350500Y-85453713D01*
X41317246Y-85243757D01*
X41251557Y-85041588D01*
X41155051Y-84852184D01*
X41155049Y-84852181D01*
X41155048Y-84852179D01*
X41030109Y-84680213D01*
X40879786Y-84529890D01*
X40707820Y-84404951D01*
X40707115Y-84404591D01*
X40699054Y-84400485D01*
X40648259Y-84352512D01*
X40631463Y-84284692D01*
X40653999Y-84218556D01*
X40699054Y-84179515D01*
X40707816Y-84175051D01*
X40729789Y-84159086D01*
X40879786Y-84050109D01*
X40879788Y-84050106D01*
X40879792Y-84050104D01*
X41030104Y-83899792D01*
X41030106Y-83899788D01*
X41030109Y-83899786D01*
X41155048Y-83727820D01*
X41155047Y-83727820D01*
X41155051Y-83727816D01*
X41251557Y-83538412D01*
X41317246Y-83336243D01*
X41350500Y-83126287D01*
X41350500Y-82913713D01*
X41317246Y-82703757D01*
X41251557Y-82501588D01*
X41155051Y-82312184D01*
X41155049Y-82312181D01*
X41155048Y-82312179D01*
X41030109Y-82140213D01*
X40879786Y-81989890D01*
X40707820Y-81864951D01*
X40707115Y-81864591D01*
X40699054Y-81860485D01*
X40648259Y-81812512D01*
X40631463Y-81744692D01*
X40653999Y-81678556D01*
X40699054Y-81639515D01*
X40707816Y-81635051D01*
X40752239Y-81602776D01*
X40879786Y-81510109D01*
X40879788Y-81510106D01*
X40879792Y-81510104D01*
X41030104Y-81359792D01*
X41030106Y-81359788D01*
X41030109Y-81359786D01*
X41155048Y-81187820D01*
X41155047Y-81187820D01*
X41155051Y-81187816D01*
X41251557Y-80998412D01*
X41317246Y-80796243D01*
X41350500Y-80586287D01*
X41350500Y-80373713D01*
X41317246Y-80163757D01*
X41251557Y-79961588D01*
X41155051Y-79772184D01*
X41155049Y-79772181D01*
X41155048Y-79772179D01*
X41030109Y-79600213D01*
X40879786Y-79449890D01*
X40707820Y-79324951D01*
X40707115Y-79324591D01*
X40699054Y-79320485D01*
X40648259Y-79272512D01*
X40631463Y-79204692D01*
X40653999Y-79138556D01*
X40699054Y-79099515D01*
X40707816Y-79095051D01*
X40729789Y-79079086D01*
X40879786Y-78970109D01*
X40879788Y-78970106D01*
X40879792Y-78970104D01*
X41030104Y-78819792D01*
X41030106Y-78819788D01*
X41030109Y-78819786D01*
X41155048Y-78647820D01*
X41155047Y-78647820D01*
X41155051Y-78647816D01*
X41251557Y-78458412D01*
X41317246Y-78256243D01*
X41350500Y-78046287D01*
X41350500Y-77833713D01*
X41317246Y-77623757D01*
X41251557Y-77421588D01*
X41250255Y-77419032D01*
X41250052Y-77417954D01*
X41249690Y-77417079D01*
X41249873Y-77417002D01*
X41237360Y-77350362D01*
X41263638Y-77285622D01*
X41293189Y-77260997D01*
X41292168Y-77259468D01*
X41398378Y-77188500D01*
X41400008Y-77187411D01*
X41487411Y-77100008D01*
X41787819Y-76799600D01*
X41849142Y-76766115D01*
X41918834Y-76771099D01*
G37*
%TD.AperFunction*%
M02*
