%TF.GenerationSoftware,KiCad,Pcbnew,9.0.0*%
%TF.CreationDate,2025-02-28T11:04:11+07:00*%
%TF.ProjectId,SMT32_Bluepill,534d5433-325f-4426-9c75-6570696c6c2e,rev?*%
%TF.SameCoordinates,Original*%
%TF.FileFunction,Other,User*%
%FSLAX46Y46*%
G04 Gerber Fmt 4.6, Leading zero omitted, Abs format (unit mm)*
G04 Created by KiCad (PCBNEW 9.0.0) date 2025-02-28 11:04:11*
%MOMM*%
%LPD*%
G01*
G04 APERTURE LIST*
%ADD10C,0.050000*%
G04 APERTURE END LIST*
D10*
%TO.C,R10*%
X33520000Y-84070000D02*
X33520000Y-85530000D01*
X33520000Y-85530000D02*
X36480000Y-85530000D01*
X36480000Y-84070000D02*
X33520000Y-84070000D01*
X36480000Y-85530000D02*
X36480000Y-84070000D01*
%TO.C,R9*%
X33520000Y-80270000D02*
X33520000Y-81730000D01*
X33520000Y-81730000D02*
X36480000Y-81730000D01*
X36480000Y-80270000D02*
X33520000Y-80270000D01*
X36480000Y-81730000D02*
X36480000Y-80270000D01*
%TO.C,R11*%
X33520000Y-82170000D02*
X33520000Y-83630000D01*
X33520000Y-83630000D02*
X36480000Y-83630000D01*
X36480000Y-82170000D02*
X33520000Y-82170000D01*
X36480000Y-83630000D02*
X36480000Y-82170000D01*
%TO.C,P4*%
X18200000Y-48200000D02*
X21800000Y-48200000D01*
X18200000Y-100050000D02*
X18200000Y-48200000D01*
X21800000Y-48200000D02*
X21800000Y-100050000D01*
X21800000Y-100050000D02*
X18200000Y-100050000D01*
%TO.C,C5*%
X23475000Y-80720000D02*
X23475000Y-82680000D01*
X23475000Y-82680000D02*
X26875000Y-82680000D01*
X26875000Y-80720000D02*
X23475000Y-80720000D01*
X26875000Y-82680000D02*
X26875000Y-80720000D01*
%TO.C,C4*%
X23295000Y-61870000D02*
X23295000Y-63330000D01*
X23295000Y-63330000D02*
X26255000Y-63330000D01*
X26255000Y-61870000D02*
X23295000Y-61870000D01*
X26255000Y-63330000D02*
X26255000Y-61870000D01*
%TO.C,R1*%
X32920000Y-51670000D02*
X32920000Y-53130000D01*
X32920000Y-53130000D02*
X35880000Y-53130000D01*
X35880000Y-51670000D02*
X32920000Y-51670000D01*
X35880000Y-53130000D02*
X35880000Y-51670000D01*
%TO.C,C7*%
X23485000Y-78820000D02*
X23485000Y-80280000D01*
X23485000Y-80280000D02*
X26445000Y-80280000D01*
X26445000Y-78820000D02*
X23485000Y-78820000D01*
X26445000Y-80280000D02*
X26445000Y-78820000D01*
%TO.C,C6*%
X23125000Y-67620000D02*
X23125000Y-69580000D01*
X23125000Y-69580000D02*
X26525000Y-69580000D01*
X26525000Y-67620000D02*
X23125000Y-67620000D01*
X26525000Y-69580000D02*
X26525000Y-67620000D01*
%TO.C,R6*%
X33620000Y-70670000D02*
X33620000Y-72130000D01*
X33620000Y-72130000D02*
X36580000Y-72130000D01*
X36580000Y-70670000D02*
X33620000Y-70670000D01*
X36580000Y-72130000D02*
X36580000Y-70670000D01*
%TO.C,C14*%
X35270000Y-72720000D02*
X35270000Y-75680000D01*
X35270000Y-75680000D02*
X36730000Y-75680000D01*
X36730000Y-72720000D02*
X35270000Y-72720000D01*
X36730000Y-75680000D02*
X36730000Y-72720000D01*
%TO.C,C12*%
X33520000Y-68770000D02*
X33520000Y-70230000D01*
X33520000Y-70230000D02*
X36480000Y-70230000D01*
X36480000Y-68770000D02*
X33520000Y-68770000D01*
X36480000Y-70230000D02*
X36480000Y-68770000D01*
%TO.C,C13*%
X33370000Y-72720000D02*
X33370000Y-75680000D01*
X33370000Y-75680000D02*
X34830000Y-75680000D01*
X34830000Y-72720000D02*
X33370000Y-72720000D01*
X34830000Y-75680000D02*
X34830000Y-72720000D01*
%TO.C,C3*%
X23295000Y-59970000D02*
X23295000Y-61430000D01*
X23295000Y-61430000D02*
X26255000Y-61430000D01*
X26255000Y-59970000D02*
X23295000Y-59970000D01*
X26255000Y-61430000D02*
X26255000Y-59970000D01*
%TO.C,C11*%
X23235122Y-65670000D02*
X23235122Y-67130000D01*
X23235122Y-67130000D02*
X26195122Y-67130000D01*
X26195122Y-65670000D02*
X23235122Y-65670000D01*
X26195122Y-67130000D02*
X26195122Y-65670000D01*
%TO.C,C9*%
X33520000Y-66870000D02*
X33520000Y-68330000D01*
X33520000Y-68330000D02*
X36480000Y-68330000D01*
X36480000Y-66870000D02*
X33520000Y-66870000D01*
X36480000Y-68330000D02*
X36480000Y-66870000D01*
%TO.C,C15*%
X23345000Y-71870000D02*
X23345000Y-73330000D01*
X23345000Y-73330000D02*
X26305000Y-73330000D01*
X26305000Y-71870000D02*
X23345000Y-71870000D01*
X26305000Y-73330000D02*
X26305000Y-71870000D01*
%TO.C,R5*%
X24151250Y-51738750D02*
X24151250Y-53198750D01*
X24151250Y-53198750D02*
X27111250Y-53198750D01*
X27111250Y-51738750D02*
X24151250Y-51738750D01*
X27111250Y-53198750D02*
X27111250Y-51738750D01*
%TO.C,R4*%
X33520000Y-76470000D02*
X33520000Y-77930000D01*
X33520000Y-77930000D02*
X36480000Y-77930000D01*
X36480000Y-76470000D02*
X33520000Y-76470000D01*
X36480000Y-77930000D02*
X36480000Y-76470000D01*
%TO.C,U1*%
X23165000Y-73625000D02*
X23165000Y-77875000D01*
X23165000Y-77875000D02*
X26765000Y-77875000D01*
X26765000Y-73625000D02*
X23165000Y-73625000D01*
X26765000Y-77875000D02*
X26765000Y-73625000D01*
%TO.C,R2*%
X33520000Y-85970000D02*
X33520000Y-87430000D01*
X33520000Y-87430000D02*
X36480000Y-87430000D01*
X36480000Y-85970000D02*
X33520000Y-85970000D01*
X36480000Y-87430000D02*
X36480000Y-85970000D01*
%TO.C,C2*%
X33520000Y-87870000D02*
X33520000Y-89330000D01*
X33520000Y-89330000D02*
X36480000Y-89330000D01*
X36480000Y-87870000D02*
X33520000Y-87870000D01*
X36480000Y-89330000D02*
X36480000Y-87870000D01*
%TO.C,C8*%
X23345000Y-69970000D02*
X23345000Y-71430000D01*
X23345000Y-71430000D02*
X26305000Y-71430000D01*
X26305000Y-69970000D02*
X23345000Y-69970000D01*
X26305000Y-71430000D02*
X26305000Y-69970000D01*
%TO.C,R3*%
X33520000Y-78370000D02*
X33520000Y-79830000D01*
X33520000Y-79830000D02*
X36480000Y-79830000D01*
X36480000Y-78370000D02*
X33520000Y-78370000D01*
X36480000Y-79830000D02*
X36480000Y-78370000D01*
%TO.C,P3*%
X38200000Y-48200000D02*
X41800000Y-48200000D01*
X38200000Y-100050000D02*
X38200000Y-48200000D01*
X41800000Y-48200000D02*
X41800000Y-100050000D01*
X41800000Y-100050000D02*
X38200000Y-100050000D01*
%TO.C,C10*%
X23235122Y-63749996D02*
X23235122Y-65209996D01*
X23235122Y-65209996D02*
X26195122Y-65209996D01*
X26195122Y-63749996D02*
X23235122Y-63749996D01*
X26195122Y-65209996D02*
X26195122Y-63749996D01*
%TO.C,C1*%
X28420000Y-51738750D02*
X28420000Y-53198750D01*
X28420000Y-53198750D02*
X31380000Y-53198750D01*
X31380000Y-51738750D02*
X28420000Y-51738750D01*
X31380000Y-53198750D02*
X31380000Y-51738750D01*
%TD*%
M02*
