%TF.GenerationSoftware,KiCad,Pcbnew,9.0.0*%
%TF.CreationDate,2025-02-28T11:04:11+07:00*%
%TF.ProjectId,SMT32_Bluepill,534d5433-325f-4426-9c75-6570696c6c2e,rev?*%
%TF.SameCoordinates,Original*%
%TF.FileFunction,Paste,Top*%
%TF.FilePolarity,Positive*%
%FSLAX46Y46*%
G04 Gerber Fmt 4.6, Leading zero omitted, Abs format (unit mm)*
G04 Created by KiCad (PCBNEW 9.0.0) date 2025-02-28 11:04:11*
%MOMM*%
%LPD*%
G01*
G04 APERTURE LIST*
G04 Aperture macros list*
%AMRoundRect*
0 Rectangle with rounded corners*
0 $1 Rounding radius*
0 $2 $3 $4 $5 $6 $7 $8 $9 X,Y pos of 4 corners*
0 Add a 4 corners polygon primitive as box body*
4,1,4,$2,$3,$4,$5,$6,$7,$8,$9,$2,$3,0*
0 Add four circle primitives for the rounded corners*
1,1,$1+$1,$2,$3*
1,1,$1+$1,$4,$5*
1,1,$1+$1,$6,$7*
1,1,$1+$1,$8,$9*
0 Add four rect primitives between the rounded corners*
20,1,$1+$1,$2,$3,$4,$5,0*
20,1,$1+$1,$4,$5,$6,$7,0*
20,1,$1+$1,$6,$7,$8,$9,0*
20,1,$1+$1,$8,$9,$2,$3,0*%
G04 Aperture macros list end*
%ADD10RoundRect,0.075000X-0.075000X0.662500X-0.075000X-0.662500X0.075000X-0.662500X0.075000X0.662500X0*%
%ADD11RoundRect,0.075000X-0.662500X0.075000X-0.662500X-0.075000X0.662500X-0.075000X0.662500X0.075000X0*%
%ADD12R,0.400000X1.500000*%
%ADD13R,1.150000X1.500000*%
%ADD14R,0.558800X1.153700*%
%ADD15RoundRect,0.243750X0.243750X0.456250X-0.243750X0.456250X-0.243750X-0.456250X0.243750X-0.456250X0*%
%ADD16RoundRect,0.243750X-0.243750X-0.456250X0.243750X-0.456250X0.243750X0.456250X-0.243750X0.456250X0*%
G04 APERTURE END LIST*
D10*
%TO.C,U2*%
X32650000Y-67537500D03*
X32150000Y-67537500D03*
X31650000Y-67537500D03*
X31150000Y-67537500D03*
X30650000Y-67537500D03*
X30150000Y-67537500D03*
X29650000Y-67537500D03*
X29150000Y-67537500D03*
X28650000Y-67537500D03*
X28150000Y-67537500D03*
X27650000Y-67537500D03*
X27150000Y-67537500D03*
D11*
X25737500Y-68950000D03*
X25737500Y-69450000D03*
X25737500Y-69950000D03*
X25737500Y-70450000D03*
X25737500Y-70950000D03*
X25737500Y-71450000D03*
X25737500Y-71950000D03*
X25737500Y-72450000D03*
X25737500Y-72950000D03*
X25737500Y-73450000D03*
X25737500Y-73950000D03*
X25737500Y-74450000D03*
D10*
X27150000Y-75862500D03*
X27650000Y-75862500D03*
X28150000Y-75862500D03*
X28650000Y-75862500D03*
X29150000Y-75862500D03*
X29650000Y-75862500D03*
X30150000Y-75862500D03*
X30650000Y-75862500D03*
X31150000Y-75862500D03*
X31650000Y-75862500D03*
X32150000Y-75862500D03*
X32650000Y-75862500D03*
D11*
X34062500Y-74450000D03*
X34062500Y-73950000D03*
X34062500Y-73450000D03*
X34062500Y-72950000D03*
X34062500Y-72450000D03*
X34062500Y-71950000D03*
X34062500Y-71450000D03*
X34062500Y-70950000D03*
X34062500Y-70450000D03*
X34062500Y-69950000D03*
X34062500Y-69450000D03*
X34062500Y-68950000D03*
%TD*%
D12*
%TO.C,U3*%
X28700000Y-94550000D03*
X29350000Y-94550000D03*
X30000000Y-94550000D03*
X30650000Y-94550000D03*
X31300000Y-94550000D03*
D13*
X27675000Y-94550000D03*
X32325000Y-94550000D03*
%TD*%
D14*
%TO.C,RST1*%
X31450001Y-90781949D03*
X35149999Y-90781949D03*
X35149999Y-84218051D03*
X31450001Y-84218051D03*
%TD*%
D15*
%TO.C,D2*%
X26568750Y-52468750D03*
X24693750Y-52468750D03*
%TD*%
D16*
%TO.C,D1*%
X33462500Y-52400000D03*
X35337500Y-52400000D03*
%TD*%
M02*
