%TF.GenerationSoftware,KiCad,Pcbnew,9.0.0*%
%TF.CreationDate,2025-02-28T11:04:11+07:00*%
%TF.ProjectId,SMT32_Bluepill,534d5433-325f-4426-9c75-6570696c6c2e,rev?*%
%TF.SameCoordinates,Original*%
%TF.FileFunction,Legend,Bot*%
%TF.FilePolarity,Positive*%
%FSLAX46Y46*%
G04 Gerber Fmt 4.6, Leading zero omitted, Abs format (unit mm)*
G04 Created by KiCad (PCBNEW 9.0.0) date 2025-02-28 11:04:11*
%MOMM*%
%LPD*%
G01*
G04 APERTURE LIST*
%ADD10C,0.150000*%
%ADD11C,0.120000*%
%ADD12C,0.200000*%
G04 APERTURE END LIST*
D10*
X32242857Y-85254819D02*
X32576190Y-84778628D01*
X32814285Y-85254819D02*
X32814285Y-84254819D01*
X32814285Y-84254819D02*
X32433333Y-84254819D01*
X32433333Y-84254819D02*
X32338095Y-84302438D01*
X32338095Y-84302438D02*
X32290476Y-84350057D01*
X32290476Y-84350057D02*
X32242857Y-84445295D01*
X32242857Y-84445295D02*
X32242857Y-84588152D01*
X32242857Y-84588152D02*
X32290476Y-84683390D01*
X32290476Y-84683390D02*
X32338095Y-84731009D01*
X32338095Y-84731009D02*
X32433333Y-84778628D01*
X32433333Y-84778628D02*
X32814285Y-84778628D01*
X31290476Y-85254819D02*
X31861904Y-85254819D01*
X31576190Y-85254819D02*
X31576190Y-84254819D01*
X31576190Y-84254819D02*
X31671428Y-84397676D01*
X31671428Y-84397676D02*
X31766666Y-84492914D01*
X31766666Y-84492914D02*
X31861904Y-84540533D01*
X30671428Y-84254819D02*
X30576190Y-84254819D01*
X30576190Y-84254819D02*
X30480952Y-84302438D01*
X30480952Y-84302438D02*
X30433333Y-84350057D01*
X30433333Y-84350057D02*
X30385714Y-84445295D01*
X30385714Y-84445295D02*
X30338095Y-84635771D01*
X30338095Y-84635771D02*
X30338095Y-84873866D01*
X30338095Y-84873866D02*
X30385714Y-85064342D01*
X30385714Y-85064342D02*
X30433333Y-85159580D01*
X30433333Y-85159580D02*
X30480952Y-85207200D01*
X30480952Y-85207200D02*
X30576190Y-85254819D01*
X30576190Y-85254819D02*
X30671428Y-85254819D01*
X30671428Y-85254819D02*
X30766666Y-85207200D01*
X30766666Y-85207200D02*
X30814285Y-85159580D01*
X30814285Y-85159580D02*
X30861904Y-85064342D01*
X30861904Y-85064342D02*
X30909523Y-84873866D01*
X30909523Y-84873866D02*
X30909523Y-84635771D01*
X30909523Y-84635771D02*
X30861904Y-84445295D01*
X30861904Y-84445295D02*
X30814285Y-84350057D01*
X30814285Y-84350057D02*
X30766666Y-84302438D01*
X30766666Y-84302438D02*
X30671428Y-84254819D01*
X32266666Y-81454819D02*
X32599999Y-80978628D01*
X32838094Y-81454819D02*
X32838094Y-80454819D01*
X32838094Y-80454819D02*
X32457142Y-80454819D01*
X32457142Y-80454819D02*
X32361904Y-80502438D01*
X32361904Y-80502438D02*
X32314285Y-80550057D01*
X32314285Y-80550057D02*
X32266666Y-80645295D01*
X32266666Y-80645295D02*
X32266666Y-80788152D01*
X32266666Y-80788152D02*
X32314285Y-80883390D01*
X32314285Y-80883390D02*
X32361904Y-80931009D01*
X32361904Y-80931009D02*
X32457142Y-80978628D01*
X32457142Y-80978628D02*
X32838094Y-80978628D01*
X31790475Y-81454819D02*
X31599999Y-81454819D01*
X31599999Y-81454819D02*
X31504761Y-81407200D01*
X31504761Y-81407200D02*
X31457142Y-81359580D01*
X31457142Y-81359580D02*
X31361904Y-81216723D01*
X31361904Y-81216723D02*
X31314285Y-81026247D01*
X31314285Y-81026247D02*
X31314285Y-80645295D01*
X31314285Y-80645295D02*
X31361904Y-80550057D01*
X31361904Y-80550057D02*
X31409523Y-80502438D01*
X31409523Y-80502438D02*
X31504761Y-80454819D01*
X31504761Y-80454819D02*
X31695237Y-80454819D01*
X31695237Y-80454819D02*
X31790475Y-80502438D01*
X31790475Y-80502438D02*
X31838094Y-80550057D01*
X31838094Y-80550057D02*
X31885713Y-80645295D01*
X31885713Y-80645295D02*
X31885713Y-80883390D01*
X31885713Y-80883390D02*
X31838094Y-80978628D01*
X31838094Y-80978628D02*
X31790475Y-81026247D01*
X31790475Y-81026247D02*
X31695237Y-81073866D01*
X31695237Y-81073866D02*
X31504761Y-81073866D01*
X31504761Y-81073866D02*
X31409523Y-81026247D01*
X31409523Y-81026247D02*
X31361904Y-80978628D01*
X31361904Y-80978628D02*
X31314285Y-80883390D01*
X32242857Y-83454819D02*
X32576190Y-82978628D01*
X32814285Y-83454819D02*
X32814285Y-82454819D01*
X32814285Y-82454819D02*
X32433333Y-82454819D01*
X32433333Y-82454819D02*
X32338095Y-82502438D01*
X32338095Y-82502438D02*
X32290476Y-82550057D01*
X32290476Y-82550057D02*
X32242857Y-82645295D01*
X32242857Y-82645295D02*
X32242857Y-82788152D01*
X32242857Y-82788152D02*
X32290476Y-82883390D01*
X32290476Y-82883390D02*
X32338095Y-82931009D01*
X32338095Y-82931009D02*
X32433333Y-82978628D01*
X32433333Y-82978628D02*
X32814285Y-82978628D01*
X31290476Y-83454819D02*
X31861904Y-83454819D01*
X31576190Y-83454819D02*
X31576190Y-82454819D01*
X31576190Y-82454819D02*
X31671428Y-82597676D01*
X31671428Y-82597676D02*
X31766666Y-82692914D01*
X31766666Y-82692914D02*
X31861904Y-82740533D01*
X30338095Y-83454819D02*
X30909523Y-83454819D01*
X30623809Y-83454819D02*
X30623809Y-82454819D01*
X30623809Y-82454819D02*
X30719047Y-82597676D01*
X30719047Y-82597676D02*
X30814285Y-82692914D01*
X30814285Y-82692914D02*
X30909523Y-82740533D01*
X28441666Y-82059580D02*
X28489285Y-82107200D01*
X28489285Y-82107200D02*
X28632142Y-82154819D01*
X28632142Y-82154819D02*
X28727380Y-82154819D01*
X28727380Y-82154819D02*
X28870237Y-82107200D01*
X28870237Y-82107200D02*
X28965475Y-82011961D01*
X28965475Y-82011961D02*
X29013094Y-81916723D01*
X29013094Y-81916723D02*
X29060713Y-81726247D01*
X29060713Y-81726247D02*
X29060713Y-81583390D01*
X29060713Y-81583390D02*
X29013094Y-81392914D01*
X29013094Y-81392914D02*
X28965475Y-81297676D01*
X28965475Y-81297676D02*
X28870237Y-81202438D01*
X28870237Y-81202438D02*
X28727380Y-81154819D01*
X28727380Y-81154819D02*
X28632142Y-81154819D01*
X28632142Y-81154819D02*
X28489285Y-81202438D01*
X28489285Y-81202438D02*
X28441666Y-81250057D01*
X27536904Y-81154819D02*
X28013094Y-81154819D01*
X28013094Y-81154819D02*
X28060713Y-81631009D01*
X28060713Y-81631009D02*
X28013094Y-81583390D01*
X28013094Y-81583390D02*
X27917856Y-81535771D01*
X27917856Y-81535771D02*
X27679761Y-81535771D01*
X27679761Y-81535771D02*
X27584523Y-81583390D01*
X27584523Y-81583390D02*
X27536904Y-81631009D01*
X27536904Y-81631009D02*
X27489285Y-81726247D01*
X27489285Y-81726247D02*
X27489285Y-81964342D01*
X27489285Y-81964342D02*
X27536904Y-82059580D01*
X27536904Y-82059580D02*
X27584523Y-82107200D01*
X27584523Y-82107200D02*
X27679761Y-82154819D01*
X27679761Y-82154819D02*
X27917856Y-82154819D01*
X27917856Y-82154819D02*
X28013094Y-82107200D01*
X28013094Y-82107200D02*
X28060713Y-82059580D01*
X28066666Y-62459580D02*
X28114285Y-62507200D01*
X28114285Y-62507200D02*
X28257142Y-62554819D01*
X28257142Y-62554819D02*
X28352380Y-62554819D01*
X28352380Y-62554819D02*
X28495237Y-62507200D01*
X28495237Y-62507200D02*
X28590475Y-62411961D01*
X28590475Y-62411961D02*
X28638094Y-62316723D01*
X28638094Y-62316723D02*
X28685713Y-62126247D01*
X28685713Y-62126247D02*
X28685713Y-61983390D01*
X28685713Y-61983390D02*
X28638094Y-61792914D01*
X28638094Y-61792914D02*
X28590475Y-61697676D01*
X28590475Y-61697676D02*
X28495237Y-61602438D01*
X28495237Y-61602438D02*
X28352380Y-61554819D01*
X28352380Y-61554819D02*
X28257142Y-61554819D01*
X28257142Y-61554819D02*
X28114285Y-61602438D01*
X28114285Y-61602438D02*
X28066666Y-61650057D01*
X27209523Y-61888152D02*
X27209523Y-62554819D01*
X27447618Y-61507200D02*
X27685713Y-62221485D01*
X27685713Y-62221485D02*
X27066666Y-62221485D01*
X34566666Y-54723569D02*
X34899999Y-54247378D01*
X35138094Y-54723569D02*
X35138094Y-53723569D01*
X35138094Y-53723569D02*
X34757142Y-53723569D01*
X34757142Y-53723569D02*
X34661904Y-53771188D01*
X34661904Y-53771188D02*
X34614285Y-53818807D01*
X34614285Y-53818807D02*
X34566666Y-53914045D01*
X34566666Y-53914045D02*
X34566666Y-54056902D01*
X34566666Y-54056902D02*
X34614285Y-54152140D01*
X34614285Y-54152140D02*
X34661904Y-54199759D01*
X34661904Y-54199759D02*
X34757142Y-54247378D01*
X34757142Y-54247378D02*
X35138094Y-54247378D01*
X33614285Y-54723569D02*
X34185713Y-54723569D01*
X33899999Y-54723569D02*
X33899999Y-53723569D01*
X33899999Y-53723569D02*
X33995237Y-53866426D01*
X33995237Y-53866426D02*
X34090475Y-53961664D01*
X34090475Y-53961664D02*
X34185713Y-54009283D01*
X28466666Y-79959580D02*
X28514285Y-80007200D01*
X28514285Y-80007200D02*
X28657142Y-80054819D01*
X28657142Y-80054819D02*
X28752380Y-80054819D01*
X28752380Y-80054819D02*
X28895237Y-80007200D01*
X28895237Y-80007200D02*
X28990475Y-79911961D01*
X28990475Y-79911961D02*
X29038094Y-79816723D01*
X29038094Y-79816723D02*
X29085713Y-79626247D01*
X29085713Y-79626247D02*
X29085713Y-79483390D01*
X29085713Y-79483390D02*
X29038094Y-79292914D01*
X29038094Y-79292914D02*
X28990475Y-79197676D01*
X28990475Y-79197676D02*
X28895237Y-79102438D01*
X28895237Y-79102438D02*
X28752380Y-79054819D01*
X28752380Y-79054819D02*
X28657142Y-79054819D01*
X28657142Y-79054819D02*
X28514285Y-79102438D01*
X28514285Y-79102438D02*
X28466666Y-79150057D01*
X28133332Y-79054819D02*
X27466666Y-79054819D01*
X27466666Y-79054819D02*
X27895237Y-80054819D01*
X28266666Y-68959580D02*
X28314285Y-69007200D01*
X28314285Y-69007200D02*
X28457142Y-69054819D01*
X28457142Y-69054819D02*
X28552380Y-69054819D01*
X28552380Y-69054819D02*
X28695237Y-69007200D01*
X28695237Y-69007200D02*
X28790475Y-68911961D01*
X28790475Y-68911961D02*
X28838094Y-68816723D01*
X28838094Y-68816723D02*
X28885713Y-68626247D01*
X28885713Y-68626247D02*
X28885713Y-68483390D01*
X28885713Y-68483390D02*
X28838094Y-68292914D01*
X28838094Y-68292914D02*
X28790475Y-68197676D01*
X28790475Y-68197676D02*
X28695237Y-68102438D01*
X28695237Y-68102438D02*
X28552380Y-68054819D01*
X28552380Y-68054819D02*
X28457142Y-68054819D01*
X28457142Y-68054819D02*
X28314285Y-68102438D01*
X28314285Y-68102438D02*
X28266666Y-68150057D01*
X27409523Y-68054819D02*
X27599999Y-68054819D01*
X27599999Y-68054819D02*
X27695237Y-68102438D01*
X27695237Y-68102438D02*
X27742856Y-68150057D01*
X27742856Y-68150057D02*
X27838094Y-68292914D01*
X27838094Y-68292914D02*
X27885713Y-68483390D01*
X27885713Y-68483390D02*
X27885713Y-68864342D01*
X27885713Y-68864342D02*
X27838094Y-68959580D01*
X27838094Y-68959580D02*
X27790475Y-69007200D01*
X27790475Y-69007200D02*
X27695237Y-69054819D01*
X27695237Y-69054819D02*
X27504761Y-69054819D01*
X27504761Y-69054819D02*
X27409523Y-69007200D01*
X27409523Y-69007200D02*
X27361904Y-68959580D01*
X27361904Y-68959580D02*
X27314285Y-68864342D01*
X27314285Y-68864342D02*
X27314285Y-68626247D01*
X27314285Y-68626247D02*
X27361904Y-68531009D01*
X27361904Y-68531009D02*
X27409523Y-68483390D01*
X27409523Y-68483390D02*
X27504761Y-68435771D01*
X27504761Y-68435771D02*
X27695237Y-68435771D01*
X27695237Y-68435771D02*
X27790475Y-68483390D01*
X27790475Y-68483390D02*
X27838094Y-68531009D01*
X27838094Y-68531009D02*
X27885713Y-68626247D01*
X32166666Y-71854819D02*
X32499999Y-71378628D01*
X32738094Y-71854819D02*
X32738094Y-70854819D01*
X32738094Y-70854819D02*
X32357142Y-70854819D01*
X32357142Y-70854819D02*
X32261904Y-70902438D01*
X32261904Y-70902438D02*
X32214285Y-70950057D01*
X32214285Y-70950057D02*
X32166666Y-71045295D01*
X32166666Y-71045295D02*
X32166666Y-71188152D01*
X32166666Y-71188152D02*
X32214285Y-71283390D01*
X32214285Y-71283390D02*
X32261904Y-71331009D01*
X32261904Y-71331009D02*
X32357142Y-71378628D01*
X32357142Y-71378628D02*
X32738094Y-71378628D01*
X31309523Y-70854819D02*
X31499999Y-70854819D01*
X31499999Y-70854819D02*
X31595237Y-70902438D01*
X31595237Y-70902438D02*
X31642856Y-70950057D01*
X31642856Y-70950057D02*
X31738094Y-71092914D01*
X31738094Y-71092914D02*
X31785713Y-71283390D01*
X31785713Y-71283390D02*
X31785713Y-71664342D01*
X31785713Y-71664342D02*
X31738094Y-71759580D01*
X31738094Y-71759580D02*
X31690475Y-71807200D01*
X31690475Y-71807200D02*
X31595237Y-71854819D01*
X31595237Y-71854819D02*
X31404761Y-71854819D01*
X31404761Y-71854819D02*
X31309523Y-71807200D01*
X31309523Y-71807200D02*
X31261904Y-71759580D01*
X31261904Y-71759580D02*
X31214285Y-71664342D01*
X31214285Y-71664342D02*
X31214285Y-71426247D01*
X31214285Y-71426247D02*
X31261904Y-71331009D01*
X31261904Y-71331009D02*
X31309523Y-71283390D01*
X31309523Y-71283390D02*
X31404761Y-71235771D01*
X31404761Y-71235771D02*
X31595237Y-71235771D01*
X31595237Y-71235771D02*
X31690475Y-71283390D01*
X31690475Y-71283390D02*
X31738094Y-71331009D01*
X31738094Y-71331009D02*
X31785713Y-71426247D01*
X32659580Y-73657142D02*
X32707200Y-73609523D01*
X32707200Y-73609523D02*
X32754819Y-73466666D01*
X32754819Y-73466666D02*
X32754819Y-73371428D01*
X32754819Y-73371428D02*
X32707200Y-73228571D01*
X32707200Y-73228571D02*
X32611961Y-73133333D01*
X32611961Y-73133333D02*
X32516723Y-73085714D01*
X32516723Y-73085714D02*
X32326247Y-73038095D01*
X32326247Y-73038095D02*
X32183390Y-73038095D01*
X32183390Y-73038095D02*
X31992914Y-73085714D01*
X31992914Y-73085714D02*
X31897676Y-73133333D01*
X31897676Y-73133333D02*
X31802438Y-73228571D01*
X31802438Y-73228571D02*
X31754819Y-73371428D01*
X31754819Y-73371428D02*
X31754819Y-73466666D01*
X31754819Y-73466666D02*
X31802438Y-73609523D01*
X31802438Y-73609523D02*
X31850057Y-73657142D01*
X32754819Y-74609523D02*
X32754819Y-74038095D01*
X32754819Y-74323809D02*
X31754819Y-74323809D01*
X31754819Y-74323809D02*
X31897676Y-74228571D01*
X31897676Y-74228571D02*
X31992914Y-74133333D01*
X31992914Y-74133333D02*
X32040533Y-74038095D01*
X32088152Y-75466666D02*
X32754819Y-75466666D01*
X31707200Y-75228571D02*
X32421485Y-74990476D01*
X32421485Y-74990476D02*
X32421485Y-75609523D01*
X32142857Y-69759580D02*
X32190476Y-69807200D01*
X32190476Y-69807200D02*
X32333333Y-69854819D01*
X32333333Y-69854819D02*
X32428571Y-69854819D01*
X32428571Y-69854819D02*
X32571428Y-69807200D01*
X32571428Y-69807200D02*
X32666666Y-69711961D01*
X32666666Y-69711961D02*
X32714285Y-69616723D01*
X32714285Y-69616723D02*
X32761904Y-69426247D01*
X32761904Y-69426247D02*
X32761904Y-69283390D01*
X32761904Y-69283390D02*
X32714285Y-69092914D01*
X32714285Y-69092914D02*
X32666666Y-68997676D01*
X32666666Y-68997676D02*
X32571428Y-68902438D01*
X32571428Y-68902438D02*
X32428571Y-68854819D01*
X32428571Y-68854819D02*
X32333333Y-68854819D01*
X32333333Y-68854819D02*
X32190476Y-68902438D01*
X32190476Y-68902438D02*
X32142857Y-68950057D01*
X31190476Y-69854819D02*
X31761904Y-69854819D01*
X31476190Y-69854819D02*
X31476190Y-68854819D01*
X31476190Y-68854819D02*
X31571428Y-68997676D01*
X31571428Y-68997676D02*
X31666666Y-69092914D01*
X31666666Y-69092914D02*
X31761904Y-69140533D01*
X30809523Y-68950057D02*
X30761904Y-68902438D01*
X30761904Y-68902438D02*
X30666666Y-68854819D01*
X30666666Y-68854819D02*
X30428571Y-68854819D01*
X30428571Y-68854819D02*
X30333333Y-68902438D01*
X30333333Y-68902438D02*
X30285714Y-68950057D01*
X30285714Y-68950057D02*
X30238095Y-69045295D01*
X30238095Y-69045295D02*
X30238095Y-69140533D01*
X30238095Y-69140533D02*
X30285714Y-69283390D01*
X30285714Y-69283390D02*
X30857142Y-69854819D01*
X30857142Y-69854819D02*
X30238095Y-69854819D01*
X31159580Y-73657142D02*
X31207200Y-73609523D01*
X31207200Y-73609523D02*
X31254819Y-73466666D01*
X31254819Y-73466666D02*
X31254819Y-73371428D01*
X31254819Y-73371428D02*
X31207200Y-73228571D01*
X31207200Y-73228571D02*
X31111961Y-73133333D01*
X31111961Y-73133333D02*
X31016723Y-73085714D01*
X31016723Y-73085714D02*
X30826247Y-73038095D01*
X30826247Y-73038095D02*
X30683390Y-73038095D01*
X30683390Y-73038095D02*
X30492914Y-73085714D01*
X30492914Y-73085714D02*
X30397676Y-73133333D01*
X30397676Y-73133333D02*
X30302438Y-73228571D01*
X30302438Y-73228571D02*
X30254819Y-73371428D01*
X30254819Y-73371428D02*
X30254819Y-73466666D01*
X30254819Y-73466666D02*
X30302438Y-73609523D01*
X30302438Y-73609523D02*
X30350057Y-73657142D01*
X31254819Y-74609523D02*
X31254819Y-74038095D01*
X31254819Y-74323809D02*
X30254819Y-74323809D01*
X30254819Y-74323809D02*
X30397676Y-74228571D01*
X30397676Y-74228571D02*
X30492914Y-74133333D01*
X30492914Y-74133333D02*
X30540533Y-74038095D01*
X30254819Y-74942857D02*
X30254819Y-75561904D01*
X30254819Y-75561904D02*
X30635771Y-75228571D01*
X30635771Y-75228571D02*
X30635771Y-75371428D01*
X30635771Y-75371428D02*
X30683390Y-75466666D01*
X30683390Y-75466666D02*
X30731009Y-75514285D01*
X30731009Y-75514285D02*
X30826247Y-75561904D01*
X30826247Y-75561904D02*
X31064342Y-75561904D01*
X31064342Y-75561904D02*
X31159580Y-75514285D01*
X31159580Y-75514285D02*
X31207200Y-75466666D01*
X31207200Y-75466666D02*
X31254819Y-75371428D01*
X31254819Y-75371428D02*
X31254819Y-75085714D01*
X31254819Y-75085714D02*
X31207200Y-74990476D01*
X31207200Y-74990476D02*
X31159580Y-74942857D01*
X28066666Y-61059580D02*
X28114285Y-61107200D01*
X28114285Y-61107200D02*
X28257142Y-61154819D01*
X28257142Y-61154819D02*
X28352380Y-61154819D01*
X28352380Y-61154819D02*
X28495237Y-61107200D01*
X28495237Y-61107200D02*
X28590475Y-61011961D01*
X28590475Y-61011961D02*
X28638094Y-60916723D01*
X28638094Y-60916723D02*
X28685713Y-60726247D01*
X28685713Y-60726247D02*
X28685713Y-60583390D01*
X28685713Y-60583390D02*
X28638094Y-60392914D01*
X28638094Y-60392914D02*
X28590475Y-60297676D01*
X28590475Y-60297676D02*
X28495237Y-60202438D01*
X28495237Y-60202438D02*
X28352380Y-60154819D01*
X28352380Y-60154819D02*
X28257142Y-60154819D01*
X28257142Y-60154819D02*
X28114285Y-60202438D01*
X28114285Y-60202438D02*
X28066666Y-60250057D01*
X27733332Y-60154819D02*
X27114285Y-60154819D01*
X27114285Y-60154819D02*
X27447618Y-60535771D01*
X27447618Y-60535771D02*
X27304761Y-60535771D01*
X27304761Y-60535771D02*
X27209523Y-60583390D01*
X27209523Y-60583390D02*
X27161904Y-60631009D01*
X27161904Y-60631009D02*
X27114285Y-60726247D01*
X27114285Y-60726247D02*
X27114285Y-60964342D01*
X27114285Y-60964342D02*
X27161904Y-61059580D01*
X27161904Y-61059580D02*
X27209523Y-61107200D01*
X27209523Y-61107200D02*
X27304761Y-61154819D01*
X27304761Y-61154819D02*
X27590475Y-61154819D01*
X27590475Y-61154819D02*
X27685713Y-61107200D01*
X27685713Y-61107200D02*
X27733332Y-61059580D01*
X28942857Y-66759580D02*
X28990476Y-66807200D01*
X28990476Y-66807200D02*
X29133333Y-66854819D01*
X29133333Y-66854819D02*
X29228571Y-66854819D01*
X29228571Y-66854819D02*
X29371428Y-66807200D01*
X29371428Y-66807200D02*
X29466666Y-66711961D01*
X29466666Y-66711961D02*
X29514285Y-66616723D01*
X29514285Y-66616723D02*
X29561904Y-66426247D01*
X29561904Y-66426247D02*
X29561904Y-66283390D01*
X29561904Y-66283390D02*
X29514285Y-66092914D01*
X29514285Y-66092914D02*
X29466666Y-65997676D01*
X29466666Y-65997676D02*
X29371428Y-65902438D01*
X29371428Y-65902438D02*
X29228571Y-65854819D01*
X29228571Y-65854819D02*
X29133333Y-65854819D01*
X29133333Y-65854819D02*
X28990476Y-65902438D01*
X28990476Y-65902438D02*
X28942857Y-65950057D01*
X27990476Y-66854819D02*
X28561904Y-66854819D01*
X28276190Y-66854819D02*
X28276190Y-65854819D01*
X28276190Y-65854819D02*
X28371428Y-65997676D01*
X28371428Y-65997676D02*
X28466666Y-66092914D01*
X28466666Y-66092914D02*
X28561904Y-66140533D01*
X27038095Y-66854819D02*
X27609523Y-66854819D01*
X27323809Y-66854819D02*
X27323809Y-65854819D01*
X27323809Y-65854819D02*
X27419047Y-65997676D01*
X27419047Y-65997676D02*
X27514285Y-66092914D01*
X27514285Y-66092914D02*
X27609523Y-66140533D01*
X32166666Y-67959580D02*
X32214285Y-68007200D01*
X32214285Y-68007200D02*
X32357142Y-68054819D01*
X32357142Y-68054819D02*
X32452380Y-68054819D01*
X32452380Y-68054819D02*
X32595237Y-68007200D01*
X32595237Y-68007200D02*
X32690475Y-67911961D01*
X32690475Y-67911961D02*
X32738094Y-67816723D01*
X32738094Y-67816723D02*
X32785713Y-67626247D01*
X32785713Y-67626247D02*
X32785713Y-67483390D01*
X32785713Y-67483390D02*
X32738094Y-67292914D01*
X32738094Y-67292914D02*
X32690475Y-67197676D01*
X32690475Y-67197676D02*
X32595237Y-67102438D01*
X32595237Y-67102438D02*
X32452380Y-67054819D01*
X32452380Y-67054819D02*
X32357142Y-67054819D01*
X32357142Y-67054819D02*
X32214285Y-67102438D01*
X32214285Y-67102438D02*
X32166666Y-67150057D01*
X31690475Y-68054819D02*
X31499999Y-68054819D01*
X31499999Y-68054819D02*
X31404761Y-68007200D01*
X31404761Y-68007200D02*
X31357142Y-67959580D01*
X31357142Y-67959580D02*
X31261904Y-67816723D01*
X31261904Y-67816723D02*
X31214285Y-67626247D01*
X31214285Y-67626247D02*
X31214285Y-67245295D01*
X31214285Y-67245295D02*
X31261904Y-67150057D01*
X31261904Y-67150057D02*
X31309523Y-67102438D01*
X31309523Y-67102438D02*
X31404761Y-67054819D01*
X31404761Y-67054819D02*
X31595237Y-67054819D01*
X31595237Y-67054819D02*
X31690475Y-67102438D01*
X31690475Y-67102438D02*
X31738094Y-67150057D01*
X31738094Y-67150057D02*
X31785713Y-67245295D01*
X31785713Y-67245295D02*
X31785713Y-67483390D01*
X31785713Y-67483390D02*
X31738094Y-67578628D01*
X31738094Y-67578628D02*
X31690475Y-67626247D01*
X31690475Y-67626247D02*
X31595237Y-67673866D01*
X31595237Y-67673866D02*
X31404761Y-67673866D01*
X31404761Y-67673866D02*
X31309523Y-67626247D01*
X31309523Y-67626247D02*
X31261904Y-67578628D01*
X31261904Y-67578628D02*
X31214285Y-67483390D01*
X29042857Y-73059580D02*
X29090476Y-73107200D01*
X29090476Y-73107200D02*
X29233333Y-73154819D01*
X29233333Y-73154819D02*
X29328571Y-73154819D01*
X29328571Y-73154819D02*
X29471428Y-73107200D01*
X29471428Y-73107200D02*
X29566666Y-73011961D01*
X29566666Y-73011961D02*
X29614285Y-72916723D01*
X29614285Y-72916723D02*
X29661904Y-72726247D01*
X29661904Y-72726247D02*
X29661904Y-72583390D01*
X29661904Y-72583390D02*
X29614285Y-72392914D01*
X29614285Y-72392914D02*
X29566666Y-72297676D01*
X29566666Y-72297676D02*
X29471428Y-72202438D01*
X29471428Y-72202438D02*
X29328571Y-72154819D01*
X29328571Y-72154819D02*
X29233333Y-72154819D01*
X29233333Y-72154819D02*
X29090476Y-72202438D01*
X29090476Y-72202438D02*
X29042857Y-72250057D01*
X28090476Y-73154819D02*
X28661904Y-73154819D01*
X28376190Y-73154819D02*
X28376190Y-72154819D01*
X28376190Y-72154819D02*
X28471428Y-72297676D01*
X28471428Y-72297676D02*
X28566666Y-72392914D01*
X28566666Y-72392914D02*
X28661904Y-72440533D01*
X27185714Y-72154819D02*
X27661904Y-72154819D01*
X27661904Y-72154819D02*
X27709523Y-72631009D01*
X27709523Y-72631009D02*
X27661904Y-72583390D01*
X27661904Y-72583390D02*
X27566666Y-72535771D01*
X27566666Y-72535771D02*
X27328571Y-72535771D01*
X27328571Y-72535771D02*
X27233333Y-72583390D01*
X27233333Y-72583390D02*
X27185714Y-72631009D01*
X27185714Y-72631009D02*
X27138095Y-72726247D01*
X27138095Y-72726247D02*
X27138095Y-72964342D01*
X27138095Y-72964342D02*
X27185714Y-73059580D01*
X27185714Y-73059580D02*
X27233333Y-73107200D01*
X27233333Y-73107200D02*
X27328571Y-73154819D01*
X27328571Y-73154819D02*
X27566666Y-73154819D01*
X27566666Y-73154819D02*
X27661904Y-73107200D01*
X27661904Y-73107200D02*
X27709523Y-73059580D01*
X25797916Y-54753569D02*
X26131249Y-54277378D01*
X26369344Y-54753569D02*
X26369344Y-53753569D01*
X26369344Y-53753569D02*
X25988392Y-53753569D01*
X25988392Y-53753569D02*
X25893154Y-53801188D01*
X25893154Y-53801188D02*
X25845535Y-53848807D01*
X25845535Y-53848807D02*
X25797916Y-53944045D01*
X25797916Y-53944045D02*
X25797916Y-54086902D01*
X25797916Y-54086902D02*
X25845535Y-54182140D01*
X25845535Y-54182140D02*
X25893154Y-54229759D01*
X25893154Y-54229759D02*
X25988392Y-54277378D01*
X25988392Y-54277378D02*
X26369344Y-54277378D01*
X24893154Y-53753569D02*
X25369344Y-53753569D01*
X25369344Y-53753569D02*
X25416963Y-54229759D01*
X25416963Y-54229759D02*
X25369344Y-54182140D01*
X25369344Y-54182140D02*
X25274106Y-54134521D01*
X25274106Y-54134521D02*
X25036011Y-54134521D01*
X25036011Y-54134521D02*
X24940773Y-54182140D01*
X24940773Y-54182140D02*
X24893154Y-54229759D01*
X24893154Y-54229759D02*
X24845535Y-54324997D01*
X24845535Y-54324997D02*
X24845535Y-54563092D01*
X24845535Y-54563092D02*
X24893154Y-54658330D01*
X24893154Y-54658330D02*
X24940773Y-54705950D01*
X24940773Y-54705950D02*
X25036011Y-54753569D01*
X25036011Y-54753569D02*
X25274106Y-54753569D01*
X25274106Y-54753569D02*
X25369344Y-54705950D01*
X25369344Y-54705950D02*
X25416963Y-54658330D01*
X32266666Y-77654819D02*
X32599999Y-77178628D01*
X32838094Y-77654819D02*
X32838094Y-76654819D01*
X32838094Y-76654819D02*
X32457142Y-76654819D01*
X32457142Y-76654819D02*
X32361904Y-76702438D01*
X32361904Y-76702438D02*
X32314285Y-76750057D01*
X32314285Y-76750057D02*
X32266666Y-76845295D01*
X32266666Y-76845295D02*
X32266666Y-76988152D01*
X32266666Y-76988152D02*
X32314285Y-77083390D01*
X32314285Y-77083390D02*
X32361904Y-77131009D01*
X32361904Y-77131009D02*
X32457142Y-77178628D01*
X32457142Y-77178628D02*
X32838094Y-77178628D01*
X31409523Y-76988152D02*
X31409523Y-77654819D01*
X31647618Y-76607200D02*
X31885713Y-77321485D01*
X31885713Y-77321485D02*
X31266666Y-77321485D01*
X28836904Y-75204819D02*
X28836904Y-76014342D01*
X28836904Y-76014342D02*
X28789285Y-76109580D01*
X28789285Y-76109580D02*
X28741666Y-76157200D01*
X28741666Y-76157200D02*
X28646428Y-76204819D01*
X28646428Y-76204819D02*
X28455952Y-76204819D01*
X28455952Y-76204819D02*
X28360714Y-76157200D01*
X28360714Y-76157200D02*
X28313095Y-76109580D01*
X28313095Y-76109580D02*
X28265476Y-76014342D01*
X28265476Y-76014342D02*
X28265476Y-75204819D01*
X27265476Y-76204819D02*
X27836904Y-76204819D01*
X27551190Y-76204819D02*
X27551190Y-75204819D01*
X27551190Y-75204819D02*
X27646428Y-75347676D01*
X27646428Y-75347676D02*
X27741666Y-75442914D01*
X27741666Y-75442914D02*
X27836904Y-75490533D01*
X32266666Y-87154819D02*
X32599999Y-86678628D01*
X32838094Y-87154819D02*
X32838094Y-86154819D01*
X32838094Y-86154819D02*
X32457142Y-86154819D01*
X32457142Y-86154819D02*
X32361904Y-86202438D01*
X32361904Y-86202438D02*
X32314285Y-86250057D01*
X32314285Y-86250057D02*
X32266666Y-86345295D01*
X32266666Y-86345295D02*
X32266666Y-86488152D01*
X32266666Y-86488152D02*
X32314285Y-86583390D01*
X32314285Y-86583390D02*
X32361904Y-86631009D01*
X32361904Y-86631009D02*
X32457142Y-86678628D01*
X32457142Y-86678628D02*
X32838094Y-86678628D01*
X31885713Y-86250057D02*
X31838094Y-86202438D01*
X31838094Y-86202438D02*
X31742856Y-86154819D01*
X31742856Y-86154819D02*
X31504761Y-86154819D01*
X31504761Y-86154819D02*
X31409523Y-86202438D01*
X31409523Y-86202438D02*
X31361904Y-86250057D01*
X31361904Y-86250057D02*
X31314285Y-86345295D01*
X31314285Y-86345295D02*
X31314285Y-86440533D01*
X31314285Y-86440533D02*
X31361904Y-86583390D01*
X31361904Y-86583390D02*
X31933332Y-87154819D01*
X31933332Y-87154819D02*
X31314285Y-87154819D01*
X32266666Y-88959580D02*
X32314285Y-89007200D01*
X32314285Y-89007200D02*
X32457142Y-89054819D01*
X32457142Y-89054819D02*
X32552380Y-89054819D01*
X32552380Y-89054819D02*
X32695237Y-89007200D01*
X32695237Y-89007200D02*
X32790475Y-88911961D01*
X32790475Y-88911961D02*
X32838094Y-88816723D01*
X32838094Y-88816723D02*
X32885713Y-88626247D01*
X32885713Y-88626247D02*
X32885713Y-88483390D01*
X32885713Y-88483390D02*
X32838094Y-88292914D01*
X32838094Y-88292914D02*
X32790475Y-88197676D01*
X32790475Y-88197676D02*
X32695237Y-88102438D01*
X32695237Y-88102438D02*
X32552380Y-88054819D01*
X32552380Y-88054819D02*
X32457142Y-88054819D01*
X32457142Y-88054819D02*
X32314285Y-88102438D01*
X32314285Y-88102438D02*
X32266666Y-88150057D01*
X31885713Y-88150057D02*
X31838094Y-88102438D01*
X31838094Y-88102438D02*
X31742856Y-88054819D01*
X31742856Y-88054819D02*
X31504761Y-88054819D01*
X31504761Y-88054819D02*
X31409523Y-88102438D01*
X31409523Y-88102438D02*
X31361904Y-88150057D01*
X31361904Y-88150057D02*
X31314285Y-88245295D01*
X31314285Y-88245295D02*
X31314285Y-88340533D01*
X31314285Y-88340533D02*
X31361904Y-88483390D01*
X31361904Y-88483390D02*
X31933332Y-89054819D01*
X31933332Y-89054819D02*
X31314285Y-89054819D01*
X28166666Y-71059580D02*
X28214285Y-71107200D01*
X28214285Y-71107200D02*
X28357142Y-71154819D01*
X28357142Y-71154819D02*
X28452380Y-71154819D01*
X28452380Y-71154819D02*
X28595237Y-71107200D01*
X28595237Y-71107200D02*
X28690475Y-71011961D01*
X28690475Y-71011961D02*
X28738094Y-70916723D01*
X28738094Y-70916723D02*
X28785713Y-70726247D01*
X28785713Y-70726247D02*
X28785713Y-70583390D01*
X28785713Y-70583390D02*
X28738094Y-70392914D01*
X28738094Y-70392914D02*
X28690475Y-70297676D01*
X28690475Y-70297676D02*
X28595237Y-70202438D01*
X28595237Y-70202438D02*
X28452380Y-70154819D01*
X28452380Y-70154819D02*
X28357142Y-70154819D01*
X28357142Y-70154819D02*
X28214285Y-70202438D01*
X28214285Y-70202438D02*
X28166666Y-70250057D01*
X27595237Y-70583390D02*
X27690475Y-70535771D01*
X27690475Y-70535771D02*
X27738094Y-70488152D01*
X27738094Y-70488152D02*
X27785713Y-70392914D01*
X27785713Y-70392914D02*
X27785713Y-70345295D01*
X27785713Y-70345295D02*
X27738094Y-70250057D01*
X27738094Y-70250057D02*
X27690475Y-70202438D01*
X27690475Y-70202438D02*
X27595237Y-70154819D01*
X27595237Y-70154819D02*
X27404761Y-70154819D01*
X27404761Y-70154819D02*
X27309523Y-70202438D01*
X27309523Y-70202438D02*
X27261904Y-70250057D01*
X27261904Y-70250057D02*
X27214285Y-70345295D01*
X27214285Y-70345295D02*
X27214285Y-70392914D01*
X27214285Y-70392914D02*
X27261904Y-70488152D01*
X27261904Y-70488152D02*
X27309523Y-70535771D01*
X27309523Y-70535771D02*
X27404761Y-70583390D01*
X27404761Y-70583390D02*
X27595237Y-70583390D01*
X27595237Y-70583390D02*
X27690475Y-70631009D01*
X27690475Y-70631009D02*
X27738094Y-70678628D01*
X27738094Y-70678628D02*
X27785713Y-70773866D01*
X27785713Y-70773866D02*
X27785713Y-70964342D01*
X27785713Y-70964342D02*
X27738094Y-71059580D01*
X27738094Y-71059580D02*
X27690475Y-71107200D01*
X27690475Y-71107200D02*
X27595237Y-71154819D01*
X27595237Y-71154819D02*
X27404761Y-71154819D01*
X27404761Y-71154819D02*
X27309523Y-71107200D01*
X27309523Y-71107200D02*
X27261904Y-71059580D01*
X27261904Y-71059580D02*
X27214285Y-70964342D01*
X27214285Y-70964342D02*
X27214285Y-70773866D01*
X27214285Y-70773866D02*
X27261904Y-70678628D01*
X27261904Y-70678628D02*
X27309523Y-70631009D01*
X27309523Y-70631009D02*
X27404761Y-70583390D01*
X32266666Y-79554819D02*
X32599999Y-79078628D01*
X32838094Y-79554819D02*
X32838094Y-78554819D01*
X32838094Y-78554819D02*
X32457142Y-78554819D01*
X32457142Y-78554819D02*
X32361904Y-78602438D01*
X32361904Y-78602438D02*
X32314285Y-78650057D01*
X32314285Y-78650057D02*
X32266666Y-78745295D01*
X32266666Y-78745295D02*
X32266666Y-78888152D01*
X32266666Y-78888152D02*
X32314285Y-78983390D01*
X32314285Y-78983390D02*
X32361904Y-79031009D01*
X32361904Y-79031009D02*
X32457142Y-79078628D01*
X32457142Y-79078628D02*
X32838094Y-79078628D01*
X31933332Y-78554819D02*
X31314285Y-78554819D01*
X31314285Y-78554819D02*
X31647618Y-78935771D01*
X31647618Y-78935771D02*
X31504761Y-78935771D01*
X31504761Y-78935771D02*
X31409523Y-78983390D01*
X31409523Y-78983390D02*
X31361904Y-79031009D01*
X31361904Y-79031009D02*
X31314285Y-79126247D01*
X31314285Y-79126247D02*
X31314285Y-79364342D01*
X31314285Y-79364342D02*
X31361904Y-79459580D01*
X31361904Y-79459580D02*
X31409523Y-79507200D01*
X31409523Y-79507200D02*
X31504761Y-79554819D01*
X31504761Y-79554819D02*
X31790475Y-79554819D01*
X31790475Y-79554819D02*
X31885713Y-79507200D01*
X31885713Y-79507200D02*
X31933332Y-79459580D01*
X29042857Y-65159580D02*
X29090476Y-65207200D01*
X29090476Y-65207200D02*
X29233333Y-65254819D01*
X29233333Y-65254819D02*
X29328571Y-65254819D01*
X29328571Y-65254819D02*
X29471428Y-65207200D01*
X29471428Y-65207200D02*
X29566666Y-65111961D01*
X29566666Y-65111961D02*
X29614285Y-65016723D01*
X29614285Y-65016723D02*
X29661904Y-64826247D01*
X29661904Y-64826247D02*
X29661904Y-64683390D01*
X29661904Y-64683390D02*
X29614285Y-64492914D01*
X29614285Y-64492914D02*
X29566666Y-64397676D01*
X29566666Y-64397676D02*
X29471428Y-64302438D01*
X29471428Y-64302438D02*
X29328571Y-64254819D01*
X29328571Y-64254819D02*
X29233333Y-64254819D01*
X29233333Y-64254819D02*
X29090476Y-64302438D01*
X29090476Y-64302438D02*
X29042857Y-64350057D01*
X28090476Y-65254819D02*
X28661904Y-65254819D01*
X28376190Y-65254819D02*
X28376190Y-64254819D01*
X28376190Y-64254819D02*
X28471428Y-64397676D01*
X28471428Y-64397676D02*
X28566666Y-64492914D01*
X28566666Y-64492914D02*
X28661904Y-64540533D01*
X27471428Y-64254819D02*
X27376190Y-64254819D01*
X27376190Y-64254819D02*
X27280952Y-64302438D01*
X27280952Y-64302438D02*
X27233333Y-64350057D01*
X27233333Y-64350057D02*
X27185714Y-64445295D01*
X27185714Y-64445295D02*
X27138095Y-64635771D01*
X27138095Y-64635771D02*
X27138095Y-64873866D01*
X27138095Y-64873866D02*
X27185714Y-65064342D01*
X27185714Y-65064342D02*
X27233333Y-65159580D01*
X27233333Y-65159580D02*
X27280952Y-65207200D01*
X27280952Y-65207200D02*
X27376190Y-65254819D01*
X27376190Y-65254819D02*
X27471428Y-65254819D01*
X27471428Y-65254819D02*
X27566666Y-65207200D01*
X27566666Y-65207200D02*
X27614285Y-65159580D01*
X27614285Y-65159580D02*
X27661904Y-65064342D01*
X27661904Y-65064342D02*
X27709523Y-64873866D01*
X27709523Y-64873866D02*
X27709523Y-64635771D01*
X27709523Y-64635771D02*
X27661904Y-64445295D01*
X27661904Y-64445295D02*
X27614285Y-64350057D01*
X27614285Y-64350057D02*
X27566666Y-64302438D01*
X27566666Y-64302438D02*
X27471428Y-64254819D01*
X30066666Y-54628330D02*
X30114285Y-54675950D01*
X30114285Y-54675950D02*
X30257142Y-54723569D01*
X30257142Y-54723569D02*
X30352380Y-54723569D01*
X30352380Y-54723569D02*
X30495237Y-54675950D01*
X30495237Y-54675950D02*
X30590475Y-54580711D01*
X30590475Y-54580711D02*
X30638094Y-54485473D01*
X30638094Y-54485473D02*
X30685713Y-54294997D01*
X30685713Y-54294997D02*
X30685713Y-54152140D01*
X30685713Y-54152140D02*
X30638094Y-53961664D01*
X30638094Y-53961664D02*
X30590475Y-53866426D01*
X30590475Y-53866426D02*
X30495237Y-53771188D01*
X30495237Y-53771188D02*
X30352380Y-53723569D01*
X30352380Y-53723569D02*
X30257142Y-53723569D01*
X30257142Y-53723569D02*
X30114285Y-53771188D01*
X30114285Y-53771188D02*
X30066666Y-53818807D01*
X29114285Y-54723569D02*
X29685713Y-54723569D01*
X29399999Y-54723569D02*
X29399999Y-53723569D01*
X29399999Y-53723569D02*
X29495237Y-53866426D01*
X29495237Y-53866426D02*
X29590475Y-53961664D01*
X29590475Y-53961664D02*
X29685713Y-54009283D01*
D11*
%TO.C,R10*%
X33500000Y-84000000D02*
X36500000Y-84000000D01*
X33500000Y-85600000D02*
X33500000Y-84000000D01*
X36500000Y-84000000D02*
X36500000Y-85600000D01*
X36500000Y-85600000D02*
X33500000Y-85600000D01*
%TO.C,R9*%
X33500000Y-80200000D02*
X36500000Y-80200000D01*
X33500000Y-81800000D02*
X33500000Y-80200000D01*
X36500000Y-80200000D02*
X36500000Y-81800000D01*
X36500000Y-81800000D02*
X33500000Y-81800000D01*
%TO.C,R11*%
X33500000Y-82100000D02*
X36500000Y-82100000D01*
X33500000Y-83700000D02*
X33500000Y-82100000D01*
X36500000Y-82100000D02*
X36500000Y-83700000D01*
X36500000Y-83700000D02*
X33500000Y-83700000D01*
%TO.C,P4*%
X18670000Y-51270000D02*
X18670000Y-99590000D01*
X21330000Y-48670000D02*
X20000000Y-48670000D01*
X21330000Y-50000000D02*
X21330000Y-48670000D01*
X21330000Y-51270000D02*
X18670000Y-51270000D01*
X21330000Y-51270000D02*
X21330000Y-99590000D01*
X21330000Y-99590000D02*
X18670000Y-99590000D01*
%TO.C,C5*%
X23675000Y-80700000D02*
X26675000Y-80700000D01*
X26675000Y-82700000D02*
X23675000Y-82700000D01*
X23675000Y-82700000D02*
G75*
G02*
X23675000Y-80700000I1122254J1000000D01*
G01*
X26675000Y-80700000D02*
G75*
G02*
X26675000Y-82700000I-1122254J-1000000D01*
G01*
%TO.C,C4*%
X23475000Y-61799998D02*
X26075000Y-61800000D01*
X26075000Y-63400002D02*
X23475000Y-63400000D01*
X23475000Y-63400000D02*
G75*
G02*
X23475000Y-61799998I840224J800001D01*
G01*
X26075000Y-61800000D02*
G75*
G02*
X26075000Y-63400002I-840224J-800001D01*
G01*
%TO.C,R1*%
X32900000Y-51600000D02*
X35900000Y-51600000D01*
X32900000Y-53200000D02*
X32900000Y-51600000D01*
X35900000Y-51600000D02*
X35900000Y-53200000D01*
X35900000Y-53200000D02*
X32900000Y-53200000D01*
%TO.C,C7*%
X23665000Y-78749998D02*
X26265000Y-78750000D01*
X26265000Y-80350002D02*
X23665000Y-80350000D01*
X23665000Y-80350000D02*
G75*
G02*
X23665000Y-78749998I840224J800001D01*
G01*
X26265000Y-78750000D02*
G75*
G02*
X26265000Y-80350002I-840224J-800001D01*
G01*
%TO.C,C6*%
X23325000Y-67600000D02*
X26325000Y-67600000D01*
X26325000Y-69600000D02*
X23325000Y-69600000D01*
X23325000Y-69600000D02*
G75*
G02*
X23325000Y-67600000I1122254J1000000D01*
G01*
X26325000Y-67600000D02*
G75*
G02*
X26325000Y-69600000I-1122254J-1000000D01*
G01*
%TO.C,R6*%
X33600000Y-70600000D02*
X36600000Y-70600000D01*
X33600000Y-72200000D02*
X33600000Y-70600000D01*
X36600000Y-70600000D02*
X36600000Y-72200000D01*
X36600000Y-72200000D02*
X33600000Y-72200000D01*
%TO.C,C14*%
X35199998Y-75500000D02*
X35200000Y-72900000D01*
X36800002Y-72900000D02*
X36800000Y-75500000D01*
X35200000Y-72900000D02*
G75*
G02*
X36800002Y-72900000I800001J-840224D01*
G01*
X36800000Y-75500000D02*
G75*
G02*
X35199998Y-75500000I-800001J840224D01*
G01*
%TO.C,C12*%
X33700000Y-68699998D02*
X36300000Y-68700000D01*
X36300000Y-70300002D02*
X33700000Y-70300000D01*
X33700000Y-70300000D02*
G75*
G02*
X33700000Y-68699998I840224J800001D01*
G01*
X36300000Y-68700000D02*
G75*
G02*
X36300000Y-70300002I-840224J-800001D01*
G01*
%TO.C,C13*%
X33299998Y-75500000D02*
X33300000Y-72900000D01*
X34900002Y-72900000D02*
X34900000Y-75500000D01*
X33300000Y-72900000D02*
G75*
G02*
X34900002Y-72900000I800001J-840224D01*
G01*
X34900000Y-75500000D02*
G75*
G02*
X33299998Y-75500000I-800001J840224D01*
G01*
%TO.C,C3*%
X23475000Y-59899998D02*
X26075000Y-59900000D01*
X26075000Y-61500002D02*
X23475000Y-61500000D01*
X23475000Y-61500000D02*
G75*
G02*
X23475000Y-59899998I840224J800001D01*
G01*
X26075000Y-59900000D02*
G75*
G02*
X26075000Y-61500002I-840224J-800001D01*
G01*
%TO.C,C11*%
X23415122Y-65599998D02*
X26015122Y-65600000D01*
X26015122Y-67200002D02*
X23415122Y-67200000D01*
X23415122Y-67200000D02*
G75*
G02*
X23415122Y-65599998I840224J800001D01*
G01*
X26015122Y-65600000D02*
G75*
G02*
X26015122Y-67200002I-840224J-800001D01*
G01*
%TO.C,C9*%
X33700000Y-66799998D02*
X36300000Y-66800000D01*
X36300000Y-68400002D02*
X33700000Y-68400000D01*
X33700000Y-68400000D02*
G75*
G02*
X33700000Y-66799998I840224J800001D01*
G01*
X36300000Y-66800000D02*
G75*
G02*
X36300000Y-68400002I-840224J-800001D01*
G01*
%TO.C,C15*%
X23525000Y-71799998D02*
X26125000Y-71800000D01*
X26125000Y-73400002D02*
X23525000Y-73400000D01*
X23525000Y-73400000D02*
G75*
G02*
X23525000Y-71799998I840224J800001D01*
G01*
X26125000Y-71800000D02*
G75*
G02*
X26125000Y-73400002I-840224J-800001D01*
G01*
%TO.C,R5*%
X24131250Y-51668750D02*
X27131250Y-51668750D01*
X24131250Y-53268750D02*
X24131250Y-51668750D01*
X27131250Y-51668750D02*
X27131250Y-53268750D01*
X27131250Y-53268750D02*
X24131250Y-53268750D01*
%TO.C,R4*%
X33500000Y-76400000D02*
X36500000Y-76400000D01*
X33500000Y-78000000D02*
X33500000Y-76400000D01*
X36500000Y-76400000D02*
X36500000Y-78000000D01*
X36500000Y-78000000D02*
X33500000Y-78000000D01*
D12*
%TO.C,U1*%
X23517000Y-75475000D02*
X23517000Y-76025000D01*
X23517000Y-76025000D02*
X26413000Y-76025000D01*
X26413000Y-75475000D02*
X23517000Y-75475000D01*
X26413000Y-76025000D02*
X26413000Y-75475000D01*
X26479000Y-77625000D02*
X26479000Y-76375000D01*
D11*
%TO.C,R2*%
X33500000Y-85900000D02*
X36500000Y-85900000D01*
X33500000Y-87500000D02*
X33500000Y-85900000D01*
X36500000Y-85900000D02*
X36500000Y-87500000D01*
X36500000Y-87500000D02*
X33500000Y-87500000D01*
%TO.C,C2*%
X33700000Y-87799998D02*
X36300000Y-87800000D01*
X36300000Y-89400002D02*
X33700000Y-89400000D01*
X33700000Y-89400000D02*
G75*
G02*
X33700000Y-87799998I840224J800001D01*
G01*
X36300000Y-87800000D02*
G75*
G02*
X36300000Y-89400002I-840224J-800001D01*
G01*
%TO.C,C8*%
X23525000Y-69899998D02*
X26125000Y-69900000D01*
X26125000Y-71500002D02*
X23525000Y-71500000D01*
X23525000Y-71500000D02*
G75*
G02*
X23525000Y-69899998I840224J800001D01*
G01*
X26125000Y-69900000D02*
G75*
G02*
X26125000Y-71500002I-840224J-800001D01*
G01*
%TO.C,R3*%
X33500000Y-78300000D02*
X36500000Y-78300000D01*
X33500000Y-79900000D02*
X33500000Y-78300000D01*
X36500000Y-78300000D02*
X36500000Y-79900000D01*
X36500000Y-79900000D02*
X33500000Y-79900000D01*
%TO.C,P3*%
X38670000Y-51270000D02*
X38670000Y-99590000D01*
X41330000Y-48670000D02*
X40000000Y-48670000D01*
X41330000Y-50000000D02*
X41330000Y-48670000D01*
X41330000Y-51270000D02*
X38670000Y-51270000D01*
X41330000Y-51270000D02*
X41330000Y-99590000D01*
X41330000Y-99590000D02*
X38670000Y-99590000D01*
%TO.C,C10*%
X23415122Y-63679994D02*
X26015122Y-63679996D01*
X26015122Y-65279998D02*
X23415122Y-65279996D01*
X23415122Y-65279996D02*
G75*
G02*
X23415122Y-63679994I840224J800001D01*
G01*
X26015122Y-63679996D02*
G75*
G02*
X26015122Y-65279998I-840224J-800001D01*
G01*
%TO.C,C1*%
X28600000Y-51668748D02*
X31200000Y-51668750D01*
X31200000Y-53268752D02*
X28600000Y-53268750D01*
X28600000Y-53268750D02*
G75*
G02*
X28600000Y-51668748I840224J800001D01*
G01*
X31200000Y-51668750D02*
G75*
G02*
X31200000Y-53268752I-840224J-800001D01*
G01*
%TD*%
M02*
