%TF.GenerationSoftware,KiCad,Pcbnew,9.0.0*%
%TF.CreationDate,2025-02-28T11:04:11+07:00*%
%TF.ProjectId,SMT32_Bluepill,534d5433-325f-4426-9c75-6570696c6c2e,rev?*%
%TF.SameCoordinates,Original*%
%TF.FileFunction,Paste,Bot*%
%TF.FilePolarity,Positive*%
%FSLAX46Y46*%
G04 Gerber Fmt 4.6, Leading zero omitted, Abs format (unit mm)*
G04 Created by KiCad (PCBNEW 9.0.0) date 2025-02-28 11:04:11*
%MOMM*%
%LPD*%
G01*
G04 APERTURE LIST*
G04 Aperture macros list*
%AMRoundRect*
0 Rectangle with rounded corners*
0 $1 Rounding radius*
0 $2 $3 $4 $5 $6 $7 $8 $9 X,Y pos of 4 corners*
0 Add a 4 corners polygon primitive as box body*
4,1,4,$2,$3,$4,$5,$6,$7,$8,$9,$2,$3,0*
0 Add four circle primitives for the rounded corners*
1,1,$1+$1,$2,$3*
1,1,$1+$1,$4,$5*
1,1,$1+$1,$6,$7*
1,1,$1+$1,$8,$9*
0 Add four rect primitives between the rounded corners*
20,1,$1+$1,$2,$3,$4,$5,0*
20,1,$1+$1,$4,$5,$6,$7,0*
20,1,$1+$1,$6,$7,$8,$9,0*
20,1,$1+$1,$8,$9,$2,$3,0*%
G04 Aperture macros list end*
%ADD10RoundRect,0.200000X0.200000X0.275000X-0.200000X0.275000X-0.200000X-0.275000X0.200000X-0.275000X0*%
%ADD11RoundRect,0.200000X-0.200000X-0.275000X0.200000X-0.275000X0.200000X0.275000X-0.200000X0.275000X0*%
%ADD12RoundRect,0.250000X0.250000X0.475000X-0.250000X0.475000X-0.250000X-0.475000X0.250000X-0.475000X0*%
%ADD13RoundRect,0.225000X0.225000X0.250000X-0.225000X0.250000X-0.225000X-0.250000X0.225000X-0.250000X0*%
%ADD14RoundRect,0.225000X0.250000X-0.225000X0.250000X0.225000X-0.250000X0.225000X-0.250000X-0.225000X0*%
%ADD15RoundRect,0.225000X-0.225000X-0.250000X0.225000X-0.250000X0.225000X0.250000X-0.225000X0.250000X0*%
%ADD16R,0.650000X1.250000*%
G04 APERTURE END LIST*
D10*
%TO.C,R10*%
X35825000Y-84800000D03*
X34175000Y-84800000D03*
%TD*%
D11*
%TO.C,R9*%
X34175000Y-81000000D03*
X35825000Y-81000000D03*
%TD*%
%TO.C,R11*%
X34175000Y-82900000D03*
X35825000Y-82900000D03*
%TD*%
D12*
%TO.C,C5*%
X26125000Y-81700000D03*
X24225000Y-81700000D03*
%TD*%
D13*
%TO.C,C4*%
X25550000Y-62600000D03*
X24000000Y-62600000D03*
%TD*%
D10*
%TO.C,R1*%
X35225000Y-52400000D03*
X33575000Y-52400000D03*
%TD*%
D13*
%TO.C,C7*%
X25740000Y-79550000D03*
X24190000Y-79550000D03*
%TD*%
D12*
%TO.C,C6*%
X25775000Y-68600000D03*
X23875000Y-68600000D03*
%TD*%
D10*
%TO.C,R6*%
X35925000Y-71400000D03*
X34275000Y-71400000D03*
%TD*%
D14*
%TO.C,C14*%
X36000000Y-74975000D03*
X36000000Y-73425000D03*
%TD*%
D13*
%TO.C,C12*%
X35775000Y-69500000D03*
X34225000Y-69500000D03*
%TD*%
D14*
%TO.C,C13*%
X34100000Y-74975000D03*
X34100000Y-73425000D03*
%TD*%
D13*
%TO.C,C3*%
X25550000Y-60700000D03*
X24000000Y-60700000D03*
%TD*%
%TO.C,C11*%
X25490122Y-66400000D03*
X23940122Y-66400000D03*
%TD*%
%TO.C,C9*%
X35775000Y-67600000D03*
X34225000Y-67600000D03*
%TD*%
D15*
%TO.C,C15*%
X24050000Y-72600000D03*
X25600000Y-72600000D03*
%TD*%
D10*
%TO.C,R5*%
X26456250Y-52468750D03*
X24806250Y-52468750D03*
%TD*%
D11*
%TO.C,R4*%
X34175000Y-77200000D03*
X35825000Y-77200000D03*
%TD*%
D16*
%TO.C,U1*%
X25905000Y-77000000D03*
X24965000Y-77000000D03*
X24025000Y-77000000D03*
X24025000Y-74500000D03*
X25905000Y-74500000D03*
%TD*%
D11*
%TO.C,R2*%
X34175000Y-86700000D03*
X35825000Y-86700000D03*
%TD*%
D13*
%TO.C,C2*%
X35775000Y-88600000D03*
X34225000Y-88600000D03*
%TD*%
%TO.C,C8*%
X25600000Y-70700000D03*
X24050000Y-70700000D03*
%TD*%
D10*
%TO.C,R3*%
X35825000Y-79100000D03*
X34175000Y-79100000D03*
%TD*%
D13*
%TO.C,C10*%
X25490122Y-64479996D03*
X23940122Y-64479996D03*
%TD*%
%TO.C,C1*%
X30675000Y-52468750D03*
X29125000Y-52468750D03*
%TD*%
M02*
