%TF.GenerationSoftware,KiCad,Pcbnew,9.0.0*%
%TF.CreationDate,2025-02-28T11:04:11+07:00*%
%TF.ProjectId,SMT32_Bluepill,534d5433-325f-4426-9c75-6570696c6c2e,rev?*%
%TF.SameCoordinates,Original*%
%TF.FileFunction,AssemblyDrawing,Bot*%
%FSLAX46Y46*%
G04 Gerber Fmt 4.6, Leading zero omitted, Abs format (unit mm)*
G04 Created by KiCad (PCBNEW 9.0.0) date 2025-02-28 11:04:11*
%MOMM*%
%LPD*%
G01*
G04 APERTURE LIST*
%ADD10C,0.060000*%
%ADD11C,0.150000*%
%ADD12C,0.080000*%
%ADD13C,0.254000*%
%ADD14C,0.100000*%
G04 APERTURE END LIST*
D10*
X35257142Y-84981927D02*
X35390475Y-84791451D01*
X35485713Y-84981927D02*
X35485713Y-84581927D01*
X35485713Y-84581927D02*
X35333332Y-84581927D01*
X35333332Y-84581927D02*
X35295237Y-84600975D01*
X35295237Y-84600975D02*
X35276190Y-84620022D01*
X35276190Y-84620022D02*
X35257142Y-84658118D01*
X35257142Y-84658118D02*
X35257142Y-84715260D01*
X35257142Y-84715260D02*
X35276190Y-84753356D01*
X35276190Y-84753356D02*
X35295237Y-84772403D01*
X35295237Y-84772403D02*
X35333332Y-84791451D01*
X35333332Y-84791451D02*
X35485713Y-84791451D01*
X34876190Y-84981927D02*
X35104761Y-84981927D01*
X34990475Y-84981927D02*
X34990475Y-84581927D01*
X34990475Y-84581927D02*
X35028571Y-84639070D01*
X35028571Y-84639070D02*
X35066666Y-84677165D01*
X35066666Y-84677165D02*
X35104761Y-84696213D01*
X34628571Y-84581927D02*
X34590476Y-84581927D01*
X34590476Y-84581927D02*
X34552380Y-84600975D01*
X34552380Y-84600975D02*
X34533333Y-84620022D01*
X34533333Y-84620022D02*
X34514285Y-84658118D01*
X34514285Y-84658118D02*
X34495238Y-84734308D01*
X34495238Y-84734308D02*
X34495238Y-84829546D01*
X34495238Y-84829546D02*
X34514285Y-84905737D01*
X34514285Y-84905737D02*
X34533333Y-84943832D01*
X34533333Y-84943832D02*
X34552380Y-84962880D01*
X34552380Y-84962880D02*
X34590476Y-84981927D01*
X34590476Y-84981927D02*
X34628571Y-84981927D01*
X34628571Y-84981927D02*
X34666666Y-84962880D01*
X34666666Y-84962880D02*
X34685714Y-84943832D01*
X34685714Y-84943832D02*
X34704761Y-84905737D01*
X34704761Y-84905737D02*
X34723809Y-84829546D01*
X34723809Y-84829546D02*
X34723809Y-84734308D01*
X34723809Y-84734308D02*
X34704761Y-84658118D01*
X34704761Y-84658118D02*
X34685714Y-84620022D01*
X34685714Y-84620022D02*
X34666666Y-84600975D01*
X34666666Y-84600975D02*
X34628571Y-84581927D01*
X35066666Y-81181927D02*
X35199999Y-80991451D01*
X35295237Y-81181927D02*
X35295237Y-80781927D01*
X35295237Y-80781927D02*
X35142856Y-80781927D01*
X35142856Y-80781927D02*
X35104761Y-80800975D01*
X35104761Y-80800975D02*
X35085714Y-80820022D01*
X35085714Y-80820022D02*
X35066666Y-80858118D01*
X35066666Y-80858118D02*
X35066666Y-80915260D01*
X35066666Y-80915260D02*
X35085714Y-80953356D01*
X35085714Y-80953356D02*
X35104761Y-80972403D01*
X35104761Y-80972403D02*
X35142856Y-80991451D01*
X35142856Y-80991451D02*
X35295237Y-80991451D01*
X34876190Y-81181927D02*
X34799999Y-81181927D01*
X34799999Y-81181927D02*
X34761904Y-81162880D01*
X34761904Y-81162880D02*
X34742856Y-81143832D01*
X34742856Y-81143832D02*
X34704761Y-81086689D01*
X34704761Y-81086689D02*
X34685714Y-81010499D01*
X34685714Y-81010499D02*
X34685714Y-80858118D01*
X34685714Y-80858118D02*
X34704761Y-80820022D01*
X34704761Y-80820022D02*
X34723809Y-80800975D01*
X34723809Y-80800975D02*
X34761904Y-80781927D01*
X34761904Y-80781927D02*
X34838095Y-80781927D01*
X34838095Y-80781927D02*
X34876190Y-80800975D01*
X34876190Y-80800975D02*
X34895237Y-80820022D01*
X34895237Y-80820022D02*
X34914285Y-80858118D01*
X34914285Y-80858118D02*
X34914285Y-80953356D01*
X34914285Y-80953356D02*
X34895237Y-80991451D01*
X34895237Y-80991451D02*
X34876190Y-81010499D01*
X34876190Y-81010499D02*
X34838095Y-81029546D01*
X34838095Y-81029546D02*
X34761904Y-81029546D01*
X34761904Y-81029546D02*
X34723809Y-81010499D01*
X34723809Y-81010499D02*
X34704761Y-80991451D01*
X34704761Y-80991451D02*
X34685714Y-80953356D01*
X35257142Y-83081927D02*
X35390475Y-82891451D01*
X35485713Y-83081927D02*
X35485713Y-82681927D01*
X35485713Y-82681927D02*
X35333332Y-82681927D01*
X35333332Y-82681927D02*
X35295237Y-82700975D01*
X35295237Y-82700975D02*
X35276190Y-82720022D01*
X35276190Y-82720022D02*
X35257142Y-82758118D01*
X35257142Y-82758118D02*
X35257142Y-82815260D01*
X35257142Y-82815260D02*
X35276190Y-82853356D01*
X35276190Y-82853356D02*
X35295237Y-82872403D01*
X35295237Y-82872403D02*
X35333332Y-82891451D01*
X35333332Y-82891451D02*
X35485713Y-82891451D01*
X34876190Y-83081927D02*
X35104761Y-83081927D01*
X34990475Y-83081927D02*
X34990475Y-82681927D01*
X34990475Y-82681927D02*
X35028571Y-82739070D01*
X35028571Y-82739070D02*
X35066666Y-82777165D01*
X35066666Y-82777165D02*
X35104761Y-82796213D01*
X34495238Y-83081927D02*
X34723809Y-83081927D01*
X34609523Y-83081927D02*
X34609523Y-82681927D01*
X34609523Y-82681927D02*
X34647619Y-82739070D01*
X34647619Y-82739070D02*
X34685714Y-82777165D01*
X34685714Y-82777165D02*
X34723809Y-82796213D01*
D11*
X20454819Y-73391905D02*
X19454819Y-73391905D01*
X19454819Y-73391905D02*
X19454819Y-73772857D01*
X19454819Y-73772857D02*
X19502438Y-73868095D01*
X19502438Y-73868095D02*
X19550057Y-73915714D01*
X19550057Y-73915714D02*
X19645295Y-73963333D01*
X19645295Y-73963333D02*
X19788152Y-73963333D01*
X19788152Y-73963333D02*
X19883390Y-73915714D01*
X19883390Y-73915714D02*
X19931009Y-73868095D01*
X19931009Y-73868095D02*
X19978628Y-73772857D01*
X19978628Y-73772857D02*
X19978628Y-73391905D01*
X19788152Y-74820476D02*
X20454819Y-74820476D01*
X19407200Y-74582381D02*
X20121485Y-74344286D01*
X20121485Y-74344286D02*
X20121485Y-74963333D01*
D12*
X25258333Y-81879530D02*
X25282142Y-81903340D01*
X25282142Y-81903340D02*
X25353571Y-81927149D01*
X25353571Y-81927149D02*
X25401190Y-81927149D01*
X25401190Y-81927149D02*
X25472618Y-81903340D01*
X25472618Y-81903340D02*
X25520237Y-81855720D01*
X25520237Y-81855720D02*
X25544047Y-81808101D01*
X25544047Y-81808101D02*
X25567856Y-81712863D01*
X25567856Y-81712863D02*
X25567856Y-81641435D01*
X25567856Y-81641435D02*
X25544047Y-81546197D01*
X25544047Y-81546197D02*
X25520237Y-81498578D01*
X25520237Y-81498578D02*
X25472618Y-81450959D01*
X25472618Y-81450959D02*
X25401190Y-81427149D01*
X25401190Y-81427149D02*
X25353571Y-81427149D01*
X25353571Y-81427149D02*
X25282142Y-81450959D01*
X25282142Y-81450959D02*
X25258333Y-81474768D01*
X24805952Y-81427149D02*
X25044047Y-81427149D01*
X25044047Y-81427149D02*
X25067856Y-81665244D01*
X25067856Y-81665244D02*
X25044047Y-81641435D01*
X25044047Y-81641435D02*
X24996428Y-81617625D01*
X24996428Y-81617625D02*
X24877380Y-81617625D01*
X24877380Y-81617625D02*
X24829761Y-81641435D01*
X24829761Y-81641435D02*
X24805952Y-81665244D01*
X24805952Y-81665244D02*
X24782142Y-81712863D01*
X24782142Y-81712863D02*
X24782142Y-81831911D01*
X24782142Y-81831911D02*
X24805952Y-81879530D01*
X24805952Y-81879530D02*
X24829761Y-81903340D01*
X24829761Y-81903340D02*
X24877380Y-81927149D01*
X24877380Y-81927149D02*
X24996428Y-81927149D01*
X24996428Y-81927149D02*
X25044047Y-81903340D01*
X25044047Y-81903340D02*
X25067856Y-81879530D01*
D10*
X24841666Y-62743832D02*
X24860714Y-62762880D01*
X24860714Y-62762880D02*
X24917856Y-62781927D01*
X24917856Y-62781927D02*
X24955952Y-62781927D01*
X24955952Y-62781927D02*
X25013095Y-62762880D01*
X25013095Y-62762880D02*
X25051190Y-62724784D01*
X25051190Y-62724784D02*
X25070237Y-62686689D01*
X25070237Y-62686689D02*
X25089285Y-62610499D01*
X25089285Y-62610499D02*
X25089285Y-62553356D01*
X25089285Y-62553356D02*
X25070237Y-62477165D01*
X25070237Y-62477165D02*
X25051190Y-62439070D01*
X25051190Y-62439070D02*
X25013095Y-62400975D01*
X25013095Y-62400975D02*
X24955952Y-62381927D01*
X24955952Y-62381927D02*
X24917856Y-62381927D01*
X24917856Y-62381927D02*
X24860714Y-62400975D01*
X24860714Y-62400975D02*
X24841666Y-62420022D01*
X24498809Y-62515260D02*
X24498809Y-62781927D01*
X24594047Y-62362880D02*
X24689285Y-62648594D01*
X24689285Y-62648594D02*
X24441666Y-62648594D01*
X34466666Y-52581927D02*
X34599999Y-52391451D01*
X34695237Y-52581927D02*
X34695237Y-52181927D01*
X34695237Y-52181927D02*
X34542856Y-52181927D01*
X34542856Y-52181927D02*
X34504761Y-52200975D01*
X34504761Y-52200975D02*
X34485714Y-52220022D01*
X34485714Y-52220022D02*
X34466666Y-52258118D01*
X34466666Y-52258118D02*
X34466666Y-52315260D01*
X34466666Y-52315260D02*
X34485714Y-52353356D01*
X34485714Y-52353356D02*
X34504761Y-52372403D01*
X34504761Y-52372403D02*
X34542856Y-52391451D01*
X34542856Y-52391451D02*
X34695237Y-52391451D01*
X34085714Y-52581927D02*
X34314285Y-52581927D01*
X34199999Y-52581927D02*
X34199999Y-52181927D01*
X34199999Y-52181927D02*
X34238095Y-52239070D01*
X34238095Y-52239070D02*
X34276190Y-52277165D01*
X34276190Y-52277165D02*
X34314285Y-52296213D01*
X25031666Y-79693832D02*
X25050714Y-79712880D01*
X25050714Y-79712880D02*
X25107856Y-79731927D01*
X25107856Y-79731927D02*
X25145952Y-79731927D01*
X25145952Y-79731927D02*
X25203095Y-79712880D01*
X25203095Y-79712880D02*
X25241190Y-79674784D01*
X25241190Y-79674784D02*
X25260237Y-79636689D01*
X25260237Y-79636689D02*
X25279285Y-79560499D01*
X25279285Y-79560499D02*
X25279285Y-79503356D01*
X25279285Y-79503356D02*
X25260237Y-79427165D01*
X25260237Y-79427165D02*
X25241190Y-79389070D01*
X25241190Y-79389070D02*
X25203095Y-79350975D01*
X25203095Y-79350975D02*
X25145952Y-79331927D01*
X25145952Y-79331927D02*
X25107856Y-79331927D01*
X25107856Y-79331927D02*
X25050714Y-79350975D01*
X25050714Y-79350975D02*
X25031666Y-79370022D01*
X24898333Y-79331927D02*
X24631666Y-79331927D01*
X24631666Y-79331927D02*
X24803095Y-79731927D01*
D12*
X24908333Y-68779530D02*
X24932142Y-68803340D01*
X24932142Y-68803340D02*
X25003571Y-68827149D01*
X25003571Y-68827149D02*
X25051190Y-68827149D01*
X25051190Y-68827149D02*
X25122618Y-68803340D01*
X25122618Y-68803340D02*
X25170237Y-68755720D01*
X25170237Y-68755720D02*
X25194047Y-68708101D01*
X25194047Y-68708101D02*
X25217856Y-68612863D01*
X25217856Y-68612863D02*
X25217856Y-68541435D01*
X25217856Y-68541435D02*
X25194047Y-68446197D01*
X25194047Y-68446197D02*
X25170237Y-68398578D01*
X25170237Y-68398578D02*
X25122618Y-68350959D01*
X25122618Y-68350959D02*
X25051190Y-68327149D01*
X25051190Y-68327149D02*
X25003571Y-68327149D01*
X25003571Y-68327149D02*
X24932142Y-68350959D01*
X24932142Y-68350959D02*
X24908333Y-68374768D01*
X24479761Y-68327149D02*
X24574999Y-68327149D01*
X24574999Y-68327149D02*
X24622618Y-68350959D01*
X24622618Y-68350959D02*
X24646428Y-68374768D01*
X24646428Y-68374768D02*
X24694047Y-68446197D01*
X24694047Y-68446197D02*
X24717856Y-68541435D01*
X24717856Y-68541435D02*
X24717856Y-68731911D01*
X24717856Y-68731911D02*
X24694047Y-68779530D01*
X24694047Y-68779530D02*
X24670237Y-68803340D01*
X24670237Y-68803340D02*
X24622618Y-68827149D01*
X24622618Y-68827149D02*
X24527380Y-68827149D01*
X24527380Y-68827149D02*
X24479761Y-68803340D01*
X24479761Y-68803340D02*
X24455952Y-68779530D01*
X24455952Y-68779530D02*
X24432142Y-68731911D01*
X24432142Y-68731911D02*
X24432142Y-68612863D01*
X24432142Y-68612863D02*
X24455952Y-68565244D01*
X24455952Y-68565244D02*
X24479761Y-68541435D01*
X24479761Y-68541435D02*
X24527380Y-68517625D01*
X24527380Y-68517625D02*
X24622618Y-68517625D01*
X24622618Y-68517625D02*
X24670237Y-68541435D01*
X24670237Y-68541435D02*
X24694047Y-68565244D01*
X24694047Y-68565244D02*
X24717856Y-68612863D01*
D10*
X35166666Y-71581927D02*
X35299999Y-71391451D01*
X35395237Y-71581927D02*
X35395237Y-71181927D01*
X35395237Y-71181927D02*
X35242856Y-71181927D01*
X35242856Y-71181927D02*
X35204761Y-71200975D01*
X35204761Y-71200975D02*
X35185714Y-71220022D01*
X35185714Y-71220022D02*
X35166666Y-71258118D01*
X35166666Y-71258118D02*
X35166666Y-71315260D01*
X35166666Y-71315260D02*
X35185714Y-71353356D01*
X35185714Y-71353356D02*
X35204761Y-71372403D01*
X35204761Y-71372403D02*
X35242856Y-71391451D01*
X35242856Y-71391451D02*
X35395237Y-71391451D01*
X34823809Y-71181927D02*
X34899999Y-71181927D01*
X34899999Y-71181927D02*
X34938095Y-71200975D01*
X34938095Y-71200975D02*
X34957142Y-71220022D01*
X34957142Y-71220022D02*
X34995237Y-71277165D01*
X34995237Y-71277165D02*
X35014285Y-71353356D01*
X35014285Y-71353356D02*
X35014285Y-71505737D01*
X35014285Y-71505737D02*
X34995237Y-71543832D01*
X34995237Y-71543832D02*
X34976190Y-71562880D01*
X34976190Y-71562880D02*
X34938095Y-71581927D01*
X34938095Y-71581927D02*
X34861904Y-71581927D01*
X34861904Y-71581927D02*
X34823809Y-71562880D01*
X34823809Y-71562880D02*
X34804761Y-71543832D01*
X34804761Y-71543832D02*
X34785714Y-71505737D01*
X34785714Y-71505737D02*
X34785714Y-71410499D01*
X34785714Y-71410499D02*
X34804761Y-71372403D01*
X34804761Y-71372403D02*
X34823809Y-71353356D01*
X34823809Y-71353356D02*
X34861904Y-71334308D01*
X34861904Y-71334308D02*
X34938095Y-71334308D01*
X34938095Y-71334308D02*
X34976190Y-71353356D01*
X34976190Y-71353356D02*
X34995237Y-71372403D01*
X34995237Y-71372403D02*
X35014285Y-71410499D01*
X36143832Y-73942857D02*
X36162880Y-73923809D01*
X36162880Y-73923809D02*
X36181927Y-73866667D01*
X36181927Y-73866667D02*
X36181927Y-73828571D01*
X36181927Y-73828571D02*
X36162880Y-73771428D01*
X36162880Y-73771428D02*
X36124784Y-73733333D01*
X36124784Y-73733333D02*
X36086689Y-73714286D01*
X36086689Y-73714286D02*
X36010499Y-73695238D01*
X36010499Y-73695238D02*
X35953356Y-73695238D01*
X35953356Y-73695238D02*
X35877165Y-73714286D01*
X35877165Y-73714286D02*
X35839070Y-73733333D01*
X35839070Y-73733333D02*
X35800975Y-73771428D01*
X35800975Y-73771428D02*
X35781927Y-73828571D01*
X35781927Y-73828571D02*
X35781927Y-73866667D01*
X35781927Y-73866667D02*
X35800975Y-73923809D01*
X35800975Y-73923809D02*
X35820022Y-73942857D01*
X36181927Y-74323809D02*
X36181927Y-74095238D01*
X36181927Y-74209524D02*
X35781927Y-74209524D01*
X35781927Y-74209524D02*
X35839070Y-74171428D01*
X35839070Y-74171428D02*
X35877165Y-74133333D01*
X35877165Y-74133333D02*
X35896213Y-74095238D01*
X35915260Y-74666666D02*
X36181927Y-74666666D01*
X35762880Y-74571428D02*
X36048594Y-74476190D01*
X36048594Y-74476190D02*
X36048594Y-74723809D01*
X35257142Y-69643832D02*
X35276190Y-69662880D01*
X35276190Y-69662880D02*
X35333332Y-69681927D01*
X35333332Y-69681927D02*
X35371428Y-69681927D01*
X35371428Y-69681927D02*
X35428571Y-69662880D01*
X35428571Y-69662880D02*
X35466666Y-69624784D01*
X35466666Y-69624784D02*
X35485713Y-69586689D01*
X35485713Y-69586689D02*
X35504761Y-69510499D01*
X35504761Y-69510499D02*
X35504761Y-69453356D01*
X35504761Y-69453356D02*
X35485713Y-69377165D01*
X35485713Y-69377165D02*
X35466666Y-69339070D01*
X35466666Y-69339070D02*
X35428571Y-69300975D01*
X35428571Y-69300975D02*
X35371428Y-69281927D01*
X35371428Y-69281927D02*
X35333332Y-69281927D01*
X35333332Y-69281927D02*
X35276190Y-69300975D01*
X35276190Y-69300975D02*
X35257142Y-69320022D01*
X34876190Y-69681927D02*
X35104761Y-69681927D01*
X34990475Y-69681927D02*
X34990475Y-69281927D01*
X34990475Y-69281927D02*
X35028571Y-69339070D01*
X35028571Y-69339070D02*
X35066666Y-69377165D01*
X35066666Y-69377165D02*
X35104761Y-69396213D01*
X34723809Y-69320022D02*
X34704761Y-69300975D01*
X34704761Y-69300975D02*
X34666666Y-69281927D01*
X34666666Y-69281927D02*
X34571428Y-69281927D01*
X34571428Y-69281927D02*
X34533333Y-69300975D01*
X34533333Y-69300975D02*
X34514285Y-69320022D01*
X34514285Y-69320022D02*
X34495238Y-69358118D01*
X34495238Y-69358118D02*
X34495238Y-69396213D01*
X34495238Y-69396213D02*
X34514285Y-69453356D01*
X34514285Y-69453356D02*
X34742857Y-69681927D01*
X34742857Y-69681927D02*
X34495238Y-69681927D01*
X34243832Y-73942857D02*
X34262880Y-73923809D01*
X34262880Y-73923809D02*
X34281927Y-73866667D01*
X34281927Y-73866667D02*
X34281927Y-73828571D01*
X34281927Y-73828571D02*
X34262880Y-73771428D01*
X34262880Y-73771428D02*
X34224784Y-73733333D01*
X34224784Y-73733333D02*
X34186689Y-73714286D01*
X34186689Y-73714286D02*
X34110499Y-73695238D01*
X34110499Y-73695238D02*
X34053356Y-73695238D01*
X34053356Y-73695238D02*
X33977165Y-73714286D01*
X33977165Y-73714286D02*
X33939070Y-73733333D01*
X33939070Y-73733333D02*
X33900975Y-73771428D01*
X33900975Y-73771428D02*
X33881927Y-73828571D01*
X33881927Y-73828571D02*
X33881927Y-73866667D01*
X33881927Y-73866667D02*
X33900975Y-73923809D01*
X33900975Y-73923809D02*
X33920022Y-73942857D01*
X34281927Y-74323809D02*
X34281927Y-74095238D01*
X34281927Y-74209524D02*
X33881927Y-74209524D01*
X33881927Y-74209524D02*
X33939070Y-74171428D01*
X33939070Y-74171428D02*
X33977165Y-74133333D01*
X33977165Y-74133333D02*
X33996213Y-74095238D01*
X33881927Y-74457142D02*
X33881927Y-74704761D01*
X33881927Y-74704761D02*
X34034308Y-74571428D01*
X34034308Y-74571428D02*
X34034308Y-74628571D01*
X34034308Y-74628571D02*
X34053356Y-74666666D01*
X34053356Y-74666666D02*
X34072403Y-74685714D01*
X34072403Y-74685714D02*
X34110499Y-74704761D01*
X34110499Y-74704761D02*
X34205737Y-74704761D01*
X34205737Y-74704761D02*
X34243832Y-74685714D01*
X34243832Y-74685714D02*
X34262880Y-74666666D01*
X34262880Y-74666666D02*
X34281927Y-74628571D01*
X34281927Y-74628571D02*
X34281927Y-74514285D01*
X34281927Y-74514285D02*
X34262880Y-74476190D01*
X34262880Y-74476190D02*
X34243832Y-74457142D01*
X24841666Y-60843832D02*
X24860714Y-60862880D01*
X24860714Y-60862880D02*
X24917856Y-60881927D01*
X24917856Y-60881927D02*
X24955952Y-60881927D01*
X24955952Y-60881927D02*
X25013095Y-60862880D01*
X25013095Y-60862880D02*
X25051190Y-60824784D01*
X25051190Y-60824784D02*
X25070237Y-60786689D01*
X25070237Y-60786689D02*
X25089285Y-60710499D01*
X25089285Y-60710499D02*
X25089285Y-60653356D01*
X25089285Y-60653356D02*
X25070237Y-60577165D01*
X25070237Y-60577165D02*
X25051190Y-60539070D01*
X25051190Y-60539070D02*
X25013095Y-60500975D01*
X25013095Y-60500975D02*
X24955952Y-60481927D01*
X24955952Y-60481927D02*
X24917856Y-60481927D01*
X24917856Y-60481927D02*
X24860714Y-60500975D01*
X24860714Y-60500975D02*
X24841666Y-60520022D01*
X24708333Y-60481927D02*
X24460714Y-60481927D01*
X24460714Y-60481927D02*
X24594047Y-60634308D01*
X24594047Y-60634308D02*
X24536904Y-60634308D01*
X24536904Y-60634308D02*
X24498809Y-60653356D01*
X24498809Y-60653356D02*
X24479761Y-60672403D01*
X24479761Y-60672403D02*
X24460714Y-60710499D01*
X24460714Y-60710499D02*
X24460714Y-60805737D01*
X24460714Y-60805737D02*
X24479761Y-60843832D01*
X24479761Y-60843832D02*
X24498809Y-60862880D01*
X24498809Y-60862880D02*
X24536904Y-60881927D01*
X24536904Y-60881927D02*
X24651190Y-60881927D01*
X24651190Y-60881927D02*
X24689285Y-60862880D01*
X24689285Y-60862880D02*
X24708333Y-60843832D01*
X24972264Y-66543832D02*
X24991312Y-66562880D01*
X24991312Y-66562880D02*
X25048454Y-66581927D01*
X25048454Y-66581927D02*
X25086550Y-66581927D01*
X25086550Y-66581927D02*
X25143693Y-66562880D01*
X25143693Y-66562880D02*
X25181788Y-66524784D01*
X25181788Y-66524784D02*
X25200835Y-66486689D01*
X25200835Y-66486689D02*
X25219883Y-66410499D01*
X25219883Y-66410499D02*
X25219883Y-66353356D01*
X25219883Y-66353356D02*
X25200835Y-66277165D01*
X25200835Y-66277165D02*
X25181788Y-66239070D01*
X25181788Y-66239070D02*
X25143693Y-66200975D01*
X25143693Y-66200975D02*
X25086550Y-66181927D01*
X25086550Y-66181927D02*
X25048454Y-66181927D01*
X25048454Y-66181927D02*
X24991312Y-66200975D01*
X24991312Y-66200975D02*
X24972264Y-66220022D01*
X24591312Y-66581927D02*
X24819883Y-66581927D01*
X24705597Y-66581927D02*
X24705597Y-66181927D01*
X24705597Y-66181927D02*
X24743693Y-66239070D01*
X24743693Y-66239070D02*
X24781788Y-66277165D01*
X24781788Y-66277165D02*
X24819883Y-66296213D01*
X24210360Y-66581927D02*
X24438931Y-66581927D01*
X24324645Y-66581927D02*
X24324645Y-66181927D01*
X24324645Y-66181927D02*
X24362741Y-66239070D01*
X24362741Y-66239070D02*
X24400836Y-66277165D01*
X24400836Y-66277165D02*
X24438931Y-66296213D01*
X35066666Y-67743832D02*
X35085714Y-67762880D01*
X35085714Y-67762880D02*
X35142856Y-67781927D01*
X35142856Y-67781927D02*
X35180952Y-67781927D01*
X35180952Y-67781927D02*
X35238095Y-67762880D01*
X35238095Y-67762880D02*
X35276190Y-67724784D01*
X35276190Y-67724784D02*
X35295237Y-67686689D01*
X35295237Y-67686689D02*
X35314285Y-67610499D01*
X35314285Y-67610499D02*
X35314285Y-67553356D01*
X35314285Y-67553356D02*
X35295237Y-67477165D01*
X35295237Y-67477165D02*
X35276190Y-67439070D01*
X35276190Y-67439070D02*
X35238095Y-67400975D01*
X35238095Y-67400975D02*
X35180952Y-67381927D01*
X35180952Y-67381927D02*
X35142856Y-67381927D01*
X35142856Y-67381927D02*
X35085714Y-67400975D01*
X35085714Y-67400975D02*
X35066666Y-67420022D01*
X34876190Y-67781927D02*
X34799999Y-67781927D01*
X34799999Y-67781927D02*
X34761904Y-67762880D01*
X34761904Y-67762880D02*
X34742856Y-67743832D01*
X34742856Y-67743832D02*
X34704761Y-67686689D01*
X34704761Y-67686689D02*
X34685714Y-67610499D01*
X34685714Y-67610499D02*
X34685714Y-67458118D01*
X34685714Y-67458118D02*
X34704761Y-67420022D01*
X34704761Y-67420022D02*
X34723809Y-67400975D01*
X34723809Y-67400975D02*
X34761904Y-67381927D01*
X34761904Y-67381927D02*
X34838095Y-67381927D01*
X34838095Y-67381927D02*
X34876190Y-67400975D01*
X34876190Y-67400975D02*
X34895237Y-67420022D01*
X34895237Y-67420022D02*
X34914285Y-67458118D01*
X34914285Y-67458118D02*
X34914285Y-67553356D01*
X34914285Y-67553356D02*
X34895237Y-67591451D01*
X34895237Y-67591451D02*
X34876190Y-67610499D01*
X34876190Y-67610499D02*
X34838095Y-67629546D01*
X34838095Y-67629546D02*
X34761904Y-67629546D01*
X34761904Y-67629546D02*
X34723809Y-67610499D01*
X34723809Y-67610499D02*
X34704761Y-67591451D01*
X34704761Y-67591451D02*
X34685714Y-67553356D01*
X25082142Y-72743832D02*
X25101190Y-72762880D01*
X25101190Y-72762880D02*
X25158332Y-72781927D01*
X25158332Y-72781927D02*
X25196428Y-72781927D01*
X25196428Y-72781927D02*
X25253571Y-72762880D01*
X25253571Y-72762880D02*
X25291666Y-72724784D01*
X25291666Y-72724784D02*
X25310713Y-72686689D01*
X25310713Y-72686689D02*
X25329761Y-72610499D01*
X25329761Y-72610499D02*
X25329761Y-72553356D01*
X25329761Y-72553356D02*
X25310713Y-72477165D01*
X25310713Y-72477165D02*
X25291666Y-72439070D01*
X25291666Y-72439070D02*
X25253571Y-72400975D01*
X25253571Y-72400975D02*
X25196428Y-72381927D01*
X25196428Y-72381927D02*
X25158332Y-72381927D01*
X25158332Y-72381927D02*
X25101190Y-72400975D01*
X25101190Y-72400975D02*
X25082142Y-72420022D01*
X24701190Y-72781927D02*
X24929761Y-72781927D01*
X24815475Y-72781927D02*
X24815475Y-72381927D01*
X24815475Y-72381927D02*
X24853571Y-72439070D01*
X24853571Y-72439070D02*
X24891666Y-72477165D01*
X24891666Y-72477165D02*
X24929761Y-72496213D01*
X24339285Y-72381927D02*
X24529761Y-72381927D01*
X24529761Y-72381927D02*
X24548809Y-72572403D01*
X24548809Y-72572403D02*
X24529761Y-72553356D01*
X24529761Y-72553356D02*
X24491666Y-72534308D01*
X24491666Y-72534308D02*
X24396428Y-72534308D01*
X24396428Y-72534308D02*
X24358333Y-72553356D01*
X24358333Y-72553356D02*
X24339285Y-72572403D01*
X24339285Y-72572403D02*
X24320238Y-72610499D01*
X24320238Y-72610499D02*
X24320238Y-72705737D01*
X24320238Y-72705737D02*
X24339285Y-72743832D01*
X24339285Y-72743832D02*
X24358333Y-72762880D01*
X24358333Y-72762880D02*
X24396428Y-72781927D01*
X24396428Y-72781927D02*
X24491666Y-72781927D01*
X24491666Y-72781927D02*
X24529761Y-72762880D01*
X24529761Y-72762880D02*
X24548809Y-72743832D01*
X25697916Y-52650677D02*
X25831249Y-52460201D01*
X25926487Y-52650677D02*
X25926487Y-52250677D01*
X25926487Y-52250677D02*
X25774106Y-52250677D01*
X25774106Y-52250677D02*
X25736011Y-52269725D01*
X25736011Y-52269725D02*
X25716964Y-52288772D01*
X25716964Y-52288772D02*
X25697916Y-52326868D01*
X25697916Y-52326868D02*
X25697916Y-52384010D01*
X25697916Y-52384010D02*
X25716964Y-52422106D01*
X25716964Y-52422106D02*
X25736011Y-52441153D01*
X25736011Y-52441153D02*
X25774106Y-52460201D01*
X25774106Y-52460201D02*
X25926487Y-52460201D01*
X25336011Y-52250677D02*
X25526487Y-52250677D01*
X25526487Y-52250677D02*
X25545535Y-52441153D01*
X25545535Y-52441153D02*
X25526487Y-52422106D01*
X25526487Y-52422106D02*
X25488392Y-52403058D01*
X25488392Y-52403058D02*
X25393154Y-52403058D01*
X25393154Y-52403058D02*
X25355059Y-52422106D01*
X25355059Y-52422106D02*
X25336011Y-52441153D01*
X25336011Y-52441153D02*
X25316964Y-52479249D01*
X25316964Y-52479249D02*
X25316964Y-52574487D01*
X25316964Y-52574487D02*
X25336011Y-52612582D01*
X25336011Y-52612582D02*
X25355059Y-52631630D01*
X25355059Y-52631630D02*
X25393154Y-52650677D01*
X25393154Y-52650677D02*
X25488392Y-52650677D01*
X25488392Y-52650677D02*
X25526487Y-52631630D01*
X25526487Y-52631630D02*
X25545535Y-52612582D01*
X35066666Y-77381927D02*
X35199999Y-77191451D01*
X35295237Y-77381927D02*
X35295237Y-76981927D01*
X35295237Y-76981927D02*
X35142856Y-76981927D01*
X35142856Y-76981927D02*
X35104761Y-77000975D01*
X35104761Y-77000975D02*
X35085714Y-77020022D01*
X35085714Y-77020022D02*
X35066666Y-77058118D01*
X35066666Y-77058118D02*
X35066666Y-77115260D01*
X35066666Y-77115260D02*
X35085714Y-77153356D01*
X35085714Y-77153356D02*
X35104761Y-77172403D01*
X35104761Y-77172403D02*
X35142856Y-77191451D01*
X35142856Y-77191451D02*
X35295237Y-77191451D01*
X34723809Y-77115260D02*
X34723809Y-77381927D01*
X34819047Y-76962880D02*
X34914285Y-77248594D01*
X34914285Y-77248594D02*
X34666666Y-77248594D01*
D13*
X24269318Y-74782380D02*
X25297413Y-74782380D01*
X25297413Y-74782380D02*
X25418365Y-74842857D01*
X25418365Y-74842857D02*
X25478842Y-74903333D01*
X25478842Y-74903333D02*
X25539318Y-75024285D01*
X25539318Y-75024285D02*
X25539318Y-75266190D01*
X25539318Y-75266190D02*
X25478842Y-75387142D01*
X25478842Y-75387142D02*
X25418365Y-75447619D01*
X25418365Y-75447619D02*
X25297413Y-75508095D01*
X25297413Y-75508095D02*
X24269318Y-75508095D01*
X25539318Y-76778095D02*
X25539318Y-76052380D01*
X25539318Y-76415237D02*
X24269318Y-76415237D01*
X24269318Y-76415237D02*
X24450746Y-76294285D01*
X24450746Y-76294285D02*
X24571699Y-76173333D01*
X24571699Y-76173333D02*
X24632175Y-76052380D01*
D10*
X35066666Y-86881927D02*
X35199999Y-86691451D01*
X35295237Y-86881927D02*
X35295237Y-86481927D01*
X35295237Y-86481927D02*
X35142856Y-86481927D01*
X35142856Y-86481927D02*
X35104761Y-86500975D01*
X35104761Y-86500975D02*
X35085714Y-86520022D01*
X35085714Y-86520022D02*
X35066666Y-86558118D01*
X35066666Y-86558118D02*
X35066666Y-86615260D01*
X35066666Y-86615260D02*
X35085714Y-86653356D01*
X35085714Y-86653356D02*
X35104761Y-86672403D01*
X35104761Y-86672403D02*
X35142856Y-86691451D01*
X35142856Y-86691451D02*
X35295237Y-86691451D01*
X34914285Y-86520022D02*
X34895237Y-86500975D01*
X34895237Y-86500975D02*
X34857142Y-86481927D01*
X34857142Y-86481927D02*
X34761904Y-86481927D01*
X34761904Y-86481927D02*
X34723809Y-86500975D01*
X34723809Y-86500975D02*
X34704761Y-86520022D01*
X34704761Y-86520022D02*
X34685714Y-86558118D01*
X34685714Y-86558118D02*
X34685714Y-86596213D01*
X34685714Y-86596213D02*
X34704761Y-86653356D01*
X34704761Y-86653356D02*
X34933333Y-86881927D01*
X34933333Y-86881927D02*
X34685714Y-86881927D01*
X35066666Y-88743832D02*
X35085714Y-88762880D01*
X35085714Y-88762880D02*
X35142856Y-88781927D01*
X35142856Y-88781927D02*
X35180952Y-88781927D01*
X35180952Y-88781927D02*
X35238095Y-88762880D01*
X35238095Y-88762880D02*
X35276190Y-88724784D01*
X35276190Y-88724784D02*
X35295237Y-88686689D01*
X35295237Y-88686689D02*
X35314285Y-88610499D01*
X35314285Y-88610499D02*
X35314285Y-88553356D01*
X35314285Y-88553356D02*
X35295237Y-88477165D01*
X35295237Y-88477165D02*
X35276190Y-88439070D01*
X35276190Y-88439070D02*
X35238095Y-88400975D01*
X35238095Y-88400975D02*
X35180952Y-88381927D01*
X35180952Y-88381927D02*
X35142856Y-88381927D01*
X35142856Y-88381927D02*
X35085714Y-88400975D01*
X35085714Y-88400975D02*
X35066666Y-88420022D01*
X34914285Y-88420022D02*
X34895237Y-88400975D01*
X34895237Y-88400975D02*
X34857142Y-88381927D01*
X34857142Y-88381927D02*
X34761904Y-88381927D01*
X34761904Y-88381927D02*
X34723809Y-88400975D01*
X34723809Y-88400975D02*
X34704761Y-88420022D01*
X34704761Y-88420022D02*
X34685714Y-88458118D01*
X34685714Y-88458118D02*
X34685714Y-88496213D01*
X34685714Y-88496213D02*
X34704761Y-88553356D01*
X34704761Y-88553356D02*
X34933333Y-88781927D01*
X34933333Y-88781927D02*
X34685714Y-88781927D01*
X24891666Y-70843832D02*
X24910714Y-70862880D01*
X24910714Y-70862880D02*
X24967856Y-70881927D01*
X24967856Y-70881927D02*
X25005952Y-70881927D01*
X25005952Y-70881927D02*
X25063095Y-70862880D01*
X25063095Y-70862880D02*
X25101190Y-70824784D01*
X25101190Y-70824784D02*
X25120237Y-70786689D01*
X25120237Y-70786689D02*
X25139285Y-70710499D01*
X25139285Y-70710499D02*
X25139285Y-70653356D01*
X25139285Y-70653356D02*
X25120237Y-70577165D01*
X25120237Y-70577165D02*
X25101190Y-70539070D01*
X25101190Y-70539070D02*
X25063095Y-70500975D01*
X25063095Y-70500975D02*
X25005952Y-70481927D01*
X25005952Y-70481927D02*
X24967856Y-70481927D01*
X24967856Y-70481927D02*
X24910714Y-70500975D01*
X24910714Y-70500975D02*
X24891666Y-70520022D01*
X24663095Y-70653356D02*
X24701190Y-70634308D01*
X24701190Y-70634308D02*
X24720237Y-70615260D01*
X24720237Y-70615260D02*
X24739285Y-70577165D01*
X24739285Y-70577165D02*
X24739285Y-70558118D01*
X24739285Y-70558118D02*
X24720237Y-70520022D01*
X24720237Y-70520022D02*
X24701190Y-70500975D01*
X24701190Y-70500975D02*
X24663095Y-70481927D01*
X24663095Y-70481927D02*
X24586904Y-70481927D01*
X24586904Y-70481927D02*
X24548809Y-70500975D01*
X24548809Y-70500975D02*
X24529761Y-70520022D01*
X24529761Y-70520022D02*
X24510714Y-70558118D01*
X24510714Y-70558118D02*
X24510714Y-70577165D01*
X24510714Y-70577165D02*
X24529761Y-70615260D01*
X24529761Y-70615260D02*
X24548809Y-70634308D01*
X24548809Y-70634308D02*
X24586904Y-70653356D01*
X24586904Y-70653356D02*
X24663095Y-70653356D01*
X24663095Y-70653356D02*
X24701190Y-70672403D01*
X24701190Y-70672403D02*
X24720237Y-70691451D01*
X24720237Y-70691451D02*
X24739285Y-70729546D01*
X24739285Y-70729546D02*
X24739285Y-70805737D01*
X24739285Y-70805737D02*
X24720237Y-70843832D01*
X24720237Y-70843832D02*
X24701190Y-70862880D01*
X24701190Y-70862880D02*
X24663095Y-70881927D01*
X24663095Y-70881927D02*
X24586904Y-70881927D01*
X24586904Y-70881927D02*
X24548809Y-70862880D01*
X24548809Y-70862880D02*
X24529761Y-70843832D01*
X24529761Y-70843832D02*
X24510714Y-70805737D01*
X24510714Y-70805737D02*
X24510714Y-70729546D01*
X24510714Y-70729546D02*
X24529761Y-70691451D01*
X24529761Y-70691451D02*
X24548809Y-70672403D01*
X24548809Y-70672403D02*
X24586904Y-70653356D01*
X35066666Y-79281927D02*
X35199999Y-79091451D01*
X35295237Y-79281927D02*
X35295237Y-78881927D01*
X35295237Y-78881927D02*
X35142856Y-78881927D01*
X35142856Y-78881927D02*
X35104761Y-78900975D01*
X35104761Y-78900975D02*
X35085714Y-78920022D01*
X35085714Y-78920022D02*
X35066666Y-78958118D01*
X35066666Y-78958118D02*
X35066666Y-79015260D01*
X35066666Y-79015260D02*
X35085714Y-79053356D01*
X35085714Y-79053356D02*
X35104761Y-79072403D01*
X35104761Y-79072403D02*
X35142856Y-79091451D01*
X35142856Y-79091451D02*
X35295237Y-79091451D01*
X34933333Y-78881927D02*
X34685714Y-78881927D01*
X34685714Y-78881927D02*
X34819047Y-79034308D01*
X34819047Y-79034308D02*
X34761904Y-79034308D01*
X34761904Y-79034308D02*
X34723809Y-79053356D01*
X34723809Y-79053356D02*
X34704761Y-79072403D01*
X34704761Y-79072403D02*
X34685714Y-79110499D01*
X34685714Y-79110499D02*
X34685714Y-79205737D01*
X34685714Y-79205737D02*
X34704761Y-79243832D01*
X34704761Y-79243832D02*
X34723809Y-79262880D01*
X34723809Y-79262880D02*
X34761904Y-79281927D01*
X34761904Y-79281927D02*
X34876190Y-79281927D01*
X34876190Y-79281927D02*
X34914285Y-79262880D01*
X34914285Y-79262880D02*
X34933333Y-79243832D01*
D11*
X40454819Y-73391905D02*
X39454819Y-73391905D01*
X39454819Y-73391905D02*
X39454819Y-73772857D01*
X39454819Y-73772857D02*
X39502438Y-73868095D01*
X39502438Y-73868095D02*
X39550057Y-73915714D01*
X39550057Y-73915714D02*
X39645295Y-73963333D01*
X39645295Y-73963333D02*
X39788152Y-73963333D01*
X39788152Y-73963333D02*
X39883390Y-73915714D01*
X39883390Y-73915714D02*
X39931009Y-73868095D01*
X39931009Y-73868095D02*
X39978628Y-73772857D01*
X39978628Y-73772857D02*
X39978628Y-73391905D01*
X39454819Y-74296667D02*
X39454819Y-74915714D01*
X39454819Y-74915714D02*
X39835771Y-74582381D01*
X39835771Y-74582381D02*
X39835771Y-74725238D01*
X39835771Y-74725238D02*
X39883390Y-74820476D01*
X39883390Y-74820476D02*
X39931009Y-74868095D01*
X39931009Y-74868095D02*
X40026247Y-74915714D01*
X40026247Y-74915714D02*
X40264342Y-74915714D01*
X40264342Y-74915714D02*
X40359580Y-74868095D01*
X40359580Y-74868095D02*
X40407200Y-74820476D01*
X40407200Y-74820476D02*
X40454819Y-74725238D01*
X40454819Y-74725238D02*
X40454819Y-74439524D01*
X40454819Y-74439524D02*
X40407200Y-74344286D01*
X40407200Y-74344286D02*
X40359580Y-74296667D01*
D10*
X24972264Y-64623828D02*
X24991312Y-64642876D01*
X24991312Y-64642876D02*
X25048454Y-64661923D01*
X25048454Y-64661923D02*
X25086550Y-64661923D01*
X25086550Y-64661923D02*
X25143693Y-64642876D01*
X25143693Y-64642876D02*
X25181788Y-64604780D01*
X25181788Y-64604780D02*
X25200835Y-64566685D01*
X25200835Y-64566685D02*
X25219883Y-64490495D01*
X25219883Y-64490495D02*
X25219883Y-64433352D01*
X25219883Y-64433352D02*
X25200835Y-64357161D01*
X25200835Y-64357161D02*
X25181788Y-64319066D01*
X25181788Y-64319066D02*
X25143693Y-64280971D01*
X25143693Y-64280971D02*
X25086550Y-64261923D01*
X25086550Y-64261923D02*
X25048454Y-64261923D01*
X25048454Y-64261923D02*
X24991312Y-64280971D01*
X24991312Y-64280971D02*
X24972264Y-64300018D01*
X24591312Y-64661923D02*
X24819883Y-64661923D01*
X24705597Y-64661923D02*
X24705597Y-64261923D01*
X24705597Y-64261923D02*
X24743693Y-64319066D01*
X24743693Y-64319066D02*
X24781788Y-64357161D01*
X24781788Y-64357161D02*
X24819883Y-64376209D01*
X24343693Y-64261923D02*
X24305598Y-64261923D01*
X24305598Y-64261923D02*
X24267502Y-64280971D01*
X24267502Y-64280971D02*
X24248455Y-64300018D01*
X24248455Y-64300018D02*
X24229407Y-64338114D01*
X24229407Y-64338114D02*
X24210360Y-64414304D01*
X24210360Y-64414304D02*
X24210360Y-64509542D01*
X24210360Y-64509542D02*
X24229407Y-64585733D01*
X24229407Y-64585733D02*
X24248455Y-64623828D01*
X24248455Y-64623828D02*
X24267502Y-64642876D01*
X24267502Y-64642876D02*
X24305598Y-64661923D01*
X24305598Y-64661923D02*
X24343693Y-64661923D01*
X24343693Y-64661923D02*
X24381788Y-64642876D01*
X24381788Y-64642876D02*
X24400836Y-64623828D01*
X24400836Y-64623828D02*
X24419883Y-64585733D01*
X24419883Y-64585733D02*
X24438931Y-64509542D01*
X24438931Y-64509542D02*
X24438931Y-64414304D01*
X24438931Y-64414304D02*
X24419883Y-64338114D01*
X24419883Y-64338114D02*
X24400836Y-64300018D01*
X24400836Y-64300018D02*
X24381788Y-64280971D01*
X24381788Y-64280971D02*
X24343693Y-64261923D01*
X29966666Y-52612582D02*
X29985714Y-52631630D01*
X29985714Y-52631630D02*
X30042856Y-52650677D01*
X30042856Y-52650677D02*
X30080952Y-52650677D01*
X30080952Y-52650677D02*
X30138095Y-52631630D01*
X30138095Y-52631630D02*
X30176190Y-52593534D01*
X30176190Y-52593534D02*
X30195237Y-52555439D01*
X30195237Y-52555439D02*
X30214285Y-52479249D01*
X30214285Y-52479249D02*
X30214285Y-52422106D01*
X30214285Y-52422106D02*
X30195237Y-52345915D01*
X30195237Y-52345915D02*
X30176190Y-52307820D01*
X30176190Y-52307820D02*
X30138095Y-52269725D01*
X30138095Y-52269725D02*
X30080952Y-52250677D01*
X30080952Y-52250677D02*
X30042856Y-52250677D01*
X30042856Y-52250677D02*
X29985714Y-52269725D01*
X29985714Y-52269725D02*
X29966666Y-52288772D01*
X29585714Y-52650677D02*
X29814285Y-52650677D01*
X29699999Y-52650677D02*
X29699999Y-52250677D01*
X29699999Y-52250677D02*
X29738095Y-52307820D01*
X29738095Y-52307820D02*
X29776190Y-52345915D01*
X29776190Y-52345915D02*
X29814285Y-52364963D01*
D14*
%TO.C,R10*%
X34200000Y-84387500D02*
X34200000Y-85212500D01*
X34200000Y-85212500D02*
X35800000Y-85212500D01*
X35800000Y-84387500D02*
X34200000Y-84387500D01*
X35800000Y-85212500D02*
X35800000Y-84387500D01*
%TO.C,R9*%
X34200000Y-80587500D02*
X34200000Y-81412500D01*
X34200000Y-81412500D02*
X35800000Y-81412500D01*
X35800000Y-80587500D02*
X34200000Y-80587500D01*
X35800000Y-81412500D02*
X35800000Y-80587500D01*
%TO.C,R11*%
X34200000Y-82487500D02*
X34200000Y-83312500D01*
X34200000Y-83312500D02*
X35800000Y-83312500D01*
X35800000Y-82487500D02*
X34200000Y-82487500D01*
X35800000Y-83312500D02*
X35800000Y-82487500D01*
%TO.C,P4*%
X18730000Y-48730000D02*
X18730000Y-99530000D01*
X18730000Y-99530000D02*
X21270000Y-99530000D01*
X20635000Y-48730000D02*
X18730000Y-48730000D01*
X21270000Y-49365000D02*
X20635000Y-48730000D01*
X21270000Y-99530000D02*
X21270000Y-49365000D01*
%TO.C,C5*%
X24175000Y-81075000D02*
X24175000Y-82325000D01*
X24175000Y-82325000D02*
X26175000Y-82325000D01*
X26175000Y-81075000D02*
X24175000Y-81075000D01*
X26175000Y-82325000D02*
X26175000Y-81075000D01*
%TO.C,C4*%
X23975000Y-62200000D02*
X23975000Y-63000000D01*
X23975000Y-63000000D02*
X25575000Y-63000000D01*
X25575000Y-62200000D02*
X23975000Y-62200000D01*
X25575000Y-63000000D02*
X25575000Y-62200000D01*
%TO.C,R1*%
X33600000Y-51987500D02*
X33600000Y-52812500D01*
X33600000Y-52812500D02*
X35200000Y-52812500D01*
X35200000Y-51987500D02*
X33600000Y-51987500D01*
X35200000Y-52812500D02*
X35200000Y-51987500D01*
%TO.C,C7*%
X24165000Y-79150000D02*
X24165000Y-79950000D01*
X24165000Y-79950000D02*
X25765000Y-79950000D01*
X25765000Y-79150000D02*
X24165000Y-79150000D01*
X25765000Y-79950000D02*
X25765000Y-79150000D01*
%TO.C,C6*%
X23825000Y-67975000D02*
X23825000Y-69225000D01*
X23825000Y-69225000D02*
X25825000Y-69225000D01*
X25825000Y-67975000D02*
X23825000Y-67975000D01*
X25825000Y-69225000D02*
X25825000Y-67975000D01*
%TO.C,R6*%
X34300000Y-70987500D02*
X34300000Y-71812500D01*
X34300000Y-71812500D02*
X35900000Y-71812500D01*
X35900000Y-70987500D02*
X34300000Y-70987500D01*
X35900000Y-71812500D02*
X35900000Y-70987500D01*
%TO.C,C14*%
X35600000Y-73400000D02*
X35600000Y-75000000D01*
X35600000Y-75000000D02*
X36400000Y-75000000D01*
X36400000Y-73400000D02*
X35600000Y-73400000D01*
X36400000Y-75000000D02*
X36400000Y-73400000D01*
%TO.C,C12*%
X34200000Y-69100000D02*
X34200000Y-69900000D01*
X34200000Y-69900000D02*
X35800000Y-69900000D01*
X35800000Y-69100000D02*
X34200000Y-69100000D01*
X35800000Y-69900000D02*
X35800000Y-69100000D01*
%TO.C,C13*%
X33700000Y-73400000D02*
X33700000Y-75000000D01*
X33700000Y-75000000D02*
X34500000Y-75000000D01*
X34500000Y-73400000D02*
X33700000Y-73400000D01*
X34500000Y-75000000D02*
X34500000Y-73400000D01*
%TO.C,C3*%
X23975000Y-60300000D02*
X23975000Y-61100000D01*
X23975000Y-61100000D02*
X25575000Y-61100000D01*
X25575000Y-60300000D02*
X23975000Y-60300000D01*
X25575000Y-61100000D02*
X25575000Y-60300000D01*
%TO.C,C11*%
X23915122Y-66000000D02*
X23915122Y-66800000D01*
X23915122Y-66800000D02*
X25515122Y-66800000D01*
X25515122Y-66000000D02*
X23915122Y-66000000D01*
X25515122Y-66800000D02*
X25515122Y-66000000D01*
%TO.C,C9*%
X34200000Y-67200000D02*
X34200000Y-68000000D01*
X34200000Y-68000000D02*
X35800000Y-68000000D01*
X35800000Y-67200000D02*
X34200000Y-67200000D01*
X35800000Y-68000000D02*
X35800000Y-67200000D01*
%TO.C,C15*%
X24025000Y-72200000D02*
X24025000Y-73000000D01*
X24025000Y-73000000D02*
X25625000Y-73000000D01*
X25625000Y-72200000D02*
X24025000Y-72200000D01*
X25625000Y-73000000D02*
X25625000Y-72200000D01*
%TO.C,R5*%
X24831250Y-52056250D02*
X24831250Y-52881250D01*
X24831250Y-52881250D02*
X26431250Y-52881250D01*
X26431250Y-52056250D02*
X24831250Y-52056250D01*
X26431250Y-52881250D02*
X26431250Y-52056250D01*
%TO.C,R4*%
X34200000Y-76787500D02*
X34200000Y-77612500D01*
X34200000Y-77612500D02*
X35800000Y-77612500D01*
X35800000Y-76787500D02*
X34200000Y-76787500D01*
X35800000Y-77612500D02*
X35800000Y-76787500D01*
%TO.C,U1*%
X23517000Y-74950000D02*
X23517000Y-76550000D01*
X23517000Y-76550000D02*
X26413000Y-76550000D01*
X25473000Y-76550000D02*
X26413000Y-75610000D01*
X26413000Y-74950000D02*
X23517000Y-74950000D01*
X26413000Y-76550000D02*
X26413000Y-74950000D01*
%TO.C,R2*%
X34200000Y-86287500D02*
X34200000Y-87112500D01*
X34200000Y-87112500D02*
X35800000Y-87112500D01*
X35800000Y-86287500D02*
X34200000Y-86287500D01*
X35800000Y-87112500D02*
X35800000Y-86287500D01*
%TO.C,C2*%
X34200000Y-88200000D02*
X34200000Y-89000000D01*
X34200000Y-89000000D02*
X35800000Y-89000000D01*
X35800000Y-88200000D02*
X34200000Y-88200000D01*
X35800000Y-89000000D02*
X35800000Y-88200000D01*
%TO.C,C8*%
X24025000Y-70300000D02*
X24025000Y-71100000D01*
X24025000Y-71100000D02*
X25625000Y-71100000D01*
X25625000Y-70300000D02*
X24025000Y-70300000D01*
X25625000Y-71100000D02*
X25625000Y-70300000D01*
%TO.C,R3*%
X34200000Y-78687500D02*
X34200000Y-79512500D01*
X34200000Y-79512500D02*
X35800000Y-79512500D01*
X35800000Y-78687500D02*
X34200000Y-78687500D01*
X35800000Y-79512500D02*
X35800000Y-78687500D01*
%TO.C,P3*%
X38730000Y-48730000D02*
X38730000Y-99530000D01*
X38730000Y-99530000D02*
X41270000Y-99530000D01*
X40635000Y-48730000D02*
X38730000Y-48730000D01*
X41270000Y-49365000D02*
X40635000Y-48730000D01*
X41270000Y-99530000D02*
X41270000Y-49365000D01*
%TO.C,C10*%
X23915122Y-64079996D02*
X23915122Y-64879996D01*
X23915122Y-64879996D02*
X25515122Y-64879996D01*
X25515122Y-64079996D02*
X23915122Y-64079996D01*
X25515122Y-64879996D02*
X25515122Y-64079996D01*
%TO.C,C1*%
X29100000Y-52068750D02*
X29100000Y-52868750D01*
X29100000Y-52868750D02*
X30700000Y-52868750D01*
X30700000Y-52068750D02*
X29100000Y-52068750D01*
X30700000Y-52868750D02*
X30700000Y-52068750D01*
%TD*%
M02*
